<?xml version="1.0" encoding="utf-8"?>
<!-- Generated by IcoMoon.io -->
<!DOCTYPE svg PUBLIC "-//W3C//DTD SVG 1.1//EN" "http://www.w3.org/Graphics/SVG/1.1/DTD/svg11.dtd">
<svg version="1.1" xmlns="http://www.w3.org/2000/svg" xmlns:xlink="http://www.w3.org/1999/xlink" width="40" height="32" viewBox="0 0 40 32">
<path d="M6.022 6.924c-1.236 3.939-2.25 7.249-2.254 7.355l-0.014 0.199h3.592l0.435-1.703 0.44-1.699 2.083-0.014 2.078-0.009 0.879 3.425h3.722l-0.005-0.153c-0.005-0.079-0.991-3.305-2.194-7.161s-2.213-7.101-2.245-7.212l-0.056-0.194h-4.221l-2.24 7.165zM11.493 7.614l0.162 0.616h-1.338c-0.736 0-1.338-0.019-1.338-0.037 0-0.023 0.134-0.537 0.296-1.148 0.282-1.055 0.528-2.064 0.866-3.527l0.153-0.657 0.518 2.069c0.287 1.143 0.592 2.351 0.68 2.685zM18.33 7.118v7.36h3.518v-4.897l1.541-0.023c1.68-0.019 1.977-0.056 2.81-0.319 1.842-0.583 2.995-1.884 3.263-3.68 0.088-0.583 0.088-1.463 0-2.055-0.282-1.884-1.463-3.092-3.448-3.532-0.898-0.194-1.259-0.213-4.559-0.213h-3.124v7.36zM24.398 2.703c0.523 0.097 1 0.329 1.241 0.602 0.593 0.671 0.546 1.986-0.097 2.685-0.255 0.278-0.458 0.407-0.903 0.56-0.352 0.125-0.393 0.125-1.574 0.143l-1.217 0.019v-4.083h1.083c0.787 0 1.19 0.019 1.467 0.074zM31.754 7.118v7.36h3.564v-14.72h-3.564v7.36zM18.955 16.584c-1.125 0.157-2.185 0.593-3.018 1.231-0.134 0.106-0.417 0.37-0.62 0.588-1.273 1.342-1.893 3.203-1.893 5.68 0 2.106 0.417 3.68 1.333 5.050 1.176 1.754 3.004 2.657 5.379 2.657 1.287 0 2.226-0.218 3.24-0.745 1.713-0.893 2.884-2.629 3.286-4.879 0.278-1.523 0.204-3.578-0.171-4.883-0.778-2.722-2.55-4.319-5.207-4.698-0.574-0.083-1.75-0.083-2.328 0zM20.723 19.686c1.287 0.305 2.171 1.527 2.421 3.356 0.028 0.213 0.051 0.713 0.051 1.106-0.005 1.652-0.421 2.916-1.231 3.731-0.551 0.555-1.129 0.81-1.833 0.81-1.68-0.005-2.819-1.467-3.055-3.916-0.116-1.245 0.074-2.463 0.546-3.439 0.218-0.458 0.301-0.574 0.63-0.907 0.403-0.403 0.745-0.606 1.236-0.736 0.333-0.088 0.875-0.088 1.236-0.005zM34.531 16.584c-2.453 0.37-4.249 1.768-5.263 4.096-0.25 0.565-0.407 1.125-0.532 1.852-0.134 0.782-0.143 2.527-0.023 3.333 0.153 0.991 0.352 1.615 0.759 2.416 0.343 0.676 0.727 1.203 1.236 1.69 1.041 1.009 2.328 1.588 3.925 1.773 0.611 0.074 1.815 0.037 2.305-0.069 1.19-0.259 2.134-0.773 2.999-1.629 0.296-0.296 0.38-0.407 0.38-0.509s-0.181-0.324-0.889-1.102c-0.829-0.912-0.893-0.972-1.051-0.977-0.143-0.005-0.208 0.032-0.444 0.25-1.102 1.018-2.449 1.259-3.68 0.653-0.727-0.361-1.356-1.134-1.671-2.046-0.213-0.634-0.278-1.023-0.306-1.889-0.032-0.949 0.037-1.495 0.282-2.217 0.518-1.56 1.777-2.592 3.152-2.592 0.736 0 1.254 0.231 2.217 0.981 0.093 0.074 0.139 0.088 0.153 0.051 0.014-0.046 0.046-0.046 0.116-0.009 0.051 0.028 0.097 0.042 0.102 0.032 0.023-0.032 1.532-1.736 1.662-1.875 0.111-0.12 0.13-0.162 0.083-0.218-0.037-0.046-0.042-0.074-0.005-0.097 0.088-0.056 0.046-0.111-0.333-0.43-1-0.838-2.041-1.328-3.161-1.491-0.44-0.060-1.532-0.051-2.014 0.023zM0 24.152v7.36h2.652c2.726 0 3.092-0.023 3.962-0.208 1.199-0.255 2.296-0.833 3.101-1.639 0.861-0.861 1.449-2.023 1.717-3.416 0.292-1.514 0.222-3.657-0.162-4.985-0.63-2.176-2.069-3.573-4.286-4.161-1.051-0.278-1.486-0.31-4.402-0.31h-2.583v7.36zM5.379 19.862c1.166 0.305 1.907 1 2.301 2.157 0.44 1.291 0.398 3.212-0.093 4.416-0.199 0.495-0.407 0.815-0.759 1.166-0.667 0.667-1.407 0.935-2.787 1.018l-0.523 0.032v-8.957l0.708 0.028c0.546 0.019 0.805 0.051 1.153 0.139z"></path>
</svg>
