<?xml version="1.0" encoding="utf-8"?>
<!-- Generated by IcoMoon.io -->
<!DOCTYPE svg PUBLIC "-//W3C//DTD SVG 1.1//EN" "http://www.w3.org/Graphics/SVG/1.1/DTD/svg11.dtd">
<svg version="1.1" xmlns="http://www.w3.org/2000/svg" xmlns:xlink="http://www.w3.org/1999/xlink" width="32" height="32" viewBox="0 0 32 32">
<path d="M9.545 19.138l-2.851 1.217 2.627 1.153 3.075-1.153-2.851-1.217zM5.253 20.675l-0.096 5.509 4.164 1.858v-5.734l-4.068-1.634zM13.838 20.675l-3.78 1.441v5.381l3.78-1.505v-5.317zM18.322 3.506l-2.883 1.249 2.659 1.121 3.075-1.121-2.851-1.249zM14.35 5.14v5.509l3.555 1.057 0.096-5.029-3.652-1.537zM22.294 5.46l-3.363 1.441v5.413l3.363-1.537v-5.317zM4.837 11.29l-2.851 1.217 2.627 1.121 3.075-1.121-2.851-1.217zM0.545 12.827l-0.096 5.509 4.164 1.826v-5.734l-4.068-1.602zM9.129 12.827l-3.78 1.409v5.413l3.78-1.538v-5.285zM14.030 11.066l-2.851 1.249 2.627 1.121 3.075-1.121-2.851-1.249zM9.738 12.603l-0.096 5.509 4.164 1.858v-5.734l-4.068-1.634zM18.322 12.603l-3.78 1.441v5.413l3.78-1.538v-5.317zM27.291 3.506l-2.851 1.249 2.659 1.121 3.043-1.121-2.851-1.249zM22.998 5.044l-0.096 5.509 4.196 1.858v-5.734l-4.1-1.634zM31.583 5.044l-3.78 1.441v5.413l3.78-1.537v-5.317z"></path>
</svg>
