<?xml version="1.0" encoding="utf-8"?>
<!-- Generated by IcoMoon.io -->
<!DOCTYPE svg PUBLIC "-//W3C//DTD SVG 1.1//EN" "http://www.w3.org/Graphics/SVG/1.1/DTD/svg11.dtd">
<svg version="1.1" xmlns="http://www.w3.org/2000/svg" xmlns:xlink="http://www.w3.org/1999/xlink" width="32" height="32" viewBox="0 0 32 32">
<path d="M0 0.527h32.031v27.098h-32.031v-27.098zM29.565 25.16v-19.699h-27.098v19.699h27.098zM14.254 8.407l-0.929 3.555h1.954l0.897-3.555h2.114l-0.929 3.555h1.858v2.050h-2.338l-0.705 2.787h1.954v2.050h-2.466l-0.897 3.555h-2.114l0.897-3.555h-1.954l-0.897 3.555h-2.114l0.897-3.555h-1.954v-2.050h2.466l0.705-2.787h-2.082v-2.050h2.627l0.897-3.555h2.114zM14.766 14.013h-1.954l-0.705 2.787h1.954l0.705-2.787zM20.788 19.714h2.53v2.691h-2.53v-2.691zM20.788 8.183h2.53v6.246l-0.32 3.395h-1.89l-0.32-3.395v-6.246z"></path>
</svg>
