<?xml version="1.0" standalone="no"?>
<!DOCTYPE svg PUBLIC "-//W3C//DTD SVG 20010904//EN"
 "http://www.w3.org/TR/2001/REC-SVG-20010904/DTD/svg10.dtd">
<svg version="1.0" xmlns="http://www.w3.org/2000/svg"
 width="410.000000pt" height="158.000000pt" viewBox="0 0 410.000000 158.000000"
 preserveAspectRatio="xMidYMid meet">
<metadata>
Created by potrace 1.13, written by Peter Selinger 2001-2015
</metadata>
<g transform="translate(0.000000,158.000000) scale(0.100000,-0.100000)">
<path d="M3887 1514 c-85 -44 -332 -141 -506 -198 -247 -82 -570 -159 -754
-181 l-58 -7 3 -36 c3 -35 3 -35 158 -107 86 -40 197 -89 247 -109 l92 -37
118 27 c234 52 538 163 690 252 83 49 98 64 113 122 22 82 -6 292 -40 297 -8
1 -37 -9 -63 -23z"/>
<path d="M66 1331 c-27 -52 -41 -172 -28 -242 6 -34 18 -71 26 -83 33 -51 362
-125 806 -181 l195 -25 302 153 302 152 -217 22 c-369 36 -747 97 -1112 180
-279 63 -256 61 -274 24z"/>
<path d="M2206 1318 c-3 -7 -7 -127 -11 -266 -3 -140 -10 -313 -15 -385 -5
-73 -6 -134 -4 -137 9 -8 168 51 249 93 l80 42 12 80 c7 44 15 145 19 225 8
170 17 152 -121 243 -122 80 -204 121 -209 105z"/>
<path d="M1842 1257 c-78 -33 -142 -63 -142 -67 0 -8 451 -252 457 -247 2 3 7
67 10 143 l6 139 -95 46 -94 47 -142 -61z"/>
<path d="M1465 966 c-339 -169 -934 -498 -1203 -666 l-43 -27 88 -93 c48 -51
105 -106 127 -121 l38 -28 62 31 c33 17 216 124 406 238 370 222 548 320 923
507 130 65 237 120 237 123 -1 6 -314 174 -333 178 -7 1 -143 -63 -302 -142z"/>
<path d="M2566 925 c-3 -52 -9 -114 -12 -138 l-6 -42 53 -23 c30 -13 221 -93
424 -179 491 -206 562 -242 739 -376 71 -54 80 -58 102 -47 38 21 161 138 185
177 l23 36 -39 34 c-78 67 -553 290 -860 402 -213 78 -287 108 -448 183 -81
37 -149 68 -151 68 -2 0 -6 -43 -10 -95z"/>
<path d="M1927 804 c-114 -57 -205 -109 -202 -114 8 -12 165 -107 207 -124 33
-14 35 -13 125 42 l91 56 7 112 c7 105 4 135 -13 133 -4 0 -101 -47 -215 -105z"/>
</g>
</svg>
