<?xml version="1.0" encoding="utf-8"?>
<!-- Generated by IcoMoon.io -->
<!DOCTYPE svg PUBLIC "-//W3C//DTD SVG 1.1//EN" "http://www.w3.org/Graphics/SVG/1.1/DTD/svg11.dtd">
<svg version="1.1" xmlns="http://www.w3.org/2000/svg" xmlns:xlink="http://www.w3.org/1999/xlink" width="32" height="32" viewBox="0 0 32 32">
<path d="M16.016 0.015v0c-7.495 0-13.645 2.018-13.645 4.516 0 0.673 1.634 10.154 2.274 13.902 0.288 1.698 4.645 4.164 11.371 4.164v0c6.759 0 11.083-2.466 11.371-4.164 0.641-3.748 2.274-13.229 2.274-13.902 0-2.498-6.15-4.516-13.645-4.516zM16.016 19.554c-2.402 0-4.324-1.954-4.324-4.356s1.922-4.324 4.324-4.324 4.356 1.922 4.356 4.324c0 2.402-1.954 4.356-4.356 4.356zM16.016 5.941c-4.837 0-8.745-0.833-8.745-1.858 0-1.057 3.908-1.858 8.745-1.858s8.745 0.833 8.745 1.858c0 1.025-3.908 1.858-8.745 1.858zM25.817 22.213c-0.192 0-0.352 0.128-0.352 0.128s-3.363 2.659-9.449 2.659-9.449-2.659-9.449-2.659-0.16-0.128-0.352-0.128c-0.256 0-0.48 0.16-0.48 0.512 0 0.064 0 0.096 0 0.128 0.513 2.787 0.897 4.773 0.961 5.093 0.448 2.050 4.484 3.587 9.321 3.587v0c4.837 0 8.873-1.538 9.321-3.587 0.064-0.32 0.448-2.306 0.961-5.093 0-0.032 0-0.064 0-0.128 0-0.352-0.224-0.512-0.48-0.512zM18.194 15.198c0 1.217-0.993 2.178-2.178 2.178s-2.178-0.961-2.178-2.178c0-1.185 0.961-2.178 2.178-2.178s2.178 0.993 2.178 2.178z"></path>
</svg>
