<?xml version="1.0" encoding="utf-8"?>
<!-- Generated by IcoMoon.io -->
<!DOCTYPE svg PUBLIC "-//W3C//DTD SVG 1.1//EN" "http://www.w3.org/Graphics/SVG/1.1/DTD/svg11.dtd">
<svg version="1.1" xmlns="http://www.w3.org/2000/svg" xmlns:xlink="http://www.w3.org/1999/xlink" width="32" height="32" viewBox="0 0 32 32">
<path d="M18.93 16.159c-0.577-0.192-1.409-0.128-2.498-0.128h-4.42v5.734h4.709c0.737 0 1.249-0.064 1.57-0.128 0.512-0.096 0.961-0.256 1.313-0.48s0.641-0.545 0.865-0.993c0.224-0.416 0.352-0.897 0.352-1.441 0-0.641-0.16-1.153-0.512-1.602-0.32-0.48-0.769-0.769-1.377-0.961zM18.354 13.532c0.577-0.16 0.993-0.448 1.281-0.865 0.32-0.384 0.448-0.897 0.448-1.505 0-0.577-0.128-1.089-0.416-1.505s-0.641-0.609-1.153-0.769c-0.512-0.16-1.409-0.128-2.627-0.128h-3.876v4.997h4.164c0.993 0 1.73-0.096 2.178-0.224zM31.519 4.403c0-2.274-1.858-4.132-4.132-4.132h-22.966c-2.306 0-4.164 1.858-4.164 4.132v22.966c0 2.306 1.858 4.164 4.164 4.164h22.966c2.274 0 4.132-1.858 4.132-4.164v-22.966zM22.646 20.963c-0.32 0.705-0.737 1.217-1.249 1.602s-1.121 0.705-1.89 0.897c-0.769 0.192-1.666 0.32-2.787 0.32h-6.951v-17.265h6.855c1.313 0 2.37 0.16 3.171 0.513 0.801 0.32 1.409 0.865 1.858 1.57 0.448 0.737 0.673 1.505 0.673 2.274 0 0.737-0.192 1.441-0.577 2.082-0.416 0.673-1.025 1.185-1.826 1.57 1.057 0.32 1.858 0.833 2.402 1.57 0.577 0.737 0.833 1.602 0.833 2.627 0 0.801-0.16 1.538-0.512 2.242z"></path>
</svg>
