<?xml version="1.0" encoding="utf-8"?>
<!-- Generated by IcoMoon.io -->
<!DOCTYPE svg PUBLIC "-//W3C//DTD SVG 1.1//EN" "http://www.w3.org/Graphics/SVG/1.1/DTD/svg11.dtd">
<svg version="1.1" xmlns="http://www.w3.org/2000/svg" xmlns:xlink="http://www.w3.org/1999/xlink" width="32" height="32" viewBox="0 0 32 32">
<path d="M29.405 8.151l0.064-0.064c-0.128-0.256-0.352-0.513-0.577-0.641l-12.108-6.951c-0.192-0.128-0.48-0.192-0.769-0.192s-0.577 0.064-0.769 0.192l-12.012 6.983c-0.416 0.224-0.737 0.865-0.737 1.345v13.934c0 0.288 0.064 0.577 0.224 0.833l-0.032 0.032c0.128 0.224 0.288 0.384 0.448 0.48l12.076 6.983c0.192 0.128 0.48 0.192 0.769 0.192s0.577-0.096 0.769-0.192l12.012-6.983c0.448-0.256 0.737-0.865 0.737-1.345v-13.966c0.032-0.192 0-0.416-0.096-0.641zM20.532 16.287v-1.025h1.249v-1.249h1.249v1.249h1.249v1.025h-1.249v1.249h-1.249v-1.249h-1.249zM21.333 12.763c-1.025-1.858-3.043-3.107-5.317-3.107-3.363 0-6.118 2.723-6.118 6.118s2.755 6.118 6.118 6.118c2.274 0 4.292-1.249 5.317-3.107l3.235 1.922c-1.698 2.947-4.901 4.965-8.552 4.965-5.445 0-9.898-4.452-9.898-9.898s4.452-9.898 9.898-9.898c3.684 0 6.887 2.050 8.584 5.029l-3.267 1.858zM28.764 16.287h-1.249v1.249h-0.993v-1.249h-1.505v-1.025h1.505v-1.249h0.993v1.249h1.249v1.025z"></path>
</svg>
