<?xml version="1.0" encoding="utf-8"?>
<!-- Generated by IcoMoon.io -->
<!DOCTYPE svg PUBLIC "-//W3C//DTD SVG 1.1//EN" "http://www.w3.org/Graphics/SVG/1.1/DTD/svg11.dtd">
<svg version="1.1" xmlns="http://www.w3.org/2000/svg" xmlns:xlink="http://www.w3.org/1999/xlink" width="33" height="32" viewBox="0 0 33 32">
<path d="M30.427 31.707h-5.42l0.38-4.564h-2.662l-0.38 4.564h-11.22l-0.38-4.564h-2.662l0.38 4.564h-5.42l-3.043-19.777 7.607-12.171h18.256l7.607 12.171-3.043 19.777zM24.341 5.844h-4.89l0.326 2.282h-6.085l0.326-2.282h-4.89l-3.043 6.085 1.521 12.171h18.256l1.521-12.171-3.043-6.085zM21.679 20.061c-0.42 0-0.761-1.267-0.761-2.83s0.341-2.83 0.761-2.83c0.42 0 0.761 1.267 0.761 2.83s-0.341 2.83-0.761 2.83zM12.076 20.297c-0.42 0-0.761-1.267-0.761-2.83s0.341-2.83 0.761-2.83c0.42 0 0.761 1.267 0.761 2.83s-0.341 2.83-0.761 2.83z"></path>
</svg>
