<?xml version="1.0" encoding="utf-8"?>
<!-- Generated by IcoMoon.io -->
<!DOCTYPE svg PUBLIC "-//W3C//DTD SVG 1.1//EN" "http://www.w3.org/Graphics/SVG/1.1/DTD/svg11.dtd">
<svg version="1.1" xmlns="http://www.w3.org/2000/svg" xmlns:xlink="http://www.w3.org/1999/xlink" width="32" height="32" viewBox="0 0 32 32">
<path d="M16.016-0.241c-8.83 0-16.016 7.161-16.016 16.016 0 8.83 7.161 16.016 16.016 16.016 8.83 0 16.016-7.161 16.016-16.016s-7.185-16.016-16.016-16.016v0zM26.83 18.581c0 0.968-0.556 1.814-1.645 2.008-1.887 0.339-5.855 0.532-9.169 0.532s-7.282-0.194-9.169-0.532c-1.089-0.194-1.645-1.040-1.645-2.008v-6.242c0-0.968 0.75-1.863 1.645-2.008 0.556-0.097 1.863-0.194 2.879-0.194 0.387 0 0.702 0.29 0.702 0.75v4.379l5.613-0.121 5.613 0.121v-4.379c0-0.46 0.314-0.75 0.702-0.75 1.016 0 2.323 0.097 2.879 0.194 0.919 0.145 1.645 1.040 1.645 2.008-0.048 2.056-0.048 4.161-0.048 6.242v0z"></path>
</svg>
