<?xml version="1.0" encoding="utf-8"?>
<!-- Generated by IcoMoon.io -->
<!DOCTYPE svg PUBLIC "-//W3C//DTD SVG 1.1//EN" "http://www.w3.org/Graphics/SVG/1.1/DTD/svg11.dtd">
<svg version="1.1" xmlns="http://www.w3.org/2000/svg" xmlns:xlink="http://www.w3.org/1999/xlink" width="30" height="32" viewBox="0 0 30 32">
<path d="M22.87 23.782q0-0.48-0.32-0.801t-0.801-0.352-0.833 0.352-0.32 0.801 0.32 0.801 0.833 0.352 0.801-0.352 0.32-0.801zM27.451 23.782q0-0.48-0.32-0.801t-0.833-0.352-0.801 0.352-0.32 0.801 0.32 0.801 0.801 0.352 0.833-0.352 0.32-0.801zM29.757 19.778v5.734q0 0.705-0.512 1.185t-1.217 0.512h-26.298q-0.737 0-1.217-0.512t-0.512-1.185v-5.734q0-0.705 0.512-1.217t1.217-0.512h8.296l2.402 2.434q1.057 1.025 2.434 1.025t2.434-1.025l2.434-2.434h8.296q0.705 0 1.217 0.512t0.512 1.217zM23.927 9.592q0.32 0.737-0.256 1.281l-8.008 8.008q-0.32 0.32-0.801 0.32t-0.801-0.32l-8.008-8.008q-0.545-0.545-0.256-1.281 0.32-0.673 1.057-0.673h4.58v-8.008q0-0.48 0.352-0.801t0.801-0.352h4.58q0.448 0 0.801 0.352t0.32 0.801v8.008h4.58q0.769 0 1.057 0.673z"></path>
</svg>
