<?xml version="1.0" encoding="utf-8"?>
<!-- Generated by IcoMoon.io -->
<!DOCTYPE svg PUBLIC "-//W3C//DTD SVG 1.1//EN" "http://www.w3.org/Graphics/SVG/1.1/DTD/svg11.dtd">
<svg version="1.1" xmlns="http://www.w3.org/2000/svg" xmlns:xlink="http://www.w3.org/1999/xlink" width="32" height="32" viewBox="0 0 32 32">
<path d="M12.523 13.568l7.137 3.268 7.216-6.327c0.105-0.523 0.157-1.046 0.157-1.595 0-4.444-3.608-8.052-8.052-8.052-2.667 0-5.15 1.307-6.641 3.503l-1.203 6.222 1.386 2.98zM5.124 21.123c-0.105 0.523-0.157 1.072-0.157 1.621 0 4.444 3.634 8.078 8.078 8.078 2.693 0 5.176-1.333 6.693-3.529l1.176-6.222-1.595-3.033-7.163-3.268-7.033 6.353zM5.072 8.757l4.889 1.15 1.098-5.569c-0.68-0.523-1.49-0.784-2.353-0.784-2.118 0-3.869 1.725-3.869 3.869 0 0.444 0.078 0.915 0.235 1.333v0zM4.654 9.934c-2.196 0.706-3.712 2.824-3.712 5.124 0 2.248 1.386 4.261 3.477 5.046l6.876-6.222-1.255-2.693-5.386-1.255zM20.993 27.267c0.68 0.523 1.49 0.81 2.327 0.81 2.118 0 3.869-1.726 3.869-3.869 0-0.471-0.078-0.915-0.235-1.333l-4.889-1.15-1.072 5.542zM21.987 20.444l5.386 1.255c2.196-0.732 3.712-2.824 3.712-5.124 0-2.248-1.386-4.235-3.477-5.046l-7.059 6.17 1.438 2.745z"></path>
</svg>
