<?xml version="1.0" encoding="utf-8"?>
<!-- Generated by IcoMoon.io -->
<!DOCTYPE svg PUBLIC "-//W3C//DTD SVG 1.1//EN" "http://www.w3.org/Graphics/SVG/1.1/DTD/svg11.dtd">
<svg version="1.1" xmlns="http://www.w3.org/2000/svg" xmlns:xlink="http://www.w3.org/1999/xlink" width="32" height="32" viewBox="0 0 32 32">
<path d="M32.031 12.443v14.19q0 1.185-0.833 2.018t-2.018 0.865h-26.33q-1.153 0-2.018-0.865t-0.833-2.018v-14.19q0.801 0.897 1.794 1.57 6.47 4.388 8.905 6.15 1.025 0.769 1.634 1.185t1.698 0.865 1.954 0.416h0.064q0.897 0 1.954-0.416t1.698-0.865 1.634-1.185q3.043-2.178 8.905-6.15 1.025-0.705 1.794-1.57zM32.031 7.19q0 1.409-0.865 2.691t-2.178 2.21q-6.727 4.677-8.392 5.798-0.16 0.128-0.737 0.545t-0.961 0.705-0.929 0.577-1.057 0.48-0.865 0.16h-0.064q-0.384 0-0.865-0.16t-1.057-0.48-0.929-0.577-0.961-0.705-0.737-0.545q-1.634-1.121-4.709-3.235t-3.652-2.563q-1.121-0.737-2.082-2.050t-0.993-2.466q0-1.377 0.737-2.306t2.114-0.929h26.33q1.153 0 1.986 0.833t0.865 2.018z"></path>
</svg>
