<?xml version="1.0" encoding="utf-8"?>
<!-- Generated by IcoMoon.io -->
<!DOCTYPE svg PUBLIC "-//W3C//DTD SVG 1.1//EN" "http://www.w3.org/Graphics/SVG/1.1/DTD/svg11.dtd">
<svg version="1.1" xmlns="http://www.w3.org/2000/svg" xmlns:xlink="http://www.w3.org/1999/xlink" width="30" height="32" viewBox="0 0 30 32">
<path d="M4.58 23.782q0-0.48-0.352-0.801t-0.801-0.352q-0.48 0-0.801 0.352t-0.352 0.801q0 0.48 0.352 0.801t0.801 0.352q0.48 0 0.801-0.352t0.352-0.801zM7.431 14.621v11.435q0 0.48-0.32 0.801t-0.833 0.352h-5.125q-0.48 0-0.801-0.352t-0.352-0.801v-11.435q0-0.448 0.352-0.801t0.801-0.32h5.125q0.48 0 0.833 0.32t0.32 0.801zM28.604 14.621q0 1.538-0.993 2.659 0.288 0.801 0.288 1.377 0.032 1.345-0.769 2.434 0.288 1.025 0 2.114-0.288 0.993-0.993 1.666 0.16 2.018-0.865 3.235-1.153 1.377-3.523 1.409h-2.306q-1.185 0-2.563-0.288t-2.178-0.512-2.146-0.705q-2.21-0.769-2.819-0.801-0.48 0-0.833-0.352t-0.32-0.801v-11.435q0-0.448 0.32-0.801t0.769-0.352q0.416-0.032 1.345-1.057t1.826-2.146q1.217-1.57 1.794-2.146 0.32-0.32 0.545-0.865t0.32-0.865 0.256-1.089q0.128-0.705 0.224-1.089t0.352-0.929 0.577-0.897q0.352-0.352 0.833-0.352 0.801 0 1.473 0.192t1.057 0.48 0.705 0.705 0.448 0.833 0.224 0.865 0.064 0.833 0.032 0.673q0 0.673-0.192 1.377t-0.32 1.057-0.512 0.993q-0.032 0.128-0.16 0.32t-0.192 0.416-0.16 0.416h4.965q1.377 0 2.402 1.025t1.025 2.402z"></path>
</svg>
