<?xml version="1.0" encoding="utf-8"?>
<!-- Generated by IcoMoon.io -->
<!DOCTYPE svg PUBLIC "-//W3C//DTD SVG 1.1//EN" "http://www.w3.org/Graphics/SVG/1.1/DTD/svg11.dtd">
<svg version="1.1" xmlns="http://www.w3.org/2000/svg" xmlns:xlink="http://www.w3.org/1999/xlink" width="32" height="32" viewBox="0 0 32 32">
<path d="M1.605 12.308c-0.339 0.111-0.879 0.512-1.065 0.789-0.381 0.567-0.547 1.245-0.505 2.069 0.069 1.46 0.851 2.352 2.117 2.408 1.211 0.055 2.034-0.505 2.331-1.577l0.069-0.256h-0.221c-0.201 0-0.228 0.021-0.304 0.318-0.111 0.401-0.643 0.955-1.024 1.058-0.899 0.235-1.709 0.007-2.124-0.595-0.256-0.374-0.381-0.699-0.429-1.148l-0.048-0.394h4.213l-0.021-0.387c-0.069-1.024-0.484-1.757-1.238-2.172-0.353-0.201-1.301-0.256-1.75-0.111zM2.933 12.675c0.387 0.131 0.699 0.394 0.913 0.747 0.18 0.311 0.394 1.121 0.304 1.176-0.028 0.014-0.872 0.028-1.882 0.021l-1.84-0.007 0.028-0.159c0.014-0.090 0.041-0.249 0.055-0.346 0.090-0.484 0.533-1.093 0.975-1.321 0.443-0.235 0.989-0.277 1.446-0.111zM11.38 12.377c-0.394 0.18-0.74 0.491-0.899 0.803-0.055 0.111-0.118 0.208-0.125 0.208-0.014 0-0.021-0.242-0.021-0.54v-0.533h-0.408v3.514l-0.007 3.508h0.187c0.104 0 0.201-0.041 0.214-0.090 0.014-0.041 0.021-0.678 0.021-1.411 0-0.726 0.021-1.308 0.048-1.294 0.035 0.021 0.055 0.076 0.055 0.125 0 0.166 0.47 0.595 0.809 0.74 0.339 0.152 1.211 0.214 1.626 0.118 1.038-0.242 1.667-1.252 1.653-2.65-0.007-0.636-0.131-1.155-0.374-1.577-0.249-0.422-0.387-0.56-0.809-0.809-0.339-0.201-0.45-0.228-1.003-0.249-0.54-0.021-0.671 0-0.969 0.138zM12.771 12.661c1.121 0.332 1.647 1.743 1.211 3.265-0.111 0.415-0.463 0.837-0.886 1.072-0.782 0.443-1.944 0.187-2.38-0.526-0.463-0.747-0.491-2.103-0.055-2.975 0.38-0.754 1.238-1.1 2.11-0.837zM19.523 12.294c-0.048 0.048-0.083 0.062-0.083 0.035s-0.145 0.028-0.325 0.118c-0.796 0.408-1.273 1.321-1.28 2.456 0 1.64 0.83 2.643 2.228 2.67 1.114 0.021 1.861-0.463 2.179-1.418 0.131-0.387 0.104-0.477-0.125-0.436-0.118 0.021-0.187 0.118-0.277 0.353-0.311 0.872-1.135 1.28-2.165 1.086-0.747-0.138-1.342-0.927-1.425-1.902l-0.021-0.242 2.103-0.021 2.103-0.014-0.041-0.505c-0.069-0.906-0.498-1.653-1.162-2.020-0.325-0.18-0.457-0.208-1.003-0.221-0.408-0.014-0.65 0.007-0.706 0.062zM20.685 12.64c0.623 0.166 1.169 0.865 1.28 1.653l0.048 0.325h-1.882l-1.875 0.007 0.028-0.228c0.111-0.816 0.643-1.536 1.28-1.73 0.291-0.083 0.837-0.097 1.121-0.028zM24.311 12.301c-0.678 0.228-0.989 0.574-1.024 1.142-0.028 0.463 0.145 0.844 0.491 1.079 0.291 0.201 0.948 0.429 1.418 0.484 1.017 0.131 1.66 0.581 1.605 1.135-0.007 0.104-0.014 0.235-0.021 0.291-0.007 0.152-0.284 0.443-0.526 0.574-0.533 0.27-1.425 0.277-1.965 0.007-0.304-0.152-0.671-0.616-0.761-0.955-0.062-0.249-0.104-0.297-0.228-0.291-0.353 0.014-0.125 0.886 0.346 1.294 0.422 0.374 0.796 0.491 1.536 0.498 0.789 0.007 1.259-0.131 1.619-0.47 0.304-0.291 0.401-0.519 0.394-0.982-0.007-0.816-0.47-1.197-1.736-1.425-0.892-0.166-1.501-0.429-1.674-0.726-0.131-0.228-0.118-0.636 0.035-0.865 0.256-0.394 1.045-0.581 1.875-0.45 0.463 0.076 0.858 0.47 0.934 0.934 0.035 0.221 0.069 0.263 0.235 0.284 0.173 0.021 0.187 0 0.187-0.208-0.007-0.491-0.401-1.058-0.899-1.28-0.332-0.145-1.467-0.187-1.84-0.069zM29.195 12.281c-0.353 0.104-0.754 0.346-0.899 0.553-0.173 0.249-0.242 0.816-0.138 1.148 0.166 0.505 0.616 0.754 1.799 1.017 0.982 0.214 1.245 0.325 1.487 0.616 0.166 0.194 0.187 0.263 0.159 0.588-0.041 0.477-0.284 0.74-0.802 0.892-0.353 0.104-0.982 0.138-1.314 0.069-0.505-0.104-1.052-0.664-1.148-1.169-0.035-0.201-0.069-0.235-0.235-0.221-0.166 0.007-0.187 0.035-0.166 0.242 0.021 0.304 0.235 0.747 0.47 0.996 0.104 0.111 0.36 0.277 0.574 0.374 0.325 0.152 0.484 0.18 1.010 0.18 1.058 0 1.771-0.346 1.972-0.969 0.125-0.374 0.035-0.969-0.18-1.259-0.235-0.304-0.567-0.45-1.55-0.671-1.391-0.318-1.66-0.484-1.709-1.052-0.028-0.27-0.007-0.367 0.118-0.526 0.242-0.304 0.657-0.477 1.211-0.498 0.892-0.035 1.501 0.339 1.598 0.982 0.041 0.27 0.062 0.297 0.242 0.297 0.242 0 0.263-0.152 0.097-0.63-0.166-0.457-0.553-0.816-1.024-0.941-0.235-0.062-1.377-0.083-1.57-0.021zM4.912 12.329c0 0.014 0.415 0.567 0.927 1.224 1.017 1.321 0.975 1.204 0.616 1.633-0.048 0.055-0.443 0.588-0.879 1.176-0.726 0.982-0.782 1.072-0.643 1.114 0.083 0.021 0.201 0.014 0.263-0.014 0.062-0.035 0.498-0.574 0.969-1.204s0.872-1.142 0.892-1.142c0.021 0 0.408 0.526 0.872 1.162 0.685 0.941 0.879 1.162 1.038 1.197 0.111 0.021 0.235 0.021 0.284 0.007s-0.353-0.602-0.927-1.363l-1.003-1.342 0.159-0.228c0.090-0.125 0.18-0.242 0.201-0.263 0.090-0.083 1.453-1.916 1.453-1.958 0-0.090-0.491 0-0.574 0.111-0.041 0.062-0.394 0.533-0.775 1.052-0.38 0.512-0.706 0.927-0.726 0.927s-0.387-0.477-0.823-1.058c-0.775-1.052-0.789-1.058-1.052-1.058-0.145 0-0.27 0.014-0.27 0.028zM15.421 12.544c0 0.297 0 4.704 0.007 4.843 0 0.062 0.069 0.083 0.194 0.069l0.187-0.021 0.007-1.626c0.007-1.522 0.014-1.653 0.159-1.972 0.083-0.194 0.249-0.45 0.374-0.581 0.284-0.297 0.837-0.56 1.197-0.56 0.263 0 0.284-0.014 0.277-0.194s-0.021-0.187-0.332-0.18c-0.588 0.021-1.577 0.623-1.577 0.962 0 0.062-0.028 0.097-0.055 0.076-0.035-0.021-0.048-0.228-0.041-0.47 0.014-0.533 0-0.574-0.214-0.595-0.152-0.014-0.173 0.014-0.18 0.249z"></path>
</svg>
