<?xml version="1.0" encoding="utf-8"?>
<!-- Generated by IcoMoon.io -->
<!DOCTYPE svg PUBLIC "-//W3C//DTD SVG 1.1//EN" "http://www.w3.org/Graphics/SVG/1.1/DTD/svg11.dtd">
<svg version="1.1" xmlns="http://www.w3.org/2000/svg" xmlns:xlink="http://www.w3.org/1999/xlink" width="32" height="32" viewBox="0 0 32 32">
<path d="M14.126 0.399v0c2.53 0 4.869 0.673 6.919 1.89-1.153 0.641-2.082 1.281-2.306 1.505-0.705 0.705 0 2.498 1.538 4.068 1.538 1.537 3.363 2.242 4.068 1.537 0.224-0.224 0.833-1.121 1.473-2.242 1.121 1.954 1.794 4.228 1.794 6.662 0 7.431-6.054 13.421-13.485 13.421s-13.485-5.99-13.485-13.421 6.022-13.421 13.485-13.421zM26.362-0.241v0c0.545 0 1.025 0.128 1.377 0.48 0.352 0.384 0.48 0.897 0.512 1.441 0.032 0.577-0.064 1.217-0.224 1.89-0.32 1.281-0.897 2.691-1.538 3.812 1.121 1.986 1.441 4.036 1.441 6.438 0 7.623-6.182 13.805-13.805 13.805s-13.805-6.182-13.805-13.805c0-2.434 0.641-4.709 1.762-6.695-0.641-1.121-1.313-2.434-1.73-3.652-0.192-0.641-0.32-1.249-0.352-1.794 0-0.545 0.096-1.057 0.448-1.441 0.352-0.32 0.801-0.448 1.313-0.448 1.602 0 3.812 1.057 5.541 2.050 2.018-1.153 4.324-1.826 6.823-1.826 2.434 0 4.709 0.448 6.727 1.57 1.121-0.641 2.466-1.217 3.684-1.57 0.641-0.16 1.281-0.256 1.826-0.256zM26.33 0.463v0c-0.448 0-0.993 0.096-1.602 0.256-1.185 0.32-2.563 0.929-3.684 1.57l-0.192 0.096-0.16-0.096c-1.922-1.121-4.132-1.538-6.566-1.538s-4.677 0.673-6.63 1.794l-0.192 0.128-0.16-0.128c-1.73-0.961-4.1-2.050-5.381-2.050-0.384 0.032-0.641 0.128-0.801 0.256-0.16 0.16-0.256 0.48-0.224 0.897 0 0.448 0.128 0.993 0.32 1.602 0.384 1.217 1.089 2.595 1.73 3.716l0.096 0.16-0.096 0.192c-1.121 1.922-1.73 4.132-1.73 6.502 0 7.239 5.83 13.101 13.069 13.101s13.069-5.862 13.069-13.101c0-2.434-0.288-4.356-1.409-6.246l-0.096-0.192 0.096-0.192c0.641-1.089 1.249-2.53 1.538-3.78 0.16-0.641 0.224-1.217 0.224-1.698-0.032-0.48-0.128-0.801-0.32-0.961-0.16-0.16-0.448-0.256-0.897-0.288z"></path>
</svg>
