<?xml version="1.0" encoding="utf-8"?>
<!-- Generated by IcoMoon.io -->
<!DOCTYPE svg PUBLIC "-//W3C//DTD SVG 1.1//EN" "http://www.w3.org/Graphics/SVG/1.1/DTD/svg11.dtd">
<svg version="1.1" xmlns="http://www.w3.org/2000/svg" xmlns:xlink="http://www.w3.org/1999/xlink" width="27" height="32" viewBox="0 0 27 32">
<path d="M10.282 27.209l1.73-8.008-1.73-2.274-2.274-1.153zM14.863 27.209l2.306-11.435-2.306 1.153-1.698 2.274zM17.745 9.176q-0.064-0.096-0.096-0.128-0.16-0.128-1.698-0.128-1.249 0-2.979 0.32-0.128 0.032-0.384 0.032t-0.384-0.032q-1.73-0.32-2.979-0.32-1.537 0-1.73 0.128-0.032 0.032-0.064 0.128 0.032 0.32 0.064 0.48 0.064 0.032 0.16 0.096t0.128 0.192q0.032 0.064 0.128 0.384t0.128 0.352 0.128 0.288 0.16 0.32 0.16 0.256 0.224 0.224 0.224 0.192 0.32 0.128 0.384 0.064 0.416 0.032q0.641 0 1.057-0.224t0.577-0.512 0.256-0.641 0.224-0.512 0.32-0.224h0.192q0.192 0 0.32 0.224t0.192 0.512 0.288 0.641 0.577 0.512 1.057 0.224q0.224 0 0.416-0.032t0.384-0.064 0.288-0.128 0.256-0.192 0.224-0.224 0.16-0.256 0.16-0.32 0.128-0.288 0.128-0.352 0.128-0.384q0.032-0.128 0.128-0.192t0.128-0.096q0.032-0.16 0.096-0.48zM25.177 24.871q0 2.178-1.313 3.395t-3.459 1.249h-15.631q-2.146 0-3.459-1.249t-1.313-3.395q0-1.089 0.096-2.114t0.32-2.242 0.673-2.21 1.153-1.858 1.666-1.313l-1.634-3.94h3.844q-0.384-1.153-0.384-2.274 0-0.224 0.032-0.577-3.491-0.705-3.491-1.73t3.78-1.762q0.288-1.121 0.897-2.402t1.281-2.018q0.577-0.673 1.345-0.673 0.545 0 1.505 0.545t1.505 0.577 1.505-0.577 1.505-0.545q0.769 0 1.345 0.673 0.641 0.737 1.249 2.018t0.929 2.402q3.748 0.737 3.748 1.762t-3.459 1.73q0.128 1.441-0.352 2.851h3.812l-1.441 4.036q1.121 0.577 1.922 1.73t1.153 2.563 0.512 2.691 0.16 2.659z"></path>
</svg>
