<?xml version="1.0" encoding="utf-8"?>
<!-- Generated by IcoMoon.io -->
<!DOCTYPE svg PUBLIC "-//W3C//DTD SVG 1.1//EN" "http://www.w3.org/Graphics/SVG/1.1/DTD/svg11.dtd">
<svg version="1.1" xmlns="http://www.w3.org/2000/svg" xmlns:xlink="http://www.w3.org/1999/xlink" width="32" height="32" viewBox="0 0 32 32">
<path d="M31.23 14.365l-13.805-13.805c-0.801-0.769-2.082-0.769-2.883 0l-2.851 2.883 3.62 3.62c0.865-0.288 1.826-0.096 2.498 0.577 0.673 0.705 0.865 1.666 0.577 2.498l3.491 3.523c0.833-0.288 1.826-0.096 2.498 0.577 0.961 0.929 0.961 2.466 0 3.427-0.929 0.929-2.466 0.929-3.427 0-0.705-0.737-0.865-1.762-0.512-2.659l-3.267-3.267v8.616c0.224 0.096 0.448 0.256 0.641 0.448 0.929 0.961 0.929 2.466 0 3.427-0.961 0.929-2.498 0.929-3.427 0-0.961-0.961-1.025-2.466-0.096-3.427 0.256-0.224 0.48-0.416 0.737-0.512v-8.68c-0.256-0.128-0.48-0.288-0.737-0.545-0.705-0.705-0.833-1.762-0.48-2.627l-3.555-3.588-9.449 9.449c-0.801 0.801-0.769 2.082 0 2.883l13.805 13.805c0.801 0.769 2.082 0.769 2.883 0l13.741-13.741c0.769-0.801 0.769-2.082 0-2.883z"></path>
</svg>
