<?xml version="1.0" encoding="utf-8"?>
<!-- Generated by IcoMoon.io -->
<!DOCTYPE svg PUBLIC "-//W3C//DTD SVG 1.1//EN" "http://www.w3.org/Graphics/SVG/1.1/DTD/svg11.dtd">
<svg version="1.1" xmlns="http://www.w3.org/2000/svg" xmlns:xlink="http://www.w3.org/1999/xlink" width="32" height="32" viewBox="0 0 32 32">
<path d="M16.016 1.040c-8.328 0-15.119 6.759-15.119 15.119 0 6.663 4.324 12.332 10.346 14.318 0.737 0.16 1.025-0.32 1.025-0.705s0-1.57-0.032-2.819c-4.196 0.897-5.061-1.794-5.061-1.794-0.705-1.73-1.698-2.21-1.698-2.21-1.377-0.929 0.096-0.929 0.096-0.929 1.537 0.128 2.338 1.57 2.338 1.57 1.345 2.306 3.523 1.634 4.388 1.249 0.128-0.961 0.512-1.634 0.961-2.018-3.363-0.384-6.887-1.666-6.887-7.463 0-1.666 0.577-3.011 1.57-4.068-0.16-0.384-0.673-1.922 0.128-4.004 0 0 1.281-0.384 4.164 1.57 1.217-0.352 2.498-0.512 3.78-0.512s2.595 0.16 3.78 0.512c2.883-1.954 4.164-1.57 4.164-1.57 0.833 2.082 0.288 3.62 0.128 4.004 0.993 1.057 1.57 2.402 1.57 4.068 0 5.798-3.523 7.079-6.887 7.463 0.545 0.448 1.025 1.377 1.025 2.787 0 2.018-0.032 3.652-0.032 4.164 0 0.384 0.288 0.865 1.025 0.705 6.022-1.986 10.346-7.655 10.346-14.318 0-8.36-6.759-15.119-15.119-15.119zM6.63 22.725c-0.032 0.096-0.16 0.096-0.256 0.064-0.128-0.064-0.16-0.16-0.128-0.224 0.032-0.096 0.128-0.128 0.256-0.064 0.096 0.064 0.16 0.16 0.128 0.224zM7.239 23.43c-0.064 0.064-0.224 0.032-0.32-0.096-0.096-0.096-0.096-0.224-0.032-0.288 0.064-0.096 0.224-0.064 0.32 0.064 0.096 0.096 0.096 0.224 0.032 0.32zM7.848 24.295c-0.096 0.064-0.256 0-0.352-0.128-0.096-0.16-0.096-0.32 0-0.384s0.256 0 0.352 0.128c0.096 0.16 0.096 0.32 0 0.384zM8.648 25.127c-0.064 0.096-0.256 0.064-0.384-0.064s-0.16-0.288-0.096-0.384c0.096-0.096 0.288-0.064 0.416 0.064s0.16 0.288 0.064 0.384zM9.77 25.608c-0.032 0.128-0.192 0.192-0.352 0.128-0.192-0.064-0.288-0.192-0.256-0.32 0.032-0.096 0.192-0.16 0.384-0.096 0.16 0.032 0.256 0.16 0.224 0.288zM11.019 25.704c0 0.128-0.128 0.224-0.32 0.224s-0.32-0.096-0.32-0.224c0-0.128 0.128-0.224 0.32-0.224 0.16 0 0.32 0.096 0.32 0.224zM12.172 25.512c0.032 0.128-0.096 0.256-0.288 0.288-0.16 0.032-0.32-0.064-0.352-0.16-0.032-0.128 0.096-0.256 0.288-0.288 0.16-0.032 0.32 0.032 0.352 0.16z"></path>
</svg>
