<?xml version="1.0" encoding="utf-8"?>
<!-- Generated by IcoMoon.io -->
<!DOCTYPE svg PUBLIC "-//W3C//DTD SVG 1.1//EN" "http://www.w3.org/Graphics/SVG/1.1/DTD/svg11.dtd">
<svg version="1.1" xmlns="http://www.w3.org/2000/svg" xmlns:xlink="http://www.w3.org/1999/xlink" width="32" height="32" viewBox="0 0 32 32">
<path d="M24.856 16.575c0.673-0.384 1.377-0.769 1.954-1.281 1.057-0.929 0.929-2.242-0.128-3.107-0.192-0.128-0.448-0.288-0.48-0.48-0.224-0.833-0.416-1.698 0.096-2.53 0.224-0.32 0.384-0.673 0.48-1.025 0.288-1.057-0.192-1.89-1.217-2.21-0.192-0.032-0.384-0.032-0.545-0.096-0.096-0.032-0.256-0.128-0.288-0.224-0.192-1.025-0.064-1.473 0.737-1.922 0.384-0.224 0.833-0.32 1.249-0.48 0.16-0.064 0.352-0.096 0.512-0.128-0.961-1.345-2.659-1.922-4.324-1.505-1.345 0.352-2.274 1.185-3.139 2.178-0.096 0.128-0.288 0.256-0.416 0.256-0.416 0-0.48-0.288-0.416-0.609 0.128-0.609 0.32-1.217 0.48-1.826-0.769-0.032-1.345 0.448-1.986 0.929-0.096-0.416-0.192-0.769-0.224-1.121 0-0.352 0.032-0.705 0.064-1.089-1.153 0.416-2.050 1.057-2.274 2.37h-0.16l-0.352-1.634c-0.128 0.096-0.288 0.16-0.416 0.288-0.705 0.609-1.121 1.409-1.217 2.338 0 0.128-0.096 0.32-0.16 0.32-0.096 0.032-0.256-0.064-0.352-0.128-0.192-0.192-0.352-0.416-0.512-0.609-1.089-1.121-2.37-1.858-4.004-1.762-1.217 0.064-2.274 0.513-2.979 1.538 0.609 0.224 1.217 0.384 1.762 0.673 0.673 0.384 0.833 0.897 0.769 1.634-0.064 0.416-0.256 0.513-0.609 0.577-1.249 0.192-1.826 1.153-1.473 2.338 0.064 0.256 0.16 0.545 0.32 0.737 0.577 0.705 0.448 1.473 0.352 2.274-0.032 0.384-0.192 0.641-0.513 0.897-1.249 0.961-1.281 2.338-0.032 3.331 0.513 0.416 1.089 0.737 1.666 1.057 0.801 0.384 1.121 1.057 1.121 1.89 0 0.705-0.032 1.409-0.064 2.082-0.032 0.512-0.096 0.993-0.16 1.473l-0.128 0.032c-0.288-0.384-0.609-0.737-0.865-1.153-0.224-0.416-0.352-0.897-0.545-1.345-1.858 1.538-1.89 5.926 1.057 7.271 0.416 0.192 0.673 0.448 0.929 0.833 0.769 1.345 1.954 2.146 3.491 2.402 0.128 0.032 0.32 0.096 0.448 0.192 2.050 1.377 5.253 1.377 7.303 0 0.128-0.064 0.256-0.16 0.416-0.192 1.698-0.256 2.915-1.217 3.716-2.691 0.096-0.128 0.224-0.288 0.352-0.352 1.762-0.737 2.595-2.082 2.723-3.94 0.096-1.345-0.288-2.563-1.313-3.587-0.224 1.025-0.673 1.89-1.57 2.563-0.064-1.313-0.128-2.595-0.128-3.876 0-0.705 0.384-1.217 0.993-1.57zM8.040 3.699c0.769 0 1.826 0.897 1.73 1.602 0 0.288-0.352 0.641-0.641 0.737-0.256 0.096-0.673-0.032-0.769-0.48-0.032-0.192-0.064-0.416-0.096-0.609-0.064-0.416-0.16-0.801-0.224-1.249zM9.962 26.537c-0.416-0.064-0.833-0.096-1.217-0.192-1.73-0.48-2.691-1.698-2.723-3.491 0-0.512 0.096-1.025 0.192-1.538 0 0 0.064 0 0.096 0 0 0 0 0.032 0 0.064 0.865 1.858 2.53 2.37 4.356 2.53l-0.833 1.602 0.128 1.025zM9.77 12.731v-1.153c0.737 0.577 1.794 1.121 2.466 1.89 0.064 0.064 0.128 0.128 0.16 0.192s0.064 0.128 0.096 0.16c-0.865 0.673-2.723 0.256-2.723-1.089zM14.606 26.313c-0.192 0.256-0.352 0.545-0.545 0.801-0.48 0.577-1.121 0.609-1.698 0.096-0.16-0.16-0.32-0.352-0.512-0.512v0l-0.096-0.096c-0.192-0.993-0.192-0.993 0.865-1.025 0.512 0 0.993 0 1.505 0 0.545 0.032 0.641 0.192 0.48 0.737zM20.276 26.505l-0.128 0.192c-0.128 0.128-0.256 0.288-0.384 0.448-0.641 0.609-1.313 0.577-1.858-0.128-0.16-0.224-0.32-0.48-0.48-0.705-0.16-0.545-0.032-0.705 0.512-0.737 0.577 0 1.153 0 1.698 0 0.769 0.032 0.897 0.224 0.641 0.929zM19.539 13.82l0.256-0.352c0.673-0.769 1.473-1.313 2.466-1.89v1.153c0 1.313-1.794 1.794-2.723 1.089zM25.625 21.54l0.128-0.288c0.384 1.249 0.416 2.466-0.288 3.587-0.801 1.185-2.018 1.602-3.395 1.698l0.128-1.025-0.833-1.57c1.73-0.192 3.395-0.609 4.26-2.402zM23.703 5.428c-0.064 0.288-0.128 0.48-0.48 0.577-0.48 0.192-0.673-0.192-0.865-0.448-0.096-0.128-0.064-0.416 0-0.609 0.256-0.577 0.641-1.025 1.281-1.217 0.128-0.032 0.256-0.032 0.352-0.032-0.128 0.609-0.192 1.185-0.288 1.73z"></path>
</svg>
