<?xml version="1.0" encoding="utf-8"?>
<!-- Generated by IcoMoon.io -->
<!DOCTYPE svg PUBLIC "-//W3C//DTD SVG 1.1//EN" "http://www.w3.org/Graphics/SVG/1.1/DTD/svg11.dtd">
<svg version="1.1" xmlns="http://www.w3.org/2000/svg" xmlns:xlink="http://www.w3.org/1999/xlink" width="32" height="32" viewBox="0 0 32 32">
<path d="M9.257 8.631c0.224 2.306 0.416 4.612 0.641 6.951 0.384-0.609 0.641-1.217 1.025-1.698s0.833-0.897 1.345-1.185c0.673-0.384 1.537-0.032 1.762 0.673 0.032 0.16-0.096 0.416-0.128 0.609-0.16-0.064-0.384-0.128-0.48-0.256-0.448-0.545-0.737-0.609-1.217-0.128-0.929 0.897-1.441 2.018-1.666 3.267-0.032 0.256 0.128 0.512 0.192 0.769 0.256-0.064 0.545-0.096 0.737-0.256 0.673-0.512 1.089-1.185 1.313-1.986 0.064-0.16 0.32-0.288 0.48-0.416 0.096 0.16 0.256 0.352 0.224 0.48-0.352 1.217-0.737 2.434-1.121 3.62-0.032 0.128-0.256 0.192-0.416 0.256-0.032-0.16-0.16-0.32-0.16-0.448 0.064-0.352 0.16-0.673 0.256-0.993l-1.826 0.833c0.096 1.153 0.192 2.466 0.32 3.748 0.096 0.993 0.256 1.249 1.249 1.441 1.121 0.224 2.306 0.352 3.459 0.448 1.698 0.128 3.395-0.032 5.061-0.48 0.609-0.16 0.865-0.577 0.897-1.185 0.032-0.577 0.128-1.121 0.192-1.666 0.128-1.121 0.256-2.21 0.384-3.363-0.416 0.288-0.769 0.577-1.153 0.705-0.256 0.096-0.609-0.064-0.929-0.096 0.064-0.288 0.032-0.609 0.192-0.865 0.224-0.416 0.545-0.737 0.833-1.121l-0.128-0.16c-0.192 0.128-0.448 0.192-0.609 0.384-0.288 0.352-0.577 0.705-0.769 1.121-0.32 0.705-0.577 1.409-0.865 2.114-0.128 0.288-0.256 0.769-0.673 0.577-0.48-0.16-0.16-0.577-0.032-0.865 0.16-0.48 0.384-0.897 0.545-1.249-0.448 0.064-0.865 0.128-1.313 0.16-0.192 0-0.416-0.096-0.577-0.032-0.512 0.224-0.833 0.16-0.929-0.416-0.256 0.16-0.448 0.352-0.705 0.416s-0.673 0.096-0.865-0.032c-0.16-0.128-0.224-0.545-0.192-0.801 0.128-0.512 0.352-0.993 0.545-1.473 0.128-0.288 0.256-0.769 0.673-0.545 0.416 0.192 0.032 0.545-0.064 0.801-0.128 0.448-0.288 0.865-0.448 1.281l0.256 0.16c0.224-0.192 0.512-0.384 0.673-0.609 0.256-0.416 0.416-0.865 0.673-1.281 0.096-0.16 0.32-0.256 0.48-0.384 0.032 0.192 0.128 0.416 0.096 0.641-0.032 0.192-0.192 0.384-0.256 0.609-0.096 0.32-0.192 0.641-0.288 0.993 0.512 0.032 0.705-0.192 0.865-0.577 0.448-1.185 0.929-2.402 1.409-3.588 0.096-0.192 0.384-0.32 0.577-0.448 0.032 0.224 0.128 0.512 0.064 0.705-0.416 1.089-0.865 2.178-1.313 3.235-0.064 0.192-0.096 0.384-0.128 0.577 0.769-0.32 1.377-0.705 1.634-1.538 0.064-0.192 0.288-0.32 0.448-0.512l0.352 0.384c0.096-0.096 0.192-0.192 0.32-0.256 0.352-0.256 0.769-0.448 1.153-0.096 0.384 0.384 0.096 0.737-0.128 1.089s-0.512 0.673-0.769 1.025c0.577-0.384 1.377-0.545 1.473-1.345 0.256-1.986 0.48-3.94 0.737-5.926 0.064-0.577 0.096-1.185 0.128-1.762-4.548 1.089-9.001 1.089-13.517-0.032zM11.211 23.974c0.224 0.609 0.545 1.153 0.641 1.762 0.192 1.313 0.224 2.595 0.352 3.908 0.032 0.192 0.16 0.448 0.288 0.512 2.274 1.249 4.516 1.441 6.823 0.096 0.352-0.192 0.416-0.448 0.448-0.833 0.224-1.794-0.256-3.684 0.897-5.381-3.235 0.801-6.374 0.833-9.449-0.064zM18.963 8.952c1.089-0.096 2.178-0.352 3.235-0.577 0.224-0.032 0.384-0.192 0.577-0.288-0.224-0.224-0.448-0.32-0.673-0.352-1.153-0.128-2.274-0.256-3.427-0.384-0.16-0.032-0.48-0.224-0.448-0.256 0.32-1.025 0.32-2.146 1.057-2.979 0.961-1.057 1.922-2.114 2.851-3.171-0.705-0.737-0.705-0.769-1.345-0.096-0.352 0.384-0.705 0.801-1.089 1.153-1.441 1.249-2.466 2.723-2.691 4.709-0.032 0.448-0.288 0.609-0.769 0.609-1.537 0.032-3.107 0.064-4.677 0.192-0.769 0.032-1.537 0.224-2.306 0.384v0.288c0.48 0.128 0.929 0.32 1.441 0.416 2.723 0.545 5.509 0.609 8.264 0.352zM18.098 8.279c-0.641 0.48-1.153 0.48-1.634 0h1.634z"></path>
</svg>
