<?xml version="1.0" encoding="utf-8"?>
<!-- Generated by IcoMoon.io -->
<!DOCTYPE svg PUBLIC "-//W3C//DTD SVG 1.1//EN" "http://www.w3.org/Graphics/SVG/1.1/DTD/svg11.dtd">
<svg version="1.1" xmlns="http://www.w3.org/2000/svg" xmlns:xlink="http://www.w3.org/1999/xlink" width="42" height="32" viewBox="0 0 42 32">
<path d="M3.36 0.115c0.143-0.22 0.413-0.321 0.663-0.342 0.21-0.025 0.416 0.045 0.61 0.118 0.193 0.099 0.355 0.247 0.529 0.374 0.155 0.104 0.27 0.257 0.367 0.415 0.139 0.323 0.228 0.677 0.19 1.032-0.060 0.070-0.11 0.149-0.179 0.21-0.119 0.088-0.256 0.147-0.392 0.201l0.447 0.493c0.166 0.162 0.258 0.38 0.384 0.571 0.111-0.137 0.288-0.178 0.422-0.284 0.196-0.144 0.376-0.314 0.598-0.42 0.069-0.023 0.143-0.012 0.215-0.018l0.065 0.046c0.007 0.241 0.129 0.455 0.204 0.679 0.122 0.386 0.245 0.772 0.405 1.144 0.042 0.002 0.084-0.001 0.126-0.002 0.049-0.244 0.18-0.456 0.295-0.671 0.115-0.189 0.195-0.399 0.336-0.572 0.176-0.226 0.329-0.474 0.545-0.664l0.13 0.003c0.013 0.288-0.013 0.579 0.043 0.864 0.049 0.218 0.015 0.442 0.050 0.661 0.041 0.315-0.026 0.644 0.075 0.951 0.147 0.256 0.402 0.424 0.567 0.666 0.251 0.276 0.502 0.553 0.748 0.834 0.142 0.165 0.244 0.36 0.392 0.519 0.117 0.13 0.208 0.282 0.33 0.409 0.060 0.060 0.107 0.131 0.151 0.204 0.072 0.121 0.186 0.21 0.261 0.33 0.074 0.102 0.139 0.218 0.239 0.295 0.096-0.036 0.178-0.116 0.29-0.088l0.064 0.071c0.066 0.011 0.153-0 0.186 0.073 0.075 0.15 0.194 0.276 0.254 0.434 0.123-0.081 0.259-0.14 0.384-0.219 0.182-0.11 0.399-0.076 0.601-0.084 0.173-0.010 0.341 0.072 0.513 0.026 0.188-0.050 0.343 0.119 0.531 0.096 0.117-0.035 0.219-0.102 0.329-0.153 0.229-0.093 0.463-0.17 0.697-0.247 0.253-0.127 0.527-0.201 0.796-0.282 0.277-0.042 0.552-0.096 0.832-0.115 0.143-0.018 0.284-0.074 0.43-0.046 0.359 0.049 0.72 0.102 1.084 0.097 0.257-0.015 0.515 0.016 0.768 0.063 0.205 0.037 0.38 0.157 0.582 0.205 0.177 0.054 0.339 0.15 0.516 0.205 0.334 0.147 0.6 0.414 0.936 0.56 0.218 0.139 0.458 0.238 0.669 0.386 0.171 0.146 0.373 0.254 0.527 0.421 0.093 0.094 0.163 0.212 0.275 0.285 0.098 0.067 0.213 0.117 0.276 0.225 0.27 0.179 0.453 0.457 0.676 0.687 0.11 0.111 0.187 0.261 0.329 0.337 0.027-0.037 0.051-0.076 0.075-0.114 0.079-0.041 0.158-0.084 0.246-0.103 0.264-0.049 0.532-0.069 0.8-0.060 0.234-0.011 0.446 0.107 0.675 0.136 0.193 0.015 0.358 0.127 0.542 0.177 0.108 0.037 0.227 0.036 0.331 0.086 0.145 0.069 0.294 0.127 0.439 0.194 0.21 0.144 0.411 0.301 0.631 0.431 0.128 0.101 0.243 0.219 0.381 0.309 0.075-0.139 0.249-0.142 0.375-0.207 0.263-0.124 0.531-0.246 0.771-0.414 0.183-0.117 0.375-0.219 0.576-0.301 0.435-0.22 0.858-0.472 1.324-0.623 0.128-0.061 0.281-0.073 0.389-0.173-0.104-0.171-0.022-0.364 0.005-0.545 0.025-0.174 0.138-0.318 0.259-0.438 0.236-0.177 0.529-0.264 0.822-0.256 0.266-0.025 0.519 0.119 0.689 0.316 0.098 0.137 0.18 0.289 0.241 0.447-0.058 0.135-0.077 0.28-0.117 0.42-0.048 0.163-0.196 0.26-0.308 0.376-0.185 0.141-0.366 0.306-0.605 0.342-0.199-0.036-0.4-0.060-0.6-0.096-0.104 0.091-0.17 0.221-0.288 0.297-0.077 0.049-0.123 0.13-0.191 0.189-0.184 0.144-0.357 0.302-0.541 0.445-0.246 0.166-0.503 0.317-0.749 0.481-0.148 0.111-0.281 0.244-0.45 0.324-0.33 0.16-0.584 0.434-0.88 0.646 0.077 0.168 0.109 0.352 0.145 0.533 0.027 0.236-0.034 0.47-0.032 0.706-0.009 0.142 0.015 0.291-0.038 0.427-0.039 0.12-0.122 0.222-0.147 0.347-0.047 0.206-0.139 0.397-0.201 0.598-0.034 0.116-0.112 0.211-0.164 0.319-0.098 0.189-0.159 0.396-0.272 0.577-0.050 0.086-0.114 0.164-0.162 0.251-0.101 0.189-0.246 0.349-0.355 0.532-0.147 0.156-0.315 0.296-0.43 0.479-0.155 0.133-0.28 0.305-0.472 0.388-0.003 0.074-0.005 0.148-0.004 0.223-0.056 0.095-0.099 0.205-0.19 0.271-0.070 0.044-0.15 0.001-0.22-0.018-0.030-0.166-0.047-0.334-0.050-0.503l-0.015 0.065c-0.009-0.067-0.019-0.133-0.029-0.199-0.014-0.093-0.022-0.187-0.029-0.281l-0.107-0.004c-0.078-0.080-0.155-0.161-0.208-0.26-0.149-0.136-0.246-0.316-0.386-0.459-0.091-0.113-0.224-0.19-0.291-0.32-0.128-0.138-0.233-0.297-0.382-0.413-0.322-0.308-0.697-0.55-1.058-0.808-0.221-0.122-0.439-0.249-0.677-0.335-0.342-0.209-0.753-0.219-1.123-0.352-0.168-0.071-0.352-0.037-0.527-0.060-0.302-0.048-0.609-0.017-0.913-0.016-0.323-0.012-0.643 0.089-0.918 0.256-0.104 0.068-0.238 0.039-0.345 0.104-0.287 0.16-0.592 0.285-0.899 0.399-0.246 0.127-0.483 0.273-0.735 0.389-0.238 0.154-0.506 0.254-0.738 0.419-0.373 0.193-0.713 0.442-1.089 0.63-0.345 0.235-0.744 0.382-1.068 0.652-0.25 0.14-0.46 0.337-0.676 0.524-0.091 0.083-0.164 0.184-0.266 0.253-0.135 0.088-0.207 0.241-0.339 0.333l-0.012 0.078c-0.041 0.024-0.083 0.047-0.122 0.074-0.009 0.068 0.014 0.136 0.018 0.204 0.018 0.135-0.010 0.274 0.029 0.407 0.060 0.226 0.102 0.457 0.118 0.691 0.064 0.599 0.195 1.196 0.447 1.745 0.099 0.176 0.136 0.379 0.227 0.559 0.078 0.157 0.134 0.325 0.226 0.475 0.091 0.123 0.15 0.266 0.239 0.39 0.147 0.217 0.24 0.465 0.381 0.685 0.059 0.112 0.141 0.217 0.159 0.346 0.044 0.252 0.103 0.504 0.197 0.742-0.019 0.072-0.022 0.155-0.076 0.213-0.1 0.115-0.214 0.224-0.357 0.282-0.234 0.112-0.498 0.114-0.751 0.132-0.173 0.025-0.351 0.044-0.522-0.005-0.059-0.027-0.104 0.024-0.147 0.055-0.208 0.030-0.395 0.135-0.601 0.172-0.145 0.054-0.279 0.133-0.429 0.173-0.302 0.138-0.639 0.173-0.968 0.173-0.271 0.026-0.541 0.056-0.81 0.095-0.293-0.004-0.58 0.085-0.874 0.077-0.188-0.005-0.379 0.008-0.565-0.024-0.371-0.054-0.719-0.201-1.069-0.329-0.177-0.064-0.342-0.161-0.526-0.202-0.306-0.075-0.593-0.214-0.863-0.376-0.084-0.060-0.148-0.143-0.22-0.214-0.303 0.117-0.566 0.323-0.879 0.418-0.365 0.104-0.668 0.346-1.012 0.499-0.369 0.213-0.764 0.374-1.137 0.581-0.393 0.219-0.807 0.393-1.216 0.578-0.123 0.059-0.267 0.086-0.369 0.183 0.010 0.274-0.050 0.547-0.154 0.799-0.075 0.108-0.135 0.225-0.185 0.347-0.257 0.351-0.636 0.587-1.027 0.76-0.14 0.074-0.304 0.043-0.455 0.033-0.152-0.028-0.316-0.037-0.45-0.123-0.188-0.127-0.322-0.328-0.374-0.551-0.004-0.151-0.016-0.303-0-0.454 0.037-0.154 0.121-0.29 0.178-0.436 0.074-0.192 0.235-0.326 0.374-0.469 0.154-0.141 0.306-0.296 0.5-0.381 0.228-0.079 0.468-0.14 0.711-0.109 0.146 0.023 0.321-0.007 0.432 0.113 0.136-0.094 0.216-0.24 0.319-0.364 0.345-0.247 0.644-0.554 0.992-0.799 0.187-0.176 0.386-0.34 0.559-0.53 0.188-0.176 0.332-0.397 0.538-0.553 0.196-0.155 0.344-0.363 0.546-0.509 0.177-0.123 0.319-0.289 0.486-0.424 0.199-0.162 0.377-0.35 0.588-0.496l-0.061-0.069c-0.065-0.24-0.088-0.487-0.079-0.736 0.015-0.271-0.069-0.541-0.017-0.811 0.028-0.228 0.157-0.425 0.221-0.643 0.067-0.166 0.148-0.326 0.234-0.482 0.206-0.258 0.327-0.573 0.524-0.838 0.176-0.258 0.35-0.518 0.555-0.754 0.102-0.14 0.238-0.25 0.397-0.318-0.038-0.151-0.018-0.309-0.059-0.459-0.077-0.312-0.109-0.632-0.165-0.948-0.086-0.266-0.194-0.532-0.192-0.817-0.087-0.386-0.2-0.786-0.112-1.183 0.064-0.278 0.064-0.567 0.141-0.842 0.042-0.162 0.047-0.335 0.128-0.485 0.099-0.198 0.133-0.422 0.224-0.623 0.169-0.257 0.301-0.537 0.476-0.79 0.121-0.14 0.242-0.279 0.36-0.421 0.3-0.285 0.606-0.564 0.909-0.845 0.277-0.237 0.477-0.556 0.783-0.762 0.121-0.103 0.249-0.195 0.373-0.293 0.134-0.157 0.149-0.377 0.148-0.576-0.012-0.207 0.151-0.382 0.336-0.446 0.156-0.054 0.299-0.135 0.437-0.225-0.133-0.137-0.212-0.315-0.327-0.467-0.024-0.042-0.066-0.081-0.062-0.133 0.021-0.053 0.051-0.102 0.078-0.151 0.052-0.040 0.102-0.082 0.151-0.125-0.612-0.613-1.163-1.285-1.689-1.973-0.226-0.255-0.453-0.506-0.699-0.741-0.167-0.143-0.305-0.321-0.422-0.508-0.059-0.376-0.018-0.76-0.083-1.136-0.105 0.164-0.192 0.339-0.29 0.507-0.14 0.265-0.259 0.546-0.45 0.78-0.057 0.069-0.127 0.133-0.158 0.22-0.061 0.178-0.020 0.375-0.084 0.552-0.046 0.012-0.094 0.019-0.141 0.027-0.084-0.111-0.051-0.256-0.088-0.383-0.128-0.443-0.207-0.898-0.34-1.339-0.069-0.156-0.105-0.323-0.158-0.484-0.052-0.167-0.122-0.328-0.16-0.5-0.077 0.047-0.144 0.106-0.216 0.159-0.186 0.111-0.407 0.161-0.569 0.312-0.092 0.092-0.268 0.116-0.353 0.004-0.1-0.125-0.178-0.267-0.27-0.398-0.167-0.237-0.249-0.518-0.38-0.774-0.071-0.208-0.178-0.399-0.269-0.598-0.21 0.026-0.424-0.014-0.614-0.109-0.151-0.078-0.338-0.118-0.433-0.274-0.151-0.158-0.25-0.353-0.361-0.539-0.114-0.286-0.201-0.587-0.217-0.897-0.014-0.129 0.092-0.218 0.157-0.314l-0.001 0zM3.423 0.503c-0.019 0.088 0.019 0.177 0.032 0.264 0.078 0.246 0.126 0.523 0.315 0.712 0.113 0.171 0.22 0.379 0.427 0.447 0.168 0.059 0.335 0.124 0.514 0.14 0.001-0.086-0.019-0.196 0.072-0.243 0.097-0.008 0.168 0.062 0.238 0.118 0.107-0.030 0.221-0.049 0.317-0.109 0.086-0.105 0.158-0.239 0.134-0.38-0.022-0.168-0.029-0.342-0.094-0.5l0.006 0.041c-0.1-0.35-0.392-0.589-0.677-0.787-0.232-0.118-0.492-0.228-0.756-0.178-0.241 0.053-0.453 0.239-0.527 0.477l0-0zM5.177 2.522c0.104 0.19 0.19 0.389 0.28 0.586 0.086 0.197 0.227 0.363 0.319 0.558 0.033 0.065 0.067 0.129 0.103 0.192 0.263-0.198 0.597-0.262 0.857-0.463l0.117-0.149 0.111-0.004c0.054 0.090 0.112 0.185 0.108 0.294-0.006 0.267 0.165 0.488 0.209 0.744 0.024 0.14 0.077 0.271 0.125 0.404 0.055 0.305 0.158 0.598 0.217 0.903 0.074-0.075 0.142-0.155 0.207-0.238 0.349-0.553 0.638-1.142 0.924-1.73 0.029-0.047 0.080-0.073 0.121-0.108l0.102 0.057c-0.014 0.248 0 0.497-0.015 0.745 0.004 0.187-0.041 0.374-0.006 0.559 0.016 0.096 0.010 0.193 0.023 0.289 0.076 0.123 0.198 0.207 0.282 0.323 0.118 0.162 0.283 0.279 0.418 0.424 0.144 0.139 0.256 0.307 0.391 0.454 0.163 0.155 0.266 0.361 0.408 0.534 0.377 0.423 0.729 0.868 1.1 1.297 0.077 0.081 0.127 0.182 0.168 0.285 0.095-0.053 0.217-0.104 0.261-0.209-0.138-0.235-0.334-0.427-0.529-0.612-0.16-0.202-0.336-0.392-0.468-0.615-0.211-0.226-0.38-0.486-0.582-0.72-0.115-0.166-0.284-0.281-0.407-0.44-0.227-0.287-0.499-0.531-0.733-0.811-0.065-0.198-0.025-0.41-0.058-0.614-0.058-0.4 0.029-0.808-0.042-1.206-0.013-0.144-0.010-0.289-0.018-0.434-0.18 0.177-0.328 0.384-0.465 0.596-0.092 0.181-0.215 0.343-0.306 0.525-0.088 0.183-0.221 0.339-0.325 0.512-0.067 0.129-0.228 0.14-0.355 0.133-0.042-0.079-0.094-0.152-0.13-0.233-0.049-0.143-0.061-0.295-0.102-0.44-0.114-0.347-0.168-0.715-0.335-1.043l-0.058-0.171c-0.183 0.087-0.317 0.244-0.481 0.358-0.156 0.086-0.33 0.133-0.473 0.244-0.084 0.001-0.167 0.002-0.25 0.008-0.064-0.119-0.139-0.233-0.25-0.313-0.177-0.127-0.26-0.348-0.436-0.474l0.013-0.028c-0.008-0.111-0.151-0-0.042 0.030v0zM17.064 7.984c-0.266 0.007-0.504 0.14-0.763 0.187-0.21 0.045-0.387 0.181-0.6 0.212-0.21 0.091-0.434 0.156-0.629 0.28-0.106 0.071-0.244 0.099-0.316 0.214-0.354 0.178-0.74 0.286-1.076 0.5-0.509 0.249-1.010 0.517-1.495 0.809-0.351 0.178-0.692 0.374-1.040 0.556-0.016 0.064-0.032 0.128-0.049 0.192-0.072 0.004-0.155-0.024-0.217 0.025-0.219 0.137-0.402 0.322-0.597 0.491-0.266 0.32-0.586 0.588-0.891 0.868-0.159 0.169-0.332 0.325-0.496 0.489-0.21 0.246-0.408 0.504-0.559 0.793-0.019 0.021-0.035 0.045-0.052 0.067 0.187-0.057 0.366-0.148 0.564-0.155 0.151-0.003 0.299-0.034 0.45-0.038 0.268 0.014 0.531-0.058 0.8-0.040 0.215-0.021 0.423 0.039 0.635 0.053 0.412 0.136 0.833 0.256 1.212 0.475 0.375 0.164 0.744 0.362 1.035 0.656 0.305 0.256 0.617 0.51 0.86 0.829 0.125 0.198 0.263 0.388 0.385 0.589 0.257-0.285 0.619-0.452 0.857-0.759 0.088-0.129 0.238-0.183 0.355-0.279 0.183-0.165 0.404-0.278 0.608-0.413 0.232-0.121 0.471-0.225 0.702-0.349 0.142-0.077 0.305-0.095 0.45-0.164 0.144-0.071 0.318-0.083 0.425-0.217 0.264-0.064 0.496-0.215 0.745-0.319 0.151-0.057 0.304-0.112 0.453-0.177 0.185-0.082 0.392-0.134 0.536-0.286 0.373-0.11 0.715-0.299 1.084-0.418 0.135-0.054 0.261-0.134 0.406-0.163 0.153-0.030 0.296-0.102 0.453-0.109 0.236 0.006 0.462-0.084 0.699-0.074 0.227 0.009 0.439-0.132 0.666-0.073 0.154 0.027 0.257 0.168 0.403 0.219 0.269 0.094 0.54 0.19 0.791 0.327 0.151 0.081 0.315 0.141 0.45 0.25 0.212 0.216 0.484 0.358 0.702 0.568 0.191 0.206 0.41 0.387 0.578 0.615 0.067 0.094 0.134 0.19 0.197 0.287 0.134 0.218 0.319 0.399 0.44 0.625 0.149 0.216 0.222 0.471 0.306 0.717 0.093 0.285 0.207 0.566 0.249 0.865 0.053 0.224 0.164 0.434 0.178 0.669 0.107 0.197 0.072 0.428 0.126 0.639 0.041 0.169 0.067 0.343 0.085 0.517l0.047 0.001c0.007-0.151 0.029-0.3 0.040-0.451 0.008-0.236-0.035-0.469-0.060-0.703 0.001-0.231-0.001-0.464-0.038-0.693-0.032-0.131-0.068-0.261-0.089-0.394-0.213-0.668-0.338-1.371-0.663-1.998-0.174-0.47-0.296-0.968-0.563-1.397-0.21-0.272-0.331-0.6-0.543-0.87-0.107-0.139-0.267-0.221-0.382-0.353-0.171-0.158-0.303-0.354-0.484-0.5-0.229-0.235-0.43-0.495-0.653-0.737-0.089-0.139-0.236-0.221-0.347-0.339-0.086-0.089-0.188-0.159-0.282-0.239-0.264-0.266-0.561-0.499-0.879-0.694-0.206-0.078-0.374-0.221-0.568-0.321-0.25-0.142-0.486-0.306-0.737-0.445-0.192-0.097-0.399-0.16-0.592-0.254-0.204-0.047-0.416-0.075-0.626-0.056 0.065 0.068 0.159 0.087 0.24 0.127 0.109 0.050 0.196 0.139 0.309 0.179 0.212 0.194 0.492 0.291 0.693 0.498 0.325 0.285 0.594 0.625 0.907 0.923 0.377 0.43 0.74 0.879 1.009 1.388 0.12 0.265 0.248 0.527 0.373 0.789 0.090 0.147 0.058 0.326 0.063 0.49l-0.093 0.025c-0.137-0.405-0.343-0.778-0.533-1.159-0.206-0.369-0.437-0.725-0.705-1.052-0.173-0.223-0.331-0.462-0.543-0.65-0.144-0.128-0.259-0.284-0.394-0.419-0.244-0.175-0.458-0.394-0.726-0.532-0.143-0.078-0.288-0.153-0.42-0.249-0.197-0.107-0.408-0.186-0.627-0.232-0.216-0.066-0.432-0.136-0.653-0.183-0.137-0.041-0.277-0.066-0.414-0.109-0.178-0.060-0.363 0.018-0.544-0.006-0.21 0.012-0.417 0.060-0.628 0.064l0.001 0zM12.353 8.312c-0.226 0.166-0.452 0.335-0.706 0.452 0.021 0.046 0.044 0.099 0.1 0.108l-0.030 0.015c0.117 0.115 0.218 0.245 0.269 0.404 0.208-0.127 0.417-0.259 0.604-0.417 0.055-0.048 0.12-0.085 0.187-0.113-0.091-0.106-0.134-0.246-0.234-0.345-0.023-0.045-0.044-0.091-0.063-0.137-0.046-0.003-0.093-0.001-0.128 0.033v0zM13.092 8.824c-0.121 0.116-0.278 0.181-0.408 0.284-0.17 0.142-0.368 0.242-0.551 0.364-0.207 0.101-0.38 0.263-0.596 0.348-0.086 0.042-0.184 0.081-0.234 0.169-0.076 0.134-0.052 0.293-0.071 0.44 0.285-0.15 0.569-0.303 0.861-0.439 0.198-0.062 0.335-0.23 0.522-0.314 0.143-0.065 0.273-0.157 0.418-0.217 0.1-0.043 0.166-0.134 0.249-0.202 0.197-0.124 0.402-0.235 0.608-0.342l0.015 0.010c0.085-0.034 0.174-0.059 0.263-0.081 0.163-0.067 0.325-0.137 0.487-0.205 0.039 0.055 0.113-0.047 0.043-0.059-0.152 0.042-0.312 0.040-0.467 0.046-0.233-0.030-0.467-0.071-0.703-0.058-0.134 0.106-0.281 0.19-0.438 0.257l0-0zM32.943 9.499c-0.117 0.053-0.251 0.097-0.323 0.213-0.112 0.133-0.129 0.313-0.123 0.48l-0.034 0.181c0.085 0.005 0.186-0.034 0.255 0.035l0.080 0.010c0.045 0.038 0.090 0.076 0.137 0.112l-0.065 0.218-0.021-0.052-0.022 0.093c0.133 0.058 0.283 0.070 0.427 0.079 0.207-0.088 0.429-0.181 0.568-0.37 0.134-0.136 0.165-0.329 0.216-0.505l-0.041-0.064c-0.016-0.046-0.033-0.093-0.068-0.127-0.088-0.175-0.248-0.297-0.423-0.374-0.193-0.047-0.377 0.044-0.564 0.070l-0 0zM32.422 10.607c-0.244 0.116-0.502 0.196-0.747 0.309l-0.001 0.002c-0.126 0.022-0.22 0.112-0.334 0.16-0.31 0.137-0.6 0.318-0.913 0.447-0.253 0.125-0.471 0.313-0.734 0.422-0.217 0.133-0.454 0.225-0.678 0.342l-0.068-0.015c0.057 0.121 0.16 0.21 0.229 0.323 0.083 0.141 0.164 0.285 0.218 0.441 0.011 0.048 0.027 0.095 0.044 0.142 0.264-0.198 0.508-0.43 0.803-0.584 0.309-0.168 0.547-0.444 0.861-0.604 0.323-0.204 0.659-0.406 0.899-0.712 0.184-0.116 0.357-0.255 0.492-0.427 0.065-0.083 0.159-0.157 0.16-0.273-0.078-0.003-0.161-0.011-0.233 0.025h0zM25.393 11.076c-0.020 0.036-0.041 0.070-0.064 0.104-0.12 0.028-0.242 0.044-0.361 0.078-0.026 0.018-0.083 0.026-0.053 0.069 0.163 0.189 0.362 0.34 0.537 0.516 0.092 0.109 0.176 0.224 0.264 0.337 0.001 0.053 0.005 0.106 0.008 0.159 0.131 0.157 0.225 0.341 0.339 0.511 0.146 0.233 0.197 0.508 0.31 0.756 0.118 0.26 0.189 0.539 0.294 0.804 0.186 0.355 0.24 0.759 0.387 1.13 0.111 0.257 0.137 0.54 0.244 0.799 0.021 0.212 0.128 0.405 0.124 0.62 0.026 0.259-0.018 0.522 0.028 0.779 0.032 0.175 0.009 0.353 0.020 0.53 0.119-0.111 0.239-0.221 0.375-0.312 0.268-0.311 0.553-0.62 0.726-0.999 0.069-0.167 0.228-0.286 0.258-0.471 0.049-0.112 0.092-0.227 0.135-0.342l-0.127-0.067c-0.010-0.069-0.027-0.155 0.060-0.181 0.036-0.438-0.010-0.879-0.14-1.298-0.052-0.304-0.15-0.598-0.271-0.881-0.136-0.314-0.269-0.63-0.436-0.929-0.18-0.246-0.31-0.528-0.522-0.75-0.166-0.155-0.287-0.364-0.498-0.467-0.091-0.118-0.19-0.253-0.343-0.287-0.258-0.075-0.513-0.158-0.772-0.227-0.174-0.018-0.351-0.017-0.522 0.020l0 0zM27.259 11.41c-0.016 0.042 0 0.062 0.049 0.059 0.065 0.050 0.121 0.111 0.169 0.179l0.002 0c0.264 0.271 0.514 0.563 0.7 0.895 0.084 0.161 0.206 0.3 0.273 0.471 0.207 0.463 0.432 0.927 0.521 1.431 0.037 0.221 0.101 0.437 0.148 0.656 0.043 0.194 0.030 0.394 0.034 0.591 0.098-0.21 0.153-0.438 0.248-0.65 0.072-0.215 0.11-0.442 0.065-0.667 0.049-0.267-0.001-0.536-0.085-0.79l-0.017-0.002c-0.012-0.081-0.021-0.164-0.057-0.237-0.086-0.161-0.146-0.334-0.25-0.486-0.126-0.26-0.334-0.464-0.541-0.658-0.075-0.073-0.146-0.165-0.257-0.177-0.151-0.121-0.305-0.24-0.47-0.341l-0.008-0.015-0.041-0.002 0.030 0.001c-0.141-0.075-0.282-0.15-0.428-0.214-0.013-0.049-0.041-0.064-0.086-0.045l0.001-0zM22.202 12.523c-0.261 0.067-0.534 0.014-0.796 0.078-0.32 0.029-0.624 0.141-0.924 0.252-0.306 0.162-0.638 0.263-0.966 0.372-0.151 0.073-0.295 0.158-0.456 0.208-0.375 0.209-0.794 0.316-1.174 0.512-0.227 0.124-0.466 0.225-0.697 0.341-0.508 0.183-0.981 0.451-1.429 0.751-0.126 0.079-0.238 0.195-0.393 0.211-0.057 0.057-0.111 0.117-0.162 0.179-0.25 0.304-0.582 0.524-0.838 0.823-0.022 0.024-0.038 0.051-0.048 0.082-0.123 0.402-0.187 0.818-0.258 1.232-0.093 0.426-0.119 0.868-0.052 1.3 0.105-0.191 0.305-0.292 0.448-0.448 0.128-0.14 0.285-0.25 0.42-0.383 0.134-0.13 0.3-0.216 0.449-0.324 0.327-0.237 0.695-0.405 1.036-0.617 0.259-0.162 0.528-0.308 0.785-0.473 0.090-0.058 0.185-0.106 0.283-0.149 0.186-0.083 0.348-0.21 0.531-0.299 0.356-0.176 0.69-0.393 1.043-0.575 0.296-0.102 0.555-0.284 0.836-0.419 0.261-0.066 0.481-0.25 0.754-0.271 0.638-0.082 1.285-0.1 1.926-0.034 0.156 0.019 0.301 0.086 0.455 0.117 0.715 0.156 1.399 0.471 1.971 0.933 0.129 0.092 0.265 0.175 0.38 0.286 0.235 0.183 0.484 0.364 0.649 0.618 0.083 0.126 0.21 0.218 0.273 0.358l0.066 0.038c0.092 0.15 0.236 0.265 0.303 0.431 0.064 0.156 0.157 0.299 0.281 0.413-0.020-0.199-0.11-0.382-0.127-0.582-0.021-0.276-0.15-0.525-0.218-0.79-0.077-0.296-0.154-0.595-0.281-0.874-0.071-0.157-0.113-0.326-0.195-0.477-0.106-0.212-0.267-0.387-0.401-0.581-0.124-0.182-0.254-0.359-0.374-0.542-0.066-0.097-0.124-0.204-0.218-0.276-0.195-0.155-0.385-0.318-0.555-0.502-0.076-0.081-0.152-0.166-0.255-0.212-0.237-0.113-0.408-0.331-0.655-0.426-0.199-0.1-0.422-0.135-0.615-0.249-0.258-0.075-0.538-0.102-0.802-0.033h-0zM9.695 13.646c-0.264 0.017-0.529 0.029-0.791 0.062l0.042 0.002c-0.188 0.034-0.371 0.095-0.559 0.135-0.084 0.033-0.202 0.034-0.245 0.127-0.076 0.167-0.146 0.338-0.204 0.512-0.129 0.461-0.158 0.94-0.221 1.413-0.022 0.413 0.077 0.818 0.124 1.226 0.027 0.274 0.172 0.515 0.213 0.786 0.013 0.322 0.153 0.622 0.162 0.945 0.078-0.031 0.16-0.046 0.244-0.046 0.042-0.016 0.085-0.031 0.128-0.045l0.005-0.016c0.374-0.046 0.752-0.116 1.129-0.063 0.242 0.038 0.492-0.006 0.731 0.057 0.17 0.043 0.348 0.036 0.517 0.083 0.319 0.114 0.584 0.344 0.906 0.456 0.393 0.194 0.752 0.449 1.095 0.723 0.215 0.193 0.397 0.422 0.617 0.61 0.206 0.204 0.334 0.471 0.499 0.708-0.005-0.162-0.058-0.318-0.071-0.479-0.039-0.379-0.117-0.751-0.17-1.128-0.025-0.157 0.002-0.322-0.045-0.476 0.013-0.258-0.038-0.513-0.035-0.771-0.003-0.285 0.025-0.568 0.042-0.852 0.039-0.305 0.147-0.598 0.17-0.905 0.021-0.154 0.087-0.302 0.070-0.461 0.008-0.103-0.075-0.177-0.116-0.262-0.274-0.515-0.724-0.894-1.15-1.275-0.17-0.191-0.402-0.303-0.612-0.44-0.252-0.145-0.533-0.224-0.801-0.332-0.205-0.084-0.427-0.112-0.63-0.2-0.33-0.136-0.695-0.135-1.043-0.094v0zM8.644 18.947l0.013 0.016c-0.129 0.025-0.257 0.060-0.383 0.097l-0.008 0.089c-0.328 0.285-0.598 0.631-0.846 0.987-0.12 0.148-0.183 0.337-0.323 0.469-0.085 0.237-0.275 0.416-0.382 0.643 0.163-0.009 0.328-0.052 0.49-0.016l0.108 0.012c0.226 0.032 0.457 0.047 0.673 0.124 0.21 0.085 0.437 0.128 0.634 0.245 0.314 0.197 0.649 0.388 0.875 0.692 0.134 0.157 0.282 0.302 0.408 0.466 0.179 0.273 0.339 0.559 0.477 0.856 0.11 0.189 0.157 0.403 0.221 0.61 0.035 0.164 0.047 0.332 0.107 0.49 0.016 0.195 0.046 0.389 0.049 0.586-0.052 0.13-0.028 0.276-0.053 0.413-0.051 0.303-0.14 0.599-0.241 0.889 0.386-0.047 0.772-0.1 1.162-0.119 0.308-0.058 0.623-0.059 0.933-0.105 0.171-0.023 0.336-0.079 0.504-0.121 0.219-0.067 0.446-0.132 0.627-0.281 0.11-0.013 0.228-0.014 0.324-0.077 0.070-0.067 0.129-0.146 0.199-0.214 0.036-0.181 0.067-0.362 0.077-0.546 0.016-0.331 0.115-0.654 0.099-0.987 0-0.296-0.017-0.594 0.030-0.887-0.016-0.351-0.048-0.718-0.216-1.033-0.058-0.169-0.119-0.337-0.189-0.501-0.129-0.238-0.228-0.493-0.396-0.707-0.157-0.259-0.415-0.425-0.607-0.653-0.219-0.23-0.464-0.436-0.732-0.606-0.31-0.225-0.676-0.351-1-0.551-0.206-0.127-0.429-0.244-0.674-0.265-0.283-0.013-0.561-0.075-0.843-0.086-0.221-0-0.443-0.012-0.663 0.007-0.151 0.018-0.299 0.058-0.451 0.066l-0-0zM6.606 21.435l-0.034 0.080-0.040 0.1c-0.083 0.22-0.174 0.439-0.208 0.673-0.006 0.165-0.009 0.331 0.006 0.495 0.028 0.233 0.028 0.469 0.066 0.701 0.002 0.050 0.036 0.101 0.082 0.054 0.070-0.055 0.115-0.216 0.226-0.155 0.123 0.097 0.285 0.023 0.42 0.081 0.294 0.116 0.577 0.273 0.81 0.49 0.12 0.161 0.204 0.35 0.265 0.541 0.026 0.192 0.051 0.391-0.014 0.579-0.026 0.116-0.145 0.166-0.225 0.239-0.137 0.118-0.313 0.171-0.471 0.254 0.211 0.189 0.478 0.29 0.735 0.394 0.365 0.103 0.714 0.255 1.058 0.418 0.233 0.114 0.492 0.16 0.748 0.179 0.109-0.089 0.226-0.178 0.279-0.315 0.117-0.278 0.165-0.58 0.19-0.879 0.013-0.179 0.071-0.364-0.002-0.539-0.068-0.351-0.149-0.701-0.275-1.036-0.14-0.274-0.27-0.556-0.447-0.809-0.099-0.112-0.191-0.231-0.294-0.34-0.11-0.115-0.189-0.259-0.314-0.359-0.186-0.153-0.361-0.323-0.577-0.434-0.168-0.102-0.357-0.16-0.538-0.235-0.301-0.125-0.625-0.19-0.95-0.204-0.164 0.020-0.335-0.023-0.495 0.028v0zM14.586 22.785c0.033 0.257 0.077 0.515 0.050 0.775 0.002 0.396 0 0.792-0.045 1.186-0.080 0.36-0.069 0.733-0.144 1.094 0.198 0.064 0.406 0 0.606-0.013 0.28-0.036 0.635-0.064 0.771-0.361 0.009-0.172-0.071-0.331-0.123-0.49-0.047-0.134-0.048-0.284-0.125-0.406-0.183-0.311-0.338-0.64-0.54-0.939-0.106-0.169-0.19-0.35-0.286-0.523-0.060-0.106-0.082-0.232-0.166-0.323h0zM6.595 23.756c-0.107 0.104-0.216 0.206-0.338 0.293l-0.001 0.013c-0.199 0.103-0.366 0.256-0.524 0.414-0.198 0.165-0.386 0.34-0.585 0.503-0.213 0.209-0.422 0.422-0.653 0.612-0.249 0.293-0.517 0.571-0.789 0.844-0.137 0.087-0.242 0.216-0.37 0.316-0.151 0.117-0.295 0.242-0.437 0.371-0.098 0.091-0.223 0.15-0.305 0.257-0.046 0.058-0.090 0.116-0.136 0.173 0.034 0.042 0.067 0.085 0.1 0.128l0.067-0.059 0.027-0.044 0.022 0.036c0.669-0.216 1.276-0.583 1.924-0.85l0.622-0.296c0.363-0.147 0.66-0.427 1.037-0.541 0.134-0.045 0.257-0.114 0.382-0.179 0.161-0.087 0.332-0.153 0.488-0.248 0.257-0.141 0.535-0.249 0.775-0.42 0.173-0.181 0.066-0.449 0.033-0.663l-0.018 0.007c-0.068-0.144-0.137-0.297-0.276-0.385-0.216-0.147-0.446-0.289-0.704-0.344-0.116-0.016-0.252-0.029-0.343 0.063l0 0zM1.181 27.69c-0.145 0.069-0.247 0.197-0.372 0.293-0.303 0.246-0.532 0.611-0.546 1.011 0.012 0.123 0.064 0.237 0.139 0.335 0.176 0.242 0.506 0.294 0.782 0.247 0.215-0.039 0.371-0.202 0.554-0.309 0.084-0.053 0.176-0.099 0.239-0.178 0.226-0.316 0.418-0.674 0.454-1.068-0.017-0.034-0.036-0.066-0.058-0.096-0.030-0.077-0.085-0.14-0.14-0.199-0.032-0.062-0.059-0.125-0.086-0.189-0.325 0-0.669-0.001-0.965 0.152l-0-0zM17.45 9.012c0.175-0.006 0.35-0.018 0.523-0.043 0.24 0.063 0.491 0.052 0.732 0.113 0.286 0.019 0.566 0.077 0.846 0.133 0.289 0.177 0.634 0.28 0.854 0.553 0.268 0.248 0.433 0.604 0.441 0.971-0.060 0.227-0.195 0.49-0.444 0.539-0.375 0.091-0.724 0.264-1.093 0.372-0.419 0.136-0.797 0.364-1.163 0.605-0.236 0.142-0.485 0.261-0.714 0.416-0.201 0.139-0.419 0.252-0.628 0.377-0.171 0.121-0.33 0.258-0.494 0.388-0.322 0.227-0.679 0.395-1.016 0.596-0.162 0.036-0.31 0.119-0.476 0.138-0.348 0.038-0.743 0.051-1.029-0.188-0.157-0.096-0.214-0.279-0.321-0.419-0.119-0.15-0.121-0.347-0.15-0.528-0.025-0.154-0.004-0.309 0.019-0.462 0.020-0.285 0.164-0.54 0.291-0.789 0.123-0.276 0.331-0.512 0.392-0.815 0.16-0.18 0.264-0.403 0.43-0.577 0.14-0.142 0.237-0.322 0.39-0.451 0.298-0.349 0.751-0.481 1.15-0.672 0.324-0.112 0.669-0.151 1.008-0.187 0.153-0.013 0.3-0.070 0.454-0.070l0 0zM16.924 9.283c-0.41 0.062-0.826 0.136-1.202 0.318-0.167 0.101-0.343 0.185-0.505 0.294-0.218 0.169-0.373 0.402-0.563 0.599-0.146 0.172-0.281 0.354-0.427 0.527-0.16 0.184-0.2 0.441-0.366 0.62-0.093 0.181-0.152 0.38-0.225 0.571-0.049 0.216-0.152 0.422-0.129 0.649-0.013 0.304 0.145 0.573 0.299 0.82 0.146 0.181 0.377 0.256 0.6 0.278 0.14-0.025 0.284-0.004 0.423-0.033 0.288-0.052 0.541-0.21 0.785-0.363 0.301-0.159 0.589-0.346 0.857-0.558 0.17-0.113 0.327-0.246 0.514-0.331 0.297-0.215 0.624-0.38 0.937-0.57 0.263-0.136 0.501-0.315 0.779-0.42 0.22-0.136 0.471-0.199 0.699-0.318 0.146-0.070 0.312-0.086 0.456-0.161 0.164-0.079 0.349-0.091 0.514-0.166 0.179-0.106 0.247-0.342 0.199-0.539-0.014-0.199-0.148-0.353-0.242-0.518-0.263-0.281-0.612-0.465-0.972-0.59-0.328-0.085-0.667-0.109-0.999-0.169-0.242-0.045-0.489-0.012-0.732-0.024-0.238-0.011-0.464 0.094-0.702 0.085v0zM15.997 9.956c0.038-0.061 0.075-0.146 0.163-0.118 0.107 0.088 0.209 0.183 0.333 0.249 0.213 0.13 0.413 0.286 0.587 0.467l0.058-0.002c0.042-0.109 0.067-0.224 0.099-0.337 0.035-0.093 0.145-0.055 0.219-0.054l0.032 0.078c0 0.23 0.183 0.388 0.281 0.578 0.201-0.112 0.273-0.351 0.382-0.541 0.076-0.124 0.033-0.314 0.166-0.399 0.083-0.009 0.132 0.071 0.175 0.128 0.108 0.16 0.248 0.294 0.362 0.449 0.056-0.062 0.13-0.118 0.14-0.206 0.021-0.073 0.005-0.164 0.063-0.221 0.094-0.033 0.187 0.020 0.276 0.046 0.22 0.087 0.449 0.152 0.653 0.274 0.084 0.056 0.187 0.057 0.277 0.097 0.034 0.049 0.029 0.112 0.040 0.168-0.2 0.093-0.368-0.086-0.546-0.152-0.175-0.061-0.341-0.145-0.518-0.198-0.072 0.152-0.193 0.271-0.289 0.408-0.038 0.057-0.101 0.099-0.171 0.085-0.042-0.069-0.070-0.145-0.113-0.212-0.082-0.132-0.208-0.225-0.317-0.331-0.073 0.169-0.138 0.342-0.211 0.511-0.062 0.157-0.214 0.254-0.269 0.416-0.074 0.024-0.152 0.048-0.219-0.007-0.034-0.215-0.139-0.42-0.302-0.564-0.020 0.098-0.041 0.196-0.056 0.294-0.053 0.025-0.114 0.067-0.173 0.035l-0.246-0.277c-0.152-0.134-0.323-0.246-0.5-0.343 0.072 0.29 0.163 0.594 0.1 0.893 0.022 0.168 0.068 0.332 0.099 0.498 0.021 0.095-0.095 0.131-0.167 0.109-0.125-0.030-0.254-0.019-0.38-0.035-0.105-0.042-0.208-0.089-0.32-0.108 0.004 0.103 0.080 0.177 0.119 0.267 0.035 0.1 0.036 0.207 0.062 0.31 0.008 0.052 0.028 0.109-0 0.159-0.062 0.040-0.141 0.062-0.21 0.027-0.17-0.067-0.351-0.088-0.529-0.122 0.092 0.156 0.225 0.282 0.317 0.438 0.056 0.077-0.024 0.186-0.112 0.176-0.232-0.019-0.465 0.002-0.697-0.018-0.044 0.222-0.149 0.425-0.192 0.647-0.068-0.013-0.157 0.021-0.207-0.042-0.077-0.069 0.012-0.168 0.031-0.246 0.079-0.159 0.082-0.342 0.147-0.505 0.178-0.194 0.455-0.026 0.676-0.062-0.054-0.173-0.207-0.273-0.312-0.409-0.066-0.090 0.018-0.17 0.085-0.223 0.256 0.047 0.527 0.038 0.769 0.147-0.018-0.225-0.165-0.406-0.219-0.621 0.052-0.041 0.101-0.086 0.158-0.12 0.097-0.024 0.19 0.022 0.279 0.055 0.142 0.057 0.297 0.069 0.448 0.077-0.074-0.296-0.017-0.601-0.061-0.899-0.086-0.238-0.163-0.479-0.259-0.714h-0zM26.059 11.458c0.108-0.156 0.383-0.156 0.457 0.034 0.113-0.005 0.245-0.024 0.325 0.079 0.113 0.209 0.299 0.403 0.286 0.658 0.009 0.12-0.088 0.21-0.175 0.276-0.133 0.089-0.3 0.166-0.461 0.116-0.199-0.067-0.315-0.262-0.404-0.441-0.113-0.221-0.118-0.49-0.028-0.721l-0 0zM26.251 11.658c-0.048 0.265 0.047 0.573 0.29 0.709 0.077 0.054 0.168-0.002 0.243-0.030-0.154-0.243-0.301-0.503-0.533-0.679h-0zM26.467 11.662c0.144 0.135 0.265 0.292 0.416 0.418-0.053-0.115-0.116-0.227-0.193-0.327-0.051-0.072-0.145-0.075-0.223-0.091v0zM27.101 13.207c0.142-0.077 0.334-0.058 0.425 0.088 0.158 0.038 0.289 0.146 0.371 0.286 0.117 0.213 0.24 0.425 0.301 0.664-0.071 0.167-0.206 0.292-0.344 0.402-0.163 0.006-0.362 0.016-0.473-0.128-0.142-0.187-0.291-0.386-0.324-0.625-0.045-0.164-0.064-0.334-0.036-0.503 0.028-0.060 0.054-0.121 0.080-0.183v-0zM27.246 13.456c-0.084 0.298 0.064 0.59 0.227 0.83 0.072 0.084 0.185 0.115 0.284 0.155-0.008-0.336-0.191-0.625-0.373-0.893l0.108-0.002c0.075 0.096 0.159 0.185 0.241 0.277 0.107 0.124 0.124 0.301 0.236 0.422-0.041-0.165-0.152-0.297-0.22-0.45-0.092-0.194-0.264-0.328-0.444-0.431-0.022 0.029-0.041 0.060-0.057 0.093v-0zM27.954 15.316c0.224-0.019 0.411 0.135 0.58 0.264 0.132 0.103 0.072 0.282 0.108 0.423 0.014 0.173 0.025 0.388-0.127 0.507-0.128 0.092-0.268 0.198-0.435 0.185-0.22 0.029-0.364-0.192-0.411-0.381-0.102-0.265-0.056-0.569 0.084-0.811 0.052-0.074 0.112-0.157 0.2-0.186l-0-0zM28.203 15.611c0.039 0.121 0.102 0.234 0.135 0.357 0.016 0.114 0.008 0.231 0.009 0.346l0.054-0.025c0.080-0.235 0.062-0.57-0.199-0.678h0zM28.012 16.499c0.046-0.052 0.114-0.097 0.121-0.173 0.059-0.245-0.032-0.496-0.176-0.692-0.213 0.244-0.187 0.649 0.055 0.865v0zM8.436 19.382c0.238-0.041 0.491-0.074 0.726-0 0.174 0.074 0.371 0.136 0.489 0.294 0.065 0.13 0.095 0.28 0.091 0.425 0.003 0.136-0.079 0.252-0.138 0.368-0.053 0.109-0.172 0.153-0.267 0.214-0.294 0.061-0.6-0.019-0.856-0.169-0.166-0.077-0.307-0.198-0.42-0.342l0.005-0.087-0.073-0.040c0.053-0.13 0.007-0.276 0.066-0.403 0.114-0.103 0.243-0.187 0.377-0.26l-0 0zM8.643 19.534c-0.182 0.070-0.381 0.154-0.491 0.327 0.039 0.034 0.078 0.069 0.119 0.102 0.095-0.124 0.225-0.212 0.346-0.306 0.106-0.085 0.247-0.072 0.373-0.088-0.114-0.018-0.232-0.083-0.347-0.034v0zM8.434 20.173c0.060 0.085 0.161 0.125 0.251 0.17 0.15 0.069 0.31 0.138 0.478 0.124 0.143-0.007 0.27-0.118 0.301-0.259 0.056-0.122 0.052-0.273-0.050-0.369-0.206-0.029-0.421-0.078-0.626-0.026-0.131 0.104-0.276 0.208-0.354 0.361h-0zM10.716 21.009c0.367-0.253 0.871-0.174 1.228 0.059 0.19 0.126 0.321 0.318 0.453 0.5 0.122 0.178 0.106 0.405 0.101 0.611-0.074 0.189-0.14 0.397-0.313 0.518-0.115 0.103-0.278 0.138-0.425 0.094-0.177-0.062-0.36-0.123-0.507-0.245-0.144-0.114-0.218-0.296-0.37-0.401-0.019-0.038-0.032-0.081-0.066-0.106-0.162-0.13-0.242-0.331-0.303-0.524-0.015-0.191 0.038-0.393 0.202-0.505v-0zM10.761 21.335c0.205-0.066 0.418-0.085 0.629-0.112 0.26 0.058 0.525 0.155 0.715 0.35-0.098-0.122-0.193-0.252-0.327-0.338-0.221-0.146-0.499-0.208-0.76-0.159-0.111 0.055-0.203 0.146-0.258 0.258v0zM10.887 21.526c-0.155 0.075-0.017 0.26 0.063 0.344l0.012 0.080c0.098 0.034 0.187 0.091 0.243 0.182 0.164 0.235 0.425 0.408 0.712 0.428 0.22-0.066 0.312-0.333 0.311-0.544-0.238-0.232-0.479-0.514-0.828-0.559-0.171-0.006-0.359-0.016-0.514 0.069l-0-0zM12.349 24.271c0.176-0.143 0.4-0.235 0.628-0.223 0.161 0.042 0.349 0.097 0.421 0.266 0.271 0.495 0.072 1.205-0.429 1.468-0.161 0.1-0.36 0.123-0.545 0.090-0.193-0.048-0.34-0.224-0.375-0.418-0.028-0.151 0.009-0.303 0.046-0.449 0.056-0.252 0.059-0.54 0.253-0.734l0 0zM12.808 24.278c0.192 0.344 0.225 0.742 0.262 1.127 0.144-0.155 0.227-0.361 0.224-0.574-0.009-0.182-0.042-0.382-0.187-0.507-0.099-0.021-0.198-0.043-0.299-0.046h-0zM12.383 24.693c-0.046 0.147-0.033 0.306-0.085 0.452-0.098 0.206 0.080 0.515 0.319 0.485 0.062-0.069 0.128-0.134 0.197-0.195 0.024-0.366-0.028-0.753-0.226-1.068-0.094 0.089-0.177 0.196-0.205 0.326v0zM3.423 0.503c0.075-0.239 0.286-0.425 0.527-0.477 0.265-0.050 0.525 0.060 0.756 0.178 0.284 0.198 0.576 0.437 0.677 0.787l0.006 0.035c-0.305 0.074-0.562-0.148-0.831-0.248-0.183-0.032-0.354-0.109-0.534-0.147-0.195 0.021-0.369 0.136-0.569 0.135-0.013-0.087-0.051-0.175-0.032-0.264v0zM32.943 9.499c0.188-0.026 0.371-0.118 0.564-0.070 0.174 0.077 0.335 0.199 0.423 0.374-0.157-0.067-0.331-0.134-0.502-0.085-0.168 0.049-0.356 0.084-0.482 0.217-0.084 0.081-0.149 0.18-0.245 0.247-0.064 0.025-0.137 0.007-0.204 0.010-0.007-0.167 0.011-0.347 0.123-0.48 0.072-0.116 0.206-0.16 0.323-0.213v0zM31.34 11.079c0.114-0.049 0.209-0.138 0.334-0.16-0.038 0.175-0.15 0.336-0.32 0.402-0.233 0.091-0.462 0.19-0.686 0.301-0.199 0.097-0.347 0.273-0.547 0.369-0.14 0.068-0.294 0.099-0.435 0.165-0.119 0.051-0.229 0.125-0.355 0.16-0.106 0.028-0.213-0.002-0.317-0.024 0.224-0.117 0.462-0.209 0.678-0.342 0.262-0.108 0.48-0.297 0.734-0.422 0.313-0.13 0.603-0.31 0.913-0.447v0zM27.308 11.469l0.037-0.014c0.146 0.064 0.287 0.139 0.428 0.214l-0.030-0.001c-0.088-0.005-0.176-0.012-0.264-0.018l-0.002-0c-0.047-0.068-0.103-0.129-0.169-0.179v0zM27.791 11.685c0.165 0.101 0.319 0.22 0.47 0.341-0.205-0.018-0.397-0.142-0.47-0.341v0zM6.572 21.515l0.034-0.080c0.115 0.008 0.23-0.004 0.345-0.015-0.054 0.178-0.126 0.35-0.198 0.522-0.095 0.225-0.108 0.472-0.177 0.705-0.038 0.125-0.050 0.255-0.050 0.385 0.004 0.161-0.080 0.304-0.129 0.453-0.038-0.232-0.038-0.468-0.066-0.701-0.015-0.165-0.012-0.331-0.006-0.495 0.034-0.235 0.125-0.454 0.208-0.673l0.040-0.1v-0zM5.732 24.476c0.158-0.157 0.325-0.311 0.524-0.414-0.014 0.111-0.020 0.231-0.086 0.326-0.082 0.116-0.211 0.185-0.299 0.296s-0.173 0.227-0.284 0.317c-0.128 0.105-0.267 0.197-0.383 0.317-0.154 0.156-0.35 0.257-0.514 0.4-0.095 0.082-0.19 0.164-0.299 0.226-0.249 0.134-0.428 0.368-0.685 0.491 0.272-0.272 0.539-0.55 0.789-0.844 0.231-0.189 0.44-0.402 0.653-0.612 0.199-0.163 0.388-0.338 0.585-0.503h0zM1.181 27.69c0.297-0.154 0.64-0.152 0.965-0.152 0.027 0.064 0.054 0.127 0.086 0.189-0.127 0.078-0.27 0.128-0.42 0.13-0.217 0.012-0.407 0.126-0.602 0.211-0.115 0.054-0.242 0.099-0.326 0.2-0.090 0.113-0.139 0.253-0.237 0.36-0.121 0.13-0.244 0.258-0.384 0.367 0.014-0.4 0.242-0.765 0.546-1.011 0.126-0.096 0.228-0.224 0.372-0.293l0 0zM3.455 0.767c0.2 0 0.374-0.114 0.569-0.135 0.181 0.038 0.351 0.115 0.534 0.147 0.269 0.1 0.526 0.322 0.831 0.248l0.043 0.317c-0.2 0.152-0.367 0.402-0.641 0.407-0.196 0.009-0.4 0.008-0.583-0.071-0.148-0.062-0.297-0.124-0.439-0.201-0.189-0.188-0.237-0.466-0.315-0.712l-0 0zM16.924 9.283c0.238 0.009 0.464-0.095 0.702-0.085 0.244 0.012 0.49-0.021 0.732 0.024 0.333 0.060 0.671 0.084 0.999 0.169 0.359 0.125 0.709 0.308 0.972 0.59 0.095 0.165 0.228 0.319 0.242 0.518 0.048 0.197-0.020 0.433-0.199 0.539-0.165 0.075-0.351 0.087-0.514 0.166-0.145 0.075-0.31 0.091-0.456 0.161-0.228 0.119-0.479 0.182-0.699 0.318-0.278 0.105-0.517 0.284-0.779 0.42-0.313 0.189-0.64 0.354-0.937 0.57-0.187 0.085-0.344 0.218-0.514 0.331-0.267 0.213-0.555 0.399-0.857 0.558-0.244 0.153-0.498 0.311-0.785 0.363-0.14 0.029-0.283 0.007-0.423 0.033-0.223-0.021-0.454-0.096-0.6-0.278-0.155-0.247-0.313-0.516-0.299-0.82-0.023-0.227 0.080-0.434 0.129-0.649 0.073-0.191 0.131-0.39 0.225-0.571 0.166-0.179 0.206-0.436 0.366-0.62 0.146-0.173 0.28-0.355 0.427-0.527 0.19-0.197 0.345-0.43 0.563-0.599 0.162-0.109 0.338-0.193 0.505-0.294 0.377-0.182 0.792-0.256 1.202-0.318v0zM15.997 9.956c0.096 0.234 0.173 0.476 0.259 0.714 0.044 0.297-0.013 0.603 0.061 0.899-0.151-0.008-0.306-0.021-0.448-0.077-0.089-0.033-0.182-0.079-0.279-0.055-0.057 0.034-0.106 0.079-0.158 0.12 0.053 0.214 0.201 0.396 0.219 0.621-0.242-0.109-0.513-0.099-0.769-0.147-0.067 0.053-0.151 0.133-0.085 0.223 0.104 0.136 0.257 0.236 0.312 0.409-0.222 0.035-0.498-0.132-0.676 0.062-0.065 0.162-0.068 0.345-0.147 0.505-0.019 0.078-0.108 0.177-0.031 0.246 0.049 0.063 0.139 0.029 0.207 0.042 0.042-0.223 0.148-0.425 0.192-0.647 0.232 0.020 0.465-0.001 0.697 0.018 0.087 0.010 0.168-0.099 0.112-0.176-0.092-0.156-0.224-0.282-0.317-0.438 0.178 0.034 0.359 0.055 0.529 0.122 0.069 0.034 0.148 0.012 0.21-0.027 0.028-0.050 0.008-0.107 0-0.159-0.026-0.102-0.027-0.21-0.062-0.31-0.039-0.090-0.115-0.164-0.119-0.267 0.112 0.018 0.215 0.066 0.32 0.108 0.126 0.016 0.255 0.006 0.38 0.035 0.072 0.022 0.188-0.014 0.167-0.109-0.031-0.166-0.077-0.33-0.099-0.498 0.063-0.299-0.028-0.604-0.1-0.893 0.177 0.097 0.348 0.208 0.5 0.343l0.246 0.277c0.060 0.031 0.12-0.011 0.173-0.035 0.015-0.099 0.036-0.197 0.056-0.294 0.163 0.144 0.269 0.349 0.302 0.564 0.067 0.054 0.145 0.031 0.219 0.007 0.055-0.162 0.207-0.259 0.269-0.416 0.073-0.169 0.137-0.342 0.211-0.511 0.11 0.106 0.236 0.199 0.317 0.331 0.044 0.067 0.071 0.143 0.113 0.212 0.070 0.014 0.134-0.028 0.171-0.085 0.095-0.137 0.216-0.256 0.289-0.408 0.177 0.054 0.343 0.137 0.518 0.198 0.178 0.066 0.346 0.245 0.546 0.152-0.011-0.057-0.006-0.12-0.040-0.168-0.090-0.040-0.194-0.041-0.277-0.097-0.204-0.122-0.433-0.187-0.653-0.274-0.088-0.026-0.182-0.079-0.276-0.046-0.058 0.058-0.042 0.148-0.063 0.221-0.010 0.089-0.085 0.145-0.14 0.206-0.114-0.155-0.254-0.289-0.362-0.449-0.043-0.058-0.092-0.138-0.175-0.128-0.133 0.086-0.090 0.275-0.166 0.399-0.109 0.19-0.18 0.429-0.382 0.541-0.099-0.19-0.281-0.348-0.281-0.578l-0.032-0.078c-0.074-0-0.184-0.039-0.219 0.054-0.032 0.113-0.057 0.227-0.099 0.337l-0.058 0.002c-0.174-0.181-0.373-0.337-0.587-0.467-0.123-0.065-0.226-0.16-0.333-0.249-0.088-0.028-0.125 0.057-0.163 0.118h0zM33.428 9.717c0.171-0.050 0.346 0.018 0.502 0.085 0.034 0.035 0.052 0.082 0.068 0.127l0.012 0.069c-0.115 0.118-0.226 0.241-0.292 0.395-0.108 0.228-0.398 0.179-0.584 0.295-0.080 0.027-0.164 0.127-0.249 0.079l-0.014-0.019c0.017-0.074 0.047-0.144 0.065-0.218-0.047-0.036-0.092-0.074-0.137-0.112l-0.080-0.010c-0.070-0.069-0.171-0.030-0.255-0.035l0.034-0.181c0.067-0.003 0.139 0.014 0.204-0.010 0.095-0.067 0.161-0.167 0.245-0.247 0.127-0.133 0.314-0.168 0.482-0.217l-0-0zM32.422 10.607c0.072-0.036 0.154-0.028 0.233-0.025-0.002 0.115-0.096 0.189-0.16 0.273-0.136 0.172-0.309 0.311-0.492 0.427-0.706 0.245-1.25 0.786-1.875 1.176-0.259 0.167-0.548 0.325-0.693 0.614l-0.040-0.032c-0.053-0.156-0.135-0.299-0.218-0.441-0.069-0.113-0.172-0.203-0.229-0.323l0.068 0.015c0.103 0.022 0.211 0.052 0.317 0.024 0.126-0.034 0.235-0.109 0.355-0.16 0.141-0.065 0.295-0.097 0.435-0.165 0.2-0.096 0.348-0.272 0.547-0.369 0.224-0.111 0.453-0.21 0.686-0.301 0.17-0.065 0.282-0.227 0.32-0.402l0.001-0.002c0.245-0.114 0.503-0.193 0.747-0.309v-0zM27.479 11.649c0.088 0.007 0.176 0.014 0.264 0.018l0.041 0.002 0.008 0.015c0.073 0.199 0.265 0.323 0.47 0.341 0.111 0.012 0.182 0.104 0.257 0.177 0.207 0.194 0.415 0.398 0.541 0.658 0.104 0.152 0.164 0.325 0.25 0.486 0.036 0.073 0.046 0.156 0.057 0.237l0.017 0.002c0.084 0.254 0.134 0.523 0.085 0.79 0.045 0.225 0.007 0.452-0.065 0.667-0.095 0.212-0.15 0.44-0.248 0.65-0.005-0.197 0.009-0.397-0.034-0.591-0.047-0.22-0.111-0.435-0.148-0.656-0.089-0.505-0.313-0.969-0.521-1.431-0.067-0.171-0.19-0.31-0.273-0.471-0.186-0.333-0.436-0.624-0.7-0.895l-0.001 0zM6.606 21.435c0.16-0.051 0.331-0.008 0.495-0.028 0.325 0.014 0.649 0.079 0.95 0.204 0.18 0.076 0.369 0.133 0.538 0.235 0.216 0.111 0.391 0.281 0.577 0.434 0.125 0.101 0.204 0.244 0.314 0.359 0.103 0.108 0.195 0.227 0.294 0.34 0.177 0.252 0.307 0.534 0.447 0.809 0.126 0.335 0.207 0.685 0.275 1.036 0.015 0.128 0.008 0.256-0.001 0.384-0.13-0.007-0.267-0.002-0.386-0.064-0.149-0.076-0.297-0.157-0.461-0.196-0.146-0.035-0.28-0.105-0.42-0.157-0.139-0.052-0.29-0.036-0.433-0.065-0.099-0.035-0.177-0.116-0.279-0.143-0.107-0.029-0.215-0.051-0.318-0.089-0.061-0.191-0.145-0.38-0.265-0.541-0.233-0.216-0.516-0.374-0.81-0.49-0.135-0.059-0.297 0.016-0.42-0.081-0.111-0.061-0.155 0.101-0.226 0.155-0.046 0.047-0.080-0.004-0.082-0.054 0.049-0.149 0.133-0.291 0.129-0.453 0-0.13 0.013-0.26 0.050-0.385 0.069-0.233 0.083-0.48 0.177-0.705 0.072-0.172 0.144-0.344 0.198-0.522-0.115 0.011-0.23 0.023-0.345 0.015l-0 0zM6.595 23.756c0.090-0.091 0.227-0.078 0.343-0.063 0.258 0.054 0.487 0.197 0.704 0.344 0.139 0.088 0.208 0.242 0.276 0.385-0.255 0.079-0.426 0.293-0.63 0.451-0.197 0.142-0.369 0.316-0.563 0.462-0.249 0.227-0.553 0.374-0.85 0.524-0.299 0.166-0.578 0.368-0.891 0.51-0.18 0.082-0.329 0.219-0.507 0.305-0.271 0.137-0.545 0.276-0.839 0.356-0.171 0.044-0.317 0.149-0.481 0.21-0.187 0.074-0.397 0.152-0.505 0.337l-0.027 0.044-0.067 0.059c-0.033-0.043-0.066-0.086-0.1-0.128 0.046-0.057 0.090-0.116 0.136-0.173 0.082-0.108 0.207-0.167 0.305-0.257 0.142-0.128 0.286-0.254 0.437-0.371 0.128-0.1 0.232-0.228 0.37-0.316 0.257-0.123 0.436-0.357 0.685-0.491 0.109-0.063 0.205-0.145 0.299-0.226 0.164-0.143 0.36-0.244 0.514-0.4 0.117-0.119 0.255-0.212 0.383-0.317 0.111-0.090 0.195-0.206 0.284-0.317s0.217-0.18 0.299-0.296c0.066-0.095 0.072-0.215 0.086-0.326l0.001-0.013c0.122-0.087 0.231-0.189 0.338-0.293l-0-0zM2.232 27.727c0.055 0.059 0.111 0.122 0.14 0.199l0.031 0.114c-0.106 0.119-0.153 0.274-0.212 0.42-0.087 0.216-0.307 0.321-0.464 0.478-0.108 0.117-0.268 0.152-0.4 0.232-0.108 0.064-0.222 0.123-0.348 0.141-0.192 0.042-0.387-0.037-0.578 0.018-0.074-0.098-0.126-0.212-0.139-0.335 0.14-0.109 0.263-0.237 0.384-0.367 0.098-0.107 0.147-0.247 0.237-0.36 0.084-0.101 0.211-0.146 0.326-0.2 0.195-0.085 0.385-0.199 0.602-0.211 0.15-0.002 0.293-0.051 0.42-0.13v0zM5.384 0.991l-0.006-0.041c0.065 0.159 0.072 0.332 0.094 0.5 0.024 0.141-0.048 0.276-0.134 0.38-0.096 0.060-0.21 0.078-0.317 0.109-0.069-0.056-0.141-0.126-0.238-0.118-0.091 0.048-0.071 0.158-0.072 0.243-0.179-0.016-0.346-0.082-0.514-0.141-0.207-0.067-0.314-0.276-0.427-0.447 0.142 0.077 0.29 0.139 0.439 0.201 0.184 0.079 0.387 0.081 0.583 0.071 0.274-0.005 0.44-0.255 0.641-0.407l-0.043-0.318-0.006-0.035h-0zM33.998 9.93l0.041 0.064c-0.051 0.176-0.083 0.369-0.216 0.505-0.138 0.189-0.361 0.281-0.568 0.37-0.143-0.009-0.294-0.021-0.427-0.079l0.022-0.093 0.021 0.052 0.014 0.019c0.085 0.048 0.169-0.052 0.249-0.079 0.186-0.116 0.476-0.066 0.584-0.295 0.066-0.154 0.178-0.277 0.292-0.395l-0.012-0.069h0zM30.126 12.457c0.626-0.389 1.169-0.93 1.875-1.176-0.24 0.306-0.576 0.508-0.899 0.712-0.314 0.16-0.552 0.435-0.861 0.604-0.295 0.154-0.539 0.386-0.803 0.584-0.016-0.047-0.033-0.094-0.044-0.142l0.040 0.032c0.145-0.289 0.434-0.447 0.693-0.614l-0 0zM7.917 24.423l0.018-0.007c0.033 0.214 0.14 0.482-0.033 0.663-0.24 0.171-0.518 0.278-0.775 0.42-0.156 0.095-0.327 0.161-0.488 0.248-0.125 0.065-0.248 0.134-0.382 0.179-0.377 0.115-0.674 0.394-1.037 0.541l-0.622 0.296c-0.649 0.268-1.255 0.634-1.924 0.85l-0.022-0.036c0.108-0.184 0.317-0.262 0.505-0.337 0.164-0.062 0.31-0.166 0.481-0.21 0.294-0.080 0.568-0.219 0.839-0.356 0.178-0.086 0.327-0.223 0.507-0.305 0.313-0.141 0.592-0.343 0.891-0.51 0.297-0.15 0.602-0.297 0.85-0.524 0.194-0.146 0.366-0.319 0.563-0.462 0.205-0.158 0.376-0.372 0.63-0.451l-0-0zM8.198 24.495c0.103 0.038 0.212 0.060 0.318 0.089 0.102 0.027 0.18 0.108 0.279 0.143 0.143 0.029 0.294 0.014 0.433 0.065 0.14 0.052 0.274 0.122 0.42 0.157 0.164 0.038 0.312 0.12 0.461 0.196 0.119 0.061 0.256 0.056 0.386 0.064 0.008-0.128 0.015-0.256 0.001-0.384 0.074 0.174 0.016 0.359 0.002 0.539-0.025 0.299-0.074 0.601-0.19 0.879-0.053 0.136-0.17 0.226-0.279 0.315-0.256-0.019-0.515-0.064-0.748-0.179-0.343-0.162-0.692-0.315-1.058-0.418-0.257-0.104-0.524-0.205-0.735-0.394 0.157-0.083 0.333-0.136 0.471-0.254 0.080-0.073 0.199-0.123 0.225-0.239 0.065-0.187 0.040-0.387 0.014-0.579l0-0zM2.372 27.927c0.022 0.030 0.042 0.062 0.058 0.096-0.036 0.394-0.228 0.752-0.454 1.068-0.063 0.079-0.156 0.125-0.239 0.178-0.183 0.106-0.339 0.269-0.554 0.309-0.276 0.047-0.606-0.006-0.782-0.247 0.191-0.055 0.386 0.025 0.578-0.018 0.126-0.018 0.239-0.077 0.348-0.141 0.132-0.081 0.292-0.115 0.4-0.232 0.157-0.157 0.377-0.262 0.464-0.478 0.059-0.145 0.105-0.301 0.212-0.42l-0.031-0.114-0 0zM5.177 2.522c-0.109-0.030 0.034-0.14 0.042-0.030l-0.013 0.028-0.029 0.001zM5.177 2.522l0.029-0.001 0.436 0.474c0.111 0.079 0.186 0.194 0.25 0.313 0.083-0.007 0.167-0.007 0.25-0.008 0.172 0 0.334-0.069 0.49-0.134 0.185-0.078 0.362-0.174 0.522-0.296 0.166 0.328 0.22 0.696 0.335 1.043 0.041 0.145 0.053 0.297 0.102 0.44 0.036 0.082 0.088 0.155 0.13 0.233 0.127 0.007 0.287-0.004 0.355-0.133 0.104-0.174 0.236-0.33 0.325-0.512 0.090-0.182 0.214-0.344 0.306-0.525 0.197 0.007 0.316-0.175 0.45-0.291l0.033 0.13c0.071 0.398-0.016 0.806 0.042 1.206 0.033 0.204-0.007 0.415 0.058 0.614 0.234 0.28 0.506 0.524 0.733 0.811 0.123 0.159 0.292 0.274 0.407 0.44 0.202 0.234 0.371 0.494 0.582 0.72 0.132 0.223 0.308 0.413 0.468 0.615 0.195 0.185 0.391 0.378 0.529 0.612-0.044 0.106-0.165 0.156-0.261 0.209-0.041-0.103-0.091-0.204-0.168-0.285-0.371-0.429-0.723-0.874-1.1-1.297-0.142-0.174-0.245-0.379-0.408-0.534-0.135-0.147-0.247-0.315-0.391-0.454-0.135-0.145-0.3-0.262-0.418-0.424-0.084-0.116-0.206-0.201-0.282-0.323-0.012-0.096-0.007-0.194-0.023-0.289-0.035-0.185 0.010-0.372 0.006-0.559 0.015-0.248 0-0.497 0.015-0.745l-0.102-0.057c-0.041 0.035-0.092 0.061-0.121 0.108-0.285 0.588-0.575 1.176-0.924 1.73-0.172-0.199-0.337-0.412-0.425-0.665-0.047-0.133-0.101-0.264-0.125-0.404-0.043-0.256-0.215-0.477-0.209-0.744 0.004-0.109-0.054-0.204-0.108-0.294l-0.111 0.004-0.117 0.149c-0.129-0.105-0.285-0.033-0.424 0.005-0.197 0.050-0.345 0.201-0.536 0.266-0.092-0.195-0.233-0.36-0.319-0.558-0.091-0.196-0.176-0.396-0.28-0.586v-0zM18.649 8.034c0.221 0.047 0.436 0.117 0.653 0.183 0.219 0.046 0.43 0.125 0.627 0.232 0.132 0.096 0.277 0.171 0.42 0.249 0.268 0.138 0.483 0.357 0.726 0.532 0.135 0.135 0.25 0.291 0.394 0.419 0.212 0.188 0.37 0.427 0.543 0.65 0.268 0.327 0.499 0.683 0.705 1.052 0.19 0.38 0.397 0.754 0.533 1.159l0.093-0.025c-0.005-0.164 0.027-0.343-0.063-0.49-0.126-0.262-0.253-0.523-0.373-0.789-0.269-0.508-0.633-0.957-1.009-1.388-0.313-0.298-0.583-0.637-0.907-0.923-0.201-0.207-0.482-0.304-0.693-0.498 0.193 0.042 0.374 0.126 0.566 0.171 0.249 0.057 0.433 0.25 0.66 0.356 0.238 0.113 0.399 0.338 0.635 0.453 0.129 0.065 0.252 0.142 0.366 0.232 0.158 0.124 0.346 0.209 0.483 0.36 0.094 0.093 0.159 0.215 0.267 0.294 0.156 0.088 0.33 0.142 0.505 0.177 0.222 0.241 0.424 0.502 0.653 0.737 0.182 0.147 0.314 0.342 0.484 0.5 0.115 0.131 0.275 0.214 0.382 0.353 0.212 0.271 0.333 0.599 0.543 0.87 0.267 0.429 0.388 0.927 0.563 1.397 0.325 0.627 0.45 1.33 0.663 1.998 0.021 0.133 0.057 0.264 0.089 0.394 0.037 0.229 0.039 0.462 0.038 0.693 0.025 0.233 0.068 0.467 0.060 0.703-0.011 0.15-0.033 0.3-0.040 0.451l-0.047-0.001c-0.018-0.174-0.044-0.347-0.085-0.517-0.054-0.211-0.019-0.442-0.126-0.639-0.014-0.234-0.125-0.444-0.178-0.669-0.041-0.299-0.155-0.58-0.249-0.865-0.084-0.247-0.156-0.501-0.306-0.717-0.122-0.226-0.306-0.408-0.44-0.625-0.063-0.098-0.129-0.193-0.197-0.287-0.168-0.228-0.386-0.409-0.578-0.615-0.218-0.209-0.49-0.352-0.702-0.568-0.134-0.109-0.299-0.169-0.45-0.25-0.251-0.137-0.521-0.233-0.791-0.327-0.146-0.050-0.249-0.192-0.403-0.219-0.227-0.059-0.439 0.082-0.666 0.073-0.237-0.010-0.463 0.080-0.699 0.074-0.157 0.007-0.3 0.079-0.453 0.109-0.145 0.029-0.271 0.108-0.406 0.163-0.37 0.119-0.712 0.308-1.084 0.418-0.239 0.040-0.438 0.188-0.672 0.242-0.153 0.041-0.289 0.125-0.436 0.178-0.229 0.079-0.443 0.203-0.625 0.363-0.107 0.134-0.281 0.146-0.425 0.217-0.145 0.069-0.308 0.087-0.45 0.164-0.23 0.123-0.47 0.228-0.702 0.349-0.204 0.135-0.425 0.248-0.608 0.413-0.116 0.096-0.266 0.15-0.355 0.279-0.238 0.306-0.599 0.474-0.857 0.759-0.122-0.2-0.26-0.39-0.385-0.589-0.243-0.319-0.555-0.573-0.86-0.829-0.291-0.294-0.66-0.492-1.035-0.656-0.378-0.219-0.8-0.339-1.212-0.475-0.212-0.014-0.42-0.073-0.635-0.053-0.269-0.018-0.532 0.055-0.8 0.040-0.151 0.004-0.299 0.035-0.45 0.038-0.198 0.007-0.378 0.098-0.564 0.155 0.017-0.023 0.033-0.047 0.052-0.067 0.237-0.065 0.476-0.135 0.723-0.14 0.117-0.002 0.25-0.024 0.313-0.137 0.235-0.382 0.5-0.743 0.747-1.116 0.149-0.216 0.39-0.335 0.558-0.533 0.114-0.143 0.306-0.176 0.433-0.303 0.143-0.14 0.352-0.174 0.492-0.318 0.143-0.147 0.329-0.236 0.494-0.354 0.189-0.163 0.396-0.303 0.595-0.452 0.329-0.194 0.692-0.324 1.017-0.528 0.195-0.108 0.394-0.208 0.581-0.332 0.289-0.184 0.63-0.263 0.916-0.452 0.206-0.132 0.438-0.214 0.652-0.331 0.211-0.114 0.451-0.143 0.682-0.189 0.227-0.046 0.458-0.067 0.687-0.091 0.249-0.023 0.472-0.15 0.719-0.184 0.234-0.033 0.472-0.048 0.703-0.104l-0 0zM17.45 9.012c-0.154-0-0.301 0.057-0.454 0.070-0.339 0.036-0.684 0.075-1.008 0.187-0.399 0.191-0.853 0.323-1.15 0.672-0.154 0.13-0.25 0.309-0.39 0.451-0.166 0.175-0.271 0.398-0.43 0.577-0.061 0.304-0.269 0.539-0.392 0.815-0.127 0.249-0.271 0.503-0.291 0.789-0.022 0.153-0.044 0.308-0.019 0.462 0.029 0.181 0.032 0.378 0.15 0.528 0.107 0.14 0.164 0.323 0.321 0.419 0.286 0.239 0.681 0.226 1.029 0.188 0.166-0.019 0.314-0.102 0.476-0.138 0.337-0.201 0.695-0.369 1.016-0.596 0.164-0.13 0.324-0.267 0.494-0.388 0.21-0.125 0.427-0.238 0.628-0.377 0.228-0.155 0.478-0.274 0.714-0.416 0.367-0.241 0.745-0.469 1.163-0.605 0.37-0.108 0.718-0.28 1.093-0.372 0.25-0.049 0.384-0.312 0.444-0.539-0.008-0.367-0.173-0.723-0.441-0.971-0.22-0.274-0.566-0.376-0.854-0.553-0.28-0.057-0.561-0.114-0.846-0.133-0.241-0.061-0.492-0.050-0.732-0.113-0.173 0.025-0.349 0.036-0.523 0.043l-0-0zM9.695 13.646c0.349-0.041 0.713-0.042 1.043 0.094 0.204 0.088 0.426 0.116 0.63 0.2 0.268 0.108 0.549 0.187 0.801 0.332 0.21 0.137 0.442 0.249 0.612 0.44 0.426 0.381 0.876 0.76 1.15 1.275 0.041 0.086 0.124 0.159 0.116 0.262 0.016 0.159-0.050 0.306-0.070 0.461-0.023 0.307-0.131 0.6-0.17 0.905-0.018 0.284-0.045 0.567-0.042 0.852-0.006 0.158-0.031 0.314-0.042 0.471-0.009 0.106 0.043 0.202 0.077 0.3 0.046 0.154 0.020 0.318 0.045 0.476 0.053 0.376 0.131 0.749 0.17 1.128 0.013 0.161 0.067 0.316 0.071 0.479-0.165-0.237-0.293-0.504-0.499-0.708-0.22-0.188-0.402-0.416-0.617-0.61-0.342-0.273-0.702-0.529-1.095-0.723-0.322-0.112-0.587-0.341-0.906-0.456-0.169-0.047-0.347-0.041-0.517-0.083-0.239-0.062-0.489-0.019-0.731-0.057-0.377-0.054-0.755 0.017-1.129 0.063 0.093-0.252 0.019-0.522 0.033-0.782 0.022-0.257-0.122-0.487-0.123-0.742-0.002-0.226-0.076-0.441-0.12-0.66-0.038-0.35-0.102-0.699-0.082-1.052 0.006-0.112 0.053-0.215 0.095-0.317 0.069-0.161 0.083-0.343 0.173-0.495 0.114-0.197 0.182-0.417 0.303-0.611 0.074-0.122 0.145-0.246 0.217-0.369-0.048-0.003-0.095-0.007-0.143-0.009l-0.042-0.002c0.262-0.033 0.527-0.045 0.791-0.062v0zM8.643 19.534c0.115-0.049 0.233 0.015 0.347 0.034-0.126 0.017-0.267 0.004-0.373 0.088-0.121 0.095-0.251 0.183-0.346 0.306-0.041-0.033-0.080-0.068-0.119-0.102 0.11-0.173 0.309-0.256 0.491-0.327v0zM10.761 21.335c0.055-0.112 0.147-0.203 0.258-0.258 0.261-0.049 0.538 0.013 0.76 0.159 0.134 0.086 0.228 0.216 0.327 0.338-0.191-0.196-0.455-0.293-0.715-0.35-0.212 0.027-0.425 0.046-0.629 0.112v0zM12.808 24.278c0.101 0.003 0.2 0.025 0.299 0.046 0.145 0.125 0.178 0.325 0.187 0.507 0.002 0.213-0.080 0.419-0.224 0.574-0.037-0.385-0.070-0.783-0.262-1.127h0zM6.616 3.055c0.164-0.114 0.298-0.271 0.481-0.358l0.058 0.171c-0.16 0.123-0.337 0.219-0.522 0.296-0.157 0.065-0.318 0.134-0.49 0.134 0.143-0.11 0.317-0.158 0.473-0.244h-0zM8.706 3.415c0.137-0.212 0.285-0.419 0.465-0.596 0.007 0.145 0.005 0.29 0.018 0.434l-0.033-0.13c-0.134 0.116-0.253 0.298-0.45 0.291v0zM17.064 7.984c0.211-0.004 0.417-0.053 0.628-0.064 0.182 0.024 0.366-0.054 0.544 0.006 0.136 0.042 0.277 0.068 0.414 0.109-0.231 0.057-0.469 0.071-0.703 0.104-0.247 0.034-0.47 0.161-0.719 0.184-0.23 0.024-0.461 0.045-0.687 0.091-0.231 0.047-0.471 0.075-0.682 0.189-0.214 0.117-0.446 0.199-0.652 0.331-0.286 0.189-0.627 0.268-0.916 0.452-0.187 0.123-0.386 0.224-0.581 0.332-0.324 0.204-0.687 0.334-1.017 0.528-0.199 0.15-0.406 0.29-0.595 0.452-0.165 0.117-0.351 0.207-0.494 0.354-0.14 0.143-0.35 0.178-0.492 0.318-0.127 0.127-0.319 0.161-0.433 0.303-0.168 0.197-0.409 0.317-0.558 0.533-0.248 0.373-0.512 0.734-0.747 1.116-0.063 0.113-0.196 0.135-0.313 0.137-0.247 0.004-0.486 0.075-0.723 0.14 0.151-0.289 0.348-0.547 0.559-0.793 0.164-0.164 0.336-0.32 0.496-0.489 0.306-0.28 0.625-0.548 0.891-0.868 0.194-0.169 0.378-0.354 0.597-0.491 0.062-0.049 0.145-0.021 0.217-0.025 0.017-0.064 0.033-0.128 0.049-0.192 0.348-0.182 0.689-0.378 1.040-0.556 0.486-0.292 0.986-0.56 1.495-0.809 0.336-0.213 0.722-0.322 1.076-0.5 0.072-0.114 0.21-0.143 0.316-0.214 0.195-0.124 0.418-0.189 0.629-0.28 0.214-0.031 0.391-0.167 0.6-0.212 0.258-0.047 0.497-0.18 0.763-0.187l-0.001-0zM19.748 8.090c0.21-0.019 0.422 0.009 0.626 0.056 0.193 0.095 0.4 0.157 0.592 0.254 0.251 0.139 0.487 0.303 0.737 0.445 0.194 0.1 0.362 0.244 0.568 0.321 0.319 0.194 0.616 0.428 0.879 0.694 0.094 0.080 0.197 0.149 0.282 0.239 0.111 0.119 0.258 0.2 0.347 0.339-0.175-0.035-0.349-0.089-0.505-0.177-0.108-0.079-0.173-0.201-0.267-0.294-0.137-0.151-0.325-0.237-0.483-0.36-0.114-0.090-0.237-0.167-0.366-0.232-0.236-0.115-0.397-0.339-0.635-0.453-0.227-0.106-0.411-0.299-0.66-0.356-0.193-0.044-0.373-0.129-0.566-0.171-0.113-0.041-0.2-0.13-0.309-0.179-0.081-0.040-0.176-0.059-0.24-0.127l0-0zM8.945 13.71c0.047 0.002 0.095 0.006 0.143 0.009-0.071 0.123-0.143 0.247-0.217 0.369-0.121 0.193-0.188 0.413-0.303 0.611-0.090 0.153-0.104 0.334-0.173 0.495-0.042 0.102-0.090 0.205-0.095 0.317-0.021 0.353 0.044 0.702 0.082 1.052 0.044 0.219 0.118 0.434 0.12 0.66 0.001 0.255 0.145 0.485 0.123 0.742-0.014 0.261 0.060 0.53-0.033 0.782l-0.005 0.016c-0.043 0.014-0.086 0.030-0.128 0.045-0.084 0-0.166 0.015-0.244 0.046-0.010-0.323-0.149-0.623-0.162-0.945-0.041-0.271-0.186-0.512-0.213-0.786-0.047-0.408-0.145-0.813-0.124-1.226 0.063-0.472 0.092-0.952 0.221-1.413 0.058-0.174 0.128-0.345 0.204-0.512 0.043-0.094 0.161-0.095 0.245-0.127 0.187-0.040 0.37-0.101 0.559-0.135v0zM6.312 3.4c0.139-0.037 0.295-0.11 0.424-0.005-0.26 0.201-0.594 0.264-0.857 0.463-0.036-0.064-0.070-0.127-0.103-0.192 0.191-0.064 0.34-0.216 0.536-0.266v-0zM7.407 4.685c0.088 0.253 0.252 0.465 0.425 0.665-0.065 0.083-0.134 0.162-0.207 0.238-0.059-0.304-0.162-0.598-0.217-0.903v0zM22.202 12.523c0.264-0.069 0.543-0.042 0.802 0.033 0.193 0.114 0.416 0.148 0.615 0.249 0.247 0.095 0.418 0.313 0.655 0.426 0.102 0.046 0.178 0.131 0.255 0.212 0.17 0.184 0.359 0.347 0.555 0.502 0.094 0.072 0.152 0.179 0.218 0.276 0.12 0.184 0.25 0.361 0.374 0.542 0.134 0.194 0.295 0.369 0.401 0.581 0.082 0.152 0.125 0.32 0.195 0.477 0.128 0.279 0.205 0.577 0.281 0.874 0.068 0.265 0.198 0.514 0.218 0.79 0.017 0.199 0.107 0.383 0.127 0.582-0.124-0.114-0.217-0.257-0.281-0.413-0.067-0.167-0.211-0.281-0.303-0.431l-0.066-0.038c-0.062-0.14-0.19-0.232-0.273-0.358-0.166-0.254-0.414-0.435-0.649-0.618-0.115-0.111-0.251-0.194-0.38-0.286-0.572-0.462-1.256-0.777-1.971-0.933-0.154-0.031-0.299-0.098-0.455-0.117-0.641-0.066-1.288-0.048-1.926 0.034-0.273 0.021-0.493 0.205-0.754 0.271-0.281 0.135-0.54 0.316-0.836 0.419-0.353 0.182-0.687 0.399-1.043 0.575-0.183 0.089-0.345 0.216-0.531 0.299-0.097 0.043-0.193 0.091-0.283 0.149-0.257 0.165-0.526 0.311-0.785 0.473-0.342 0.212-0.71 0.38-1.036 0.617-0.149 0.108-0.315 0.195-0.449 0.324-0.135 0.133-0.292 0.243-0.42 0.383-0.143 0.157-0.343 0.257-0.448 0.448-0.067-0.432-0.041-0.874 0.052-1.3 0.071-0.414 0.135-0.83 0.258-1.232 0.010-0.031 0.026-0.059 0.048-0.082 0.256-0.299 0.588-0.519 0.838-0.823 0.051-0.063 0.105-0.122 0.162-0.179 0.155-0.016 0.267-0.132 0.393-0.211 0.449-0.299 0.921-0.568 1.429-0.751 0.231-0.117 0.47-0.217 0.697-0.341 0.381-0.196 0.8-0.303 1.174-0.512 0.161-0.050 0.306-0.135 0.456-0.208 0.327-0.109 0.659-0.21 0.966-0.372 0.299-0.111 0.603-0.223 0.924-0.252 0.262-0.064 0.535-0.011 0.796-0.078h0zM18.683 13.314c0.234-0.053 0.433-0.202 0.672-0.242-0.143 0.153-0.351 0.204-0.536 0.286-0.148 0.065-0.301 0.12-0.453 0.177-0.249 0.103-0.481 0.255-0.745 0.319 0.182-0.16 0.397-0.284 0.625-0.363 0.148-0.053 0.284-0.136 0.436-0.178v0zM14.586 22.785c0.084 0.091 0.106 0.218 0.166 0.323 0.097 0.173 0.18 0.355 0.286 0.523 0.202 0.299 0.356 0.628 0.54 0.939 0.077 0.122 0.078 0.272 0.125 0.406 0.051 0.159 0.131 0.318 0.123 0.49-0.135 0.297-0.49 0.325-0.771 0.361-0.201 0.013-0.409 0.077-0.606 0.013 0.075-0.362 0.063-0.735 0.144-1.094 0.045-0.394 0.046-0.79 0.045-1.186 0.027-0.26-0.018-0.518-0.050-0.775h-0zM23.956 3.618c0.061-0.018 0.081 0.084 0.022 0.098-0.063 0.020-0.084-0.086-0.022-0.098v0zM12.353 8.311c0.035-0.034 0.082-0.036 0.128-0.033 0.020 0.046 0.041 0.092 0.063 0.137-0.24 0.194-0.533 0.302-0.797 0.456-0.056-0.009-0.079-0.062-0.1-0.108 0.255-0.118 0.48-0.287 0.706-0.452v-0zM13.092 8.824c0.156-0.067 0.304-0.151 0.438-0.257 0.236-0.013 0.469 0.028 0.703 0.058 0.156-0.006 0.315-0.004 0.467-0.046l-0.043 0.059c-0.163 0.068-0.325 0.138-0.487 0.205-0.089 0.022-0.177 0.047-0.263 0.081l-0.015-0.010-0.083-0.053c-0.12 0.036-0.238 0.079-0.361 0.097-0.1 0.017-0.187-0.047-0.273-0.087-0.208 0.136-0.404 0.29-0.611 0.427-0.214 0.151-0.451 0.269-0.649 0.443-0.19 0.145-0.378 0.328-0.629 0.341l0.018-0.095c0.049-0.088 0.148-0.127 0.234-0.169 0.216-0.086 0.389-0.247 0.596-0.348 0.183-0.122 0.381-0.222 0.551-0.364 0.13-0.103 0.287-0.168 0.408-0.284l-0-0zM25.393 11.076c0.171-0.037 0.348-0.038 0.522-0.020 0.259 0.069 0.514 0.153 0.772 0.227 0.153 0.034 0.252 0.169 0.343 0.287-0.063-0.002-0.126-0.001-0.189-0-0.080-0.102-0.212-0.084-0.325-0.079-0.074-0.19-0.349-0.189-0.457-0.034-0.21-0.013-0.42-0.031-0.629-0.004-0.176 0.022-0.368-0.035-0.463-0.196 0.119-0.034 0.241-0.050 0.361-0.078 0.023-0.034 0.044-0.068 0.064-0.104l0-0zM8.274 19.060c0.126-0.037 0.253-0.072 0.383-0.097 0.027 0.041 0.079 0.076 0.069 0.131-0.095 0.097-0.202 0.183-0.291 0.287-0.135 0.073-0.263 0.157-0.377 0.26-0.1 0.068-0.191 0.149-0.257 0.252-0.122 0.181-0.304 0.314-0.406 0.51-0.131 0.244-0.293 0.494-0.272 0.785 0.063 0.019 0.125 0.040 0.189 0.057l-0.108-0.012c-0.162-0.036-0.327 0.006-0.49 0.016 0.107-0.226 0.297-0.406 0.382-0.643 0.141-0.132 0.203-0.321 0.323-0.469 0.249-0.356 0.518-0.702 0.846-0.987l0.008-0.089 0-0zM12.544 8.416c0.1 0.099 0.143 0.239 0.234 0.345-0.067 0.028-0.132 0.065-0.187 0.113-0.187 0.159-0.396 0.29-0.604 0.417-0.051-0.159-0.152-0.29-0.269-0.404l0.030-0.015c0.264-0.154 0.557-0.262 0.797-0.456v0zM12.564 9.3c0.207-0.137 0.403-0.291 0.611-0.427 0.086 0.040 0.173 0.103 0.273 0.087 0.123-0.018 0.242-0.061 0.361-0.097l0.083 0.053c-0.207 0.107-0.411 0.218-0.608 0.342-0.083 0.067-0.149 0.159-0.249 0.202-0.145 0.060-0.275 0.153-0.418 0.217-0.187 0.084-0.325 0.252-0.522 0.314-0.292 0.136-0.576 0.289-0.861 0.439 0.019-0.147-0.005-0.306 0.071-0.44l-0.018 0.095c0.251-0.012 0.439-0.196 0.629-0.341 0.198-0.174 0.435-0.292 0.649-0.443l0 0zM24.914 11.326c-0.030-0.042 0.027-0.050 0.053-0.069 0.095 0.161 0.286 0.218 0.463 0.196 0.209-0.028 0.419-0.009 0.629 0.004-0.090 0.231-0.086 0.499 0.028 0.721 0.089 0.179 0.205 0.373 0.404 0.441 0.162 0.050 0.328-0.027 0.461-0.116 0.087-0.065 0.185-0.155 0.175-0.276 0.013-0.255-0.173-0.449-0.286-0.658 0.063-0.001 0.126-0.002 0.189 0 0.21 0.102 0.332 0.311 0.498 0.467 0.212 0.222 0.342 0.504 0.522 0.75 0.167 0.298 0.299 0.615 0.436 0.929 0.12 0.283 0.219 0.577 0.271 0.881 0.13 0.419 0.176 0.86 0.14 1.298-0.086 0.025-0.070 0.112-0.060 0.181l0.127 0.067c-0.043 0.115-0.086 0.23-0.135 0.342-0.124 0.128-0.287 0.203-0.432 0.302-0.277 0.192-0.606 0.344-0.95 0.305 0.015-0.261-0.050-0.515-0.149-0.755-0.107-0.259-0.133-0.542-0.244-0.799-0.148-0.371-0.201-0.775-0.387-1.13-0.105-0.265-0.176-0.544-0.294-0.804-0.113-0.248-0.164-0.523-0.31-0.756-0.114-0.17-0.208-0.354-0.339-0.511-0.003-0.053-0.006-0.106-0.008-0.159-0.088-0.112-0.172-0.228-0.264-0.337-0.176-0.175-0.375-0.327-0.537-0.516l-0-0zM27.101 13.207c-0.026 0.062-0.051 0.123-0.080 0.183-0.028 0.169-0.009 0.339 0.036 0.503 0.033 0.24 0.182 0.439 0.324 0.625 0.112 0.145 0.31 0.134 0.473 0.128 0.139-0.11 0.273-0.235 0.344-0.402-0.061-0.238-0.184-0.451-0.301-0.664-0.082-0.14-0.213-0.248-0.371-0.286-0.092-0.146-0.283-0.166-0.425-0.088v0zM27.954 15.316c-0.088 0.030-0.148 0.113-0.2 0.186-0.14 0.242-0.186 0.546-0.084 0.811 0.047 0.189 0.191 0.41 0.411 0.381 0.166 0.014 0.307-0.093 0.435-0.185 0.151-0.119 0.141-0.334 0.127-0.507-0.035-0.142 0.024-0.321-0.108-0.423-0.169-0.128-0.356-0.282-0.58-0.264l0 0zM8.644 18.947c0.152-0.008 0.3-0.047 0.451-0.066 0.22-0.018 0.442-0.007 0.663-0.007 0.283 0.011 0.561 0.073 0.843 0.086 0.245 0.021 0.468 0.138 0.674 0.265 0.325 0.2 0.691 0.326 1 0.551 0.267 0.171 0.512 0.377 0.732 0.606 0.193 0.227 0.45 0.394 0.607 0.653 0.168 0.214 0.267 0.469 0.396 0.707 0.070 0.164 0.131 0.332 0.189 0.501 0.083 0.269 0.156 0.543 0.175 0.825 0.012 0.085-0.053 0.15-0.099 0.214-0.143 0.176-0.287 0.351-0.419 0.535-0.125 0.178-0.28 0.333-0.4 0.515l-0.060-0.019c-0.072-0.169-0.26-0.224-0.421-0.266-0.228-0.012-0.452 0.081-0.628 0.223-0.195 0.194-0.198 0.482-0.253 0.734l-0.045 0.102c-0.129 0.040-0.264 0.057-0.394 0.088-0.281 0.090-0.58 0.122-0.874 0.111l-0.026 0.007c-0.004-0.197-0.033-0.391-0.049-0.586-0.060-0.158-0.071-0.326-0.107-0.49-0.064-0.207-0.111-0.422-0.221-0.61-0.138-0.297-0.298-0.583-0.477-0.856-0.126-0.164-0.275-0.308-0.408-0.466-0.226-0.304-0.561-0.494-0.875-0.692-0.197-0.118-0.424-0.161-0.634-0.245-0.217-0.077-0.448-0.092-0.673-0.124-0.064-0.017-0.126-0.037-0.189-0.057-0.022-0.291 0.141-0.541 0.272-0.785 0.102-0.196 0.284-0.329 0.406-0.51 0.066-0.102 0.157-0.184 0.257-0.252-0.059 0.128-0.013 0.273-0.066 0.403l0.073 0.040-0.005 0.087c0.114 0.144 0.254 0.266 0.42 0.342 0.256 0.151 0.562 0.231 0.856 0.169 0.095-0.062 0.214-0.105 0.267-0.214 0.060-0.116 0.141-0.232 0.138-0.368 0.004-0.146-0.026-0.295-0.091-0.425-0.118-0.159-0.315-0.221-0.489-0.294-0.236-0.074-0.488-0.040-0.726 0 0.088-0.105 0.195-0.19 0.291-0.287 0.010-0.055-0.043-0.090-0.069-0.131l-0.013-0.016v-0zM10.716 21.009c-0.164 0.112-0.218 0.314-0.202 0.505 0.060 0.194 0.14 0.394 0.303 0.524 0.035 0.025 0.047 0.068 0.066 0.106 0.152 0.105 0.226 0.287 0.37 0.401 0.147 0.121 0.33 0.183 0.507 0.245 0.147 0.044 0.31 0.009 0.425-0.094 0.173-0.121 0.239-0.329 0.313-0.518 0.004-0.206 0.021-0.433-0.101-0.611-0.132-0.182-0.263-0.374-0.453-0.5-0.357-0.233-0.861-0.312-1.228-0.059v0zM14.7 8.58c0.070 0.013-0.004 0.114-0.043 0.059l0.043-0.059zM27.259 11.41c0.045-0.020 0.074-0.005 0.086 0.045l-0.037 0.014c-0.049 0.003-0.065-0.016-0.049-0.059v0zM26.251 11.658c0.233 0.177 0.379 0.437 0.533 0.679-0.075 0.028-0.167 0.084-0.243 0.030-0.243-0.136-0.338-0.444-0.29-0.709h0zM27.473 14.286c-0.163-0.24-0.311-0.532-0.227-0.83 0.085 0.019 0.168 0.047 0.245 0.089l-0.108 0.002c0.183 0.267 0.365 0.557 0.373 0.893-0.099-0.040-0.211-0.071-0.284-0.155v0zM28.012 16.499c-0.242-0.216-0.268-0.621-0.055-0.865 0.145 0.196 0.235 0.447 0.176 0.692-0.007 0.076-0.075 0.121-0.121 0.173v0zM8.434 20.173c0.078-0.153 0.223-0.257 0.354-0.361 0.205-0.052 0.42-0.003 0.626 0.026 0.101 0.096 0.106 0.247 0.050 0.369-0.030 0.141-0.158 0.252-0.301 0.259-0.168 0.014-0.328-0.055-0.478-0.124-0.089-0.045-0.19-0.085-0.251-0.17h0zM10.887 21.526c0.155-0.086 0.343-0.076 0.514-0.069 0.349 0.045 0.589 0.327 0.828 0.559 0 0.211-0.091 0.478-0.311 0.544-0.287-0.020-0.548-0.194-0.712-0.428-0.056-0.090-0.145-0.147-0.243-0.182l-0.012-0.080c-0.079-0.084-0.218-0.269-0.063-0.344l0 0zM12.383 24.694c0.028-0.13 0.112-0.237 0.205-0.326 0.198 0.315 0.249 0.701 0.226 1.068-0.069 0.061-0.135 0.126-0.197 0.195-0.238 0.030-0.416-0.279-0.319-0.485 0.051-0.146 0.038-0.304 0.085-0.452v-0zM26.467 11.662c0.077 0.017 0.172 0.019 0.223 0.091 0.078 0.1 0.14 0.212 0.193 0.327-0.151-0.127-0.272-0.284-0.416-0.418v0zM27.245 13.456c0.016-0.033 0.035-0.064 0.057-0.093 0.18 0.103 0.352 0.238 0.444 0.431 0.068 0.153 0.179 0.285 0.22 0.45-0.112-0.12-0.128-0.297-0.236-0.422-0.082-0.091-0.165-0.181-0.241-0.277-0.077-0.042-0.16-0.070-0.245-0.089v0zM28.203 15.611c0.261 0.108 0.279 0.443 0.199 0.678l-0.054 0.025c-0.001-0.116 0.007-0.232-0.009-0.347-0.034-0.123-0.097-0.236-0.135-0.357h-0zM27.298 16.337c0.098 0.24 0.164 0.494 0.149 0.755 0.344 0.040 0.672-0.113 0.95-0.305 0.145-0.099 0.308-0.174 0.432-0.302-0.030 0.185-0.189 0.303-0.258 0.471-0.173 0.379-0.458 0.688-0.726 0.999-0.136 0.090-0.256 0.201-0.375 0.312-0.010-0.177 0.013-0.355-0.020-0.53-0.046-0.258-0.001-0.52-0.028-0.779 0.005-0.215-0.103-0.409-0.124-0.62h-0zM14.2 22.243c0.168 0.315 0.2 0.682 0.216 1.033-0.046 0.294-0.029 0.591-0.030 0.887 0.017 0.333-0.083 0.656-0.099 0.987-0.010 0.184-0.041 0.366-0.077 0.546-0.069 0.068-0.128 0.147-0.199 0.214-0.096 0.063-0.214 0.065-0.324 0.077-0.18 0.149-0.408 0.214-0.627 0.281-0.168 0.042-0.333 0.098-0.504 0.121-0.31 0.046-0.625 0.047-0.933 0.105-0.389 0.019-0.775 0.072-1.162 0.119 0.1-0.29 0.19-0.586 0.241-0.889 0.026-0.136 0.002-0.282 0.053-0.413l0.026-0.007c0.294 0.012 0.593-0.020 0.874-0.111 0.131-0.031 0.265-0.048 0.394-0.088l0.045-0.102c-0.037 0.145-0.074 0.298-0.046 0.449 0.035 0.194 0.182 0.371 0.375 0.418 0.184 0.032 0.384 0.010 0.545-0.090 0.501-0.262 0.7-0.973 0.429-1.468l0.060 0.019c0.12-0.182 0.275-0.337 0.4-0.515 0.132-0.184 0.276-0.359 0.419-0.535 0.046-0.064 0.11-0.13 0.099-0.214-0.019-0.282-0.092-0.557-0.175-0.825v0zM26.791 18.098l0.107 0.004c0.007 0.094 0.015 0.187 0.029 0.281-0.049-0.094-0.067-0.203-0.136-0.285v0zM13.723 18.937c0.011-0.157 0.036-0.314 0.042-0.471-0.004 0.258 0.048 0.513 0.035 0.771-0.034-0.097-0.085-0.194-0.077-0.3v0zM24.034 28.375l-1.535 0.756-0.014-5.736-1.357 1.472-0.576 3.301-1.234 0.688 0.466-9.284 1.069-0.633-0.165 6.024c0.429-0.679 0.818-1.187 1.165-1.527 0.11-0.11 0.283-0.28 0.521-0.509 0.292-0.275 0.626-0.413 1.001-0.413 0.393 0 0.626 0.092 0.699 0.275 0.119 0.312 0.178 0.779 0.178 1.403 0 0.734-0.037 1.614-0.11 2.641l-0.11 1.54 0 0zM27.639 28.1c-0.695 0-1.325-0.156-1.892-0.468-0.695-0.385-1.042-0.899-1.042-1.54 0-0.532 0.26-0.99 0.781-1.375 0.402-0.303 0.905-0.532 1.508-0.688 0.32-0.083 0.681-0.124 1.083-0.124 0.347 0 0.759 0.060 1.234 0.179 0.238 0.037 0.462 0.124 0.672 0.261-0.183-0.385-0.521-0.724-1.014-1.018-0.411-0.248-1.010-0.463-1.796-0.646-0.274-0.064-0.653-0.138-1.138-0.22l-0.274-1.21c0.082 0 0.306 0.046 0.672 0.138 1.343 0.339 2.394 0.83 3.153 1.472 0.786 0.669 1.238 1.577 1.357 2.723v2.517l-0.658-0.083-0.014-0.853c-0.219 0.211-0.471 0.39-0.754 0.537-0.503 0.266-1.129 0.399-1.878 0.399l-0-0zM28.078 25.844c-0.311 0.073-0.571 0.197-0.781 0.371-0.247 0.211-0.37 0.463-0.37 0.756 0 0.495 0.356 0.743 1.069 0.743 0.375 0 0.74-0.096 1.097-0.289 0.429-0.229 0.644-0.518 0.644-0.867 0-0.046-0.009-0.105-0.027-0.179-0.101-0.394-0.475-0.591-1.124-0.591h-0.206c-0.037 0-0.137 0.018-0.302 0.055l-0 0zM36.947 27.109c-0.448 0.293-1.165 0.541-2.152 0.743-0.265 0.055-0.722 0.133-1.371 0.234l0.247 3.48-0.96 0.083-0.411-4.787-0.48-0.055-0.302-4.264c0.521-0.202 0.95-0.353 1.289-0.454 1.042-0.312 1.947-0.468 2.714-0.468 1.892 0 2.838 0.766 2.838 2.297 0 1.504-0.471 2.567-1.412 3.191v-0zM35.466 24.991c-0.018-0.009-0.069-0.014-0.151-0.014-0.256 0-0.681 0.041-1.275 0.124-0.21 0.028-0.498 0.073-0.864 0.138l0.178 2.214c0.183-0.009 0.329-0.018 0.439-0.028 1.042-0.083 1.736-0.321 2.084-0.715 0.21-0.238 0.315-0.509 0.315-0.812 0-0.513-0.242-0.816-0.726-0.908v0zM40.182 20.837c-0.32 0-0.594-0.073-0.822-0.22-0.283-0.174-0.425-0.408-0.425-0.701 0-0.229 0.16-0.431 0.48-0.605 0.283-0.147 0.548-0.22 0.795-0.22 0.302 0 0.576 0.064 0.822 0.193 0.302 0.156 0.452 0.371 0.452 0.646 0 0.303-0.146 0.537-0.439 0.701-0.247 0.138-0.535 0.206-0.864 0.206v0zM39.51 28.168l0.069-3.934 2.111-0.138 0.562 4.168-2.742-0.096z"></path>
</svg>
