<?xml version="1.0" encoding="utf-8"?>
<!-- Generated by IcoMoon.io -->
<!DOCTYPE svg PUBLIC "-//W3C//DTD SVG 1.1//EN" "http://www.w3.org/Graphics/SVG/1.1/DTD/svg11.dtd">
<svg version="1.1" xmlns="http://www.w3.org/2000/svg" xmlns:xlink="http://www.w3.org/1999/xlink" width="18" height="32" viewBox="0 0 18 32">
<path d="M12.588 22.213v4.292q0 0.288-0.224 0.512t-0.48 0.192h-4.292q-0.288 0-0.513-0.192t-0.224-0.512v-4.292q0-0.288 0.224-0.512t0.513-0.192h4.292q0.256 0 0.48 0.192t0.224 0.512zM18.226 11.482q0 0.961-0.256 1.794t-0.641 1.377-0.993 1.057-1.025 0.801-1.089 0.609q-0.737 0.416-1.217 1.185t-0.48 1.185q0 0.32-0.224 0.577t-0.512 0.288h-4.292q-0.256 0-0.448-0.32t-0.192-0.673v-0.833q0-1.473 1.185-2.787t2.53-1.922q1.057-0.48 1.505-1.025t0.448-1.345q0-0.737-0.833-1.313t-1.922-0.577q-1.153 0-1.922 0.512-0.641 0.448-1.922 2.050-0.224 0.288-0.545 0.288-0.224 0-0.448-0.128l-2.915-2.242q-0.256-0.192-0.288-0.448t0.096-0.512q2.851-4.741 8.296-4.741 1.441 0 2.883 0.545t2.595 1.473 1.89 2.306 0.737 2.819z"></path>
</svg>
