<?xml version="1.0" encoding="utf-8"?>
<!-- Generated by IcoMoon.io -->
<!DOCTYPE svg PUBLIC "-//W3C//DTD SVG 1.1//EN" "http://www.w3.org/Graphics/SVG/1.1/DTD/svg11.dtd">
<svg version="1.1" xmlns="http://www.w3.org/2000/svg" xmlns:xlink="http://www.w3.org/1999/xlink" width="32" height="32" viewBox="0 0 32 32">
<path d="M19.027 10.854c-1.256 0.397-1.858 1.153-1.858 2.319 0 1.332 0.807 2.204 2.716 2.934 1.102 0.41 1.832 0.846 2.024 1.192 0.064 0.141 0.128 0.512 0.128 0.82 0 0.679-0.333 1.166-0.987 1.435-0.589 0.243-2.088 0.243-3.024 0-0.999-0.256-1.012-0.256-0.961 0.282 0.038 0.436 0.090 0.5 0.551 0.666 0.794 0.269 2.934 0.256 3.741-0.026 1.55-0.538 2.255-2.152 1.55-3.549-0.372-0.718-0.974-1.14-2.511-1.73-1.358-0.538-1.871-0.91-2.076-1.525-0.243-0.743 0.064-1.435 0.794-1.819 0.448-0.231 1.819-0.231 2.614 0.013 0.807 0.243 0.91 0.243 0.987-0.038 0.026-0.115 0.102-0.32 0.154-0.436 0.205-0.512-2.665-0.91-3.844-0.538zM0.090 10.854c-0.051 0.051-0.090 2.281-0.090 4.946v4.843h1.025v-2.024c0-1.115 0.026-2.063 0.051-2.088 0.103-0.102 2.255 0.038 2.255 0.154 0 0.064 0.384 0.756 0.871 1.55 0.474 0.794 0.884 1.499 0.91 1.576 0.026 0.064 0.167 0.282 0.295 0.474 0.205 0.295 0.346 0.359 0.82 0.359 0.308 0 0.564-0.026 0.564-0.064s-0.577-1.012-1.281-2.191c-0.987-1.627-1.256-2.165-1.166-2.332 0.064-0.115 0.154-0.205 0.192-0.192 0.308 0.141 1.192-0.602 1.435-1.204 0.269-0.628 0.231-1.781-0.077-2.396-0.333-0.666-0.871-1.089-1.051-0.833-0.103 0.141-0.115 0.128-0.051-0.038 0.051-0.167-0.051-0.256-0.41-0.372-0.564-0.167-4.151-0.32-4.292-0.167zM4.318 12.123c0.513 0.295 0.679 0.679 0.679 1.525 0 0.512-0.077 0.794-0.308 1.14-0.167 0.243-0.295 0.474-0.269 0.5 0.051 0.051-0.205 0.077-1.896 0.192-0.769 0.064-1.422 0.077-1.448 0.051-0.064-0.077-0.064-3.664 0-3.741 0.026-0.026 0.679-0.013 1.448 0.026 1.025 0.051 1.499 0.128 1.794 0.307zM9.225 15.71v4.933h5.381v-1.025h-4.356v-3.587h4.1v-1.025h-4.1v-3.203h4.356v-1.025h-5.381v4.933zM24.728 11.29v0.512h3.203v8.841h1.025v-8.841h3.075v-1.025h-7.303v0.512z"></path>
</svg>
