<?xml version="1.0" encoding="utf-8"?>
<!-- Generated by IcoMoon.io -->
<!DOCTYPE svg PUBLIC "-//W3C//DTD SVG 1.1//EN" "http://www.w3.org/Graphics/SVG/1.1/DTD/svg11.dtd">
<svg version="1.1" xmlns="http://www.w3.org/2000/svg" xmlns:xlink="http://www.w3.org/1999/xlink" width="21" height="32" viewBox="0 0 21 32">
<path d="M4.339 22.214c0.15 0 0.218 0.073 0.218 0.218v7.331c0 0.269-0.051 0.53-0.158 0.769s-0.244 0.449-0.423 0.628c-0.18 0.18-0.389 0.321-0.628 0.423s-0.496 0.158-0.769 0.158h-0.598c-0.269 0-0.53-0.051-0.769-0.158-0.239-0.103-0.449-0.244-0.628-0.423s-0.321-0.389-0.423-0.628c-0.107-0.239-0.158-0.496-0.158-0.769v-1.68c0-0.15 0.068-0.239 0.205-0.282l1.428-0.376c0.137-0.043 0.205 0.009 0.205 0.158v2.103c0 0.107 0.034 0.192 0.111 0.265 0.073 0.073 0.162 0.111 0.265 0.111h0.128c0.103 0 0.192-0.034 0.265-0.111 0.073-0.073 0.111-0.162 0.111-0.265v-7.25c0-0.15 0.073-0.218 0.218-0.218 0.004-0.004 1.402-0.004 1.402-0.004v0 0zM10.443 31.413c0.021 0.15-0.043 0.218-0.188 0.218h-1.428c-0.137 0-0.214-0.073-0.235-0.218l-0.128-1.535h-0.975l-0.128 1.535c-0.021 0.15-0.103 0.218-0.235 0.218h-1.428c-0.15 0-0.209-0.073-0.188-0.218l1.18-8.977c0.021-0.15 0.103-0.218 0.252-0.218h2.073c0.15 0 0.231 0.073 0.252 0.218l1.176 8.977zM8.34 28.117l-0.295-3.471h-0.128l-0.295 3.471h0.718zM14.051 22.214c0.269 0 0.526 0.051 0.769 0.158 0.239 0.107 0.449 0.244 0.628 0.423s0.321 0.389 0.423 0.628c0.103 0.239 0.158 0.496 0.158 0.769v5.463c0 0.269-0.051 0.53-0.158 0.769s-0.244 0.449-0.423 0.628c-0.18 0.18-0.389 0.321-0.628 0.423-0.239 0.107-0.496 0.158-0.769 0.158h-2.351c-0.15 0-0.218-0.073-0.218-0.218v-8.981c0-0.15 0.073-0.218 0.218-0.218l2.351-0.004zM14.196 24.27c0-0.103-0.034-0.192-0.111-0.265-0.073-0.073-0.162-0.111-0.265-0.111h-0.5v6.057h0.5c0.103 0 0.192-0.034 0.265-0.111 0.073-0.073 0.111-0.162 0.111-0.265v-5.305zM21.134 30.015v1.398c0 0.15-0.073 0.218-0.218 0.218h-3.407c-0.15 0-0.218-0.073-0.218-0.218v-8.977c0-0.15 0.073-0.218 0.218-0.218h3.403c0.15 0 0.218 0.073 0.218 0.218v1.394c0 0.15-0.073 0.218-0.218 0.218h-1.791v1.791h1.552c0.15 0 0.218 0.073 0.218 0.218v1.398c0 0.15-0.073 0.218-0.218 0.218h-1.552v2.12h1.791c0.15 0 0.222 0.073 0.222 0.222v0 0zM15.938 11.624c0.097 0.097 0.106 0.257-0.009 0.336-0.283 0.186-0.646 0.159-0.982 0.124-0.566-0.062-1.238-0.088-1.53-0.619-0.009 0-0.009-0.009-0.018-0.018-0.371-0.203 0.257-0.345 0.433-0.371 0.398-0.053 0.823 0.053 1.212 0.142 0.327 0.062 0.637 0.15 0.893 0.407v0 0zM21.104 20.061c-0.265 0.186-0.15 0.504-0.336 0.725-0.186 0.212-0.637 0.212-0.876 0.212-1.017 0.009-2.008-0.071-3.007 0.009-0.256 0.018-0.486 0.053-0.725 0.115-0.071 0.018-0.186 0.062-0.265 0.018-0.203-0.106-0.389-0.442-0.654-0.336-0.221 0.097-0.389 0.416-0.654 0.221-0.486-0.363-0.893-0.035-1.406 0.062-0.531 0.106-1.035-0.186-1.557-0.044-0.389 0.115-0.761 0.23-1.159 0.097-0.398-0.142-0.504-0.451-0.159-0.743 0.548-0.451 1.229-0.522 1.91-0.469 1.035 0.088 2.061 0.009 3.096-0.044 0.035 0 0.053 0.018 0.053 0.044 0.442 0.177 0.725-0.177 0.982-0.486 0.035-0.044 0.097-0.018 0.115 0.009 0.371 0.548 0.823-0.071 1.291-0.018 0.124 0.009 0.239 0.044 0.318 0.159 0.035 0.053 0.044 0.115 0.044 0.177 0.018 0.283 0.38 0.221 0.371-0.062 0-0.044 0.053-0.088 0.097-0.071 0.371 0.15 0.849 0.345 1.15-0.044 0.256-0.327 0.292-0.796 0.318-1.194 0.053-1.070-0.018-2.167-0.097-3.228-0.062-1.035-0.177-2.087-0.053-3.122 0.124-1.026 0.115-2.025 0.097-3.060-0.009-0.54-0.035-1.079 0-1.619 0.018-0.495 0.106-1.026 0.053-1.521-0.053-0.442-0.318-0.823-0.371-1.256-0.053-0.398 0-0.814 0.097-1.203 0.053-0.239 0.177-0.531 0.168-0.778-0.009-0.212-0.018-0.433-0.009-0.646 0-0.106-0.018-0.274 0.062-0.363 0.124-0.15 0.186-0.371-0.106-0.398-0.699-0.088-1.415-0.531-2.078-0.097 0.009 0.15 0.018 0.318-0.018 0.469l0.097 0.124c0.168 0.071 0.336 0.097 0.522 0.106 0.212 0 0.442-0.053 0.654-0.035 0.177 0.018 0.327 0.177 0.265 0.38-0.044 0.15-0.177 0.274-0.256 0.398-0.142 0.221-0.115 0.54-0.115 0.796-0.009 0.646 0 1.291 0.018 1.919 0.018 0.531 0.071 1.070 0.106 1.601 0.009 0.009 0.044 0.018 0.044 0.044 0.018 0.601 0.221 1.194 0.23 1.795 0.009 0.009-0.159 0.743-0.159 0.743-0.009 0.778-0.071 2.22-0.071 2.22-0.009 1.327-0.239 2.645-0.009 3.962 0.097 0.531-0.106 1.044-0.124 1.574-0.018 0.584 0.053 1.159-0.035 1.742 0.009 0.035 0 0.071-0.044 0.088-1.212 0.23-2.441 0.274-3.679 0.203-0.31-0.018-0.672-0.044-0.973 0.071-0.115 0.053-0.274 0.124-0.416 0.115-0.177-0.018-0.265-0.159-0.433-0.186-0.212-0.044-0.416-0.088-0.619-0.106-0.548-0.071-1.070-0.106-1.583 0.115-0.283 0.124-0.584 0.071-0.867-0.044-0.336-0.142-0.593-0.31-0.964-0.124-0.15 0.071-0.283 0.15-0.451 0.186-0.142 0.035-0.265 0-0.389-0.053-0.283-0.106-0.504-0.142-0.805-0.088 0.035 0.044 0.009 0.124-0.053 0.124-1.795-0.097-3.6 0.115-5.395 0.142-0.088 0.018-0.15 0.115-0.203 0.115h-0.053c-0.044 0-0.053-0.15-0.044-0.177-0.239-0.265-0.177-1.141-0.168-1.397 0.071-1.672-0.141-3.352-0.186-5.015-0.018-0.831-0.018-1.672 0.115-2.494 0.159-0.929 0.159-1.831 0.141-2.759-0.044-1.848 0.142-3.688 0.088-5.537 0-0.035 0.035-0.044 0.053-0.035l0.018-0.009c0.495-0.044 1.035-0.177 1.521-0.044 0.009 0 0.018 0.009 0.018 0.018l0.071 0.009h0.548c0.018 0 0.044 0.009 0.044 0.018 0.973 0.009 1.946-0.071 2.919-0.115 0.336-0.009 0.69 0 1.026-0.106 0.168-0.053 0.371-0.141 0.548-0.124 0.442 0.035 0.893 0.168 1.327 0.265 0.31 0.062 0.522-0.469 0.796-0.283 0.416 0.265 0.893 0.168 1.371 0.177 0.257 0.009 0.495-0.044 0.752-0.044 0.142 0 0.257 0.035 0.38 0.062 0.124-0.018 0.23-0.009 0.371 0.044l2.264-0.071c0.451 0.009 0.946 0.044 1.38-0.124 0.115-0.044 0.177-0.106 0.212-0.177-0.018-0.035-0.035-0.071-0.053-0.115-0.035-0.062-0.071-0.141-0.115-0.186-0.486-0.159-1.044-0.115-1.557-0.141-0.699-0.035-1.38 0.062-2.078 0.115-0.646 0.053-1.318 0.097-1.963 0.044-0.38-0.035-1.097-0.203-1.424 0.062-0.035 0.018-0.062 0.018-0.097 0-0.619-0.504-1.433 0.256-2.14 0.044-0.425-0.124-0.823-0.212-1.274-0.159-0.433 0.044-0.858 0.106-1.3 0.106-0.964-0.009-1.919 0.053-2.883 0.018-0.212-0.009-0.416-0.009-0.61-0.035-0.168-0.018-0.389-0.106-0.557-0.035-0.265 0.097-0.318 0.186-0.292 0.265 0.071 0.053-0.177 0.389-0.177 0.557l-0.018 0.442c-0.009 0.654-0.053 1.256-0.203 1.893-0.071 0.336-0.239 0.814-0.115 1.15 0.071 0.221 0.239 0.371 0.336 0.566 0.168 0.363 0.177 0.805 0.159 1.194l-0.106 3.803c-0.044 1.265-0.124 2.538-0.071 3.812 0.044 1.176 0.23 2.379 0.071 3.547-0.053 0.389-0.522 1.079-0.071 1.353 0.256 0.15 0.557 0.186 0.849 0.212 0.716 0.044 1.433-0.035 2.158-0.115 0.265-0.035 0.531-0.088 0.796-0.088 0.203-0.009 0.389 0.018 0.584 0.088 0.168 0.062 0.425 0.177 0.619 0.177 0.009 0.009 0.318-0.009 0.336-0.097 0.265-0.115 0.495-0.203 0.831-0.142 0.327 0.062 0.619 0.106 0.964 0.044 0.177-0.035 0.442-0.053 0.619-0.009l0.071 0.053c0.071-0.035-0.044 0.088-0.115 0.115-0.398 0.159-0.274 0.672-0.318 1.017 0 0.035-0.044 0.044-0.062 0.044-0.159 0-0.38 0-0.469-0.168-0.186-0.345-0.637-0.584-0.637 0.142 0 0.044-0.035 0.062-0.062 0.062-0.035 0-0.062-0.018-0.062-0.062s-0.469-0.292-0.522-0.318c-0.23-0.124-0.495-0.274-0.769-0.177-0.168 0.053-0.31 0.15-0.469 0.221-0.283 0.345-0.584 0.716-0.999 0.495-0.088-0.044-0.433-0.345-0.504-0.283-0.097 0.106-0.203 0.212-0.336 0.265-0.38 0.15-0.778 0.124-1.185 0.115-0.018 0-0.062-0.018-0.062-0.053-0.018-0.159-0.106-0.478-0.327-0.283-0.053 0.044-0.097 0.088-0.15 0.142-0.062 0.053-0.141 0.124-0.221 0.159-0.265 0.106-1.079-0.035-1.185-0.221-0.088-0.142-0.115-0.283-0.15-0.442-0.062-0.389-0.018-0.814-0.035-1.212-0.035-0.999-0.106-1.981-0.186-2.981-0.044-0.504-0.088-1.026-0.044-1.539 0.018-0.327 0.035-0.778 0.203-1.079 0.141-0.239 0.044-0.433-0.141-0.61-0.044-0.053-0.062-0.15-0.062-0.212-0.035-0.371 0.035-0.761 0.053-1.132 0.018-0.274 0.062-0.548 0.062-0.823 0-0.212-0.044-0.416-0.062-0.619-0.009-0.106-0.018-0.212 0.044-0.31 0.124-0.177 0.106-0.274 0.035-0.478-0.141-0.389 0-0.858 0.018-1.265 0.035-0.478 0.053-0.946 0-1.433-0.053-0.531-0.159-1.044-0.124-1.583 0.035-0.486 0.062-0.929 0.088-1.406 0.044-0.867 0.044-1.742 0.018-2.609v0.203c0 0-0.071-1.106 0.389-1.371 0.708-0.389 1.565-0.327 2.335-0.363 0.999-0.044 2.008 0.053 3.007 0.053 0.584 0 1.159-0.009 1.725-0.142 0.398-0.088 0.796-0.124 1.203-0.106 0.495 0.035 0.973 0.159 1.459 0.203s0.964 0.018 1.45-0.009c1.053-0.071 2.114-0.044 3.166 0l1.645 0.071c0.256 0.009 0.548 0.071 0.796 0.009l0.469-0.159c0.345-0.097 0.584-0.009 0.92 0.071l1.238 0.292c0.142-0.035 0.274-0.044 0.38 0.062 0.23 0.212 0.009 0.478 0.177 0.716 0.203 0.283 0.389 0.469 0.433 0.831 0.044 0.389 0.062 0.814-0.062 1.194-0.088 0.256-0.203 0.531-0.097 0.805 0.062 0.168 0.177 0.327 0.221 0.504 0.088 0.38 0.088 0.761 0.062 1.15-0.018 0.442-0.044 0.893-0.097 1.327-0.035 0.283-0.15 0.557-0.159 0.831-0.009 0.23 0.062 0.425 0.106 0.646 0.15 0.725-0.486 1.185-0.601 1.848-0.062 0.363 0.345 0.203 0.531 0.416 0.115 0.142 0.053 0.371 0.044 0.522-0.044 0.389 0.071 0.769 0.053 1.159-0.018 0.486-0.168 0.884-0.053 1.371 0.062 0.274 0.115 0.548 0.053 0.823s-0.38 0.964 0.044 1.088c0.018 0 0.035 0.018 0.035 0.044 0 0.124-0.018 0.212-0.071 0.327-0.186 0.425 0.106 0.336 0.159 0.61 0.053 0.256-0.097 0.345-0.142 0.584-0.062 0.38 0.142 0.672 0.124 1.044-0.009 0.345-0.203 0.54-0.142 0.858 0.018 0 0.044 0.018 0.044 0.044 0.035 0.168 0.053 0.363-0.009 0.531-0.088 0.239-0.186 0.31 0.088 0.451 0.071-0.053 0.071 0.009 0.027 0.035v0 0zM16.478 8.325c-0.168-1.035-0.265-2.114-0.61-3.104-0.15-0.416-0.221-0.867-0.708-0.946-0.637-0.106-0.425 0.425-0.336 0.929 0.124 0.778 0.177 1.574 0.38 2.344 0.142 0.531 0.398 1.159-0.31 0.752-1.185-0.716-1.592-2.282-2.070-3.449-0.212-0.531-0.831-1.795-1.256-2.114-0.203-0.15-1.203-0.371-1.397-0.239-0.416 0.283 0.867 2.273 1.044 2.627 0.389 0.796 0.805 1.583 1.309 2.3 0.363 0.504 0.929 0.973 0.124 1.274-0.831 0.318-1.238-0.15-1.804-0.584-0.451-0.336-1.026-0.389-1.592-0.451-1.557-0.186-3.034-0.009-4.281 1.026-0.601 0.504-0.982 1.194-1.3 1.902-0.088 0.177-0.601 1.742-0.531 1.751-0.318-0.053-0.124-0.796-0.531-0.363-0.363 0.38 0.106 1.477 0.265 1.857 0.363 0.849 0.743 1.68 1.026 2.565s0.345 0.867 1.159 0.938c1.035 0.097 2.052-0.221 3.069-0.345 0 0-1.804-1.123 1.76 0.106 0.796 0.274 1.636 0.203 2.468 0.23 0.593-0.142 0.61-1.159 0.92-1.636 0.115-0.177 0.69-1.079 0.867-1.15 0.257-0.097 0.619 0.168 0.876 0.203 1.486 0.23 1.946-0.991 1.707-2.185-0.203-1.044-0.088-2.211 0.062-3.016 0.062-0.301-0.256-0.946-0.31-1.221v0 0zM9.836 21.025c-0.159-0.15-0.398-0.186-0.557-0.345-0.088-0.097-0.115-0.186-0.097-0.292 0 0-0.009 0-0.009-0.009-0.115-0.212 0.15-0.389 0.336-0.318 0.097 0.044 0.239 0.106 0.257 0.221 0.009 0.15-0.088 0.256-0.115 0.389 0.106 0.062 0.212 0.212 0.265 0.283 0.035 0.062-0.035 0.115-0.080 0.071v0 0z"></path>
</svg>
