<?xml version="1.0" encoding="utf-8"?>
<!-- Generated by IcoMoon.io -->
<!DOCTYPE svg PUBLIC "-//W3C//DTD SVG 1.1//EN" "http://www.w3.org/Graphics/SVG/1.1/DTD/svg11.dtd">
<svg version="1.1" xmlns="http://www.w3.org/2000/svg" xmlns:xlink="http://www.w3.org/1999/xlink" width="32" height="32" viewBox="0 0 32 32">
<path d="M11.916 24.327c-4.805 1.313 2.915 4.1 9.033 1.473-0.993-0.384-1.698-0.833-1.698-0.833-2.755 0.512-4.004 0.545-6.47 0.256-2.050-0.224-0.865-0.897-0.865-0.897zM20.212 21.7c-3.587 0.705-5.702 0.673-8.328 0.384-2.050-0.192-0.705-1.185-0.705-1.185-5.285 1.762 2.947 3.748 10.314 1.57-0.769-0.256-1.281-0.769-1.281-0.769zM23.063 6.549c0 0-10.698 2.659-5.605 8.552 1.505 1.73-0.384 3.299-0.384 3.299s3.812-1.986 2.082-4.452c-1.666-2.306-2.915-3.459 3.908-7.399zM25.561 26.825s0.865 0.737-0.961 1.313c-3.555 1.057-14.702 1.377-17.809 0.032-1.121-0.48 0.993-1.153 1.634-1.281 0.673-0.16 1.089-0.128 1.089-0.128-1.249-0.865-8.008 1.698-3.459 2.466 12.492 2.018 22.742-0.929 19.507-2.402zM21.269 19.266c0.609-0.416 1.441-0.769 1.441-0.769s-2.37 0.416-4.709 0.609c-2.883 0.256-5.958 0.288-7.527 0.096-3.652-0.512 2.018-1.858 2.018-1.858s-2.21-0.16-4.901 1.153c-3.235 1.57 7.912 2.274 13.677 0.769zM22.678 23.045c-0.032 0.064-0.128 0.16-0.128 0.16 7.848-2.082 4.965-7.271 1.217-5.958-0.32 0.128-0.512 0.384-0.512 0.384s0.224-0.064 0.673-0.16c1.89-0.416 4.613 2.53-1.249 5.573zM16.048 17.28c-1.153-2.595-5.061-4.869 0.032-8.873 6.31-4.997 3.075-8.264 3.075-8.264 1.313 5.157-4.645 6.727-6.759 9.93-1.473 2.21 0.705 4.548 3.652 7.207zM22.902 30.252c-4.805 0.897-10.73 0.801-14.254 0.224 0 0 0.737 0.577 4.42 0.833 5.638 0.352 14.254-0.224 14.478-2.883 0 0-0.416 1.025-4.645 1.826z"></path>
</svg>
