<?xml version="1.0" encoding="utf-8"?>
<!-- Generated by IcoMoon.io -->
<!DOCTYPE svg PUBLIC "-//W3C//DTD SVG 1.1//EN" "http://www.w3.org/Graphics/SVG/1.1/DTD/svg11.dtd">
<svg version="1.1" xmlns="http://www.w3.org/2000/svg" xmlns:xlink="http://www.w3.org/1999/xlink" width="32" height="32" viewBox="0 0 32 32">
<path d="M0.512 0.015v31.263h31.263v-31.263h-31.263zM17.041 26.665c-0.448 0.929-1.345 1.57-2.37 1.858-1.57 0.352-3.043 0.16-4.164-0.512-0.769-0.48-1.345-1.185-1.73-1.986l2.37-1.473c0.032 0.032 0.096 0.128 0.16 0.288 0.32 0.512 0.577 0.865 1.089 1.121 0.512 0.16 1.634 0.288 2.050-0.609 0.256-0.448 0.192-1.922 0.192-3.523 0-2.53 0-5.061 0-7.559h2.915c0 2.755 0.032 5.349 0 8.040 0.032 1.666 0.16 3.107-0.512 4.356zM29.213 25.832c-1.025 3.491-6.695 3.587-8.969 1.313-0.48-0.545-0.801-0.833-1.057-1.473 1.185-0.673 1.185-0.673 2.37-1.377 0.641 0.993 1.217 1.538 2.274 1.762 1.441 0.16 2.883-0.32 2.563-1.858-0.32-1.249-2.947-1.538-4.709-2.883-1.826-1.217-2.242-4.164-0.769-5.83 0.512-0.641 1.345-1.089 2.242-1.313l0.929-0.128c1.762-0.032 2.883 0.416 3.684 1.345 0.224 0.224 0.416 0.48 0.769 0.993-0.961 0.609-0.961 0.609-2.306 1.473-0.288-0.609-0.769-0.993-1.281-1.185-0.769-0.224-1.762 0.032-1.986 0.865-0.064 0.256-0.064 0.48 0.064 0.929 0.32 0.705 1.377 1.025 2.338 1.473 2.755 1.121 3.716 2.306 3.94 3.748 0.224 1.217-0.064 2.018-0.096 2.146z"></path>
</svg>
