<?xml version="1.0" encoding="utf-8"?>
<!-- Generated by IcoMoon.io -->
<!DOCTYPE svg PUBLIC "-//W3C//DTD SVG 1.1//EN" "http://www.w3.org/Graphics/SVG/1.1/DTD/svg11.dtd">
<svg version="1.1" xmlns="http://www.w3.org/2000/svg" xmlns:xlink="http://www.w3.org/1999/xlink" width="32" height="32" viewBox="0 0 32 32">
<path d="M22.518 20.355c-0.384-0.769-0.865-1.538-1.409-2.338-2.146-3.107-4.837-5.67-7.944-7.623 6.534 5.734 6.598 5.445 6.727 5.317 0.16-0.128 0.288-0.288 0.416-0.416 1.858-1.89 3.812-3.876 5.285-5.99 1.57-2.274 2.434-4.42 2.659-6.63 0 0 0-0.032 0-0.064 0-0.192-0.096-0.384-0.256-0.512-0.096-0.096-0.256-0.16-0.416-0.16-0.064 0-0.16 0.032-0.224 0.064-1.441 0.545-2.883 0.961-4.228 1.281-0.288 0.064-0.512 0.256-0.577 0.545-0.961 2.595-3.459 5.125-6.054 7.784-0.096 0.096-0.256 0.224-0.48 0.224s-0.384-0.128-0.48-0.224c-2.595-2.659-5.093-5.157-6.054-7.816-0.096-0.288-0.32-0.48-0.609-0.513-1.313-0.32-2.755-0.769-4.196-1.313-0.064-0.032-0.16-0.032-0.224-0.032-0.384 0-0.673 0.288-0.673 0.641 0 0.032 0 0.064 0 0.064 0.224 2.21 1.089 4.388 2.659 6.662 1.505 2.114 3.427 4.1 5.285 5.99 3.459 3.523 6.695 6.823 6.983 10.666 0.032 0.352 0.32 0.609 0.673 0.609 0 0 0 0 0 0h4.036c0.352 0 0.641-0.288 0.641-0.673 0 0 0 0 0-0.032-0.032-0.961-0.192-1.89-0.448-2.755l0.16 0.577c0 0-0.032-0.032-0.032-0.064 0-0.128 0.128-0.256 0.288-0.256 0 0 0.032 0 0.032 0v0c3.299 0.48 5.381 1.249 5.381 2.114v0c0 0.801-1.858 2.018-4.933 2.883v0c-0.256 0.096-0.448 0.32-0.448 0.609 0 0.352 0.288 0.641 0.641 0.641 0.064 0 0.096 0 0.16 0 4.1-0.961 6.791-2.53 6.791-4.356 0-2.114-3.652-4.036-9.129-4.901zM11.691 18.273c-0.128-0.128-0.288-0.192-0.48-0.192-0.288 0-0.48 0.192-0.545 0.288-1.473 2.21-2.563 4.837-3.075 7.623-3.555-4.773-7.207-2.851-7.207-0.737 0 1.826 2.691 3.395 6.791 4.356 0 0 0 0 0 0 0.064 0 0.096 0 0.16 0 0.352 0 0.641-0.256 0.641-0.609 0-0.32-0.192-0.545-0.448-0.641v0c-3.075-0.865-4.933-2.082-4.933-2.883v0c0-0.865 2.082-1.634 5.381-2.114 0 0 0.032 0 0.032 0 0.128 0 0.256 0.128 0.256 0.256 0 0.032 0 0.064 0 0.096v0c-0.192 0.801-0.32 1.73-0.32 2.691 0-0.352 0.064-0.16 0.192-0.032s0.288 0.192 0.48 0.192h4.036c0.352 0 0.641-0.256 0.673-0.609 0.096-1.185 0.448-2.37 1.121-3.62 0.256-0.416 0.064-0.833-0.064-0.993-0.673-0.865-1.473-1.794-2.691-3.075zM15.567 8.311c0.16 0.128 0.32 0.16 0.448 0.16v0c0.128 0 0.32 0 0.48-0.16 1.409-1.409 2.178-3.011 2.338-3.459 0.032-0.064 0.064-0.16 0.064-0.256 0-0.352-0.32-0.609-0.609-0.609-0.256 0-0.993 0.064-2.274 0.064v0c-1.281 0-2.018-0.064-2.274-0.064-0.288 0-0.609 0.256-0.609 0.609 0 0.128 0.032 0.192 0.064 0.256 0.16 0.448 0.929 2.050 2.37 3.459z"></path>
</svg>
