<?xml version="1.0" encoding="utf-8"?>
<!-- Generated by IcoMoon.io -->
<!DOCTYPE svg PUBLIC "-//W3C//DTD SVG 1.1//EN" "http://www.w3.org/Graphics/SVG/1.1/DTD/svg11.dtd">
<svg version="1.1" xmlns="http://www.w3.org/2000/svg" xmlns:xlink="http://www.w3.org/1999/xlink" width="32" height="32" viewBox="0 0 32 32">
<path d="M16.336 26.505c-0.192-0.032-0.416-0.096-0.609-0.16l-0.16-0.032c-0.192-0.064-0.384-0.128-0.577-0.192l-0.096-0.032c-0.16-0.064-0.32-0.128-0.512-0.192l-0.128-0.064c-0.192-0.064-0.384-0.16-0.577-0.224l-0.096-0.064c-0.16-0.064-0.32-0.128-0.48-0.224l-0.128-0.064c-0.128-0.064-0.256-0.128-0.384-0.192-0.064-0.032-0.16-0.064-0.224-0.128-0.16-0.064-0.32-0.16-0.448-0.224l-0.16-0.096c-0.192-0.096-0.384-0.224-0.577-0.352l-0.128-0.096c-0.16-0.096-0.288-0.192-0.416-0.256l-0.128-0.096c-0.128-0.096-0.256-0.192-0.384-0.288l-0.16-0.128c-0.128-0.096-0.256-0.192-0.352-0.256l-0.16-0.128c-0.16-0.128-0.288-0.256-0.448-0.384l-0.032-0.032c-0.16-0.128-0.288-0.256-0.448-0.416l-0.128-0.128c-0.128-0.096-0.224-0.192-0.32-0.32l-0.128-0.128c-0.16-0.128-0.288-0.256-0.416-0.416v0c-0.16-0.16-0.288-0.32-0.416-0.48l-0.096-0.128c-0.096-0.128-0.192-0.224-0.288-0.352l-0.128-0.128c-0.096-0.16-0.224-0.32-0.32-0.448-3.043-4.164-4.132-9.866-1.698-14.574l-2.178 2.723c-2.755 3.972-2.402 9.129-0.288 13.357 0.032 0.096 0.096 0.192 0.128 0.288l0.128 0.192 0.032 0.128 0.128 0.192c0.064 0.096 0.128 0.224 0.192 0.352l0.128 0.16c0.064 0.128 0.16 0.256 0.224 0.384l0.096 0.16c0.128 0.16 0.224 0.32 0.352 0.48v0l0.064 0.096c0.096 0.128 0.192 0.256 0.288 0.384l0.128 0.16c0.096 0.128 0.192 0.224 0.288 0.352l0.096 0.128c0.128 0.16 0.288 0.32 0.416 0.448v0.032c0.16 0.16 0.288 0.288 0.416 0.416l0.128 0.128c0.096 0.128 0.224 0.224 0.32 0.32l0.128 0.128c0.16 0.128 0.288 0.288 0.448 0.416v0l0.096 0.064c0.128 0.096 0.256 0.224 0.384 0.32l0.16 0.16c0.128 0.064 0.224 0.16 0.352 0.256l0.16 0.128c0.128 0.096 0.256 0.192 0.384 0.288l0.192 0.096c0.096 0.096 0.224 0.16 0.352 0.256l0.16 0.096c0.192 0.128 0.384 0.256 0.577 0.352l0.16 0.096c0.128 0.064 0.256 0.16 0.416 0.224 0.064 0.064 0.16 0.096 0.224 0.128 0.096 0.064 0.224 0.128 0.32 0.16l0.192 0.096c0.16 0.064 0.32 0.16 0.48 0.224l0.096 0.064c0.192 0.064 0.384 0.16 0.577 0.224l0.128 0.064c0.192 0.064 0.352 0.128 0.545 0.192l0.064 0.032c0.192 0.064 0.384 0.128 0.609 0.192l0.128 0.032c0.224 0.064 0.416 0.128 0.609 0.16 13.357 2.434 17.233-8.008 17.233-8.008-3.235 4.228-9.033 5.349-14.51 4.1zM11.531 15.71c0.288 0.416 0.641 0.929 1.025 1.281 0.16 0.16 0.288 0.288 0.448 0.448l0.128 0.128c0.128 0.128 0.288 0.288 0.448 0.416l0.032 0.032c0.16 0.128 0.352 0.288 0.512 0.416l0.128 0.096c0.192 0.16 0.384 0.288 0.577 0.416v0.032c0.096 0.032 0.16 0.096 0.256 0.16l0.128 0.064c0.128 0.096 0.256 0.192 0.416 0.256l0.064 0.032c0.096 0.064 0.224 0.16 0.352 0.224l0.128 0.064c0.096 0.032 0.16 0.096 0.256 0.128l0.032 0.032c0.192 0.064 0.352 0.16 0.545 0.224l0.128 0.064c0.128 0.064 0.288 0.128 0.416 0.16l0.192 0.064c0.128 0.064 0.288 0.096 0.416 0.16l0.16 0.064c0.192 0.064 0.384 0.128 0.609 0.16 10.282 1.698 12.684-6.214 12.684-6.214-2.146 3.075-6.31 4.548-10.73 3.395-0.192-0.064-0.416-0.096-0.609-0.16l-0.16-0.064c-0.128-0.032-0.288-0.096-0.416-0.128l-0.192-0.096c-0.128-0.032-0.288-0.096-0.416-0.16l-0.128-0.064c-0.192-0.064-0.352-0.16-0.545-0.224-0.096-0.064-0.16-0.096-0.256-0.16l-0.16-0.064c-0.128-0.064-0.224-0.128-0.352-0.192l-0.064-0.064c-0.16-0.064-0.288-0.16-0.416-0.256l-0.128-0.064c-0.096-0.064-0.192-0.128-0.256-0.192-0.192-0.128-0.384-0.256-0.577-0.384l-0.128-0.096c-1.922-1.537-3.459-3.652-4.196-6.022-0.769-2.466-0.609-5.221 0.737-7.463l-1.634 2.306c-2.018 2.883-1.89 6.727-0.352 9.77 0.288 0.48 0.577 0.993 0.897 1.473zM22.39 12.155c0.096 0.032 0.16 0.064 0.256 0.064l0.128 0.064c0.096 0.032 0.224 0.064 0.352 0.096 5.702 1.089 7.239-2.915 7.655-3.523-1.345 1.954-3.62 2.434-6.406 1.73-0.224-0.032-0.48-0.128-0.705-0.192-0.256-0.096-0.512-0.224-0.801-0.32-0.48-0.256-0.961-0.545-1.377-0.865-2.498-1.89-4.068-5.509-2.434-8.456l-0.865 1.217c-1.185 1.73-1.313 3.876-0.48 5.798 0.865 2.018 2.627 3.62 4.677 4.388z"></path>
</svg>
