<?xml version="1.0" encoding="utf-8"?>
<!-- Generated by IcoMoon.io -->
<!DOCTYPE svg PUBLIC "-//W3C//DTD SVG 1.1//EN" "http://www.w3.org/Graphics/SVG/1.1/DTD/svg11.dtd">
<svg version="1.1" xmlns="http://www.w3.org/2000/svg" xmlns:xlink="http://www.w3.org/1999/xlink" width="32" height="32" viewBox="0 0 32 32">
<path d="M0 15.774v6.983h13.998v-2.274c0.003-1.252 0.003-2.627 0.003-3.059s0-2.55-0.003-4.709v-3.924h-13.998v6.983zM7.534 15.22c0.058 0.058 0.058 0.163 0.058 2.492 0 2.14-0.003 2.438-0.048 2.47-0.029 0.022-0.048 0.087-0.048 0.16 0 0.090-0.019 0.144-0.067 0.186-0.051 0.042-0.064 0.080-0.048 0.157 0.019 0.096-0.003 0.125-0.346 0.468-0.259 0.259-0.381 0.359-0.416 0.346-0.032-0.013-0.074 0.003-0.106 0.042-0.045 0.051-0.096 0.064-0.24 0.064s-0.186 0.013-0.199 0.054c-0.016 0.051-0.067 0.058-0.471 0.054-0.384-0.003-0.458-0.013-0.484-0.058-0.019-0.035-0.070-0.051-0.16-0.051-0.080 0-0.157-0.022-0.192-0.054-0.032-0.029-0.106-0.051-0.167-0.048-0.083 0.003-0.125-0.019-0.199-0.106-0.051-0.061-0.122-0.112-0.157-0.112-0.087 0-0.352-0.269-0.327-0.33 0.010-0.029-0.032-0.087-0.109-0.154-0.103-0.083-0.125-0.122-0.109-0.179 0.010-0.042 0.006-0.074-0.006-0.074-0.016 0-0.048-0.013-0.070-0.029-0.038-0.026-0.035-0.042 0.032-0.096 0.042-0.035 0.109-0.064 0.147-0.067 0.038 0 0.087-0.029 0.109-0.067 0.022-0.042 0.054-0.061 0.093-0.051s0.096-0.022 0.163-0.093c0.058-0.061 0.135-0.109 0.167-0.109 0.035 0 0.119-0.061 0.186-0.131l0.122-0.131 0.096 0.074c0.054 0.045 0.096 0.109 0.096 0.151 0.003 0.093 0.279 0.359 0.375 0.359 0.045 0 0.080 0.026 0.093 0.064 0.019 0.058 0.048 0.064 0.288 0.064 0.237 0 0.275-0.006 0.304-0.064 0.019-0.035 0.067-0.064 0.109-0.064 0.083 0 0.16-0.131 0.131-0.227-0.013-0.038 0.003-0.074 0.045-0.099 0.067-0.042 0.067-0.054 0.067-2.447 0-1.323 0.006-2.412 0.013-2.418s0.285-0.010 0.615-0.006c0.538 0.003 0.605 0.013 0.66 0.064zM11.281 15.211c0.019 0.035 0.074 0.051 0.163 0.051 0.099 0 0.144 0.016 0.176 0.064 0.022 0.038 0.058 0.054 0.090 0.042 0.074-0.026 0.682 0.583 0.663 0.663-0.010 0.038 0.010 0.070 0.051 0.096 0.067 0.035 0.067 0.035-0.019 0.109-0.051 0.038-0.144 0.096-0.211 0.128s-0.131 0.077-0.141 0.102c-0.010 0.026-0.051 0.045-0.093 0.045-0.051 0-0.115 0.042-0.176 0.112-0.070 0.077-0.128 0.112-0.189 0.112-0.064 0-0.093 0.019-0.106 0.067-0.029 0.106-0.131 0.064-0.144-0.061-0.006-0.054-0.022-0.102-0.035-0.102-0.042 0-0.186-0.141-0.205-0.202-0.016-0.042-0.042-0.051-0.099-0.035-0.058 0.013-0.086 0.003-0.115-0.048-0.029-0.061-0.064-0.067-0.288-0.067h-0.253l-0.154 0.151-0.154 0.154-0.003 0.282c-0.006 0.256 0 0.288 0.070 0.365 0.042 0.045 0.077 0.096 0.077 0.115 0 0.016 0.035 0.022 0.080 0.013 0.058-0.010 0.093 0.003 0.115 0.045 0.019 0.038 0.067 0.061 0.125 0.061 0.064 0 0.099 0.019 0.112 0.067 0.016 0.051 0.038 0.061 0.099 0.048 0.054-0.016 0.083-0.003 0.109 0.045 0.022 0.042 0.067 0.064 0.125 0.064 0.067 0 0.096 0.019 0.109 0.067 0.016 0.054 0.035 0.064 0.099 0.048 0.061-0.016 0.090-0.003 0.115 0.045 0.022 0.042 0.067 0.064 0.125 0.064 0.064 0 0.096 0.019 0.109 0.064 0.013 0.054 0.032 0.064 0.102 0.045 0.067-0.016 0.086-0.010 0.102 0.048 0.013 0.048 0.042 0.067 0.106 0.067 0.061 0 0.119 0.035 0.189 0.112 0.054 0.061 0.125 0.112 0.16 0.112 0.090 0 0.323 0.231 0.323 0.317 0 0.038 0.048 0.112 0.115 0.17 0.074 0.067 0.109 0.122 0.099 0.16-0.010 0.032 0.010 0.093 0.045 0.135 0.054 0.070 0.061 0.138 0.061 0.721 0 0.551-0.006 0.644-0.048 0.644-0.032 0-0.048 0.032-0.048 0.090 0 0.064-0.032 0.119-0.112 0.186-0.064 0.051-0.112 0.122-0.112 0.16 0 0.096-0.243 0.333-0.34 0.333-0.045 0-0.086 0.022-0.096 0.048-0.013 0.026-0.061 0.048-0.109 0.048-0.064 0-0.099 0.019-0.112 0.067-0.016 0.051-0.042 0.064-0.099 0.051-0.054-0.010-0.090 0.003-0.112 0.045-0.026 0.051-0.067 0.061-0.237 0.061-0.167 0-0.208 0.010-0.221 0.054-0.016 0.051-0.067 0.058-0.5 0.054-0.397-0.003-0.493-0.013-0.541-0.058-0.038-0.035-0.115-0.051-0.25-0.051-0.144 0-0.199-0.013-0.215-0.048-0.010-0.026-0.054-0.048-0.096-0.048-0.048 0-0.096-0.026-0.115-0.064-0.022-0.042-0.067-0.064-0.128-0.064-0.064 0-0.096-0.016-0.096-0.048s-0.032-0.048-0.086-0.048c-0.122 0-0.778-0.647-0.778-0.772 0-0.061-0.019-0.090-0.070-0.106-0.070-0.019-0.067-0.026 0.070-0.147 0.080-0.070 0.176-0.128 0.218-0.128 0.038 0 0.080-0.022 0.090-0.048 0.013-0.029 0.061-0.048 0.112-0.048s0.093-0.013 0.093-0.032c0-0.054 0.176-0.192 0.247-0.192 0.038 0 0.086-0.029 0.106-0.064s0.051-0.064 0.070-0.064c0.061 0 0.215 0.163 0.199 0.208-0.022 0.058 0.301 0.378 0.359 0.356 0.026-0.010 0.064 0.010 0.083 0.045 0.022 0.035 0.077 0.064 0.122 0.064s0.099 0.029 0.122 0.064c0.035 0.058 0.074 0.064 0.442 0.064h0.4l0.195-0.192c0.109-0.106 0.208-0.192 0.224-0.192 0.013 0 0.026-0.115 0.026-0.256v-0.253l-0.16-0.16c-0.096-0.096-0.179-0.154-0.208-0.144-0.026 0.010-0.061-0.010-0.086-0.048-0.022-0.038-0.074-0.067-0.122-0.067-0.045 0-0.099-0.029-0.119-0.061-0.026-0.038-0.061-0.054-0.102-0.045s-0.077-0.006-0.106-0.051c-0.022-0.038-0.074-0.067-0.122-0.067-0.045 0-0.099-0.029-0.119-0.061-0.026-0.038-0.061-0.054-0.102-0.045s-0.077-0.006-0.106-0.051c-0.026-0.042-0.074-0.067-0.125-0.067-0.048 0-0.093-0.022-0.106-0.048-0.010-0.026-0.054-0.048-0.096-0.048-0.048 0-0.096-0.026-0.115-0.064s-0.067-0.064-0.115-0.064c-0.106 0-0.653-0.545-0.653-0.65 0-0.038-0.029-0.090-0.064-0.112-0.048-0.029-0.061-0.061-0.045-0.115 0.013-0.061 0.003-0.083-0.048-0.099-0.064-0.019-0.067-0.042-0.067-0.589 0-0.529 0.003-0.577 0.067-0.647 0.042-0.048 0.058-0.099 0.048-0.144-0.016-0.054 0.010-0.096 0.102-0.176 0.064-0.058 0.119-0.128 0.119-0.157 0-0.077 0.131-0.224 0.199-0.224 0.035 0 0.115-0.051 0.183-0.115 0.086-0.083 0.135-0.109 0.183-0.093s0.070 0.006 0.083-0.045c0.013-0.048 0.042-0.067 0.109-0.067 0.054 0 0.102-0.022 0.122-0.058 0.026-0.048 0.090-0.054 0.695-0.048 0.57 0.003 0.669 0.013 0.692 0.054zM15.551 15.127c-0.208 0.006-0.301 0.022-0.343 0.061-0.054 0.048-0.058 0.221-0.058 3.213 0 2.636 0.006 3.168 0.045 3.219 0.038 0.054 0.096 0.061 0.631 0.067 0.673 0.006 0.753 0 0.798-0.083 0.029-0.051 0.048-2.169 0.022-2.386-0.006-0.064 0.013-0.064 1.291-0.064h1.297v1.224c0.003 0.939 0.013 1.236 0.042 1.265 0.061 0.061 1.291 0.058 1.365-0.003 0.048-0.038 0.051-0.311 0.051-3.219 0-1.938-0.013-3.194-0.032-3.222-0.051-0.080-1.32-0.102-1.397-0.022-0.013 0.013-0.026 0.618-0.026 1.345l-0.003 1.32-1.272 0.006c-0.794 0.006-1.278-0.003-1.291-0.022-0.010-0.016-0.019-0.602-0.016-1.304 0-0.759-0.013-1.294-0.032-1.323-0.032-0.054-0.551-0.086-1.073-0.070zM22.262 15.291c-0.221 0.048-0.551 0.327-0.596 0.503-0.010 0.042-0.032 0.086-0.048 0.096s-0.029 0.106-0.029 0.215c0 0.372 0.253 0.711 0.641 0.855 0.186 0.070 0.375 0.070 0.464 0 0.019-0.013 0.067-0.032 0.112-0.042 0.119-0.029 0.333-0.224 0.429-0.388 0.070-0.122 0.083-0.179 0.083-0.404 0-0.221-0.013-0.282-0.080-0.397-0.205-0.349-0.589-0.522-0.977-0.439zM29.494 16.085c-0.080 0.019-0.090 0.080-0.099 0.791l-0.006 0.637-0.231-0.006c-0.372-0.013-0.362-0.032-0.362 0.605 0 0.397 0.010 0.548 0.042 0.567 0.019 0.013 0.154 0.022 0.295 0.026h0.256l0.016 0.977c0.016 0.926 0.022 0.987 0.093 1.185 0.042 0.115 0.096 0.231 0.122 0.259 0.022 0.026 0.042 0.064 0.042 0.080s0.067 0.096 0.147 0.179c0.336 0.343 0.98 0.5 1.457 0.359 0.259-0.077 0.519-0.179 0.567-0.227 0.022-0.022 0.077-0.051 0.122-0.061 0.061-0.016 0.077-0.042 0.077-0.128 0-0.061-0.013-0.109-0.026-0.109-0.016 0-0.067-0.077-0.115-0.17-0.048-0.090-0.128-0.24-0.179-0.327-0.051-0.090-0.093-0.183-0.093-0.211-0.006-0.093-0.192-0.128-0.256-0.048-0.051 0.061-0.407 0.102-0.464 0.054-0.070-0.058-0.087-0.275-0.090-1.079l-0.003-0.734h0.487c0.394 0 0.493-0.010 0.516-0.048 0.016-0.026 0.032-0.275 0.032-0.551 0-0.637 0.032-0.602-0.593-0.602h-0.448v-0.669c0-0.509-0.010-0.682-0.042-0.714s-0.192-0.042-0.625-0.045c-0.32 0-0.609 0.003-0.637 0.010zM26.346 17.475c-0.33 0.070-0.5 0.157-0.695 0.352-0.087 0.087-0.163 0.157-0.173 0.157s-0.006-0.077 0.003-0.173c0.019-0.151 0.013-0.183-0.045-0.24-0.064-0.064-0.099-0.067-0.653-0.067-0.439 0-0.602 0.010-0.644 0.042-0.058 0.042-0.061 0.147-0.061 2.053 0 1.489 0.010 2.018 0.038 2.047 0.026 0.026 0.231 0.038 0.663 0.038 0.583 0 0.631-0.003 0.673-0.061 0.035-0.051 0.045-0.266 0.045-1.16 0-0.599 0.010-1.16 0.019-1.24 0.032-0.231 0.183-0.388 0.42-0.436 0.279-0.061 0.295-0.061 0.487-0.016 0.227 0.054 0.34 0.179 0.368 0.41 0.010 0.090 0.019 0.679 0.019 1.31 0 1.060 0.003 1.147 0.058 1.169 0.029 0.010 0.333 0.022 0.673 0.022 0.512 0 0.625-0.010 0.65-0.048 0.019-0.032 0.029-0.564 0.019-1.489-0.013-1.579 0.006-1.409-0.208-1.874-0.099-0.211-0.445-0.57-0.647-0.673-0.163-0.080-0.368-0.135-0.657-0.17-0.051-0.006-0.211 0.013-0.352 0.045zM21.81 17.558c-0.038 0.042-0.045 0.404-0.045 2.050 0 1.816 0.006 2.005 0.051 2.040 0.038 0.026 0.24 0.035 0.669 0.035 0.57 0 0.618-0.006 0.66-0.064 0.038-0.051 0.045-0.384 0.045-2.024 0-1.922 0-1.963-0.064-2.028-0.061-0.061-0.106-0.064-0.669-0.064-0.522 0-0.609 0.006-0.647 0.054z"></path>
</svg>
