<?xml version="1.0" encoding="utf-8"?>
<!-- Generated by IcoMoon.io -->
<!DOCTYPE svg PUBLIC "-//W3C//DTD SVG 1.1//EN" "http://www.w3.org/Graphics/SVG/1.1/DTD/svg11.dtd">
<svg version="1.1" xmlns="http://www.w3.org/2000/svg" xmlns:xlink="http://www.w3.org/1999/xlink" width="32" height="32" viewBox="0 0 32 32">
<path d="M30.622 14.429c-0.16-0.32-0.224-0.705-0.256-1.057-0.032-0.897 0-1.794-0.032-2.691-0.032-0.801-0.32-1.505-1.089-1.922-0.673-0.384-1.473-0.416-2.21-0.416v1.441c0.256 0 0.192 0 0.256 0 0.993 0.064 1.345 0.384 1.345 1.377 0 0.737 0 1.473 0 2.242 0.032 0.897 0.16 1.762 0.993 2.306 0 0.032 0 0.064 0.032 0.096-0.448 0.288-0.769 0.673-0.865 1.217-0.064 0.416-0.128 0.865-0.128 1.281-0.032 0.769 0 1.57-0.032 2.338 0 0.609-0.288 0.897-0.897 1.025-0.224 0.064-0.448 0.096-0.705 0.128v1.409c0.48-0.032 0.737-0.064 1.089-0.096 1.281-0.128 2.018-0.801 2.178-2.050 0.032-0.384 0.032-0.801 0.032-1.185 0.032-0.737 0-1.505 0.096-2.242 0.064-0.737 0.609-1.153 1.345-1.121v-1.473c-0.48 0.064-0.961-0.128-1.153-0.609zM7.079 17.472c0-2.883-0.064-5.798-0.064-8.68v-0.448c-0.769 0-1.57 0-2.37 0-0.32 0-0.577 0.032-0.897 0.064-1.249 0.192-1.826 0.737-2.050 1.954-0.064 0.352-0.032 0.737-0.032 1.089-0.032 0.673 0 1.377 0 2.050-0.032 0.865-0.416 1.505-1.313 1.57-0.032 0 0.16 0.032-0.096 0.064v1.313c0.993 0.16 1.313 0.577 1.377 1.505 0 0.16 0.032 0.288 0.032 0.448 0 0.833 0 1.666 0.032 2.498 0.032 0.769 0.192 1.441 0.929 1.858 0.673 0.384 1.634 0.416 2.114 0.416v-1.409c0 0-0.032 0-0.096-0.032-1.089-0.064-1.313-0.352-1.313-1.441-0.032-0.705 0-1.441 0-2.146 0-0.897-0.16-1.762-0.961-2.338 0 0 0-0.032 0-0.096 0.545-0.352 0.833-0.865 0.929-1.537 0.032-0.352 0.032-0.705 0.064-1.057 0-0.737 0-1.505 0-2.242 0.032-0.512 0.352-0.897 0.769-0.993 0.416-0.064 0.609-0.064 1.377-0.096v0.512c0 2.563-0.096 5.157-0.096 7.72 0.032 0.897 0.128 1.762 1.057 2.146 0.513 0.192 1.089 0.256 1.666 0.416 0.096-0.577 0.128-1.057 0.224-1.538-1.089-0.32-1.281-0.48-1.281-1.57zM13.773 12.475c-1.858-0.865-4.068-0.096-4.933 1.73-0.641 1.409-0.609 2.819-0.064 4.228 0.32 0.769 0.865 1.345 1.634 1.666 1.473 0.673 2.979 0.512 4.452 0.064 0.096-0.032 0.192-0.192 0.192-0.288-0.064-0.416-0.16-0.801-0.224-1.249-0.352 0.096-0.641 0.192-0.961 0.256-0.801 0.128-1.602 0.128-2.37-0.16-0.769-0.32-1.281-1.185-1.153-1.954h5.221c0.064-0.737 0.032-1.762-0.288-2.627-0.288-0.769-0.769-1.281-1.505-1.666zM13.741 15.518h-3.427c0-0.993 0.833-1.89 1.89-1.89 0.929 0.032 1.602 0.897 1.537 1.89zM27.803 18.593c0.096-1.249-0.256-1.986-1.409-2.53-0.384-0.192-0.801-0.32-1.217-0.512-0.32-0.128-0.609-0.288-0.897-0.448s-0.384-0.448-0.352-0.769c0.032-0.32 0.256-0.512 0.545-0.577 0.352-0.064 0.737-0.128 1.089-0.128 0.512 0.064 1.025 0.192 1.538 0.288l0.352-1.473c-0.705-0.096-1.377-0.224-2.050-0.288-0.769-0.064-1.473 0.064-2.178 0.416-1.441 0.737-1.473 3.043-0.128 3.78 0.384 0.224 0.833 0.416 1.217 0.609 0.448 0.192 0.897 0.384 1.313 0.609 0.32 0.192 0.416 0.512 0.352 0.865-0.096 0.352-0.352 0.512-0.641 0.545-0.48 0.032-0.961 0.096-1.409 0.032-0.545-0.064-1.089-0.224-1.666-0.352l-0.288 1.441c1.313 0.48 2.659 0.577 3.972 0.288 1.121-0.256 1.762-0.897 1.858-1.794zM20.692 16.223c-0.512-0.256-1.025-0.448-1.538-0.673-0.32-0.16-0.641-0.256-0.929-0.48-0.512-0.384-0.416-1.121 0.192-1.313 0.352-0.096 0.769-0.128 1.121-0.096 0.512 0.032 1.025 0.16 1.57 0.256l0.288-1.409c-0.256-0.064-0.512-0.128-0.737-0.192-0.993-0.192-2.018-0.288-2.979 0.064-0.833 0.288-1.441 0.833-1.538 1.762-0.128 1.057 0.192 1.858 1.153 2.37 0.384 0.192 0.801 0.32 1.185 0.512 0.416 0.192 0.801 0.352 1.185 0.577 0.256 0.192 0.384 0.48 0.288 0.833-0.064 0.32-0.32 0.512-0.641 0.545-0.448 0.032-0.929 0.096-1.377 0.032-0.577-0.064-1.121-0.224-1.698-0.352-0.096 0.384-0.192 0.801-0.256 1.217 0 0.096 0.096 0.256 0.192 0.288 1.345 0.448 2.723 0.545 4.068 0.128 0.833-0.256 1.409-0.769 1.505-1.666 0.128-0.993-0.096-1.89-1.057-2.402z"></path>
</svg>
