<?xml version="1.0" encoding="utf-8"?>
<!-- Generated by IcoMoon.io -->
<!DOCTYPE svg PUBLIC "-//W3C//DTD SVG 1.1//EN" "http://www.w3.org/Graphics/SVG/1.1/DTD/svg11.dtd">
<svg version="1.1" xmlns="http://www.w3.org/2000/svg" xmlns:xlink="http://www.w3.org/1999/xlink" width="27" height="32" viewBox="0 0 27 32">
<path d="M11.852 7.094q-0.192 0.032-0.288 0.192t-0.128 0.192q-0.096 0-0.096-0.096 0-0.224 0.32-0.288h0.192zM13.421 7.35q-0.096 0.032-0.224-0.096t-0.32-0.096q0.448-0.192 0.577 0.032 0.064 0.096-0.032 0.16zM7.143 14.974q-0.096 0-0.128 0.064t-0.064 0.224-0.096 0.256-0.192 0.224q-0.128 0.16 0 0.224 0.064 0 0.224-0.128t0.224-0.32q0-0.064 0.032-0.128t0.032-0.128 0.032-0.064 0-0.064v-0.064t-0.032-0.032-0.032-0.064zM22.422 21.412q0-0.32-0.993-0.769 0.064-0.256 0.128-0.48t0.096-0.48 0.064-0.384 0-0.384-0.032-0.352-0.032-0.384-0.096-0.384-0.096-0.448-0.096-0.448q-0.16-0.865-0.833-1.858t-1.281-1.345q0.416 0.352 1.025 1.505 1.538 2.883 0.961 4.965-0.192 0.705-0.897 0.737-0.545 0.064-0.673-0.32t-0.16-1.505-0.192-1.89q-0.16-0.705-0.352-1.249t-0.352-0.801-0.288-0.448-0.224-0.256-0.128-0.128q-0.256-1.121-0.545-1.858t-0.545-0.993-0.416-0.577-0.256-0.737q-0.096-0.384 0.096-0.961t0.064-0.865-0.769-0.448q-0.288-0.064-0.801-0.32t-0.641-0.288-0.192-0.48 0.128-0.897 0.641-0.48q0.673-0.064 0.929 0.545t0.064 1.025q-0.192 0.32-0.032 0.48t0.545 0q0.224-0.064 0.224-0.641v-0.673q-0.096-0.545-0.256-0.897t-0.352-0.545-0.416-0.256-0.48-0.128q-1.922 0.128-1.602 2.402 0 0.256-0.032 0.256-0.16-0.16-0.512-0.192t-0.609 0-0.256-0.064q0-1.025-0.288-1.634t-0.801-0.609q-0.48 0-0.737 0.513t-0.32 1.057q0 0.256 0.064 0.673t0.256 0.641 0.256 0.256q0.192-0.064 0.288-0.256 0.064-0.16-0.128-0.128-0.128 0-0.256-0.256t-0.192-0.609q0-0.384 0.16-0.673t0.609-0.256q0.32 0 0.48 0.384t0.192 0.705-0.032 0.384q-0.384 0.288-0.545 0.513t-0.512 0.448-0.352 0.192q-0.224 0.256-0.288 0.512t0.128 0.32q0.256 0.128 0.448 0.32t0.288 0.352 0.32 0.224 0.641 0.128q0.865 0.032 1.826-0.256 0.032-0.032 0.416-0.128t0.609-0.192 0.545-0.224 0.352-0.32q0.192-0.256 0.384-0.16 0.064 0.064 0.096 0.16t-0.032 0.224-0.32 0.16q-0.352 0.096-0.993 0.384t-0.833 0.352q-0.769 0.352-1.249 0.416-0.448 0.096-1.409-0.032-0.16-0.032-0.16 0.032t0.32 0.32q0.448 0.416 1.185 0.416 0.32-0.032 0.641-0.128t0.641-0.256 0.609-0.32 0.545-0.288 0.416-0.224 0.32-0.032 0.16 0.192q0 0.032-0.032 0.064t-0.064 0.096-0.096 0.096-0.16 0.064-0.16 0.096-0.192 0.096-0.16 0.064q-0.48 0.256-1.185 0.801t-1.217 0.769-0.865 0q-0.384-0.192-1.121-1.281-0.384-0.577-0.448-0.416-0.032 0.064-0.032 0.192 0 0.448-0.256 0.993t-0.512 0.993-0.384 1.057 0.192 1.121q-0.416 0.096-1.121 1.602t-0.833 2.53q-0.032 0.32-0.032 1.217t-0.096 1.057q-0.128 0.448-0.513 0.064-0.577-0.545-0.641-1.698-0.032-0.48 0.064-0.993 0.064-0.32-0.032-0.32l-0.064 0.096q-0.641 1.153 0.192 2.979 0.096 0.192 0.448 0.48t0.416 0.352q0.352 0.416 1.858 1.634t1.666 1.345q0.288 0.288 0.32 0.705t-0.256 0.769-0.801 0.416q0.128 0.256 0.512 0.769t0.48 0.993 0.128 1.249q0.833-0.416 0.128-1.634-0.064-0.16-0.192-0.288t-0.16-0.224-0.032-0.096q0.064-0.096 0.224-0.192t0.352 0.064q0.833 0.929 2.979 0.641 2.37-0.288 3.171-1.57 0.416-0.673 0.609-0.545t0.16 0.961q0 0.416-0.416 1.634-0.16 0.416-0.096 0.673t0.416 0.256q0.064-0.32 0.288-1.377t0.224-1.602q0.032-0.384-0.128-1.313t-0.128-1.73 0.416-1.249q0.288-0.32 0.929-0.32 0-0.673 0.609-0.961t1.281-0.192 1.089 0.416zM11.179 6.613q0.064-0.288-0.032-0.513t-0.192-0.288q-0.16-0.032-0.16 0.128 0.032 0.096 0.064 0.096 0.192 0 0.128 0.288-0.032 0.352 0.16 0.352 0.032 0 0.032-0.064zM18.674 10.137q-0.032-0.128-0.096-0.192t-0.256-0.096-0.256-0.096q-0.096-0.064-0.16-0.16t-0.128-0.128-0.096-0.128-0.064-0.064-0.096 0.032q-0.224 0.288 0.128 0.769t0.705 0.577q0.16 0 0.256-0.16t0.064-0.352zM15.503 6.325q0-0.192-0.096-0.352t-0.192-0.192-0.16-0.064q-0.256 0-0.128 0.128l0.064 0.032q0.256 0.064 0.32 0.545 0 0.064 0.16-0.032zM16.464 2.161q0-0.032-0.032-0.064t-0.16-0.128-0.192-0.128q-0.256-0.256-0.416-0.256t-0.224 0.128 0 0.224 0 0.224q-0.032 0.096-0.128 0.192t-0.096 0.16 0.064 0.16q0.064 0.064 0.128 0t0.192-0.16 0.288-0.16q0-0.032 0.16-0.032t0.256-0.032 0.16-0.128zM26.554 26.152q0.352 0.192 0.577 0.416t0.192 0.448-0.032 0.384-0.288 0.416-0.416 0.32-0.545 0.352-0.545 0.288-0.577 0.288-0.48 0.224q-0.673 0.352-1.538 0.993t-1.345 1.153q-0.288 0.288-1.217 0.352t-1.602-0.256q-0.32-0.16-0.512-0.416t-0.288-0.48-0.416-0.352-0.833-0.16q-0.769 0-2.306 0-0.352 0-1.025 0t-1.025 0.064q-0.801 0-1.441 0.256t-0.961 0.545-0.769 0.512-0.961 0.192q-0.513 0-1.986-0.545t-2.595-0.769q-0.352-0.064-0.929-0.16t-0.897-0.16-0.705-0.192-0.577-0.256-0.32-0.352q-0.16-0.384 0.128-1.185t0.32-0.961q0.032-0.288-0.064-0.737t-0.192-0.737-0.064-0.673 0.192-0.48q0.224-0.192 0.993-0.256t1.089-0.192q0.545-0.32 0.737-0.641t0.224-0.897q0.384 1.313-0.577 1.89-0.577 0.352-1.473 0.256-0.609-0.032-0.769 0.192-0.224 0.256 0.096 1.025 0.032 0.096 0.128 0.32t0.16 0.32 0.064 0.288 0.032 0.416q0 0.256-0.288 0.865t-0.256 0.865q0.032 0.288 0.641 0.448 0.384 0.128 1.505 0.352t1.794 0.352q0.416 0.096 1.313 0.384t1.473 0.416 0.993 0.064q0.769-0.096 1.153-0.48t0.416-0.865-0.128-1.057-0.352-0.929-0.352-0.641q-2.146-3.395-3.011-4.324-1.217-1.313-2.018-0.737-0.192 0.192-0.288-0.256-0.032-0.288-0.032-0.673 0.032-0.512 0.192-0.929t0.416-0.833 0.416-0.769q0.128-0.352 0.448-1.281t0.545-1.377 0.545-1.089 0.673-0.993q1.986-2.53 2.242-3.459-0.224-2.018-0.288-5.541-0.064-1.634 0.416-2.723t1.89-1.858q0.705-0.384 1.858-0.384 0.961-0.032 1.89 0.256t1.602 0.737q1.025 0.737 1.634 2.178t0.545 2.627q-0.096 1.698 0.512 3.812 0.609 2.018 2.37 3.908 0.993 1.057 1.794 2.915t1.057 3.395q0.16 0.897 0.096 1.538t-0.224 0.993-0.352 0.384q-0.16 0.032-0.416 0.32t-0.48 0.641-0.737 0.609-1.089 0.256q-0.32-0.032-0.545-0.096t-0.416-0.256-0.224-0.256-0.224-0.384-0.16-0.352q-0.384-0.641-0.737-0.512t-0.48 0.865 0.128 1.73q0.352 1.249 0 3.491-0.16 1.153 0.32 1.794t1.313 0.609 1.505-0.641q1.057-0.897 1.602-1.185t1.858-0.769q0.961-0.32 1.377-0.641t0.32-0.641-0.448-0.512-0.897-0.416q-0.609-0.192-0.897-0.865t-0.256-1.281 0.256-0.865q0.032 0.577 0.16 1.025t0.256 0.737 0.352 0.48 0.384 0.352 0.384 0.224 0.288 0.192z"></path>
</svg>
