<?xml version="1.0" encoding="utf-8"?>
<!-- Generated by IcoMoon.io -->
<!DOCTYPE svg PUBLIC "-//W3C//DTD SVG 1.1//EN" "http://www.w3.org/Graphics/SVG/1.1/DTD/svg11.dtd">
<svg version="1.1" xmlns="http://www.w3.org/2000/svg" xmlns:xlink="http://www.w3.org/1999/xlink" width="25" height="32" viewBox="0 0 25 32">
<path d="M24.888 21.476q-0.673 2.242-2.178 4.452-2.306 3.523-4.613 3.523-0.865 0-2.498-0.577-1.537-0.577-2.691-0.577-1.089 0-2.53 0.609-1.473 0.609-2.37 0.609-2.723 0-5.381-4.645-2.627-4.677-2.627-9.001 0-4.068 2.018-6.662t5.093-2.595q1.281 0 3.139 0.545t2.466 0.545q0.801 0 2.563-0.609 1.826-0.609 3.107-0.609 2.114 0 3.812 1.153 0.929 0.641 1.858 1.794-1.441 1.185-2.050 2.114-1.153 1.666-1.153 3.684 0 2.21 1.217 4.004t2.819 2.242zM18.194 0.495q0 1.089-0.545 2.434-0.512 1.345-1.666 2.466-0.961 0.961-1.922 1.313-0.641 0.192-1.858 0.288 0.064-2.659 1.409-4.58 1.313-1.922 4.452-2.659 0.032 0.064 0.064 0.192t0.032 0.192q0 0.096 0 0.192t0.032 0.16z"></path>
</svg>
