<?xml version="1.0" encoding="utf-8"?>
<!-- Generated by IcoMoon.io -->
<!DOCTYPE svg PUBLIC "-//W3C//DTD SVG 1.1//EN" "http://www.w3.org/Graphics/SVG/1.1/DTD/svg11.dtd">
<svg version="1.1" xmlns="http://www.w3.org/2000/svg" xmlns:xlink="http://www.w3.org/1999/xlink" width="39" height="32" viewBox="0 0 39 32">
<path d="M2.406 5.15v13.479l2.319-1.304v-10.87l-2.319-1.304zM0.087 17.325v-16.233l13.769 7.827v2.754l-11.45-6.522v13.479l-2.319-1.304zM27.915 1.092v16.233l-9.276 5.218-2.319-1.449 9.276-5.218v-10.87l-11.74 6.667v-2.754l14.059-7.827zM25.596-0.212l-11.595 6.522-11.595-6.522-2.319 1.304 13.769 7.827 14.059-7.827-2.319-1.304zM23.277 6.31v8.261l2.319 1.304v-10.87l-2.319 1.304zM11.682 21.094l11.595-6.522 2.319 1.304-9.276 5.218 9.131 5.218 9.276-5.218 2.319 1.304-11.595 6.522-13.769-7.827zM11.682 21.094v2.754l13.769 7.827v-2.754l-13.769-7.827zM37.046 22.398v-8.117l-2.319-1.304v8.117l2.319 1.304zM25.451 28.92l11.595-6.522v-8.117l2.319-1.304v10.87l-13.914 7.827v-2.754zM39.365 12.977l-2.319 1.304-2.319-1.304 2.319-1.304 2.319 1.304zM37.046 11.673v-2.754l2.319-1.304v2.754l-2.319 1.304zM37.046 8.919v2.754l-2.319-1.304v-2.754l2.319 1.304zM39.365 7.614l-2.319 1.304-2.319-1.304 2.319-1.304 2.319 1.304z"></path>
</svg>
