<?xml version="1.0" encoding="utf-8"?>
<!-- Generated by IcoMoon.io -->
<!DOCTYPE svg PUBLIC "-//W3C//DTD SVG 1.1//EN" "http://www.w3.org/Graphics/SVG/1.1/DTD/svg11.dtd">
<svg version="1.1" xmlns="http://www.w3.org/2000/svg" xmlns:xlink="http://www.w3.org/1999/xlink" width="32" height="32" viewBox="0 0 32 32">
<path d="M30.109 16.127c0.288 0 0.512-0.224 0.512-0.545 0-0.096-0.032-0.224-0.128-0.32 0-0.032-6.983-6.438-6.983-6.438l6.15 7.015c0.064 0.192 0.256 0.288 0.448 0.288zM31.519 19.714l-0.032-0.064-15.215-13.902 13.998 15.215c0.128 0.16 0.352 0.256 0.609 0.256 0.512 0 0.897-0.384 0.897-0.897 0-0.224-0.096-0.448-0.256-0.609zM24.792 29.099l-22.006-20.372 20.276 22.134c0.224 0.256 0.577 0.416 0.929 0.416 0.673 0 1.249-0.545 1.249-1.217 0-0.384-0.16-0.737-0.448-0.961zM0.256 0.271l26.938 28.7c0.224 0.224 0.545 0.352 0.865 0.352 0.673 0 1.217-0.545 1.217-1.249 0-0.224-0.064-0.48-0.224-0.673-0.064-0.128-28.796-27.131-28.796-27.131zM30.878 23.494l-22.006-20.404 20.276 22.134c0.224 0.256 0.545 0.448 0.929 0.448 0.673 0 1.217-0.577 1.217-1.249 0-0.384-0.16-0.705-0.416-0.929zM20.244 29.676l-0.032-0.032-15.215-13.902 13.966 15.215c0.16 0.16 0.384 0.256 0.641 0.256 0.48 0 0.897-0.384 0.897-0.897 0-0.256-0.096-0.448-0.256-0.641zM8.52 22.693l6.182 7.047c0.096 0.16 0.224 0.288 0.448 0.288 0.288 0 0.512-0.224 0.512-0.545 0-0.128-0.032-0.256-0.128-0.32-0.032-0.032-7.015-6.47-7.015-6.47z"></path>
</svg>
