<?xml version="1.0" encoding="utf-8"?>
<!-- Generated by IcoMoon.io -->
<!DOCTYPE svg PUBLIC "-//W3C//DTD SVG 1.1//EN" "http://www.w3.org/Graphics/SVG/1.1/DTD/svg11.dtd">
<svg version="1.1" xmlns="http://www.w3.org/2000/svg" xmlns:xlink="http://www.w3.org/1999/xlink" width="32" height="32" viewBox="0 0 32 32">
<path d="M15.047-0.225c-0.004 0.008-0.156 0.024-0.332 0.040-0.553 0.044-0.705 0.064-1.341 0.168-2.895 0.48-5.686 1.798-7.908 3.736-0.172 0.152-1.465 1.449-1.562 1.566-0.332 0.408-0.733 0.917-0.781 0.985-1.077 1.542-1.71 2.739-2.222 4.22-0.128 0.368-0.364 1.137-0.396 1.301-0.012 0.044-0.064 0.276-0.12 0.521-0.052 0.24-0.108 0.512-0.124 0.601-0.012 0.088-0.028 0.188-0.040 0.22-0.016 0.068-0.044 0.248-0.080 0.541-0.012 0.108-0.032 0.244-0.040 0.3-0.104 0.613-0.104 2.919-0.004 3.563 0.008 0.056 0.028 0.208 0.044 0.34 0.016 0.128 0.036 0.272 0.044 0.316s0.024 0.152 0.040 0.24c0.012 0.088 0.028 0.172 0.036 0.184 0.004 0.012 0.024 0.104 0.036 0.204 0.056 0.432 0.364 1.558 0.637 2.338 0.268 0.761 0.833 1.99 1.125 2.458 0.056 0.088 0.104 0.172 0.104 0.184 0 0.104 1.233 1.886 1.481 2.142 0.032 0.036 0.14 0.16 0.24 0.28 0.224 0.268 0.757 0.833 1.017 1.077 0.108 0.1 0.252 0.236 0.32 0.304 0.665 0.633 1.93 1.554 2.863 2.078 1.045 0.593 2.37 1.161 3.327 1.429 0.1 0.028 0.2 0.056 0.22 0.060 0.188 0.060 1.177 0.296 1.309 0.316 0.096 0.016 0.18 0.032 0.192 0.040 0.012 0.004 0.112 0.024 0.22 0.036 0.112 0.016 0.244 0.032 0.3 0.044 0.212 0.040 0.348 0.056 0.613 0.080 0.152 0.012 0.332 0.032 0.4 0.044 0.224 0.040 2.158 0.048 2.53 0.012 0.2-0.016 0.468-0.044 0.601-0.056 0.428-0.040 1.461-0.224 2.030-0.364 1.878-0.46 3.608-1.229 5.193-2.314 0.228-0.156 0.452-0.312 0.5-0.344 0.589-0.4 1.493-1.217 2.346-2.118 0.492-0.52 1.437-1.778 1.754-2.33 0.044-0.076 0.148-0.252 0.236-0.396 0.156-0.256 0.641-1.193 0.809-1.574 0.464-1.041 0.957-2.647 1.101-3.612 0.016-0.088 0.032-0.188 0.044-0.22 0.016-0.068 0.044-0.248 0.080-0.541 0.012-0.112 0.032-0.244 0.040-0.3 0.104-0.617 0.108-2.899 0-3.567-0.008-0.052-0.024-0.204-0.040-0.336-0.016-0.128-0.036-0.272-0.044-0.316s-0.024-0.152-0.040-0.24c-0.012-0.088-0.028-0.172-0.036-0.184-0.004-0.012-0.024-0.104-0.036-0.204-0.032-0.228-0.268-1.197-0.4-1.618-0.537-1.75-1.313-3.295-2.394-4.793-0.14-0.188-0.296-0.396-0.352-0.46s-0.164-0.196-0.24-0.292c-0.316-0.412-1.045-1.173-1.602-1.678-0.076-0.068-0.184-0.168-0.24-0.216-0.056-0.052-0.18-0.156-0.28-0.232-0.096-0.076-0.228-0.18-0.292-0.236-0.553-0.48-1.77-1.253-2.751-1.742-0.885-0.444-1.826-0.821-2.563-1.025-0.212-0.060-0.2-0.056-0.48-0.132-0.256-0.072-1.037-0.252-1.241-0.284-0.076-0.012-0.184-0.028-0.24-0.040-0.056-0.008-0.172-0.028-0.26-0.040-0.092-0.012-0.204-0.028-0.252-0.040-0.048-0.008-0.208-0.024-0.36-0.040-0.152-0.012-0.336-0.032-0.412-0.044-0.14-0.024-2.302-0.060-2.326-0.040zM20.58 13.76v1.433l0.104-0.18c0.36-0.641 1.113-0.985 1.918-0.881 0.749 0.096 1.201 0.476 1.385 1.165 0.032 0.116 0.052 0.801 0.064 1.986l0.020 1.814h-0.408v-1.634c0-0.897-0.020-1.754-0.040-1.902-0.072-0.484-0.308-0.817-0.717-1.005-0.152-0.068-0.26-0.084-0.605-0.080-0.533 0-0.785 0.088-1.113 0.396-0.28 0.256-0.424 0.508-0.529 0.925-0.072 0.28-0.080 0.444-0.080 1.806v1.493h-0.4v-6.767h0.4v1.429zM4.941 14.133c0.152 0.024 0.352 0.076 0.448 0.116 0.252 0.112 0.553 0.412 0.657 0.657l0.088 0.204 0.092-0.176c0.152-0.292 0.364-0.508 0.637-0.641 0.733-0.364 1.694-0.164 2.070 0.432 0.248 0.396 0.252 0.404 0.268 2.478l0.012 1.894h-0.4l-0.012-1.894c-0.012-1.874-0.012-1.89-0.104-2.090-0.112-0.24-0.292-0.436-0.508-0.553-0.132-0.072-0.228-0.084-0.541-0.088-0.328 0-0.412 0.016-0.605 0.108-0.28 0.128-0.521 0.36-0.657 0.637-0.2 0.388-0.22 0.605-0.22 2.306v1.574h-0.4v-1.834c0-2.038-0.004-2.090-0.26-2.418-0.204-0.272-0.436-0.372-0.861-0.372-0.304 0-0.372 0.012-0.605 0.128-0.464 0.228-0.785 0.689-0.873 1.253-0.024 0.144-0.044 0.917-0.044 1.75v1.493h-0.36v-4.885h0.36v0.941l0.12-0.22c0.22-0.408 0.661-0.717 1.129-0.797 0.288-0.048 0.26-0.048 0.569-0.004zM12.957 14.217c0.845 0.26 1.433 1.117 1.521 2.21 0.048 0.633-0.128 1.373-0.44 1.838-0.909 1.373-3.031 1.221-3.732-0.264-0.22-0.468-0.276-0.737-0.272-1.345 0-0.613 0.060-0.893 0.28-1.341 0.48-0.985 1.558-1.429 2.643-1.097zM17.994 14.201c0.633 0.156 1.121 0.605 1.257 1.153 0.104 0.416 0.112 0.38-0.104 0.38h-0.196l-0.048-0.208c-0.16-0.705-0.833-1.117-1.726-1.057-0.645 0.044-1.161 0.408-1.457 1.037-0.188 0.404-0.244 0.661-0.24 1.169 0.008 0.789 0.184 1.273 0.613 1.706 0.368 0.368 0.589 0.452 1.205 0.452 0.436 0.004 0.472-0.004 0.729-0.124 0.156-0.072 0.356-0.212 0.464-0.324 0.204-0.2 0.42-0.601 0.468-0.861 0.028-0.148 0.032-0.148 0.224-0.148 0.108 0 0.196 0.012 0.196 0.024 0 0.116-0.156 0.569-0.268 0.789-0.669 1.273-2.695 1.381-3.531 0.188-0.332-0.476-0.484-1.025-0.484-1.774 0-1.77 1.257-2.811 2.899-2.402zM27.635 14.173c0.408 0.080 0.745 0.316 0.925 0.653 0.088 0.164 0.088 0.2 0.108 1.954 0.024 2.066 0 1.958 0.388 1.958h0.212v0.16c0 0.148-0.008 0.156-0.144 0.184-0.184 0.032-0.484-0.008-0.605-0.084-0.132-0.088-0.2-0.244-0.232-0.541l-0.028-0.256-0.076 0.14c-0.096 0.196-0.468 0.529-0.729 0.653-0.432 0.212-0.965 0.272-1.501 0.16-0.509-0.104-0.781-0.288-0.977-0.673-0.12-0.228-0.148-0.853-0.056-1.137 0.136-0.412 0.585-0.753 1.133-0.869 0.152-0.032 0.561-0.088 0.913-0.12 1.161-0.112 1.305-0.204 1.317-0.849 0.004-0.32-0.008-0.372-0.108-0.541-0.364-0.621-1.706-0.701-2.302-0.136-0.176 0.164-0.328 0.464-0.356 0.709l-0.024 0.196h-0.4l0.028-0.196c0.064-0.492 0.236-0.813 0.573-1.069 0.42-0.32 1.197-0.44 1.942-0.296zM11.771 14.517c-0.825 0.22-1.361 1.065-1.361 2.138 0 0.949 0.42 1.726 1.109 2.054 0.256 0.12 0.296 0.128 0.733 0.128 0.388 0 0.488-0.016 0.653-0.092 0.496-0.224 0.853-0.641 1.057-1.229 0.096-0.284 0.108-0.376 0.108-0.841 0.004-0.573-0.048-0.809-0.264-1.237-0.14-0.28-0.452-0.621-0.693-0.765-0.364-0.212-0.901-0.272-1.341-0.156zM28.139 16.479c-0.148 0.080-0.392 0.12-1.117 0.196-0.933 0.096-1.241 0.184-1.489 0.416-0.204 0.184-0.284 0.392-0.284 0.725-0.004 0.737 0.464 1.077 1.425 1.033 0.34-0.016 0.424-0.036 0.661-0.152 0.348-0.172 0.625-0.448 0.785-0.793 0.116-0.248 0.128-0.304 0.14-0.789 0.008-0.288 0.012-0.561 0.004-0.609-0.016-0.080-0.024-0.084-0.124-0.028z"></path>
</svg>
