<?xml version="1.0" encoding="utf-8"?>
<!-- Generated by IcoMoon.io -->
<!DOCTYPE svg PUBLIC "-//W3C//DTD SVG 1.1//EN" "http://www.w3.org/Graphics/SVG/1.1/DTD/svg11.dtd">
<svg version="1.1" xmlns="http://www.w3.org/2000/svg" xmlns:xlink="http://www.w3.org/1999/xlink" width="32" height="32" viewBox="0 0 32 32">
<path d="M30.604 15.13c0-0.263 0.187-0.461 0.427-0.461 0.237 0 0.424 0.198 0.424 0.461 0 0.268-0.187 0.464-0.424 0.464-0.24 0-0.427-0.197-0.427-0.464v0zM31.031 15.687c0.286 0 0.53-0.235 0.53-0.557 0-0.319-0.244-0.554-0.53-0.554-0.288 0-0.533 0.235-0.533 0.554 0 0.322 0.244 0.557 0.533 0.557v0zM30.92 15.174h0.105l0.159 0.278h0.103l-0.172-0.282c0.089-0.012 0.157-0.062 0.157-0.176 0-0.126-0.071-0.182-0.214-0.182h-0.23v0.641h0.092v-0.278zM30.92 15.092v-0.198h0.125c0.064 0 0.132 0.015 0.132 0.094 0 0.099-0.069 0.104-0.147 0.104h-0.109zM28.726 17.449h1.153v-0.85h-1.124v-0.699h1.227l0.001-0.857h-2.261v2.075c-0.322-0.577-1.416-0.436-1.527-0.916-0.060-0.259 0.132-0.435 0.482-0.435s0.661 0.246 0.661 0.246l0.359-0.737c0 0-0.425-0.304-1.219-0.312-0.954-0.009-1.351 0.822-1.341 1.266 0 0.016-0.001 0.031-0.003 0.045-0.288-0.747-1.003-1.294-1.86-1.362l-0.010-0.081c0 0 0.227 0.047 0.376 0.035 0.269-0.021 0.893-0.567 1.502-0.56 0.517 0.006 1.378 0.601 1.7 0.659 0.253 0.045 0.457-0.071 0.457-0.071s-0.178 0.082-0.426-0.008c-0.192-0.070-1.087-0.892-1.831-0.864s-1.162 0.666-1.474 0.666c-0.85-0.028-0.716-2.253-2.154-2.296-1.325-0.039-1.601 1.849-2.692 1.856-0.616 0.004-0.914-0.368-0.971-0.34s0 0.092-0.028 0.106c-0.029 0.014-0.114 0.035-0.227 0.085-0.048 0.024-0.188 0.137-0.34 0.224-0.175 0.099-0.359 0.171-0.333 0.194 0.050 0.043 0.482-0.071 0.808-0.078s0.822 0.319 1.545 0.305c0.071-0.021 0.064 0.064 0.021 0.12-0.030 0.040-0.098 0.069-0.136 0.083-1.12 0.001-2.041 0.816-2.164 1.864h-1.699v0.784h0.959c-0.179 0.404-0.545 0.682-0.968 0.682-0.599 0-1.085-0.554-1.085-1.238s0.486-1.238 1.085-1.238c0.389 0 0.73 0.235 0.921 0.587l0.902-0.398c-0.364-0.628-1.044-1.052-1.823-1.052-0.905 0-1.675 0.57-1.973 1.369v-1.267h-1.009v2.408l-1.922-2.431h-0.999v1.288c-0.299-0.816-1.105-1.402-2.054-1.402-1.095 0-1.999 0.78-2.154 1.794l-0.286-1.657h-0.99l-0.829 2.124-0.829-2.124h-0.99l-0.682 3.953h0.968l0.409-2.26 0.907 2.26h0.436l0.907-2.26 0.409 2.26h0.968l-0.176-1.020c0.363 0.674 1.092 1.134 1.934 1.134 0.949 0 1.754-0.585 2.054-1.402v1.288h0.988v-2.453l1.928 2.453h1.013v-1.222c0.298 0.799 1.068 1.369 1.973 1.369 0.852 0 1.567-0.5 1.89-1.223 0.343 0.727 1.102 1.234 1.984 1.234 0.918 0 1.702-0.548 2.024-1.323 0.332 0.751 1.105 1.278 2.006 1.278 1.204 0 2.18-0.941 2.18-2.101 0-0.015-0.023-0.128-0.023-0.142 0.51 0.462 1.55 0.489 1.569 0.943 0.015 0.361-0.246 0.482-0.567 0.454-0.358-0.032-0.859-0.378-0.859-0.378l-0.425 0.784c0 0 0.418 0.425 1.398 0.425 0.838 0 1.222-0.485 1.357-0.714v0.616h2.261v-0.857h-1.256v-0.69h0zM7.231 18.155c-0.633 0-1.147-0.513-1.147-1.147s0.513-1.147 1.147-1.147c0.634 0 1.147 0.514 1.147 1.147s-0.514 1.147-1.147 1.147v0zM19.061 18.199c-0.634 0-1.147-0.513-1.147-1.147s0.513-1.147 1.147-1.147c0.633 0 1.147 0.514 1.147 1.147s-0.513 1.147-1.147 1.147v0zM21.067 16.229c-0.309-0.699-1-1.203-1.82-1.27 0.004-0.003 0.044-0.024 0.090-0.077 0.050-0.057-0.021-0.128 0.021-0.17 0.538 0.043 0.899-0.97 1.963-0.978 0.949-0.007 1.353 0.694 1.743 1.006-0.262 0.064-0.709 0.12-0.687 0.163 0.189-0.009 0.379-0.001 0.536 0.010-0.84 0.066-1.545 0.592-1.845 1.316v0zM23.091 18.155c-0.633 0-1.147-0.513-1.147-1.147s0.513-1.147 1.147-1.147 1.147 0.513 1.147 1.147c0 0.633-0.514 1.147-1.147 1.147v0z"></path>
</svg>
