<?xml version="1.0" encoding="utf-8"?>
<!-- Generated by IcoMoon.io -->
<!DOCTYPE svg PUBLIC "-//W3C//DTD SVG 1.1//EN" "http://www.w3.org/Graphics/SVG/1.1/DTD/svg11.dtd">
<svg version="1.1" xmlns="http://www.w3.org/2000/svg" xmlns:xlink="http://www.w3.org/1999/xlink" width="32" height="32" viewBox="0 0 32 32">
<path d="M22.646 14.077c-0.096-1.185-0.384-2.338-0.769-3.459-0.801-2.53-2.114-4.773-3.94-6.695-0.48-0.513-0.993-0.929-1.313-1.538-0.192-0.384-0.384-0.769-0.609-1.185l-0.128-0.288c0 0.064-0.032 0.096-0.032 0.096 0 0.641-0.352 1.057-0.801 1.473-0.512 0.448-0.961 0.929-1.441 1.409-0.512 0.641-0.993 1.281-1.473 1.922-0.416 0.737-0.801 1.473-1.217 2.21l-0.801 2.146v0.032c-0.448 1.441-0.673 2.947-0.769 4.452-0.032 0.545 0 1.121 0.032 1.698 0.032 0.801 0.192 1.602 0.384 2.37 0.769 2.851 2.338 5.221 4.452 7.207 0.416 0.384 0.801 0.737 1.217 1.089 0.064-0.256 0.128-0.48 0.192-0.737 0.064-0.224 0.128-0.48 0.16-0.705-0.032 0.224-0.064 0.48-0.128 0.705l-0.192 0.737 0.16 0.609 0.192 0.993 0.064 0.993c0 0.224 0 0.416 0 0.641 0 0.032 0.096 0.096 0.128 0.128l0.705 0.256-0.064-0.897v-0.865l0.128-1.377 0.064-0.288 0.256-0.448c0.32-0.256 0.673-0.48 0.961-0.769 0.512-0.512 1.057-1.057 1.505-1.602 0.609-0.737 1.121-1.538 1.57-2.37 0.256-0.577 0.545-1.153 0.737-1.762 0.192-0.545 0.32-1.089 0.48-1.634 0-0.032 0.032-0.064 0.032-0.096 0.32-1.473 0.384-2.947 0.256-4.452zM16.752 26.441v0 0z"></path>
</svg>
