<?xml version="1.0" encoding="utf-8"?>
<!-- Generated by IcoMoon.io -->
<!DOCTYPE svg PUBLIC "-//W3C//DTD SVG 1.1//EN" "http://www.w3.org/Graphics/SVG/1.1/DTD/svg11.dtd">
<svg version="1.1" xmlns="http://www.w3.org/2000/svg" xmlns:xlink="http://www.w3.org/1999/xlink" width="32" height="32" viewBox="0 0 32 32">
<path d="M10.666-0.241v0c0.064 0 0.064 0.032 0.16 0.32 0.128 0.48 0.384 1.153 0.609 1.762 0.352 0.737 0.929 1.89 1.441 2.787l0.096 0.16c0.929 0.16 2.082 0.352 2.595 0.448 2.819 0.545 5.029 1.313 6.727 2.274 1.249 0.673 2.274 1.538 3.107 2.562 0.288 0.352 0.545 0.705 0.865 1.249l0.064 0.096-0.384 0.032c-2.563 0.416-6.438 1.345-9.962 2.402 0 0.032 0 0.064 0.032 0.096 0.096 0.641 0.16 1.281 0.224 2.050 0 0.48 0 1.922-0.032 2.338-0.128 1.505-0.288 2.787-0.512 3.748-0.384 1.602-1.089 3.427-2.050 5.413-0.288 0.577-0.545 1.057-0.577 1.089 0 0-0.448 0-0.769 0-1.57-0.064-4.42-0.48-5.894-0.833-0.897-0.224-2.082-0.641-2.787-0.961-1.377-0.577-2.563-1.473-3.139-2.37-0.48-0.673-0.609-1.409-0.352-2.146 0.128-0.416 0.448-0.929 0.833-1.441 0.288-0.32 0.801-0.833 1.153-1.121 0.032-0.032 0.032-0.032 0.064-0.064l-0.032 0.032c2.947-2.434 4.869-4.613 5.766-6.598 0.512-1.121 0.705-2.050 0.673-3.139-0.032-1.698-0.512-2.915-1.57-4.164-0.224-0.256-2.178-2.146-2.178-2.146-0.192-0.192-0.352-0.352-0.416-0.48-0.032-0.064-0.032-0.128-0.032-0.16v-0.032c0-0.032 0-0.064 0-0.096 0 0 0-0.032 0.032-0.032 0 0 0 0 0 0 0-0.064 0-0.064 0-0.064s0 0 0 0c0.096-0.128 0.352-0.384 0.577-0.545 0.641-0.448 1.698-0.961 3.043-1.505 0.993-0.416 2.53-0.961 2.627-0.961zM10.602-0.017v0c-0.128 0.032-1.762 0.705-2.37 0.993-0.448 0.192-1.505 0.769-1.505 0.769s0.192 0.032 0.448 0.064c1.441 0.224 3.427 0.545 3.876 0.673 0.192 0.064 0.192 0.096 0.032-0.384-0.224-0.641-0.352-1.249-0.416-1.858-0.032-0.128-0.064-0.256-0.064-0.256s0 0 0 0zM6.406 1.937v0l0.224 0.224c0.224 0.192 0.833 0.769 1.602 1.538l0.416 0.384c0.128 0.032 0.288 0.064 0.416 0.064 0.064 0 0.16-0.064 0.256-0.128 0.48-0.288 1.153-0.673 1.762-0.993 0.16-0.064 0.288-0.128 0.288-0.128 0-0.032-0.128-0.032-0.256-0.032-1.281-0.128-3.62-0.545-4.548-0.865zM6.214 2.065v0l-0.032 0.032c-0.641 0.448-1.025 0.897-1.025 1.185v0.064c0.064 0 0.096 0.032 0.16 0.032 0.032 0.032 0.064 0.032 0.096 0.032 0 0 0 0 0.032 0.032 0.032 0 0.096 0.032 0.16 0.032 0 0 0 0 0 0 0.128 0.032 0.224 0.064 0.32 0.096 0.064 0 0.128 0.032 0.192 0.032 0.096 0.032 0.128 0.032 0.192 0.064 0.032 0 0.032 0 0.064 0s0.064 0.032 0.096 0.032c0.352 0.064 0.801 0.16 1.249 0.224 0 0-0.064-0.064-0.128-0.16s-0.416-0.513-0.737-0.929zM11.467 3.122c-0.032 0-0.032 0-0.032 0-0.032 0.032-0.128 0.096-0.224 0.192-0.384 0.32-0.865 0.641-1.313 0.897-0.064 0.032-0.096 0.064-0.096 0.064 0.737 0.128 1.537 0.256 2.498 0.416 0 0-0.032-0.032-0.032-0.032-0.096-0.16-0.577-1.057-0.737-1.377-0.032-0.128-0.064-0.16-0.064-0.16zM5.541 3.859c0 0 0.096 0.064 0.224 0.16 0.929 0.737 1.73 1.666 2.242 2.563 0.064 0.096 0.128 0.16 0.128 0.16s-0.064-0.192-0.096-0.384c-0.16-0.545-0.609-1.954-0.641-1.986 0 0-0.224-0.064-0.48-0.128-0.192-0.032-0.384-0.096-0.577-0.16-0.256-0.064-0.448-0.128-0.609-0.192-0.096 0-0.192-0.032-0.192-0.032zM7.688 4.435c0 0 0 0 0 0.032 0 0 0.064 0.096 0.096 0.192 0.288 0.609 0.609 1.505 0.769 2.114 0.032 0.096 0.064 0.192 0.064 0.192s0.096-0.128 0.224-0.256c0.32-0.288 0.769-0.641 1.249-0.961 0.192-0.128 0.769-0.48 0.929-0.577 0.064-0.032 0.096-0.064 0.096-0.064s-0.096-0.032-0.256-0.064c-0.833-0.128-2.178-0.384-2.915-0.545-0.128-0.032-0.224-0.064-0.256-0.064zM11.499 5.172v0c-0.064-0.032-1.249 0.897-1.698 1.313-0.224 0.192-0.769 0.737-0.769 0.769 0 0 0.32 0.096 0.673 0.192 0.641 0.192 1.409 0.416 1.89 0.545l0.224 0.096v-0.064c0-0.032 0.032-0.192 0.032-0.384 0.032-0.641-0.064-1.345-0.224-1.986-0.064-0.32-0.128-0.48-0.128-0.48zM11.787 5.204c0 0 0.032 0.064 0.064 0.16 0.288 0.705 0.448 1.537 0.448 2.37 0 0.16 0 0.256 0.032 0.256s0.16-0.096 0.384-0.256c0.865-0.577 1.73-1.025 2.883-1.538 0.288-0.16 0.384-0.192 0.352-0.224-0.064 0-0.929-0.192-1.537-0.32-0.833-0.128-2.627-0.448-2.627-0.448zM16.432 6.133c-0.032-0.032-0.993 0.513-1.57 0.865-0.737 0.448-2.146 1.377-2.114 1.409 0 0 0.16 0.064 0.32 0.128 0.641 0.288 1.217 0.545 1.73 0.865 0.128 0.064 0.224 0.128 0.256 0.128s0.096-0.128 0.16-0.288c0.545-0.929 0.961-1.89 1.121-2.53 0.032-0.224 0.096-0.577 0.096-0.577zM16.752 6.197c0 0-0.032 0.064-0.032 0.128-0.064 0.897-0.384 1.922-0.833 2.915-0.064 0.128-0.096 0.224-0.096 0.224s0.128-0.064 0.256-0.096c1.538-0.641 3.139-1.121 5.029-1.57l0.224-0.064-0.32-0.128c-0.769-0.352-1.954-0.769-2.979-1.089-0.416-0.128-1.217-0.32-1.249-0.32zM8.841 7.991c0 0 0 0.128 0.032 0.224 0.128 0.961 0.16 1.922 0.064 2.659 0 0.032 0 0.032 0 0.032s0.192-0.128 0.384-0.32c0.641-0.641 1.185-1.153 1.762-1.634 0.16-0.096 0.256-0.192 0.256-0.224 0 0-1.057-0.384-1.537-0.512-0.32-0.096-0.929-0.224-0.961-0.224zM21.589 8.023c0-0.032-0.577 0.128-1.089 0.32-1.025 0.288-2.37 0.769-3.331 1.185-0.577 0.224-1.313 0.545-1.313 0.545s0.032 0.032 0.096 0.064 0.192 0.16 0.32 0.288c0.673 0.577 1.249 1.217 1.762 1.954 0.064 0.096 0.128 0.16 0.128 0.16s0.128-0.192 0.32-0.384 0.673-0.897 1.121-1.473c0.897-1.089 1.281-1.57 1.538-1.954 0.16-0.256 0.448-0.705 0.448-0.705zM21.941 8.087c-0.032 0.032-0.096 0.192-0.224 0.416-0.705 1.441-1.313 2.242-2.627 3.523-0.224 0.224-0.384 0.384-0.384 0.384s0.128-0.032 0.288-0.064c2.274-0.545 4.613-0.929 6.47-1.089 0.224 0 0.416-0.032 0.416-0.032s-0.545-0.577-0.801-0.833c-0.801-0.801-1.858-1.57-2.915-2.178-0.128-0.064-0.224-0.128-0.224-0.128zM12.204 9.080c0 0-0.032 0.064-0.032 0.128-0.192 0.833-0.512 1.698-0.897 2.402-0.128 0.224-0.128 0.224-0.096 0.224 0 0 0.16-0.096 0.384-0.224 0.737-0.448 1.441-0.833 2.242-1.249 0.256-0.128 0.48-0.224 0.48-0.224-0.032-0.032-0.641-0.352-1.025-0.545-0.416-0.224-0.993-0.48-1.057-0.512zM11.659 9.208c-0.032-0.032-0.897 0.673-1.313 1.025-0.577 0.48-1.313 1.153-1.313 1.185 0 0 0.096 0.064 0.224 0.128 0.288 0.16 0.512 0.32 0.801 0.609l0.256 0.224 0.096-0.16c0.064-0.096 0.16-0.288 0.224-0.416 0.288-0.512 0.609-1.217 0.769-1.762 0.096-0.288 0.256-0.833 0.256-0.833zM15.119 10.617l-0.16 0.224c-0.769 1.153-1.794 2.306-2.947 3.363-0.448 0.416-0.416 0.416-0.384 0.416 0 0 0.192-0.064 0.384-0.16 1.794-0.641 3.331-1.153 5.349-1.698l0.352-0.096-0.064-0.064c-0.096-0.096-0.577-0.512-0.801-0.737-0.448-0.352-1.025-0.801-1.537-1.121zM14.19 10.842c0 0-0.833 0.416-1.409 0.737-0.801 0.416-2.050 1.153-2.146 1.217-0.032 0.032 0 0.064 0.096 0.256 0.224 0.48 0.384 1.057 0.384 1.57 0 0.128 0 0.192 0 0.16 0.032 0 0.192-0.192 0.416-0.448 0.545-0.641 1.281-1.57 1.73-2.146 0.352-0.48 0.961-1.313 0.929-1.345zM8.68 12.187c0 0-0.032 0.096-0.096 0.224-0.096 0.288-0.224 0.641-0.352 0.929-0.16 0.32-0.288 0.577-0.577 0.993-0.064 0.064-0.032 0.064 0.352-0.224 0.352-0.32 0.993-0.769 1.409-1.089 0.128-0.096 0.256-0.192 0.256-0.192-0.224-0.192-0.48-0.352-0.769-0.512-0.096-0.064-0.192-0.128-0.224-0.128zM10.154 13.34c0 0 0 0 0 0 0 0.032-0.096 0.128-0.192 0.224-0.833 1.057-1.986 2.082-3.267 3.043-0.16 0.096-0.32 0.224-0.32 0.224s0.192-0.096 0.384-0.192c0.224-0.128 0.545-0.256 0.737-0.352 0.673-0.32 1.666-0.705 2.723-1.121l0.609-0.256v-0.064c-0.064-0.416-0.256-0.897-0.512-1.281-0.096-0.192-0.128-0.224-0.16-0.224zM9.481 13.532c-0.032-0.032-1.505 0.961-2.146 1.441-0.224 0.16-0.256 0.192-0.416 0.416-0.256 0.32-0.48 0.577-0.769 0.897-0.448 0.48-0.48 0.512-0.448 0.512 0 0 0.128-0.096 0.256-0.16 1.025-0.673 1.858-1.345 2.691-2.178 0.352-0.352 0.865-0.929 0.833-0.929zM15.343 14.045c-0.865 0.256-1.666 0.512-2.434 0.769 0.16 0.128 0.961 0.673 1.377 0.929 0.512 0.32 1.217 0.737 1.249 0.737 0 0 0-0.128 0-0.288-0.032-0.769-0.128-1.89-0.192-2.146zM12.46 14.974c-0.064 0.032-0.096 0.032-0.128 0.032 0 0.064 0 0.192 0 0.384-0.032 0.897-0.192 1.986-0.48 3.075-0.032 0.128-0.064 0.256-0.064 0.256 0.032 0 0.192-0.096 0.416-0.192 1.217-0.545 2.21-1.057 3.011-1.602 0.352-0.256 0.352-0.224 0.192-0.288-0.545-0.224-1.762-0.929-2.659-1.473-0.16-0.096-0.256-0.16-0.288-0.192zM11.755 15.23c-0.128 0.032-0.288 0.096-0.448 0.16-0.673 0.256-1.313 0.512-1.922 0.737 0.032 0.096 0.16 0.416 0.224 0.577 0.224 0.384 0.48 0.769 0.833 1.153 0.192 0.256 0.769 0.833 0.801 0.801 0 0 0.064-0.128 0.096-0.288 0.192-0.673 0.32-1.281 0.384-1.922 0.032-0.224 0.064-1.057 0.032-1.217zM8.937 16.319c-0.064 0.032-0.128 0.064-0.192 0.096 0 0 0 0 0 0.032-0.032 0.032-0.096 0.224-0.16 0.416-0.448 1.121-1.217 2.691-1.73 3.491-0.128 0.16-0.128 0.192-0.096 0.192 0.032-0.032 0.352-0.128 0.737-0.256 1.025-0.32 1.954-0.641 2.755-0.961 0.737-0.256 0.705-0.256 0.673-0.288 0 0-0.096-0.096-0.192-0.192-0.32-0.256-0.705-0.673-1.025-1.089-0.256-0.352-0.577-0.897-0.705-1.281-0.032-0.064-0.064-0.128-0.064-0.16zM8.008 16.703c-0.865 0.384-1.666 0.769-2.466 1.153-0.032 0.064-0.032 0.128-0.064 0.256-0.064 0.384-0.096 0.961-0.032 1.313s0.192 0.705 0.352 0.993c0.064 0.16 0.064 0.16 0.096 0.128 0-0.032 0.096-0.192 0.224-0.352 0.609-0.993 1.057-1.794 1.505-2.627 0.16-0.352 0.352-0.737 0.384-0.865zM15.567 16.992l-0.064 0.032c-0.096 0.096-0.48 0.384-0.769 0.545-0.705 0.48-1.505 0.961-2.37 1.409-0.224 0.096-0.416 0.192-0.416 0.224 0 0 0.609 0.384 1.025 0.609 0.641 0.352 1.345 0.673 2.018 0.865 0.16 0.032 0.256 0.096 0.256 0.096s0.032-0.16 0.064-0.32c0.16-0.993 0.256-2.306 0.256-3.299v-0.16zM4.741 18.273c-0.192 0.128-0.416 0.224-0.609 0.352-0.384 0.192-0.641 0.32-0.833 0.448-0.48 0.288-0.801 0.545-1.185 0.961-0.673 0.705-1.185 1.538-1.281 2.178 0 0.064 0 0.064 0.032 0.064s0.256-0.064 0.512-0.128c0.929-0.256 3.812-1.121 3.844-1.121 0 0-0.064-0.16-0.16-0.352-0.32-0.641-0.416-1.121-0.384-1.762 0-0.128 0.032-0.352 0.064-0.448 0-0.128 0-0.16 0-0.192zM11.563 19.49c-0.032 0-0.032 0.064-0.064 0.16-0.288 0.865-0.833 2.114-1.377 3.139-0.096 0.16-0.192 0.32-0.192 0.32s0.064 0 0.096-0.032 0.352-0.096 0.641-0.224c1.954-0.737 3.844-1.505 4.42-1.826l0.128-0.096-0.096-0.032c-1.089-0.256-2.402-0.737-3.331-1.281-0.128-0.064-0.224-0.128-0.224-0.128zM10.859 19.714c0 0-0.16 0.064-0.32 0.128-1.185 0.512-2.402 0.929-3.844 1.313l-0.384 0.128 0.064 0.096c0.545 0.673 1.377 1.377 2.306 1.922 0.16 0.096 0.288 0.192 0.288 0.192s0.128-0.256 0.288-0.512c0.641-1.153 1.153-2.146 1.537-3.075 0.032-0.096 0.064-0.192 0.064-0.192zM15.183 21.22c-0.032 0-0.096 0.032-0.192 0.064-0.705 0.448-2.755 1.409-4.741 2.306-0.32 0.128-0.577 0.256-0.577 0.256 0.032 0.032 0.448 0.224 0.769 0.352 1.089 0.416 2.242 0.769 3.555 0.993 0 0 0.032 0 0.032 0 0.032 0 0.096-0.256 0.224-0.609 0.224-0.737 0.352-1.185 0.512-1.73 0.192-0.641 0.416-1.538 0.416-1.634 0 0 0 0 0 0zM5.221 21.572c0-0.032-0.224 0.032-0.48 0.096s-0.929 0.224-1.538 0.352c-1.121 0.256-2.274 0.545-2.338 0.545-0.032 0.032-0.032 0.128 0 0.352 0.096 0.448 0.352 0.929 0.737 1.409 0.192 0.224 0.577 0.641 0.801 0.833l0.192 0.16 0.192-0.288c0.096-0.16 0.288-0.416 0.384-0.577 0.128-0.192 0.448-0.609 0.705-0.993 0.801-1.089 1.345-1.89 1.345-1.89zM5.766 21.764v0l-0.769 0.929c-1.121 1.345-1.634 2.018-2.050 2.595l-0.128 0.192 0.096 0.064c0.032 0.032 0.064 0.064 0.096 0.064 0 0 0.545-0.224 1.249-0.448 1.249-0.448 3.908-1.377 3.94-1.409 0 0-0.096-0.064-0.224-0.16-0.801-0.448-1.441-0.961-2.050-1.666zM9.257 24.263c0 0-0.128 0.192-0.256 0.416-0.545 0.769-1.153 1.634-1.794 2.37-0.128 0.16-0.224 0.288-0.224 0.288 0 0.032 0.16 0.064 0.192 0.064s0.32-0.096 0.673-0.192c1.858-0.545 4.132-1.217 4.901-1.441 0.48-0.16 1.121-0.384 1.153-0.384 0-0.032-0.064-0.032-0.16-0.032-0.609-0.064-1.698-0.256-2.434-0.448-0.609-0.128-1.057-0.288-1.602-0.48-0.256-0.096-0.448-0.16-0.448-0.16zM8.488 24.295c0 0-0.128 0.032-0.256 0.064-0.673 0.224-1.73 0.512-3.652 1.025-0.705 0.192-1.313 0.352-1.313 0.384-0.064 0 0.384 0.288 0.737 0.448 0.288 0.16 0.673 0.32 1.025 0.48 0.288 0.128 1.377 0.512 1.537 0.545l0.064 0.032 0.128-0.224c0.064-0.128 0.192-0.352 0.288-0.48 0.096-0.16 0.352-0.577 0.577-0.929 0.545-0.865 0.865-1.345 0.865-1.345zM13.934 25.544v0c-0.032 0.032-0.16 0.064-0.288 0.128-0.865 0.416-1.73 0.737-2.563 0.993-0.705 0.224-1.377 0.384-2.755 0.705l-0.673 0.128 0.128 0.032c0.448 0.096 2.274 0.416 3.363 0.577 0.609 0.096 1.634 0.256 1.73 0.256 0.032 0 0.032-0.032 0.096-0.16 0.256-0.641 0.961-2.595 0.961-2.659 0 0 0 0 0 0z"></path>
</svg>
