<?xml version="1.0" encoding="utf-8"?>
<!-- Generated by IcoMoon.io -->
<!DOCTYPE svg PUBLIC "-//W3C//DTD SVG 1.1//EN" "http://www.w3.org/Graphics/SVG/1.1/DTD/svg11.dtd">
<svg version="1.1" xmlns="http://www.w3.org/2000/svg" xmlns:xlink="http://www.w3.org/1999/xlink" width="32" height="32" viewBox="0 0 32 32">
<path d="M31.391 30.477l-0.641-0.641c-0.609-0.801-1.409-1.538-2.274-2.146-0.641-0.48-2.146-1.121-2.434-1.89l-0.032-0.064c0.448-0.032 1.025-0.224 1.441-0.32 0.737-0.192 1.345-0.16 2.114-0.352 0.32-0.096 0.705-0.192 0.961-0.288v-0.192c-0.256-0.416-0.609-0.929-1.025-1.281-1.089-0.929-2.242-1.858-3.491-2.627-0.673-0.448-1.505-0.705-2.242-1.089-0.224-0.128-0.641-0.192-0.801-0.384-0.384-0.48-0.577-1.089-0.897-1.666-0.609-1.185-1.185-2.466-1.73-3.716-0.384-0.833-0.641-1.666-1.089-2.434-2.21-3.652-4.613-5.83-8.296-8.008-0.801-0.448-1.73-0.641-2.723-0.865-0.545-0.032-1.089-0.064-1.634-0.096-0.32-0.16-0.673-0.545-0.961-0.737-1.217-0.769-4.388-2.466-5.285-0.256-0.577 1.409 0.865 2.755 1.377 3.459 0.352 0.513 0.801 1.057 1.057 1.634 0.192 0.352 0.224 0.737 0.352 1.121 0.352 0.961 0.673 1.986 1.121 2.883 0.224 0.448 0.48 0.897 0.769 1.313 0.192 0.256 0.513 0.352 0.545 0.737-0.288 0.416-0.32 1.057-0.48 1.602-0.769 2.402-0.48 5.413 0.641 7.175 0.32 0.545 1.121 1.73 2.242 1.281 0.961-0.416 0.801-1.634 1.089-2.691 0.064-0.256-0.064-0.416 0.192-0.577v0.032c0.256 0.577 0.545 1.185 0.833 1.762 0.641 1.057 1.73 2.146 2.691 2.883 0.512 0.384 0.993 1.057 1.473 1.281v-0.032h0.064c-0.128-0.256-0.32-0.288-0.48-0.448-0.384-0.384-0.801-0.865-1.121-1.281-0.897-1.217-1.698-2.53-2.402-3.908-0.352-0.673-0.641-1.377-0.929-2.050-0.096-0.256-0.096-0.641-0.352-0.801-0.288 0.512-0.769 0.897-1.025 1.473-0.384 0.929-0.416 2.050-0.577 3.235-0.096 0.032-0.032 0-0.096 0.032-0.673-0.16-0.929-0.865-1.153-1.473-0.641-1.505-0.769-3.94-0.224-5.702 0.16-0.448 0.833-1.858 0.545-2.306-0.128-0.416-0.545-0.641-0.769-0.961-0.288-0.384-0.577-0.897-0.801-1.377-0.513-1.185-0.769-2.498-1.313-3.716-0.256-0.545-0.705-1.121-1.057-1.634-0.416-0.577-0.865-0.993-1.185-1.666-0.096-0.256-0.256-0.641-0.096-0.897 0.064-0.16 0.128-0.224 0.288-0.288 0.288-0.224 1.089 0.064 1.377 0.192 0.769 0.32 1.441 0.641 2.082 1.089 0.32 0.192 0.641 0.448 1.025 0.705h0.448c0.705 0 1.473 0.064 2.114 0.256 1.121 0.352 2.146 0.897 3.075 1.473 2.819 1.762 5.093 4.292 6.695 7.335 0.256 0.48 0.352 0.929 0.577 1.441 0.448 1.057 1.025 2.114 1.473 3.139s0.865 2.050 1.505 2.883c0.32 0.448 1.602 0.673 2.178 0.929 0.416 0.16 1.089 0.352 1.473 0.577 0.737 0.448 1.473 0.993 2.146 1.473 0.352 0.256 1.409 0.769 1.473 1.217-1.73-0.032-3.043 0.128-4.164 0.577-0.288 0.16-0.801 0.16-0.865 0.545 0.16 0.192 0.192 0.448 0.352 0.673 0.256 0.448 0.705 1.025 1.121 1.345 0.448 0.32 0.897 0.673 1.345 0.961 0.865 0.512 1.794 0.801 2.595 1.313 0.48 0.32 0.993 0.705 1.473 1.025 0.224 0.192 0.224 0.448 0.705 0.545v-0.032c-0.256-0.224-0.224-0.48-0.384-0.705zM7.399 5.62c-0.384 0-0.641 0.032-0.897 0.096v0.032h0.064c0.16 0.256 0.448 0.609 0.673 0.897l0.48 1.025 0.064-0.032c0.288-0.224 0.448-0.577 0.448-1.089-0.128-0.128-0.16-0.288-0.256-0.448-0.128-0.192-0.416-0.288-0.577-0.48z"></path>
</svg>
