<?xml version="1.0" encoding="utf-8"?>
<!-- Generated by IcoMoon.io -->
<!DOCTYPE svg PUBLIC "-//W3C//DTD SVG 1.1//EN" "http://www.w3.org/Graphics/SVG/1.1/DTD/svg11.dtd">
<svg version="1.1" xmlns="http://www.w3.org/2000/svg" xmlns:xlink="http://www.w3.org/1999/xlink" width="32" height="32" viewBox="0 0 32 32">
<path d="M6.118 12.379c-0.352 0-0.609 0.32-0.609 0.705v3.523l-3.972-4.004c-0.224-0.224-0.545-0.256-0.801-0.16s-0.48 0.352-0.48 0.641v5.157c0 0.384 0.384 0.673 0.737 0.673s0.769-0.288 0.769-0.673v-3.523l4.036 4.004c0.096 0.128 0.288 0.192 0.448 0.192 0.096 0 0.096 0 0.192-0.032 0.256-0.096 0.32-0.352 0.32-0.641v-5.157c0-0.352-0.256-0.705-0.641-0.705zM11.051 15.358c-0.352 0-0.673 0.352-0.673 0.705s0.32 0.673 0.673 0.673l1.666 0.128-0.384 0.897h-2.114l-1.057-1.954 1.089-2.050h2.274l0.512 1.025h1.377l-0.897-1.986-0.192-0.288h-3.908l-0.192 0.32-1.473 2.563-0.16 0.32 0.16 0.352 1.473 2.563 0.192 0.416h3.78l0.16-0.448 1.089-2.242 0.48-1.089h-1.121l-2.755 0.096zM16.272 12.379c-0.352 0-0.769 0.352-0.769 0.705v1.698h1.505v-1.698c0-0.352-0.384-0.705-0.737-0.705zM23.863 12.475c-0.224-0.096-0.577-0.064-0.769 0.16l-4.068 4.004v-3.555c0-0.352-0.256-0.673-0.641-0.673s-0.609 0.32-0.609 0.673v5.189c0 0.288 0.16 0.512 0.416 0.641 0.064 0 0.16 0.032 0.256 0.032 0.16 0 0.384-0.064 0.512-0.192l4.068-4.004v3.523c0 0.384 0.256 0.673 0.609 0.673s0.641-0.288 0.641-0.673v-5.189c0-0.256-0.16-0.512-0.416-0.609zM29.341 15.678l2.082-2.114c0.288-0.256 0.288-0.705 0-0.929-0.256-0.288-0.705-0.288-0.929 0l-2.114 2.082-2.114-2.082c-0.256-0.288-0.705-0.288-0.929 0-0.288 0.256-0.288 0.673 0 0.929l2.082 2.114-2.082 2.082c-0.288 0.288-0.288 0.705 0 0.961 0.128 0.128 0.288 0.192 0.48 0.192s0.32-0.064 0.448-0.192l2.114-2.082 2.114 2.082c0.128 0.128 0.288 0.192 0.448 0.192s0.352-0.064 0.48-0.192c0.288-0.256 0.288-0.705 0-0.961l-2.082-2.082zM15.503 18.241c0 0.352 0.384 0.673 0.769 0.673 0.352 0 0.737-0.32 0.737-0.673v-2.979h-1.505v2.979z"></path>
</svg>
