<?xml version="1.0" encoding="utf-8"?>
<!-- Generated by IcoMoon.io -->
<!DOCTYPE svg PUBLIC "-//W3C//DTD SVG 1.1//EN" "http://www.w3.org/Graphics/SVG/1.1/DTD/svg11.dtd">
<svg version="1.1" xmlns="http://www.w3.org/2000/svg" xmlns:xlink="http://www.w3.org/1999/xlink" width="32" height="32" viewBox="0 0 32 32">
<path d="M28.188 7.35l-11.051-6.406c-0.673-0.384-1.602-0.384-2.306 0l-11.115 6.406c-0.737 0.416-1.217 1.185-1.217 2.018v12.813c0 0.801 0.512 1.602 1.217 2.018l2.947 1.666c1.409 0.705 1.794 0.705 2.434 0.705 2.082 0 3.171-1.281 3.171-3.459v-12.652c0-0.16 0.096-0.448-0.064-0.448h-1.409c-0.192 0-0.545 0.288-0.545 0.448v12.652c0 0.961-0.897 1.922-2.53 1.121l-3.043-1.762c-0.096-0.064-0.16-0.192-0.16-0.288v-12.813c0-0.128 0.096-0.256 0.224-0.288l11.083-6.406c0.128-0.064 0.256-0.064 0.352 0l11.019 6.374c0.096 0.064 0.096 0.192 0.096 0.32v12.813c0 0.096 0 0.224-0.096 0.288l-11.051 6.406c-0.096 0.064-0.192 0.064-0.32 0l-2.819-1.698c-0.096-0.032-0.192-0.064-0.288-0.032-0.769 0.448-0.929 0.512-1.666 0.769-0.16 0.064-0.448 0.192 0.096 0.48l3.716 2.21c0.352 0.192 0.769 0.288 1.153 0.288 0.416 0 0.833-0.096 1.185-0.288l10.987-6.406c0.737-0.416 1.089-1.217 1.089-2.018v-12.813c0-0.833-0.352-1.602-1.089-2.018zM19.443 20.131c-2.915 0-3.555-0.801-3.78-2.274-0.032-0.128-0.16-0.32-0.32-0.32h-1.441c-0.16 0-0.32 0.192-0.32 0.384 0 1.858 1.025 4.132 5.862 4.132 3.523 0 5.541-1.377 5.541-3.78s-1.634-3.043-5.029-3.491c-3.459-0.448-3.78-0.673-3.78-1.473 0-0.673 0.288-1.57 2.819-1.57 2.306 0 3.139 0.512 3.491 2.050 0 0.128 0.16 0.224 0.288 0.224h1.441c0.096 0 0.192-0.032 0.256-0.096 0.032-0.064 0.064-0.16 0.064-0.224-0.224-2.659-1.986-3.908-5.541-3.908-3.139 0-5.029 1.345-5.029 3.588 0 2.434 1.858 3.107 4.901 3.395 3.62 0.352 3.908 0.897 3.908 1.602 0 1.249-0.993 1.762-3.331 1.762z"></path>
</svg>
