<?xml version="1.0" encoding="utf-8"?>
<!-- Generated by IcoMoon.io -->
<!DOCTYPE svg PUBLIC "-//W3C//DTD SVG 1.1//EN" "http://www.w3.org/Graphics/SVG/1.1/DTD/svg11.dtd">
<svg version="1.1" xmlns="http://www.w3.org/2000/svg" xmlns:xlink="http://www.w3.org/1999/xlink" width="32" height="32" viewBox="0 0 32 32">
<path d="M17.457 15.23c-0.192-0.32-0.512-0.545-0.897-0.545h-0.064c-0.577 0-1.025 0.448-1.089 1.025 0 0.224 0.032 0.416 0.16 0.609 0.16 0.32 0.512 0.545 0.865 0.545h0.096c0.577 0 1.025-0.48 1.057-1.025 0.032-0.224-0.032-0.416-0.128-0.609zM16.496 16.159c-0.192-0.032-0.384-0.224-0.352-0.416s0.192-0.384 0.384-0.352c0.224 0.032 0.384 0.192 0.352 0.416 0 0.192-0.192 0.352-0.384 0.352zM29.565 7.126l-12.076-6.983c-0.512-0.288-1.409-0.288-1.922 0l-12.076 6.983c-0.545 0.288-0.993 1.025-0.993 1.666v13.934c0 0.641 0.416 1.377 0.993 1.666l12.044 7.015c0.545 0.288 1.409 0.288 1.922 0l12.076-7.015c0.512-0.288 0.961-1.025 0.961-1.666v-13.934c0.032-0.609-0.416-1.345-0.929-1.666zM5.509 22.245l9.898-7.527v0.032c-0.256 0.256-0.384 0.577-0.416 0.929-0.032 0.288 0.064 0.609 0.192 0.865 0.256 0.448 0.705 0.737 1.249 0.769h0.096c0.128 0 0.224-0.032 0.32-0.064l-11.339 4.997zM16.528 16.927h-0.096c-0.352-0.032-0.705-0.224-0.929-0.577-0.096-0.192-0.16-0.416-0.128-0.641 0.032-0.609 0.545-1.089 1.153-1.089h0.064c0.384 0.032 0.737 0.256 0.929 0.577 0.128 0.192 0.16 0.416 0.16 0.641-0.064 0.609-0.577 1.089-1.153 1.089zM17.617 16.831c0.256-0.256 0.416-0.577 0.416-0.961 0.032-0.288-0.032-0.609-0.192-0.865-0.256-0.448-0.737-0.737-1.217-0.769-0.16 0-0.32 0-0.48 0.064l11.467-4.837-9.994 7.367z"></path>
</svg>
