<?xml version="1.0" encoding="utf-8"?>
<!-- Generated by IcoMoon.io -->
<!DOCTYPE svg PUBLIC "-//W3C//DTD SVG 1.1//EN" "http://www.w3.org/Graphics/SVG/1.1/DTD/svg11.dtd">
<svg version="1.1" xmlns="http://www.w3.org/2000/svg" xmlns:xlink="http://www.w3.org/1999/xlink" width="32" height="32" viewBox="0 0 32 32">
<path d="M15.689 0.197c-0.002 0.004-0.161 0.009-0.354 0.016s-0.37 0.016-0.393 0.020c-0.023 0.004-0.121 0.011-0.22 0.018-0.096 0.005-0.204 0.014-0.241 0.018-0.18 0.020-0.427 0.048-0.466 0.054-0.025 0.004-0.089 0.013-0.143 0.018s-0.111 0.014-0.125 0.018c-0.014 0.004-0.066 0.011-0.116 0.018-0.22 0.027-1.021 0.175-1.205 0.223-0.034 0.009-0.082 0.020-0.107 0.025-0.218 0.039-0.993 0.245-1.357 0.359-0.471 0.146-0.961 0.325-1.348 0.495-0.309 0.134-1.025 0.498-1.348 0.684-0.132 0.075-0.277 0.159-0.321 0.184-0.28 0.157-1.009 0.63-1.419 0.92-0.314 0.221-0.828 0.63-1.15 0.914-0.034 0.029-0.070 0.061-0.080 0.071-0.307 0.268-0.896 0.857-1.189 1.187-0.084 0.093-0.155 0.173-0.161 0.179-0.155 0.155-0.727 0.887-1.019 1.303-0.166 0.237-0.534 0.796-0.534 0.811 0 0.004-0.039 0.071-0.086 0.148-0.355 0.571-0.768 1.396-1.069 2.13-0.054 0.132-0.114 0.275-0.132 0.316s-0.034 0.080-0.034 0.086c0 0.005-0.014 0.045-0.034 0.086-0.198 0.441-0.389 0.945-0.498 1.307-0.086 0.28-0.239 0.937-0.277 1.178-0.005 0.029-0.018 0.102-0.029 0.161-0.034 0.196-0.068 0.412-0.082 0.536-0.005 0.048-0.013 0.109-0.018 0.134-0.014 0.088-0.061 0.53-0.071 0.696-0.007 0.093-0.014 0.189-0.020 0.214-0.045 0.286-0.045 2.037 0.002 2.473 0.004 0.039 0.012 0.139 0.018 0.223 0.021 0.3 0.098 0.968 0.143 1.232 0.098 0.584 0.15 0.846 0.27 1.336 0.316 1.316 0.791 2.607 1.361 3.7 0.216 0.418 0.209 0.402 0.402 0.732 0.496 0.848 1.198 1.793 1.843 2.482 0.157 0.168 0.753 0.764 0.884 0.884 0.984 0.902 2.039 1.673 3.285 2.405 0.229 0.134 0.357 0.207 0.705 0.398 1.014 0.559 2.014 0.937 3.223 1.223 0.123 0.029 0.243 0.055 0.268 0.061s0.129 0.025 0.232 0.046c0.186 0.036 0.532 0.096 0.67 0.116 0.039 0.007 0.12 0.018 0.179 0.027s0.155 0.021 0.214 0.029c0.059 0.005 0.121 0.014 0.137 0.016 0.016 0.004 0.086 0.011 0.152 0.018 0.066 0.005 0.141 0.014 0.166 0.018s0.118 0.013 0.205 0.020c0.089 0.005 0.189 0.014 0.223 0.018 0.466 0.045 2.278 0.045 2.575-0.002 0.023-0.004 0.109-0.011 0.193-0.018 0.129-0.009 0.414-0.039 0.857-0.089 0.411-0.048 1.455-0.25 1.973-0.384 0.741-0.191 1.596-0.479 2.178-0.732 0.945-0.411 1.796-0.887 2.587-1.443 0.118-0.084 0.239-0.168 0.268-0.189 0.030-0.020 0.059-0.041 0.064-0.046s0.041-0.032 0.080-0.061c0.089-0.066 0.668-0.527 0.707-0.564 0.014-0.014 0.052-0.046 0.080-0.070 0.070-0.057 0.33-0.289 0.462-0.412 0.2-0.186 0.714-0.707 0.9-0.911 0.102-0.113 0.214-0.237 0.25-0.277 0.123-0.136 0.503-0.593 0.609-0.73 0.859-1.13 1.337-1.88 1.828-2.867 0.287-0.58 0.455-0.964 0.666-1.516 0.295-0.78 0.607-1.873 0.745-2.617 0.030-0.161 0.118-0.671 0.127-0.741 0.005-0.045 0.018-0.129 0.027-0.187s0.021-0.148 0.027-0.196c0.005-0.050 0.014-0.114 0.018-0.143 0.004-0.030 0.012-0.114 0.018-0.187 0.007-0.073 0.014-0.154 0.020-0.179 0.004-0.025 0.011-0.125 0.018-0.223 0.005-0.098 0.012-0.196 0.016-0.22 0.039-0.254 0.039-1.794 0.002-2.039-0.004-0.025-0.012-0.113-0.020-0.196-0.005-0.084-0.014-0.177-0.018-0.205-0.004-0.030-0.011-0.098-0.018-0.152-0.005-0.054-0.012-0.123-0.018-0.152-0.004-0.030-0.012-0.086-0.016-0.125-0.014-0.118-0.046-0.332-0.064-0.437-0.009-0.054-0.021-0.127-0.027-0.161-0.020-0.12-0.1-0.511-0.155-0.75-0.221-0.978-0.564-2.025-0.984-3.010-0.334-0.782-0.873-1.816-1.259-2.418-0.777-1.211-1.446-2.053-2.35-2.955-0.489-0.489-0.743-0.718-1.216-1.102-2.312-1.871-5.103-2.966-8.204-3.219-0.113-0.009-0.164-0.013-0.571-0.038-0.171-0.011-1.298-0.023-1.309-0.016zM17.471 1.016c2.732 0.252 5.178 1.186 7.383 2.819 0.846 0.627 1.561 1.286 2.393 2.209 0.973 1.080 1.325 1.534 1.718 2.223 0.559 0.978 1.018 2.13 1.452 3.644 0.357 1.244 0.53 2.178 0.62 3.346 0.029 0.382 0.029 1.652 0 2.018-0.173 2.151-0.684 4.019-1.612 5.892-0.911 1.839-2.035 3.3-3.548 4.599-1.505 1.294-3.119 2.203-5.021 2.825-1.209 0.395-2.435 0.643-3.732 0.755-0.362 0.030-1.466 0.041-1.893 0.018-1.023-0.057-2.007-0.204-2.991-0.45-0.398-0.1-1.114-0.316-1.437-0.436-0.064-0.023-0.196-0.071-0.295-0.107-0.454-0.168-1.216-0.507-1.634-0.727-1.407-0.746-2.494-1.543-3.562-2.612-0.984-0.982-1.794-2.057-2.544-3.375-0.691-1.212-1.087-2.201-1.43-3.569-0.214-0.853-0.35-1.703-0.448-2.814-0.032-0.354-0.032-1.969 0-2.321 0.098-1.093 0.229-1.816 0.493-2.735 0.464-1.609 1.121-3.103 1.914-4.358 0.764-1.207 1.686-2.246 2.778-3.132 0.284-0.23 0.861-0.662 1.202-0.902 1.566-1.095 3.092-1.832 4.819-2.326 0.957-0.273 1.877-0.42 3.198-0.509 0.37-0.023 1.823-0.007 2.178 0.025zM15.435 1.646c-0.234 0.009-0.8 0.057-1.116 0.096-2.71 0.334-5.067 1.343-7.249 3.107-1.934 1.562-3.292 3.316-4.255 5.489-0.709 1.605-1.095 3.182-1.209 4.955-0.041 0.637-0.021 1.689 0.046 2.366 0.327 3.312 1.723 6.358 3.962 8.649 2.401 2.457 5.517 3.991 8.883 4.374 0.561 0.064 0.873 0.080 1.553 0.080 0.818 0.002 1.416-0.043 2.178-0.161 2.525-0.389 4.79-1.398 6.803-3.026 1.219-0.986 2.496-2.41 3.162-3.528 0.157-0.264 0.386-0.728 0.468-0.952 0.036-0.093 0.109-0.27 0.164-0.393s0.157-0.355 0.227-0.518c0.068-0.162 0.182-0.42 0.255-0.571 0.593-1.255 0.934-2.678 1.066-4.437 0.029-0.382 0.029-1.685 0-2.071-0.12-1.61-0.43-3.005-0.98-4.392-0.723-1.827-1.777-3.421-3.201-4.849-0.727-0.728-1.387-1.277-2.16-1.794-0.939-0.63-1.743-1.028-2.901-1.441-2.103-0.748-3.853-1.050-5.696-0.982zM15.591 3.352l0.005 0.737 0.046 0.089c0.027 0.054 0.075 0.111 0.121 0.143 0.064 0.045 0.096 0.054 0.209 0.059 0.161 0.009 0.259-0.023 0.343-0.109 0.105-0.109 0.111-0.146 0.123-0.927l0.011-0.711h0.641l-0.007 0.753c-0.009 0.836-0.011 0.853-0.13 1.098-0.043 0.088-0.093 0.155-0.162 0.22-0.202 0.182-0.423 0.255-0.784 0.254-0.257 0-0.43-0.034-0.6-0.121-0.134-0.066-0.291-0.23-0.355-0.37-0.098-0.209-0.107-0.287-0.107-1.107v-0.745h0.641l0.005 0.736zM19.899 3.243c0.521 0.159 0.948 0.291 0.952 0.293 0.012 0.011-0.148 0.514-0.166 0.52-0.011 0.005-0.159-0.036-0.33-0.087-0.171-0.054-0.314-0.095-0.316-0.093-0.004 0.002-0.118 0.371-0.255 0.821-0.136 0.448-0.254 0.821-0.259 0.827-0.014 0.014-0.584-0.162-0.591-0.184-0.004-0.009 0.105-0.384 0.241-0.83 0.137-0.446 0.243-0.818 0.237-0.823-0.007-0.007-0.154-0.054-0.325-0.105s-0.314-0.095-0.318-0.098c-0.002-0.002 0.004-0.027 0.012-0.055 0.011-0.029 0.046-0.146 0.082-0.262 0.036-0.114 0.070-0.209 0.077-0.209s0.439 0.129 0.959 0.287zM13.062 4.1c0.5 0.582 0.807 0.953 0.795 0.961-0.032 0.020-0.627 0.205-0.632 0.196-0.102-0.132-0.273-0.32-0.291-0.32-0.020 0-0.812 0.248-0.823 0.257-0.004 0.004-0.012 0.1-0.023 0.216-0.009 0.116-0.023 0.218-0.030 0.225-0.016 0.014-0.575 0.195-0.605 0.195-0.027 0 0.202-2.489 0.229-2.5 0.088-0.032 0.527-0.175 0.545-0.177 0.012-0.002 0.389 0.425 0.837 0.946zM22.854 4.458c0.137 0.091 0.25 0.171 0.25 0.18 0 0.007-0.105 0.17-0.234 0.362s-0.23 0.352-0.227 0.355c0.039 0.032 0.661 0.437 0.67 0.437s0.118-0.157 0.245-0.35c0.145-0.216 0.239-0.345 0.254-0.339 0.055 0.021 0.509 0.336 0.503 0.35-0.014 0.037-1.257 1.891-1.269 1.893-0.020 0-0.511-0.329-0.512-0.343 0-0.007 0.1-0.164 0.223-0.352s0.229-0.35 0.232-0.362c0.005-0.014-0.116-0.105-0.314-0.237-0.179-0.118-0.33-0.216-0.339-0.22-0.007-0.004-0.12 0.154-0.25 0.348-0.129 0.195-0.237 0.357-0.241 0.361-0.007 0.009-0.503-0.318-0.518-0.341-0.011-0.018 1.241-1.907 1.262-1.907 0.009 0 0.129 0.075 0.266 0.164zM9.308 4.935c0.193 0.068 0.321 0.148 0.468 0.296 0.254 0.254 0.361 0.534 0.345 0.9-0.007 0.152-0.020 0.218-0.063 0.334-0.125 0.332-0.368 0.593-0.691 0.739-0.168 0.077-0.314 0.107-0.518 0.107-0.207 0-0.343-0.030-0.528-0.121-0.179-0.088-0.409-0.314-0.505-0.498-0.366-0.703 0.032-1.557 0.83-1.773 0.175-0.048 0.507-0.039 0.662 0.016zM16.178 6.105c-0.021 0.021-0.038 0.048-0.038 0.057s0.241 0.257 0.536 0.552l0.536 0.536 0.461-0.461c0.316-0.316 0.471-0.459 0.498-0.459 0.118 0 0.107 0.014-0.389 0.511l-0.489 0.489 1.089 1.089 1.089-1.089-0.446-0.446c-0.245-0.245-0.437-0.446-0.428-0.446 0.011 0 0.059 0.013 0.107 0.027 0.080 0.025 0.13 0.068 0.468 0.407l0.38 0.379 0.182-0.182c0.168-0.164 0.187-0.179 0.229-0.164 0.023 0.011 0.046 0.021 0.052 0.027 0.005 0.004-0.079 0.096-0.186 0.204l-0.196 0.196 1.089 1.089 0.375-0.375c0.373-0.373 0.375-0.375 0.418-0.346l0.041 0.030-0.762 0.762 1.089 1.089 0.812-0.812 0.039 0.041 0.041 0.039-0.812 0.812 1.089 1.089 0.402-0.402c0.398-0.398 0.4-0.4 0.437-0.366l0.038 0.034-0.805 0.805 1.089 1.089 0.291-0.291c0.27-0.27 0.291-0.287 0.312-0.254 0.011 0.020 0.021 0.045 0.021 0.057s-0.123 0.145-0.271 0.295l-0.273 0.273 1.089 1.089 0.075-0.075 0.075-0.073 0.020 0.050c0.018 0.045 0.012 0.057-0.038 0.109l-0.059 0.061 0.118 0.121c0.093 0.095 0.125 0.143 0.146 0.218 0.016 0.052 0.029 0.1 0.029 0.105s-0.084-0.073-0.187-0.177l-0.187-0.187-1.089 1.089 1.089 1.089 0.3-0.3c0.164-0.164 0.305-0.298 0.312-0.298s0.012 0.030 0.012 0.066c0 0.063-0.018 0.086-0.271 0.339l-0.273 0.273 0.309 0.309c0.295 0.295 0.307 0.311 0.307 0.379v0.071l-0.687-0.687-0.541 0.541c-0.296 0.296-0.539 0.548-0.539 0.557 0 0.011 0.241 0.259 0.536 0.553l0.536 0.536 0.323-0.321c0.225-0.223 0.321-0.307 0.312-0.277-0.005 0.025-0.011 0.064-0.011 0.087 0 0.032-0.071 0.116-0.271 0.318l-0.271 0.273 0.189 0.193c0.116 0.118 0.186 0.202 0.18 0.218-0.004 0.014-0.012 0.038-0.016 0.052-0.005 0.018-0.079-0.045-0.218-0.182l-0.209-0.209-1.089 1.089 0.479 0.479c0.461 0.461 0.479 0.48 0.461 0.527-0.011 0.027-0.025 0.048-0.032 0.048s-0.234-0.22-0.5-0.486l-0.487-0.487-1.089 1.089 1.089 1.089 0.395-0.393 0.396-0.393-0.077 0.146c-0.066 0.123-0.118 0.186-0.359 0.427l-0.284 0.284 0.102 0.102c0.096 0.096 0.1 0.105 0.079 0.15l-0.021 0.048-0.116-0.114-0.114-0.114-1.089 1.089 0.18 0.18c0.168 0.17 0.179 0.184 0.157 0.22-0.014 0.020-0.032 0.038-0.043 0.038-0.009 0-0.098-0.080-0.196-0.179l-0.179-0.179-1.089 1.089 0.17 0.17c0.166 0.168 0.168 0.168 0.134 0.205l-0.034 0.038-0.341-0.341-0.545 0.545-0.543 0.545 0.061 0.063c0.061 0.063 0.061 0.066 0.029 0.091-0.048 0.036-0.064 0.032-0.121-0.023l-0.050-0.048-0.175 0.171c-0.12 0.118-0.207 0.189-0.284 0.227-0.061 0.030-0.118 0.055-0.125 0.055s0.105-0.118 0.25-0.264l0.262-0.262-1.089-1.089-1.089 1.089 0.862 0.862-0.059 0.012c-0.057 0.012-0.066 0.005-0.466-0.395l-0.409-0.409-1.098 1.098 0.080 0.080 0.079 0.080h-0.071c-0.054 0-0.082-0.011-0.114-0.045l-0.043-0.045-0.064 0.063c-0.050 0.048-0.084 0.064-0.152 0.073l-0.089 0.011 0.223-0.227-1.089-1.089-1.089 1.089 0.241 0.245-0.089-0.011c-0.071-0.009-0.102-0.025-0.161-0.082l-0.073-0.071-0.052 0.054c-0.041 0.043-0.066 0.054-0.123 0.054h-0.071l0.088-0.089 0.089-0.089-1.098-1.098-0.427 0.427c-0.418 0.418-0.427 0.425-0.484 0.412l-0.059-0.012 0.898-0.898-1.089-1.089-1.089 1.089 0.325 0.325c0.18 0.18 0.321 0.327 0.316 0.327-0.007 0-0.059-0.021-0.116-0.046-0.084-0.036-0.154-0.093-0.35-0.289l-0.246-0.243-0.175 0.171-0.046-0.032-0.048-0.030 0.095-0.096 0.095-0.095-1.089-1.089-0.214 0.212c-0.211 0.209-0.214 0.212-0.255 0.186l-0.041-0.029 0.22-0.221 0.22-0.22-1.089-1.089-0.491 0.491-0.039-0.041-0.041-0.039 0.491-0.491-1.089-1.089-0.368 0.368-0.025-0.046c-0.023-0.045-0.020-0.050 0.148-0.22l0.173-0.173-0.559-0.559c-0.525-0.527-0.561-0.564-0.605-0.677l-0.048-0.118 0.116 0.113 0.539-0.541c0.296-0.296 0.539-0.548 0.539-0.557 0-0.011-0.241-0.259-0.536-0.553l-0.536-0.536-0.255 0.255c-0.139 0.139-0.261 0.254-0.268 0.254s-0.013-0.027-0.013-0.059c0-0.050 0.029-0.086 0.223-0.28 0.123-0.123 0.223-0.23 0.223-0.241s-0.129-0.146-0.286-0.303c-0.273-0.273-0.286-0.287-0.286-0.357v-0.071l0.661 0.661 0.536-0.536c0.295-0.295 0.536-0.543 0.536-0.553 0-0.009-0.243-0.261-0.539-0.557l-0.541-0.541-0.687 0.687v-0.071c0-0.068 0.013-0.084 0.307-0.379l0.309-0.309-0.273-0.273c-0.232-0.232-0.271-0.28-0.271-0.327 0-0.030 0.005-0.061 0.013-0.068s0.148 0.123 0.312 0.287l0.3 0.3 1.089-1.089-1.089-1.089-0.205 0.205c-0.114 0.113-0.204 0.193-0.198 0.179s0.018-0.063 0.029-0.107c0.016-0.061 0.052-0.111 0.157-0.218l0.136-0.139-0.068-0.070c-0.054-0.055-0.064-0.077-0.054-0.116 0.005-0.025 0.016-0.046 0.021-0.046 0.007 0 0.048 0.036 0.093 0.080l0.080 0.080 1.089-1.089-0.293-0.293c-0.277-0.279-0.291-0.293-0.27-0.334 0.013-0.023 0.027-0.046 0.030-0.052 0.004-0.004 0.143 0.129 0.309 0.295l0.303 0.303 1.089-1.089-0.414-0.414c-0.412-0.412-0.414-0.414-0.38-0.452l0.034-0.037 0.832 0.832 1.089-1.089-0.43-0.43c-0.314-0.314-0.428-0.439-0.421-0.461 0.032-0.080 0.068-0.054 0.502 0.38l0.43 0.43 1.089-1.089-0.366-0.366c-0.348-0.348-0.362-0.366-0.33-0.391 0.020-0.016 0.039-0.029 0.045-0.029s0.17 0.161 0.366 0.357l0.357 0.357 1.098-1.098-0.362-0.362 0.059-0.013c0.055-0.013 0.066-0.005 0.216 0.145l0.159 0.159 0.336-0.334c0.305-0.307 0.343-0.337 0.439-0.371 0.059-0.020 0.111-0.036 0.116-0.036s-0.175 0.186-0.4 0.411l-0.411 0.411 1.089 1.089 1.089-1.089-0.47-0.47c-0.257-0.257-0.468-0.473-0.468-0.479 0-0.007 0.027-0.016 0.057-0.023 0.057-0.011 0.071 0.002 0.509 0.439l0.452 0.452 0.545-0.545 0.545-0.543-0.046-0.048-0.046-0.050h0.329l-0.038 0.041zM23.838 24.818c0.318 0.082 0.6 0.318 0.755 0.627 0.082 0.166 0.118 0.318 0.118 0.518 0 0.479-0.266 0.895-0.718 1.123-0.377 0.189-0.802 0.179-1.153-0.030-0.132-0.079-0.318-0.264-0.402-0.402-0.155-0.254-0.211-0.586-0.148-0.87 0.111-0.495 0.541-0.898 1.061-0.993 0.114-0.021 0.35-0.009 0.487 0.027zM9.584 25.506c0.139 0.082 0.254 0.157 0.254 0.164s-0.096 0.173-0.214 0.368c-0.118 0.196-0.214 0.364-0.214 0.373 0 0.007 0.155 0.105 0.343 0.218 0.318 0.189 0.343 0.202 0.364 0.171 0.014-0.018 0.114-0.184 0.225-0.37s0.211-0.334 0.221-0.332c0.036 0.009 0.525 0.307 0.525 0.321 0 0.011-1.153 1.941-1.171 1.959-0.005 0.005-0.507-0.286-0.541-0.312-0.004-0.004 0.091-0.171 0.212-0.373s0.216-0.37 0.212-0.373c-0.004-0.004-0.161-0.1-0.35-0.212l-0.343-0.207-0.218 0.361c-0.118 0.198-0.22 0.364-0.223 0.368-0.005 0.005-0.507-0.286-0.541-0.312-0.014-0.012 1.168-1.971 1.187-1.966 0.011 0.002 0.132 0.071 0.271 0.155zM20.969 26.455c-0.004 0.052-0.027 0.568-0.052 1.148-0.025 0.578-0.050 1.103-0.055 1.162l-0.009 0.111-0.279 0.102c-0.184 0.068-0.287 0.098-0.303 0.087-0.012-0.009-0.402-0.418-0.862-0.909-0.646-0.687-0.834-0.896-0.814-0.911 0.012-0.011 0.154-0.066 0.314-0.123l0.291-0.107 0.154 0.162 0.154 0.164 0.828-0.311 0.011-0.443 0.303-0.113c0.168-0.063 0.309-0.113 0.316-0.113 0.007-0.002 0.009 0.041 0.004 0.091zM13.266 27.105c0.132 0.036 0.243 0.066 0.246 0.070 0.002 0.002-0.096 0.379-0.221 0.837-0.123 0.459-0.221 0.837-0.218 0.843 0.004 0.004 0.148 0.043 0.32 0.089 0.17 0.046 0.316 0.089 0.323 0.095 0.009 0.009-0.116 0.514-0.134 0.53-0.004 0.005-1.927-0.511-1.937-0.52-0.014-0.012 0.13-0.512 0.15-0.521 0.012-0.004 0.161 0.029 0.33 0.075 0.168 0.045 0.312 0.077 0.32 0.068 0.007-0.007 0.113-0.38 0.232-0.827s0.221-0.818 0.225-0.825c0.004-0.005 0.034-0.004 0.066 0.005 0.030 0.009 0.166 0.046 0.298 0.080zM16.823 27.461c0.377 0.079 0.621 0.33 0.703 0.723 0.025 0.121 0.1 1.512 0.084 1.535-0.007 0.009-0.634 0.039-0.639 0.032-0.002-0.004-0.018-0.312-0.034-0.686-0.034-0.778-0.043-0.828-0.161-0.946-0.087-0.089-0.189-0.121-0.336-0.109-0.18 0.016-0.309 0.118-0.354 0.279-0.023 0.087-0.021 0.268 0.009 0.928 0.014 0.309 0.023 0.564 0.020 0.568-0.007 0.009-0.625 0.038-0.634 0.030-0.012-0.011-0.054-1-0.055-1.293-0.002-0.307 0.018-0.418 0.107-0.6 0.118-0.243 0.411-0.43 0.741-0.477 0.129-0.018 0.437-0.011 0.548 0.014zM12.175 4c0 0.020-0.011 0.175-0.021 0.343-0.016 0.223-0.016 0.309-0.002 0.309 0.032 0 0.425-0.127 0.443-0.143 0.009-0.009-0.070-0.121-0.177-0.254-0.252-0.311-0.241-0.298-0.243-0.255zM8.665 5.528c-0.134 0.052-0.257 0.17-0.318 0.303-0.043 0.098-0.048 0.125-0.041 0.255 0.011 0.189 0.071 0.316 0.214 0.448 0.139 0.13 0.262 0.175 0.443 0.166 0.168-0.011 0.284-0.066 0.398-0.193 0.405-0.452-0.125-1.2-0.696-0.98zM15.501 6.781l-0.539 0.539 1.089 1.089 1.089-1.089-0.539-0.539c-0.298-0.298-0.545-0.541-0.55-0.541s-0.252 0.243-0.55 0.541zM12.020 7.942c-0.296 0.296-0.539 0.548-0.539 0.557 0 0.011 0.241 0.259 0.536 0.553l0.536 0.536 1.098-1.098-1.089-1.089-0.541 0.541zM14.337 7.946l-0.545 0.545 1.089 1.089 1.089-1.089-1.089-1.089-0.545 0.545zM16.676 7.946l-0.545 0.545 1.089 1.089 1.089-1.089-1.089-1.089-0.545 0.545zM19.001 7.96l-0.539 0.539 1.089 1.089 1.089-1.089-0.539-0.539c-0.298-0.298-0.545-0.541-0.55-0.541s-0.252 0.243-0.55 0.541zM10.841 9.12l-0.539 0.539 1.089 1.089 1.089-1.089-0.539-0.539c-0.298-0.298-0.545-0.541-0.55-0.541s-0.252 0.243-0.55 0.541zM13.171 9.111c-0.291 0.291-0.53 0.539-0.53 0.548 0 0.011 0.243 0.261 0.541 0.557l0.539 0.539-0.050 0.121c-0.048 0.114-0.082 0.154-0.545 0.616l-0.495 0.496 0.257 0.257c0.245 0.245 0.255 0.259 0.243 0.312-0.005 0.030-0.018 0.055-0.023 0.055-0.007 0-0.134-0.123-0.284-0.271l-0.273-0.273-1.089 1.089 0.543 0.543c0.471 0.471 0.548 0.541 0.571 0.521 0.039-0.032 0.037-0.005-0.007 0.109-0.030 0.082-0.102 0.161-0.566 0.625l-0.532 0.532 0.55 0.55-0.012 0.068-0.014 0.066-0.604-0.604-1.089 1.089 0.545 0.545 0.545 0.543 0.071-0.070c0.039-0.038 0.071-0.066 0.071-0.063 0 0.005-0.023 0.079-0.050 0.164-0.039 0.121-0.055 0.152-0.073 0.134-0.016-0.016-0.143 0.102-0.564 0.523l-0.545 0.545 0.303 0.303c0.168 0.168 0.303 0.309 0.303 0.316s-0.009 0.034-0.018 0.061c-0.020 0.050-0.020 0.050-0.345-0.275l-0.325-0.325-1.089 1.089 1.089 1.089 0.123-0.121c0.121-0.12 0.121-0.12 0.111-0.059-0.005 0.032-0.011 0.071-0.011 0.084 0 0.014-0.032 0.061-0.071 0.104l-0.070 0.077 0.061 0.059c0.054 0.052 0.063 0.073 0.063 0.141v0.080l-0.104-0.102-0.102-0.102-1.089 1.089 1.089 1.089 0.423-0.423c0.386-0.386 0.425-0.42 0.455-0.398 0.018 0.014 0.036 0.029 0.041 0.032 0.004 0.002-0.186 0.198-0.42 0.432l-0.428 0.428 1.089 1.089 1.089-1.089-0.273-0.273c-0.148-0.15-0.271-0.277-0.271-0.28 0-0.005 0.034-0.007 0.077-0.004 0.070 0.007 0.093 0.023 0.312 0.241l0.236 0.236 0.545-0.545 0.545-0.543-0.055-0.057c-0.048-0.050-0.052-0.059-0.032-0.104l0.023-0.048 0.136 0.136 1.098-1.098-0.336-0.336c-0.307-0.307-0.336-0.341-0.325-0.384 0.007-0.027 0.018-0.048 0.023-0.048 0.007 0 0.17 0.157 0.361 0.348l0.348 0.348 1.089-1.089-0.166-0.166c-0.089-0.091-0.164-0.171-0.164-0.179s0.029-0.012 0.064-0.012c0.057 0 0.082 0.018 0.205 0.137l0.141 0.136 0.141-0.136c0.123-0.12 0.148-0.137 0.205-0.137 0.036 0 0.064 0.005 0.064 0.012s-0.075 0.087-0.164 0.179l-0.166 0.166 1.089 1.089 0.845-0.845 0.012 0.059c0.012 0.057 0.005 0.066-0.386 0.457l-0.4 0.4 1.098 1.098 0.261-0.261 0.023 0.048c0.021 0.046 0.016 0.054-0.095 0.166l-0.118 0.118 1.089 1.089 0.237-0.237c0.218-0.218 0.241-0.236 0.303-0.236 0.036 0 0.066 0.005 0.066 0.012s-0.118 0.132-0.262 0.277l-0.264 0.264 1.089 1.089 1.089-1.089-0.389-0.389c-0.389-0.389-0.389-0.391-0.348-0.42 0.041-0.027 0.046-0.023 0.425 0.355l0.384 0.382 1.089-1.089-0.557-0.557-0.559-0.557v-0.079c0-0.043 0.007-0.073 0.014-0.068 0.009 0.005 0.259-0.236 0.559-0.536l0.543-0.543-1.089-1.089-0.264 0.264c-0.211 0.211-0.266 0.257-0.28 0.236-0.009-0.014-0.018-0.039-0.018-0.054s0.111-0.137 0.245-0.271l0.246-0.246-0.495-0.496-0.496-0.495-0.089-0.268 1.071-1.071-1.089-1.089-0.259 0.259c-0.209 0.207-0.262 0.254-0.277 0.232-0.039-0.063-0.014-0.102 0.214-0.33 0.129-0.127 0.232-0.239 0.232-0.248 0-0.011-0.22-0.239-0.489-0.511l-0.489-0.491-0.036-0.125-0.038-0.125 0.534-0.536 0.536-0.536-1.089-1.089-0.259 0.259c-0.141 0.141-0.261 0.254-0.266 0.248s-0.016-0.029-0.027-0.052c-0.014-0.041 0.004-0.064 0.227-0.289l0.245-0.246-0.496-0.496c-0.271-0.273-0.495-0.507-0.495-0.521s-0.021-0.071-0.046-0.123l-0.045-0.098 0.537-0.537c0.295-0.295 0.536-0.545 0.536-0.553 0-0.011-0.241-0.259-0.536-0.553l-0.536-0.536-1.089 1.089 0.166 0.168c0.089 0.091 0.148 0.161 0.129 0.155-0.177-0.064-0.225-0.091-0.293-0.161l-0.079-0.080-0.063 0.054c-0.043 0.037-0.073 0.052-0.1 0.045-0.020-0.005-0.050-0.011-0.064-0.011s0.011-0.036 0.059-0.086l0.084-0.084-1.089-1.089-1.089 1.089 0.082 0.082 0.080 0.082-0.057 0.012c-0.050 0.009-0.068 0.002-0.118-0.046l-0.059-0.057-0.088 0.086c-0.057 0.055-0.13 0.105-0.209 0.137-0.068 0.029-0.127 0.052-0.132 0.052-0.004 0 0.071-0.080 0.17-0.179l0.179-0.179-0.536-0.536c-0.295-0.295-0.543-0.536-0.553-0.536s-0.257 0.239-0.55 0.532zM17.239 10.193c0.368 0.107 0.684 0.362 0.855 0.689 0.075 0.145 3.392 10.118 3.423 10.291 0.029 0.171 0.012 0.47-0.038 0.627-0.154 0.489-0.541 0.845-1.028 0.946-0.618 0.127-1.262-0.191-1.518-0.748-0.025-0.055-0.223-0.645-0.441-1.309l-0.398-1.211-1.968-0.005c-1.082-0.002-1.968 0-1.968 0.004s-0.17 0.555-0.375 1.225c-0.252 0.816-0.396 1.259-0.439 1.339-0.17 0.323-0.486 0.582-0.834 0.68-0.123 0.036-0.187 0.043-0.396 0.043-0.236-0.002-0.261-0.005-0.42-0.059-0.287-0.1-0.504-0.252-0.67-0.47-0.25-0.336-0.337-0.775-0.234-1.178 0.096-0.37 3.159-10.027 3.217-10.147 0.15-0.298 0.396-0.527 0.711-0.659 0.23-0.096 0.268-0.1 1.386-0.095 0.918 0.004 1.037 0.007 1.134 0.036zM20.162 9.12l-0.539 0.539 1.089 1.089 1.089-1.089-0.539-0.539c-0.298-0.298-0.545-0.541-0.55-0.541s-0.252 0.243-0.55 0.541zM9.677 10.284l-0.545 0.545 1.089 1.089 1.089-1.089-1.089-1.089-0.545 0.545zM12.002 10.281l-0.539 0.539 0.541 0.541c0.296 0.296 0.548 0.539 0.557 0.539 0.011 0 0.259-0.241 0.553-0.536l0.536-0.536-0.545-0.545c-0.3-0.3-0.548-0.545-0.553-0.545s-0.252 0.243-0.55 0.541zM19.001 10.281l-0.539 0.539 1.089 1.089 1.089-1.089-0.539-0.539c-0.298-0.298-0.545-0.541-0.55-0.541s-0.252 0.243-0.55 0.541zM21.336 10.284l-0.545 0.545 1.089 1.089 1.089-1.089-1.089-1.089-0.545 0.545zM8.517 11.445l-0.545 0.545 1.089 1.089 1.089-1.089-1.089-1.089-0.545 0.545zM10.838 11.445l-0.545 0.545 1.098 1.098 1.089-1.089-1.098-1.098-0.545 0.545zM20.176 11.445l-0.545 0.545 1.089 1.089 1.089-1.089-1.089-1.089-0.545 0.545zM22.497 11.445l-0.545 0.545 1.089 1.089 1.089-1.089-1.089-1.089-0.545 0.545zM7.342 12.62l-0.539 0.539 1.089 1.089 1.089-1.089-0.539-0.539c-0.298-0.298-0.545-0.541-0.55-0.541s-0.252 0.243-0.55 0.541zM9.668 12.615l-0.536 0.536 0.55 0.548 0.548 0.55 0.536-0.536c0.295-0.295 0.536-0.543 0.536-0.553 0-0.023-1.057-1.080-1.080-1.080-0.011 0-0.259 0.241-0.553 0.536zM21.329 12.613l-0.534 0.536 0.53 0.541c0.293 0.298 0.537 0.543 0.543 0.546 0.007 0.002 0.257-0.241 0.557-0.541l0.545-0.545-0.536-0.536c-0.295-0.295-0.543-0.536-0.553-0.536s-0.259 0.241-0.552 0.534zM23.661 12.62l-0.539 0.539 1.089 1.089 1.089-1.089-0.539-0.539c-0.298-0.298-0.545-0.541-0.55-0.541s-0.252 0.243-0.55 0.541zM8.511 13.771c-0.291 0.291-0.53 0.539-0.53 0.548 0 0.023 1.057 1.080 1.080 1.080 0.011 0 0.259-0.241 0.553-0.536l0.536-0.536-0.545-0.545c-0.3-0.3-0.548-0.545-0.553-0.545s-0.248 0.239-0.541 0.532zM10.841 13.78l-0.539 0.539 1.089 1.089 1.089-1.089-0.539-0.539c-0.298-0.298-0.545-0.541-0.55-0.541s-0.252 0.243-0.55 0.541zM20.162 13.78l-0.539 0.539 1.089 1.089 1.089-1.089-0.539-0.539c-0.298-0.298-0.545-0.541-0.55-0.541s-0.252 0.243-0.55 0.541zM22.497 13.784l-0.545 0.545 0.536 0.536c0.295 0.295 0.543 0.536 0.553 0.536s0.261-0.243 0.559-0.541l0.539-0.539-0.541-0.541c-0.296-0.296-0.543-0.539-0.548-0.539s-0.254 0.245-0.553 0.545zM7.342 14.941l-0.539 0.539 1.098 1.098 1.089-1.089-0.545-0.545c-0.3-0.3-0.548-0.545-0.553-0.545s-0.252 0.243-0.55 0.541zM9.677 14.945l-0.545 0.545 1.089 1.089 1.089-1.089-1.089-1.089-0.545 0.545zM21.336 14.945l-0.545 0.545 1.089 1.089 1.089-1.089-1.089-1.089-0.545 0.545zM23.657 14.945l-0.545 0.545 1.098 1.098 1.086-1.107-0.537-0.541c-0.296-0.296-0.543-0.539-0.548-0.539s-0.254 0.245-0.553 0.545zM8.517 16.105l-0.545 0.545 1.089 1.089 1.089-1.089-1.089-1.089-0.545 0.545zM22.497 16.105l-0.545 0.545 0.55 0.548 0.548 0.55 0.536-0.536c0.295-0.295 0.536-0.543 0.536-0.553s-0.243-0.261-0.541-0.559l-0.539-0.539-0.545 0.545zM7.342 17.28l-0.539 0.539 1.089 1.089 1.089-1.089-0.539-0.539c-0.298-0.298-0.545-0.541-0.55-0.541s-0.252 0.243-0.55 0.541zM9.681 17.28l-0.539 0.539 1.089 1.089 0.536-0.536c0.295-0.295 0.536-0.543 0.536-0.553 0-0.018-1.053-1.080-1.071-1.080-0.005 0-0.252 0.243-0.55 0.541zM21.331 17.271c-0.291 0.291-0.53 0.539-0.53 0.548 0 0.023 1.057 1.080 1.080 1.080 0.011 0 0.259-0.241 0.553-0.536l0.536-0.536-0.545-0.545c-0.3-0.3-0.548-0.545-0.553-0.545s-0.248 0.239-0.541 0.532zM23.661 17.28l-0.539 0.539 1.089 1.089 1.089-1.089-0.539-0.539c-0.298-0.298-0.545-0.541-0.55-0.541s-0.252 0.243-0.55 0.541zM8.517 18.444l-0.545 0.545 1.089 1.089 1.089-1.089-1.089-1.089-0.545 0.545zM22.497 18.444l-0.545 0.545 1.089 1.089 1.089-1.089-1.089-1.089-0.545 0.545zM7.351 19.608l-0.548 0.55 1.089 1.089 0.545-0.545 0.543-0.545-1.078-1.1-0.55 0.55zM8.511 20.771c-0.291 0.291-0.53 0.539-0.53 0.548 0 0.011 0.241 0.259 0.536 0.553l0.536 0.536 1.089-1.089-0.539-0.539c-0.298-0.298-0.545-0.541-0.55-0.541s-0.248 0.239-0.541 0.532zM15.501 20.779l-0.539 0.539 1.089 1.089 1.089-1.089-0.539-0.539c-0.298-0.298-0.545-0.541-0.55-0.541s-0.252 0.243-0.55 0.541zM22.5 20.779l-0.539 0.539 1.089 1.089 1.089-1.089-0.539-0.539c-0.298-0.298-0.545-0.541-0.55-0.541s-0.252 0.243-0.55 0.541zM14.337 21.944l-0.545 0.545 0.536 0.536c0.295 0.295 0.543 0.536 0.553 0.536s0.261-0.243 0.559-0.541l0.539-0.539-0.541-0.541c-0.296-0.296-0.543-0.539-0.548-0.539s-0.254 0.245-0.553 0.545zM16.671 21.931c-0.291 0.291-0.53 0.539-0.53 0.548 0 0.023 1.057 1.080 1.080 1.080 0.011 0 0.259-0.241 0.553-0.536l0.536-0.536-0.545-0.545c-0.3-0.3-0.548-0.545-0.553-0.545s-0.248 0.239-0.541 0.532zM13.177 23.104l-0.545 0.545 1.089 1.089 1.089-1.089-1.089-1.089-0.545 0.545zM15.498 23.104l-0.545 0.545 1.098 1.098 1.098-1.098-0.545-0.545c-0.3-0.3-0.548-0.545-0.553-0.545s-0.254 0.245-0.553 0.545zM17.837 23.104l-0.545 0.545 1.089 1.089 1.089-1.089-1.089-1.089-0.545 0.545zM16.68 24.261c-0.296 0.296-0.539 0.548-0.539 0.557 0 0.011 0.241 0.259 0.536 0.553l0.536 0.536 1.098-1.098-1.089-1.089-0.541 0.541zM14.328 24.274l-0.536 0.536 0.55 0.548 0.548 0.55 0.536-0.536c0.295-0.295 0.536-0.543 0.536-0.553 0-0.023-1.057-1.080-1.080-1.080-0.011 0-0.259 0.241-0.553 0.536zM23.247 25.429c-0.118 0.043-0.289 0.22-0.329 0.341-0.045 0.132-0.034 0.339 0.023 0.455 0.216 0.443 0.791 0.516 1.052 0.132 0.204-0.296 0.080-0.716-0.262-0.893-0.118-0.061-0.141-0.066-0.266-0.064-0.077 0-0.173 0.014-0.218 0.029zM20.070 27.659c-0.113 0.045-0.209 0.084-0.212 0.087-0.005 0.004 0.095 0.121 0.221 0.261l0.23 0.255 0.004-0.080c0.004-0.043 0.007-0.196 0.009-0.343 0.005-0.225 0.002-0.262-0.021-0.261-0.014 0-0.12 0.038-0.23 0.080z"></path>
</svg>
