<?xml version="1.0" encoding="utf-8"?>
<!-- Generated by IcoMoon.io -->
<!DOCTYPE svg PUBLIC "-//W3C//DTD SVG 1.1//EN" "http://www.w3.org/Graphics/SVG/1.1/DTD/svg11.dtd">
<svg version="1.1" xmlns="http://www.w3.org/2000/svg" xmlns:xlink="http://www.w3.org/1999/xlink" width="27" height="32" viewBox="0 0 27 32">
<path d="M26.24 6.551q0.5 0.5 0.858 1.358t0.358 1.573v20.592q0 0.715-0.5 1.215t-1.215 0.5h-24.023q-0.715 0-1.215-0.5t-0.5-1.215v-28.599q0-0.715 0.5-1.215t1.215-0.5h16.016q0.715 0 1.573 0.357t1.358 0.858zM18.304 2.19v6.721h6.721q-0.179-0.518-0.393-0.733l-5.595-5.595q-0.215-0.215-0.733-0.393zM25.167 29.502v-18.304h-7.436q-0.715 0-1.215-0.501t-0.5-1.215v-7.436h-13.728v27.455h22.88zM15.98 18.902q0.59 0.465 1.501 1.001 1.055-0.125 2.091-0.125 2.628 0 3.164 0.876 0.286 0.393 0.036 0.929 0 0.018-0.018 0.036l-0.036 0.036v0.018q-0.107 0.679-1.269 0.679-0.858 0-2.056-0.358t-2.324-0.947q-3.95 0.429-7.007 1.484-2.735 4.683-4.326 4.683-0.268 0-0.5-0.125l-0.429-0.215q-0.018-0.018-0.107-0.089-0.179-0.179-0.107-0.643 0.161-0.715 1.001-1.636t2.359-1.725q0.25-0.161 0.411 0.107 0.036 0.036 0.036 0.072 0.929-1.519 1.913-3.521 1.215-2.431 1.859-4.683-0.429-1.466-0.545-2.851t0.116-2.279q0.197-0.715 0.751-0.715h0.393q0.411 0 0.626 0.268 0.322 0.375 0.161 1.215-0.036 0.107-0.072 0.143 0.018 0.054 0.018 0.143v0.536q-0.036 2.199-0.25 3.432 0.983 2.931 2.61 4.254zM5.684 26.249q0.929-0.429 2.449-2.824-0.912 0.715-1.564 1.501t-0.885 1.323zM12.798 9.804q-0.268 0.751-0.036 2.359 0.018-0.125 0.125-0.787 0-0.054 0.125-0.769 0.018-0.072 0.072-0.143-0.018-0.018-0.018-0.036t-0.009-0.027-0.009-0.027q-0.018-0.393-0.232-0.643 0 0.018-0.018 0.036v0.036zM10.582 21.619q2.413-0.965 5.076-1.448-0.036-0.018-0.232-0.17t-0.286-0.241q-1.358-1.198-2.27-3.146-0.483 1.537-1.484 3.521-0.536 1.001-0.804 1.484zM22.129 21.333q-0.429-0.429-2.502-0.429 1.358 0.5 2.216 0.5 0.25 0 0.322-0.018 0-0.018-0.036-0.054z"></path>
</svg>
