<?xml version="1.0" encoding="utf-8"?>
<!-- Generated by IcoMoon.io -->
<!DOCTYPE svg PUBLIC "-//W3C//DTD SVG 1.1//EN" "http://www.w3.org/Graphics/SVG/1.1/DTD/svg11.dtd">
<svg version="1.1" xmlns="http://www.w3.org/2000/svg" xmlns:xlink="http://www.w3.org/1999/xlink" width="32" height="32" viewBox="0 0 32 32">
<path d="M31.134 22.533c0.288 4.228 0.288 4.196-0.128 5.125-0.288 0.609-0.865 1.185-1.377 1.345-0.609 0.192-11.275 1.986-11.788 1.986-0.256 0-0.673-0.064-0.897-0.128-0.833-0.288-1.409-0.929-1.602-1.858-0.064-0.352-0.128-1.473-0.224-4.068-0.064-1.986-0.224-7.495-0.384-12.268-0.16-4.741-0.288-9.001-0.288-9.417 0-1.505 0.48-2.306 1.537-2.691 0.16-0.064 0.32-0.128 0.577-0.128 0.769-0.032 2.498 0.224 8.68 1.121 1.313 0.192 2.563 0.384 2.755 0.448 0.48 0.16 1.153 0.641 1.441 1.089 0.448 0.641 0.512 1.025 0.641 3.139 0.128 2.146 0.673 10.57 1.057 16.304zM29.501 22.245c0.096-0.352 0.096-0.673-0.128-4.42-0.128-2.21-0.32-5.317-0.416-6.887-0.16-2.755-0.16-2.851-0.352-3.203-0.192-0.416-0.577-0.801-1.025-1.025-0.256-0.128-0.705-0.192-4.324-0.448-2.979-0.256-4.26-0.32-4.933-0.32-0.384 0.032-0.577 0.064-0.769 0.16-0.416 0.192-0.769 0.609-0.897 1.089-0.096 0.352-0.096 0.833 0.096 6.246 0.128 3.235 0.256 6.662 0.288 7.623 0.064 1.89 0.128 2.178 0.512 2.723 0.32 0.48 0.929 0.769 1.538 0.769 0.192 0 2.21-0.16 4.452-0.416 2.242-0.224 4.196-0.448 4.356-0.48 0.801-0.224 1.441-0.769 1.602-1.409zM13.229 22.757c0.769-0.064 1.409-0.128 1.409-0.128 0.032 0.032 0.192 4.741 0.16 4.773s-3.748 0.512-3.94 0.512c-0.064 0-0.32-0.032-0.577-0.096-0.705-0.16-1.217-0.545-1.505-1.185-0.192-0.448-0.192-1.089-0.384-11.371-0.224-11.403-0.224-10.41 0.192-11.083 0.256-0.384 0.545-0.577 1.121-0.737 0.16-0.032 0.288-0.064 0.48-0.064 0.288 0 0.737 0.032 1.922 0.16l1.922 0.192 0.032 0.577c0.032 0.288 0.064 1.249 0.096 2.082l0.032 1.538-0.16-0.064c-0.096 0-0.769-0.064-1.505-0.096-1.505-0.128-1.762-0.096-2.178 0.32-0.545 0.48-0.545 0.096-0.384 6.951 0.064 3.331 0.128 6.214 0.192 6.374 0.096 0.545 0.416 1.025 0.833 1.249 0.448 0.224 0.801 0.256 2.242 0.096zM21.749 6.549l0.416 8.616c0.192 4.741 0.352 8.616 0.352 8.648-0.032 0.032-0.705 0.096-1.505 0.192-0.769 0.064-1.538 0.16-1.666 0.192-0.128 0-0.384-0.032-0.545-0.064-0.641-0.128-1.089-0.609-1.281-1.377-0.032-0.192-0.064-0.352-0.032-0.384 0 0 0.48-0.064 1.089-0.128 0.929-0.096 1.121-0.128 1.505-0.32 0.256-0.128 0.545-0.32 0.641-0.448 0.384-0.512 0.384-0.384 0.128-6.214-0.256-5.766-0.256-5.862-0.641-6.31s-0.769-0.609-1.762-0.705c-1.57-0.128-1.473-0.096-1.473-0.448 0-0.48 0.128-0.833 0.416-1.121 0.288-0.256 0.48-0.352 1.089-0.352 0.352 0 0.865 0.032 1.602 0.064zM8.072 20.483c0 0 0.032 0.769 0.064 1.698 0.032 1.313 0.032 1.698-0.032 1.698s-0.641 0.064-1.313 0.128c-1.441 0.16-1.666 0.16-2.114 0.032-0.416-0.128-0.833-0.512-0.961-0.929-0.096-0.32-0.16-2.37-0.288-10.154-0.064-2.627-0.064-4.869-0.032-4.997 0.128-0.673 0.673-1.057 1.473-1.057 0.545-0.032 2.787 0.16 2.883 0.224 0.032 0.032 0.096 0.673 0.128 1.473l0.032 1.409-1.217-0.064c-1.153-0.032-1.249-0.032-1.537 0.096-0.256 0.096-0.352 0.224-0.48 0.448l-0.128 0.288 0.096 4.388c0.096 4.869 0.096 4.709 0.545 5.125 0.352 0.288 0.673 0.32 1.89 0.224 0.545-0.032 0.993-0.064 0.993-0.032zM12.684 19.458v0 0-8.328l-0.128-0.288c-0.288-0.448-0.577-0.577-1.505-0.641l-0.769-0.032-0.032-0.448c-0.096-0.801 0.16-1.377 0.705-1.537 0.064-0.032 0.256-0.064 0.48-0.064 0.673 0 1.826 0.032 1.986 0.128 0.288 0.16 0.288 0.384 0.448 7.175 0.128 5.253 0.128 6.759 0.064 6.823-0.032 0.064-1.57 0.224-2.050 0.224-0.192 0-0.448-0.064-0.609-0.128-0.545-0.256-0.833-0.833-0.801-1.666l0.032-0.384 0.609-0.064c0.737-0.032 1.121-0.192 1.441-0.545zM3.107 18.049l0.032 0.929v0.929h-0.48c-0.256 0-0.577-0.032-0.705 0-0.128 0-0.384-0.064-0.512-0.096-0.16-0.032-0.352-0.16-0.448-0.256-0.16-0.192-0.224-0.288-0.256-1.217-0.032-0.545-0.128-2.306-0.128-3.94v-2.947l0.256-0.224c0.224-0.224 0.32-0.224 0.897-0.256 0.16 0 0.32 0 0.512 0 0.16 0 0.256 0 0.352 0.032l0.224 0.032v1.537l-0.32-0.032c-0.192-0.032-0.416 0-0.577 0.032-0.48 0.128-0.48 0.096-0.48 2.755 0.032 2.819-0.032 2.627 0.993 2.691zM5.285 18.145v0c0.288 0 0.641-0.352 0.737-0.545 0.096-0.288 0.064-4.58-0.064-4.773-0.096-0.192-0.48-0.512-0.769-0.512h-0.096v-1.217l0.416 0.032c0.545 0.032 0.737 0.16 0.929 0.545 0.096 0.192 0.128 0.737 0.192 3.812 0.096 3.523 0.096 3.587-0.032 3.78-0.224 0.256-0.577 0.416-1.025 0.416-0.384 0-0.384 0-0.448-0.224 0-0.096-0.032-0.48-0.032-0.833v-0.48h0.192z"></path>
</svg>
