<?xml version="1.0" encoding="utf-8"?>
<!-- Generated by IcoMoon.io -->
<!DOCTYPE svg PUBLIC "-//W3C//DTD SVG 1.1//EN" "http://www.w3.org/Graphics/SVG/1.1/DTD/svg11.dtd">
<svg version="1.1" xmlns="http://www.w3.org/2000/svg" xmlns:xlink="http://www.w3.org/1999/xlink" width="27" height="32" viewBox="0 0 27 32">
<path d="M22.87 21.092q0-0.192-0.032-0.288-0.032-0.16-0.673-0.545t-1.602-0.865l-0.929-0.512q-0.096-0.064-0.352-0.256t-0.448-0.256-0.384-0.096q-0.32 0-0.833 0.577t-1.025 1.185-0.769 0.577q-0.128 0-0.288-0.064t-0.288-0.096-0.288-0.192-0.256-0.128q-1.794-0.993-3.043-2.274t-2.274-3.043q-0.032-0.064-0.16-0.256t-0.16-0.288-0.128-0.288-0.064-0.288q0-0.256 0.384-0.609t0.801-0.673 0.801-0.737 0.352-0.641q0-0.16-0.064-0.384t-0.288-0.448-0.224-0.32q-0.064-0.128-0.256-0.512t-0.448-0.801-0.48-0.865-0.448-0.737-0.288-0.32-0.288-0.032q-0.865 0-1.794 0.416-0.833 0.352-1.441 1.666t-0.609 2.338q0 0.288 0.032 0.609t0.096 0.545 0.16 0.609 0.192 0.512 0.224 0.577 0.192 0.545q1.057 2.947 3.876 5.734t5.702 3.876q0.128 0.032 0.545 0.192t0.609 0.224 0.512 0.16 0.577 0.16 0.545 0.096 0.609 0.064q1.025 0 2.338-0.609t1.698-1.441q0.384-0.961 0.384-1.794zM27.451 7.19v17.169q0 2.114-1.505 3.62t-3.652 1.538h-17.137q-2.146 0-3.652-1.538t-1.505-3.62v-17.169q0-2.114 1.505-3.62t3.652-1.538h17.137q2.146 0 3.652 1.538t1.505 3.62z"></path>
</svg>
