<?xml version="1.0" encoding="utf-8"?>
<!-- Generated by IcoMoon.io -->
<!DOCTYPE svg PUBLIC "-//W3C//DTD SVG 1.1//EN" "http://www.w3.org/Graphics/SVG/1.1/DTD/svg11.dtd">
<svg version="1.1" xmlns="http://www.w3.org/2000/svg" xmlns:xlink="http://www.w3.org/1999/xlink" width="32" height="32" viewBox="0 0 32 32">
<path d="M16.016 8.023c-8.456 0-15.279 3.459-15.279 7.752s6.823 7.752 15.279 7.752 15.279-3.459 15.279-7.752-6.823-7.752-15.279-7.752zM12.044 17.28c-0.384 0.352-0.769 0.48-1.217 0.641-0.448 0.128-1.025 0.096-1.698 0.096h-1.57l-0.448 2.498h-1.826l1.634-8.488h3.523c1.057 0 1.826 0.288 2.306 0.865s0.641 1.313 0.448 2.338c-0.096 0.384-0.224 0.769-0.416 1.121-0.192 0.32-0.448 0.641-0.737 0.929zM17.361 18.017l0.737-3.588c0.064-0.448 0.032-0.737-0.096-0.897s-0.448-0.256-0.897-0.256h-1.473l-0.929 4.741h-1.794l1.634-8.264h1.794l-0.416 2.274h1.602c1.025 0 1.73 0.192 2.114 0.545s0.48 0.833 0.352 1.634l-0.769 3.812h-1.858zM27.451 15.23c-0.096 0.416-0.224 0.769-0.416 1.121s-0.416 0.641-0.737 0.929c-0.352 0.352-0.769 0.48-1.217 0.641-0.448 0.128-1.025 0.096-1.698 0.096h-1.57l-0.448 2.498h-1.826l1.634-8.488h3.523c1.057 0 1.826 0.288 2.306 0.865 0.48 0.545 0.641 1.345 0.448 2.338zM23.991 13.276h-1.249l-0.673 3.491h1.121c0.737 0 1.281-0.064 1.634-0.352 0.352-0.256 0.609-0.705 0.737-1.345s0.064-1.121-0.16-1.377c-0.224-0.256-0.705-0.416-1.409-0.416zM9.738 13.276h-1.249l-0.673 3.491h1.121c0.737 0 1.281-0.064 1.634-0.352 0.352-0.256 0.609-0.705 0.737-1.345 0.096-0.641 0.064-1.121-0.16-1.377s-0.705-0.416-1.409-0.416z"></path>
</svg>
