<?xml version="1.0" encoding="utf-8"?>
<!-- Generated by IcoMoon.io -->
<!DOCTYPE svg PUBLIC "-//W3C//DTD SVG 1.1//EN" "http://www.w3.org/Graphics/SVG/1.1/DTD/svg11.dtd">
<svg version="1.1" xmlns="http://www.w3.org/2000/svg" xmlns:xlink="http://www.w3.org/1999/xlink" width="32" height="32" viewBox="0 0 32 32">
<path d="M30.846 18.977c-0.128-0.737-0.737-1.217-1.441-1.249-0.256 0-0.512 0.032-0.769 0.064-0.32 0.032-0.641 0.096-0.929 0.128-0.224 0.032-0.448 0.064-0.641 0.096l-0.032-0.032c0.416-0.769 0.833-1.505 1.217-2.274 0.288-0.577 0.545-1.185 0.801-1.794 0.416-1.025 0.737-2.050 1.025-3.075s0.512-2.018 0.577-3.075c0.032-0.416 0.064-0.833 0.032-1.249 0-0.32-0.032-0.673-0.064-0.993-0.032-0.384-0.128-0.737-0.288-1.089-0.224-0.448-0.545-0.833-0.897-1.185-0.256-0.288-0.577-0.545-0.865-0.801-0.416-0.384-0.897-0.673-1.409-0.929-0.545-0.288-1.153-0.545-1.762-0.673-0.384-0.096-0.769-0.192-1.121-0.256-0.16-0.032-0.288-0.096-0.416-0.096h-2.563c-0.096 0-0.192 0.064-0.288 0.064-0.609 0.064-1.217 0.192-1.794 0.384-0.224 0.064-0.448 0-0.641 0-0.16-0.032-0.32-0.064-0.48-0.064-0.609-0.032-1.217-0.096-1.826-0.064-0.609 0-1.185 0.096-1.73 0.256-0.48 0.128-0.961 0.288-1.377 0.545-0.192 0.096-0.32 0.096-0.512 0.032-0.641-0.192-1.281-0.352-1.922-0.512-0.384-0.064-0.801-0.128-1.217-0.16-0.384-0.032-0.769-0.064-1.185-0.064-0.384-0.032-0.769-0.032-1.153 0-0.609 0.064-1.185 0.192-1.794 0.384-0.641 0.224-1.217 0.545-1.762 0.961-0.545 0.448-0.961 0.961-1.313 1.57-0.384 0.641-0.641 1.313-0.801 2.018-0.064 0.384-0.128 0.769-0.192 1.153 0 0.128 0.192 0.256-0.064 0.384v1.698c0.256 0.096 0.064 0.224 0.064 0.32 0.032 0.288 0.064 0.577 0.128 0.833 0.064 0.416 0.16 0.865 0.224 1.281 0.128 0.609 0.256 1.185 0.384 1.794 0.128 0.416 0.224 0.833 0.352 1.281 0.16 0.641 0.352 1.281 0.545 1.922 0.192 0.609 0.416 1.185 0.641 1.794 0.288 0.801 0.641 1.602 1.089 2.338 0.352 0.673 0.769 1.281 1.345 1.794 0.384 0.32 0.801 0.577 1.281 0.705 0.384 0.096 0.769 0.096 1.153 0.032 0.448-0.096 0.865-0.288 1.217-0.577 0.032-0.032 0.064-0.064 0.128 0 0.192 0.224 0.416 0.384 0.673 0.512 0.705 0.384 1.473 0.48 2.242 0.512 0.16 0.032 0.352 0 0.545 0 0.384-0.032 0.737-0.096 1.089-0.192 0.16-0.064 0.352-0.128 0.545-0.192 0 0.192 0 0.384 0.032 0.577v1.057c0.032 0.16 0.032 0.32 0.032 0.48 0.032 0.416 0.096 0.801 0.128 1.217 0.032 0.288 0.064 0.577 0.128 0.833 0.128 0.545 0.32 1.089 0.545 1.602s0.545 0.961 0.993 1.313c0.545 0.448 1.185 0.641 1.89 0.673 0.288 0.032 0.609 0 0.897-0.032 0.448-0.096 0.897-0.192 1.345-0.32 0.897-0.288 1.666-0.737 2.242-1.505 0.32-0.416 0.609-0.897 0.769-1.409 0.16-0.416 0.288-0.865 0.384-1.281 0.096-0.352 0.128-0.705 0.192-1.057 0.032-0.224 0.064-0.48 0.064-0.705 0.032-0.384 0.096-0.769 0.096-1.153 0.032-0.256 0.032-0.512 0.032-0.769 0-0.096 0.032-0.16 0.032-0.256 0-0.064 0.032-0.096 0.128-0.096 0.256 0 0.512 0 0.801 0s0.609-0.032 0.897-0.064c0.416-0.096 0.833-0.16 1.249-0.288 0.48-0.128 0.929-0.352 1.345-0.609 0.512-0.288 0.961-0.641 1.345-1.121 0.32-0.384 0.448-0.833 0.384-1.345zM29.981 19.202c0 0.256-0.096 0.448-0.256 0.609-0.737 0.801-1.634 1.281-2.659 1.505-0.384 0.096-0.801 0.128-1.185 0.16-0.352 0.032-0.705 0.064-1.025 0.032-0.256 0-0.512-0.064-0.769-0.096-0.032 0.224-0.064 0.48-0.096 0.737l-0.096 0.929c-0.032 0.288-0.064 0.577-0.096 0.897-0.064 0.288-0.096 0.577-0.128 0.865-0.032 0.256-0.064 0.512-0.096 0.801-0.064 0.416-0.128 0.801-0.224 1.217-0.096 0.48-0.224 0.961-0.48 1.409-0.288 0.545-0.705 0.929-1.217 1.249-0.545 0.32-1.153 0.48-1.762 0.609-0.416 0.096-0.865 0.096-1.313 0.064-0.737-0.064-1.377-0.384-1.858-0.961s-0.769-1.217-0.897-1.922c-0.064-0.352-0.096-0.705-0.128-1.025-0.032-0.384-0.064-0.801-0.064-1.185-0.032-0.48-0.032-0.961-0.064-1.441 0-0.609 0-1.217-0.032-1.826v-0.032c-0.288 0.192-0.609 0.384-0.897 0.577-0.384 0.192-0.801 0.288-1.217 0.32-0.32 0.032-0.673 0.064-0.993 0.032-0.545-0.032-1.089-0.128-1.57-0.384-0.192-0.128-0.384-0.256-0.512-0.416-0.32-0.416-0.192-0.929 0.32-1.185 0.32-0.192 0.705-0.256 1.057-0.32 0.32-0.096 0.641-0.16 0.929-0.256 0.32-0.128 0.512-0.352 0.705-0.609l0.288-0.384c-0.128 0-0.224-0.032-0.352-0.032-0.352-0.032-0.705-0.128-1.025-0.288-0.288-0.128-0.288-0.128-0.512 0.096-0.32 0.352-0.673 0.737-0.993 1.121-0.256 0.288-0.512 0.577-0.737 0.865-0.256 0.256-0.48 0.545-0.737 0.801-0.416 0.384-0.865 0.641-1.441 0.609-0.352-0.032-0.705-0.16-0.993-0.352-0.609-0.448-1.025-1.025-1.409-1.666-0.48-0.801-0.833-1.666-1.153-2.53-0.224-0.609-0.448-1.217-0.641-1.826-0.192-0.673-0.384-1.377-0.577-2.050-0.128-0.512-0.256-1.025-0.352-1.537-0.128-0.609-0.256-1.185-0.384-1.762-0.064-0.416-0.096-0.833-0.16-1.217-0.096-0.545-0.096-1.089-0.064-1.634 0-0.513 0.096-0.993 0.16-1.473 0.096-0.673 0.32-1.313 0.641-1.922 0.192-0.352 0.448-0.705 0.705-1.025 0.48-0.512 1.025-0.865 1.666-1.153 0.416-0.192 0.865-0.288 1.345-0.384 0.705-0.128 1.409-0.128 2.114-0.128 0.288 0 0.609 0.064 0.897 0.096 0.673 0.064 1.313 0.192 1.954 0.384 0.448 0.128 0.929 0.288 1.377 0.416 0.032 0.032 0.096 0 0.16 0 0.609-0.416 1.281-0.673 2.018-0.833 0.288-0.064 0.577-0.096 0.833-0.096 0.352-0.032 0.705-0.064 1.057-0.032 0.384 0.032 0.801 0.096 1.217 0.128 0.192 0.032 0.384 0.096 0.577 0.128 0.096 0 0.192-0.064 0.32-0.096 0.512-0.096 1.025-0.256 1.538-0.352 0.384-0.064 0.769-0.096 1.153-0.096 0.448-0.032 0.897-0.064 1.313-0.032 0.545 0.032 1.121 0.096 1.634 0.224 0.673 0.16 1.313 0.384 1.922 0.705 0.48 0.224 0.897 0.513 1.281 0.833 0.256 0.224 0.545 0.448 0.769 0.673 0.288 0.32 0.577 0.609 0.737 0.993 0.16 0.288 0.256 0.609 0.256 0.929 0.032 0.384 0.096 0.801 0.096 1.185-0.032 0.384-0.064 0.769-0.096 1.153-0.096 0.865-0.288 1.698-0.512 2.53-0.192 0.705-0.416 1.377-0.641 2.050-0.224 0.609-0.48 1.217-0.737 1.826-0.192 0.448-0.384 0.897-0.609 1.345-0.416 0.801-0.865 1.634-1.377 2.402-0.064 0.128-0.16 0.256-0.256 0.416 0.224 0.128 0.48 0.192 0.737 0.224 0.224 0.032 0.48 0.032 0.705 0.032 0.384-0.032 0.769-0.096 1.153-0.16 0.384-0.032 0.737-0.16 1.153-0.128 0.384 0.032 0.641 0.32 0.609 0.673zM24.472 18.369c-0.16-0.192-0.32-0.416-0.48-0.641-0.256-0.32-0.416-0.705-0.609-1.089-0.192-0.352-0.384-0.673-0.577-1.025-0.32-0.641-0.641-1.249-0.929-1.858-0.352-0.801-0.641-1.634-0.737-2.498-0.032-0.352-0.064-0.737 0.032-1.089 0.096-0.609 0.416-1.057 0.929-1.377 0.48-0.288 1.025-0.384 1.57-0.416 0.32 0 0.673 0 1.025 0l-0.032-0.064c-0.224-0.448-0.416-0.929-0.641-1.345-0.352-0.641-0.769-1.217-1.249-1.73-0.352-0.384-0.737-0.769-1.185-1.089-0.416-0.288-0.833-0.577-1.313-0.801-0.545-0.288-1.121-0.48-1.73-0.641-0.577-0.128-1.185-0.192-1.762-0.192-0.512-0.032-1.025 0-1.537 0.128-0.737 0.16-1.441 0.48-2.018 0.993-0.352 0.256-0.641 0.577-0.897 0.929-0.288 0.416-0.545 0.865-0.737 1.313-0.288 0.641-0.48 1.313-0.609 1.986-0.064 0.352-0.128 0.705-0.192 1.025 0 0.128 0 0.256-0.032 0.384 0.096-0.032 0.16-0.064 0.256-0.128l0.192-0.096c0.769-0.32 1.537-0.545 2.37-0.512 0.352 0 0.705 0.064 1.025 0.224 0.577 0.288 0.929 0.801 1.089 1.441 0.128 0.448 0.192 0.897 0.256 1.345 0.064 0.352 0.128 0.705 0.128 1.057 0 0.512-0.032 1.057-0.064 1.57 0 0.448-0.096 0.865-0.256 1.281-0.288 0.737-0.609 1.473-0.897 2.242-0.096 0.224-0.16 0.48-0.256 0.769 0.16 0 0.256 0 0.384 0 0.032 0 0.064 0 0.128 0 0.32 0.096 0.609 0.224 0.865 0.48 0.32 0.352 0.48 0.769 0.48 1.217 0 0.256-0.032 0.512 0 0.769 0 1.217 0 2.402 0 3.587 0 0.192 0.032 0.416 0.032 0.609 0.032 0.384 0.064 0.801 0.096 1.217 0.032 0.288 0.064 0.577 0.128 0.865 0.064 0.416 0.256 0.769 0.448 1.121 0.192 0.288 0.416 0.545 0.737 0.737 0.512 0.288 1.089 0.32 1.666 0.192 0.384-0.064 0.769-0.192 1.121-0.32 0.384-0.096 0.705-0.288 0.993-0.577 0.256-0.256 0.448-0.577 0.577-0.897 0.256-0.673 0.32-1.377 0.416-2.082 0.064-0.256 0.096-0.512 0.128-0.769 0.032-0.288 0.064-0.609 0.096-0.897 0.032-0.224 0.064-0.448 0.096-0.673 0.032-0.32 0.064-0.641 0.096-0.929 0.032-0.256 0.064-0.512 0.096-0.737 0.032-0.32 0.064-0.641 0.096-0.961 0-0.224 0-0.48 0.064-0.705 0.064-0.448 0.256-0.801 0.641-1.057 0.16-0.096 0.352-0.16 0.512-0.224l-0.032-0.064zM10.058 16.607c-0.192-0.448-0.288-0.929-0.32-1.409-0.032-0.448 0.032-0.897 0.064-1.345s0.096-0.897 0.096-1.345c0.032-0.705-0.032-1.441-0.064-2.178-0.032-0.416 0.032-0.865 0.064-1.313 0.032-0.384 0.096-0.769 0.16-1.153 0.128-0.641 0.288-1.281 0.512-1.89s0.48-1.153 0.833-1.666c0.256-0.352 0.545-0.705 0.801-1.025l-0.064-0.032c-0.897-0.288-1.762-0.512-2.691-0.609-0.416-0.032-0.865-0.064-1.313-0.096-0.128 0-0.256 0.032-0.384 0.032-0.32 0.032-0.673 0.032-0.993 0.096-0.545 0.128-1.089 0.288-1.57 0.577-0.448 0.256-0.833 0.609-1.121 0.993-0.352 0.448-0.577 0.961-0.769 1.473-0.192 0.641-0.288 1.281-0.288 1.954-0.032 0.577-0.032 1.153 0.064 1.73 0.064 0.416 0.128 0.833 0.192 1.281 0.128 0.577 0.224 1.153 0.384 1.73 0.192 0.801 0.384 1.634 0.609 2.434 0.224 0.769 0.48 1.538 0.737 2.306 0.224 0.609 0.48 1.217 0.769 1.826 0.16 0.384 0.384 0.769 0.609 1.121 0.224 0.416 0.513 0.769 0.865 1.057 0.48 0.352 0.833 0.416 1.313 0.032 0.192-0.192 0.384-0.384 0.545-0.577 0.288-0.32 0.545-0.641 0.833-0.961 0.352-0.384 0.705-0.801 1.057-1.185 0.096-0.096 0.16-0.16 0.224-0.256l-0.128-0.096c-0.416-0.448-0.769-0.929-1.025-1.505zM23.511 4.724c0.288 0.32 0.577 0.673 0.833 1.025 0.48 0.705 0.897 1.473 1.185 2.274 0.128 0.384 0.224 0.737 0.192 1.121-0.032 0.288-0.032 0.545-0.064 0.833 0 0.224-0.064 0.448-0.096 0.673-0.032 0.352-0.096 0.705-0.128 1.057 0 0.32 0 0.641 0.032 0.993 0.032 0.32 0.064 0.673 0.096 0.993 0.032 0.384 0.096 0.769 0.096 1.153 0 0.288-0.032 0.609-0.032 0.929-0.032 0.384-0.128 0.737-0.288 1.089-0.096 0.256-0.224 0.48-0.32 0.737l0.096 0.096 0.096-0.128c0.577-0.929 1.089-1.89 1.538-2.883 0.288-0.641 0.577-1.281 0.833-1.922 0.416-1.025 0.737-2.082 0.961-3.139 0.128-0.48 0.192-0.961 0.288-1.441 0.064-0.384 0.096-0.769 0.128-1.153 0-0.416-0.032-0.833-0.064-1.217-0.032-0.32-0.096-0.641-0.288-0.865-0.32-0.416-0.641-0.801-1.057-1.089-0.352-0.256-0.673-0.513-1.057-0.737-0.577-0.352-1.217-0.577-1.89-0.737-0.641-0.128-1.313-0.192-1.954-0.224-0.384 0-0.801 0.032-1.185 0.064-0.352 0.032-0.705 0.096-1.057 0.16 0.384 0.192 0.769 0.384 1.121 0.609 0.737 0.48 1.409 1.057 1.986 1.73zM13.838 17.888c0.256-0.769 0.577-1.473 0.897-2.242 0.256-0.577 0.384-1.217 0.448-1.858 0-0.32 0-0.641 0-0.961-0.032-0.352-0.064-0.737-0.096-1.089-0.096-0.448-0.16-0.897-0.256-1.313-0.128-0.48-0.416-0.833-0.929-0.961-0.288-0.064-0.577-0.064-0.897 0-0.769 0.096-1.441 0.384-2.082 0.801-0.128 0.064-0.192 0.128-0.192 0.32 0.064 0.384 0.064 0.801 0.064 1.185 0 0.545-0.032 1.121-0.032 1.666 0 0.192-0.032 0.384-0.064 0.545-0.032 0.288-0.096 0.577-0.096 0.833 0 0.288 0.032 0.577 0.128 0.865 0.192 0.865 0.673 1.602 1.441 2.114 0.48 0.288 0.993 0.448 1.57 0.48 0.032-0.128 0.064-0.256 0.096-0.384zM12.941 10.361c-0.096-0.192-0.032-0.384 0.192-0.448 0.064-0.032 0.128-0.032 0.16-0.064 0.096 0 0.192 0 0.256 0 0.288 0 0.577 0.064 0.833 0.256 0.16 0.096 0.192 0.256 0.096 0.416-0.16 0.256-0.352 0.352-0.641 0.384-0.416 0.032-0.705-0.16-0.897-0.545zM24.728 10.297c0.032-0.288 0.032-0.577 0.096-0.833 0-0.128-0.064-0.16-0.16-0.16-0.288 0-0.577-0.032-0.897-0.032s-0.641 0.064-0.961 0.192c-0.352 0.128-0.609 0.352-0.737 0.737-0.064 0.288-0.096 0.577-0.064 0.865 0.064 0.448 0.16 0.865 0.288 1.281 0.224 0.577 0.448 1.121 0.705 1.634 0.352 0.737 0.769 1.441 1.121 2.146 0.096 0.192 0.192 0.384 0.288 0.609 0.224-0.48 0.32-0.929 0.352-1.409 0-0.416-0.032-0.801-0.064-1.217 0-0.224-0.032-0.48-0.064-0.737-0.032-0.352-0.096-0.673-0.096-1.025s0.032-0.705 0.064-1.057c0.032-0.32 0.064-0.673 0.128-0.993zM24.055 10.041c-0.128 0.288-0.352 0.448-0.673 0.512-0.288 0.064-0.545-0.064-0.737-0.288-0.128-0.16-0.064-0.352 0.128-0.448 0.224-0.128 0.48-0.16 0.769-0.192 0.096 0 0.224 0.032 0.32 0.064 0.192 0.032 0.224 0.16 0.192 0.352zM15.183 19.458c-0.16-0.128-0.384-0.16-0.545 0-0.192 0.192-0.352 0.384-0.545 0.609s-0.352 0.48-0.609 0.673c-0.384 0.256-0.801 0.352-1.249 0.48-0.352 0.064-0.673 0.16-1.025 0.224v0.064c0.096 0.032 0.192 0.096 0.288 0.128 0.545 0.16 1.057 0.256 1.634 0.192 0.384-0.032 0.769-0.128 1.153-0.288 0.48-0.224 0.865-0.609 1.185-1.057 0.064-0.064 0.096-0.16 0.096-0.256 0.032-0.32-0.16-0.577-0.384-0.769zM28.123 19.586c-0.416 0.032-0.833 0.096-1.281 0.128-0.192 0-0.384-0.032-0.609-0.064-0.352-0.032-0.673-0.096-0.961-0.288-0.192-0.096-0.32-0.128-0.512-0.064-0.256 0.096-0.448 0.224-0.512 0.512-0.064 0.192-0.064 0.384-0.096 0.577 0 0.032 0.064 0.096 0.096 0.096 0.192 0.064 0.384 0.128 0.577 0.128 0.256 0.032 0.512 0.032 0.769 0 0.256 0 0.545-0.032 0.801-0.064 0.641-0.096 1.249-0.288 1.794-0.641 0.192-0.128 0.384-0.256 0.577-0.384l-0.032-0.032c-0.192 0.032-0.384 0.064-0.609 0.096z"></path>
</svg>
