<?xml version="1.0" encoding="utf-8"?>
<!-- Generated by IcoMoon.io -->
<!DOCTYPE svg PUBLIC "-//W3C//DTD SVG 1.1//EN" "http://www.w3.org/Graphics/SVG/1.1/DTD/svg11.dtd">
<svg version="1.1" xmlns="http://www.w3.org/2000/svg" xmlns:xlink="http://www.w3.org/1999/xlink" width="32" height="32" viewBox="0 0 32 32">
<path d="M0.159 11.461c0 0.682 0.412 0.793 3.045 0.856l2.505 0.048 0.476 0.476c0.872 0.888 0.793 2.172-0.19 2.775-0.396 0.238-0.809 0.317-1.728 0.317-0.666 0-1.237 0.048-1.3 0.095-0.19 0.19 0.365 0.999 0.714 1.047 0.238 0.032 0.618 0.507 1.316 1.633 0.793 1.316 1.031 1.586 1.348 1.586 0.618 0 0.555-0.46-0.238-1.839-0.412-0.698-0.714-1.3-0.682-1.316s0.349-0.159 0.714-0.317c0.793-0.349 1.221-0.777 1.554-1.554 0.65-1.57-0.285-3.457-1.95-3.933-0.317-0.079-1.713-0.159-3.076-0.159-2.331 0-2.505 0.016-2.505 0.285zM10.735 11.287c-0.238 0.222-0.048 0.65 1.395 3.14 0.825 1.427 1.506 2.648 1.506 2.696s-0.682 0.079-1.506 0.079c-1.602 0-1.728 0.079-1.348 0.809 0.159 0.27 0.349 0.301 1.887 0.301h1.728l0.587 1.047c0.46 0.809 0.65 1.031 0.904 0.983 0.793-0.111 0.682-0.444-1.062-3.457-3.378-5.82-3.314-5.709-3.663-5.709-0.174 0-0.381 0.048-0.428 0.111zM15.746 11.445c-0.063 0.143 0.032 0.507 0.222 0.825 0.174 0.317 0.84 1.491 1.475 2.632 0.634 1.126 1.269 2.188 1.395 2.331 0.428 0.507 0.777 0.333 1.348-0.714 0.317-0.539 0.809-1.411 1.126-1.919l0.571-0.951v3.108c0 1.713 0.048 3.219 0.095 3.362 0.111 0.301 0.555 0.333 0.825 0.063 0.143-0.143 0.19-1.348 0.19-4.424 0-3.504-0.032-4.266-0.238-4.424-0.476-0.381-0.793-0.063-2.014 2.046-0.666 1.173-1.284 2.188-1.364 2.268-0.095 0.095-0.666-0.729-1.475-2.157-1.11-1.95-1.364-2.315-1.681-2.315-0.206 0-0.428 0.127-0.476 0.27zM26.196 11.366c-0.254 0.254-0.27 8.23-0.032 8.706 0.159 0.285 0.365 0.301 2.934 0.301 2.965 0 3.045-0.032 2.521-0.761-0.222-0.333-0.349-0.349-2.363-0.349h-2.141l-0.032-4.012c-0.048-3.869-0.063-3.996-0.365-4.044-0.174-0.016-0.412 0.048-0.523 0.159z"></path>
</svg>
