<?xml version="1.0" encoding="utf-8"?>
<!-- Generated by IcoMoon.io -->
<!DOCTYPE svg PUBLIC "-//W3C//DTD SVG 1.1//EN" "http://www.w3.org/Graphics/SVG/1.1/DTD/svg11.dtd">
<svg version="1.1" xmlns="http://www.w3.org/2000/svg" xmlns:xlink="http://www.w3.org/1999/xlink" width="32" height="32" viewBox="0 0 32 32">
<path d="M18.866 15.774c0 1.57-1.281 2.851-2.851 2.851s-2.851-1.281-2.851-2.851c0-1.57 1.281-2.851 2.851-2.851s2.851 1.281 2.851 2.851zM26.842 11.066c-0.545-0.192-1.121-0.384-1.73-0.577 0.16-0.609 0.288-1.185 0.384-1.762 0.545-3.299-0.032-5.638-1.634-6.534-0.48-0.288-1.025-0.416-1.602-0.416-1.762 0-4.004 1.313-6.246 3.491-2.242-2.178-4.484-3.491-6.214-3.491-0.609 0-1.153 0.128-1.602 0.416-1.602 0.929-2.178 3.235-1.666 6.534 0.096 0.577 0.224 1.153 0.384 1.762-0.609 0.192-1.185 0.352-1.73 0.577-3.139 1.217-4.837 2.851-4.837 4.709s1.73 3.491 4.837 4.709c0.545 0.192 1.121 0.384 1.73 0.577-0.16 0.609-0.288 1.185-0.384 1.762-0.513 3.299 0.064 5.637 1.666 6.534 0.448 0.288 0.993 0.416 1.602 0.416 1.762 0 4.004-1.313 6.214-3.491 2.242 2.178 4.484 3.491 6.246 3.491 0.577 0 1.121-0.128 1.602-0.416 1.602-0.929 2.178-3.235 1.634-6.534-0.096-0.577-0.224-1.153-0.384-1.762 0.609-0.192 1.185-0.352 1.73-0.577 3.139-1.217 4.837-2.851 4.837-4.709s-1.698-3.491-4.837-4.709zM23.159 3.442c1.025 0.609 1.377 2.434 0.929 5.061-0.064 0.545-0.192 1.089-0.352 1.666-1.281-0.288-2.659-0.512-4.1-0.641-0.865-1.185-1.73-2.274-2.627-3.235 1.858-1.826 3.748-3.075 5.253-3.075 0.352 0 0.641 0.064 0.897 0.224zM20.34 18.273c-0.448 0.801-0.961 1.602-1.505 2.402-0.929 0.064-1.858 0.096-2.819 0.096s-1.89-0.032-2.787-0.096c-0.577-0.801-1.057-1.602-1.505-2.402-0.48-0.833-0.929-1.666-1.345-2.498 0.416-0.833 0.865-1.666 1.345-2.498 0.448-0.801 0.961-1.602 1.505-2.402 0.929-0.096 1.858-0.096 2.819-0.096s1.89 0 2.787 0.096c0.577 0.801 1.057 1.602 1.505 2.402 0.48 0.833 0.929 1.666 1.345 2.498-0.448 0.833-0.865 1.666-1.345 2.498zM22.422 17.44c0.384 0.897 0.673 1.73 0.961 2.595-0.865 0.192-1.762 0.352-2.723 0.48 0.32-0.48 0.641-0.993 0.897-1.505 0.32-0.545 0.577-1.057 0.865-1.57zM16.016 24.231c-0.609-0.641-1.185-1.345-1.73-2.082 0.577 0.032 1.153 0.064 1.73 0.064s1.153-0.032 1.73-0.064c-0.545 0.737-1.121 1.441-1.73 2.082zM11.371 20.483c-0.961-0.128-1.858-0.288-2.723-0.48 0.288-0.833 0.577-1.698 0.961-2.563 0.288 0.48 0.545 1.025 0.865 1.505 0.288 0.545 0.577 1.025 0.897 1.538zM9.609 14.109c-0.384-0.897-0.673-1.73-0.961-2.595 0.865-0.192 1.762-0.352 2.723-0.48-0.32 0.48-0.641 0.993-0.897 1.505-0.32 0.545-0.577 1.057-0.865 1.57zM16.016 7.318c0.609 0.641 1.185 1.345 1.73 2.082-0.577-0.032-1.153-0.064-1.73-0.064s-1.153 0.032-1.73 0.064c0.545-0.737 1.121-1.441 1.73-2.082zM21.557 12.571l-0.897-1.505c0.961 0.128 1.858 0.288 2.723 0.48-0.288 0.833-0.577 1.698-0.961 2.563-0.288-0.512-0.545-1.025-0.865-1.537zM7.944 8.503c-0.448-2.627-0.096-4.452 0.929-5.061 0.256-0.16 0.577-0.224 0.897-0.224 1.505 0 3.363 1.217 5.253 3.075-0.897 0.961-1.762 2.050-2.595 3.235-1.473 0.128-2.851 0.352-4.132 0.641-0.16-0.577-0.256-1.121-0.352-1.666zM1.762 15.774c0-1.185 1.409-2.434 3.908-3.363 0.513-0.192 1.057-0.352 1.602-0.512 0.416 1.249 0.929 2.563 1.505 3.908-0.577 1.313-1.121 2.627-1.505 3.876-3.427-0.993-5.509-2.498-5.509-3.908zM8.873 28.106c-1.025-0.609-1.377-2.434-0.929-5.061 0.064-0.545 0.192-1.089 0.352-1.666 1.281 0.288 2.659 0.512 4.132 0.609 0.833 1.217 1.698 2.306 2.595 3.267-1.858 1.826-3.748 3.075-5.253 3.075-0.32 0-0.641-0.064-0.897-0.224zM24.088 23.045c0.448 2.627 0.096 4.452-0.929 5.061-0.256 0.16-0.545 0.224-0.897 0.224-1.505 0-3.363-1.217-5.253-3.075 0.897-0.961 1.762-2.050 2.627-3.267 1.441-0.096 2.819-0.32 4.1-0.609 0.16 0.577 0.256 1.121 0.352 1.666zM26.362 19.138c-0.512 0.192-1.057 0.352-1.602 0.512-0.416-1.249-0.897-2.563-1.505-3.908 0.609-1.313 1.121-2.627 1.505-3.876 3.459 0.993 5.509 2.498 5.509 3.908 0 1.185-1.441 2.434-3.908 3.363z"></path>
</svg>
