<?xml version="1.0" encoding="utf-8"?>
<!-- Generated by IcoMoon.io -->
<!DOCTYPE svg PUBLIC "-//W3C//DTD SVG 1.1//EN" "http://www.w3.org/Graphics/SVG/1.1/DTD/svg11.dtd">
<svg version="1.1" xmlns="http://www.w3.org/2000/svg" xmlns:xlink="http://www.w3.org/1999/xlink" width="32" height="32" viewBox="0 0 32 32">
<path d="M1.538 12.956c1.698 0.801 10.955 4.516 12.396 5.221s2.498 0.705 4.356-0.256c1.858-0.961 10.57-4.516 12.236-5.413 0.865-0.448 1.217-0.801 1.217-1.089v-3.139c0-0.32-0.416-0.577-1.249-0.897-1.602-0.609-10.282-4.036-11.916-4.645-1.666-0.609-2.338-0.577-4.292 0.128s-11.147 4.292-12.78 4.965c-0.801 0.32-1.249 0.577-1.249 0.897h-0.064v3.203c0.064 0.288 0.545 0.609 1.345 1.025zM16.656 13.404l-5.061-2.114 7.271-1.121-2.21 3.235zM27.707 8.375l-4.292 1.73-0.48 0.16-4.324-1.698 4.805-1.89 4.292 1.698zM15.055 5.268l-0.705-1.313 2.178 0.865 2.082-0.673-0.545 1.345 2.114 0.801-2.723 0.256-0.609 1.505-0.993-1.634-3.139-0.288 2.338-0.865zM9.609 7.094c2.146 0 3.908 0.673 3.908 1.505s-1.762 1.505-3.908 1.505-3.908-0.673-3.908-1.505 1.762-1.505 3.908-1.505zM30.526 14.717c-1.666 0.865-10.346 4.452-12.204 5.413s-2.883 0.961-4.324 0.256-10.762-4.452-12.428-5.253c-0.833-0.384-1.313-0.705-1.313-1.025v3.171c0 0.32 0.48 0.641 1.281 1.057 1.698 0.801 10.955 4.516 12.396 5.221s2.498 0.705 4.356-0.256c1.858-0.961 10.57-4.516 12.236-5.413 0.865-0.448 1.217-0.801 1.217-1.089v-3.139c0 0.288-0.384 0.641-1.217 1.057zM30.526 19.906c-1.666 0.865-10.346 4.452-12.204 5.413s-2.883 0.929-4.324 0.224-10.762-4.42-12.428-5.221c-0.833-0.384-1.313-0.737-1.313-1.057v3.203c0 0.32 0.48 0.641 1.281 1.025 1.698 0.801 10.955 4.548 12.396 5.253s2.498 0.705 4.356-0.256c1.858-0.993 10.57-4.548 12.236-5.413 0.865-0.448 1.217-0.801 1.217-1.089v-3.139c0 0.288-0.384 0.641-1.217 1.057z"></path>
</svg>
