<?xml version="1.0" encoding="utf-8"?>
<!-- Generated by IcoMoon.io -->
<!DOCTYPE svg PUBLIC "-//W3C//DTD SVG 1.1//EN" "http://www.w3.org/Graphics/SVG/1.1/DTD/svg11.dtd">
<svg version="1.1" xmlns="http://www.w3.org/2000/svg" xmlns:xlink="http://www.w3.org/1999/xlink" width="47" height="32" viewBox="0 0 47 32">
<path d="M13.296 4.793c-0.915 0.252-1.763 0.484-1.887 0.518s-0.22 0.071-0.218 0.080c0.005 0.011 0.878 1.068 1.944 2.348l1.937 2.325 3.625 0.002 1.692-2.341c0.928-1.288 1.687-2.345 1.683-2.348-0.005-0.005-0.763-0.241-1.69-0.525l-1.68-0.518-3.744 0.002-1.662 0.456zM7.136 8.365c-1.49 1.206-2.71 2.199-2.71 2.205-0.002 0.007 1.165 0.653 2.591 1.437l2.593 1.426 2.072-1.424c1.142-0.784 2.070-1.433 2.068-1.444-0.011-0.032-3.87-4.397-3.888-4.395-0.009 0-1.236 0.988-2.726 2.194zM21.698 8.358c-1.059 1.204-1.928 2.196-1.933 2.208-0.002 0.011 0.926 0.66 2.066 1.444l2.072 1.424 2.593-1.426c1.428-0.784 2.595-1.431 2.593-1.437-0.002-0.018-5.413-4.39-5.44-4.395-0.014-0.002-0.892 0.981-1.951 2.183zM2.606 14.956c-0.704 1.829-1.284 3.349-1.291 3.375-0.011 0.044 0.181 0.092 3.223 0.821 1.781 0.426 3.242 0.773 3.246 0.766 0.007-0.005 0.346-1.185 0.757-2.62 0.41-1.437 0.759-2.659 0.777-2.719l0.030-0.105-2.707-1.419c-1.488-0.779-2.717-1.419-2.73-1.421-0.014-0.005-0.601 1.492-1.304 3.324zM26.88 13.048c-2.107 1.105-2.705 1.428-2.701 1.46 0.009 0.062 1.536 5.392 1.55 5.406 0.018 0.021 6.481-1.536 6.479-1.561-0.002-0.055-2.579-6.715-2.6-6.719-0.011-0.002-1.24 0.633-2.728 1.414zM1.022 19.502c-0.023 0.14-1.022 7.662-1.022 7.689 0 0.016 1.165 0.023 3.634 0.023 1.999 0 3.634-0.002 3.636-0.007 0.018-0.092 0.516-6.222 0.507-6.231-0.014-0.011-6.412-1.495-6.678-1.55-0.057-0.011-0.062-0.005-0.076 0.076zM29.069 20.197l-3.336 0.773 0.005 0.112c0.009 0.174 0.488 5.972 0.502 6.057l0.011 0.076h3.631c1.999 0 3.634-0.005 3.634-0.011 0-0.014-0.997-7.515-1.022-7.687-0.011-0.069-0.025-0.096-0.053-0.094-0.021 0-1.538 0.351-3.372 0.775z"></path>
</svg>
