<?xml version="1.0" standalone="no"?>
<!DOCTYPE svg PUBLIC "-//W3C//DTD SVG 20010904//EN"
 "http://www.w3.org/TR/2001/REC-SVG-20010904/DTD/svg10.dtd">
<svg version="1.0" xmlns="http://www.w3.org/2000/svg"
 width="3440.000000pt" height="3109.000000pt" viewBox="0 0 3440.000000 3109.000000"
 preserveAspectRatio="xMidYMid meet">
<metadata>
Created by potrace 1.13, written by Peter Selinger 2001-2015
</metadata>
<g transform="translate(0.000000,3109.000000) scale(0.100000,-0.100000)">
<path d="M17037 31084 c-1 -1 -69 -5 -152 -8 -82 -4 -166 -9 -185 -10 -19 -2
-75 -7 -125 -11 -49 -3 -97 -8 -105 -10 -8 -2 -46 -6 -83 -10 -37 -3 -77 -8
-89 -10 -11 -3 -46 -7 -77 -11 -31 -3 -63 -8 -73 -9 -9 -2 -38 -6 -65 -10 -40
-6 -149 -24 -288 -50 -16 -3 -46 -8 -65 -11 -19 -3 -38 -8 -41 -10 -3 -2 -21
-6 -40 -9 -19 -3 -54 -11 -79 -16 -25 -6 -54 -12 -65 -15 -11 -2 -58 -13 -105
-25 -47 -11 -92 -22 -100 -24 -8 -2 -73 -20 -145 -40 -1062 -293 -2090 -812
-3010 -1520 -176 -135 -426 -343 -531 -440 -6 -5 -49 -44 -95 -85 -46 -41
-176 -167 -289 -280 -186 -186 -247 -249 -390 -406 -42 -46 -192 -219 -237
-274 -12 -14 -38 -45 -59 -70 -22 -25 -52 -63 -69 -84 -16 -22 -48 -62 -71
-90 -285 -357 -690 -962 -882 -1316 -13 -25 -27 -49 -32 -55 -14 -19 -169
-312 -244 -463 -105 -210 -193 -400 -276 -597 -23 -55 -48 -113 -55 -130 -131
-299 -407 -1101 -550 -1600 -77 -266 -195 -721 -210 -804 -3 -19 -8 -38 -10
-41 -3 -4 -7 -25 -10 -46 -4 -22 -10 -52 -15 -69 -5 -16 -11 -43 -14 -60 -3
-16 -10 -48 -15 -70 -5 -22 -12 -51 -15 -65 -2 -14 -10 -50 -16 -80 -6 -30
-13 -66 -15 -80 -3 -14 -7 -36 -10 -50 -3 -14 -7 -37 -10 -52 -2 -15 -6 -35
-9 -45 -3 -10 -8 -38 -11 -63 -3 -25 -8 -52 -11 -61 -3 -10 -7 -30 -9 -45 -2
-16 -9 -56 -15 -89 -6 -33 -13 -76 -16 -95 -3 -19 -14 -89 -24 -155 -19 -121
-23 -150 -35 -240 -4 -27 -9 -61 -11 -75 -2 -14 -7 -48 -9 -76 -3 -28 -7 -60
-9 -70 -2 -11 -7 -50 -11 -89 -4 -38 -9 -83 -11 -100 -15 -125 -28 -264 -39
-395 -3 -41 -8 -93 -10 -115 -2 -22 -7 -94 -11 -160 -4 -66 -8 -138 -9 -160
-21 -322 -28 -1291 -11 -1590 4 -77 9 -169 11 -205 4 -81 16 -253 20 -300 2
-19 6 -82 10 -140 4 -58 8 -112 10 -120 2 -8 7 -51 10 -95 4 -44 8 -91 10
-105 2 -14 7 -52 10 -85 3 -33 8 -76 10 -95 3 -19 9 -75 15 -125 13 -102 18
-147 25 -190 3 -16 7 -50 10 -75 3 -25 7 -56 10 -70 2 -14 7 -45 10 -70 6 -42
41 -264 51 -320 2 -14 7 -41 10 -60 3 -19 12 -73 21 -120 9 -47 17 -94 19
-105 9 -65 61 -319 110 -542 75 -337 77 -347 114 -492 17 -68 33 -131 35 -140
1 -9 9 -36 16 -61 7 -25 13 -50 15 -56 3 -17 74 -273 85 -309 5 -16 41 -136
79 -267 158 -534 394 -1203 585 -1663 7 -16 34 -82 60 -145 25 -63 83 -198
127 -300 83 -189 103 -236 168 -375 20 -44 54 -118 76 -165 123 -267 457 -922
619 -1210 26 -47 61 -110 77 -140 28 -50 105 -185 135 -235 28 -47 35 -70 24
-85 -50 -72 -185 -383 -217 -497 -8 -29 -21 -78 -29 -108 -74 -275 -90 -648
-38 -945 8 -47 16 -94 18 -105 12 -77 79 -295 115 -380 8 -16 14 -32 15 -35 8
-23 32 -76 67 -144 258 -514 697 -917 1223 -1126 76 -30 248 -86 286 -94 13
-2 67 -13 119 -24 314 -67 657 -61 990 14 72 17 224 60 255 73 11 5 40 16 65
26 84 32 275 127 360 178 581 351 1006 987 1096 1642 3 28 8 58 10 68 21 117
20 485 -2 589 -2 13 -7 41 -10 63 -3 22 -9 60 -15 85 -5 25 -11 55 -14 68 -9
52 -48 183 -82 277 -129 363 -357 695 -658 960 -72 64 -116 98 -225 176 -53
38 -176 110 -265 156 -75 38 -298 129 -340 138 -5 2 -41 12 -80 23 -83 25
-244 57 -335 67 -36 4 -78 9 -95 11 -43 6 -374 6 -383 1 -6 -4 -101 -15 -171
-20 -21 -2 -38 23 -148 213 -68 118 -127 222 -131 230 -7 19 -159 300 -172
320 -6 8 -13 22 -16 30 -3 8 -10 24 -17 35 -6 11 -57 112 -113 225 -458 919
-791 1780 -1073 2780 -66 233 -213 840 -237 974 -3 17 -14 74 -24 126 -11 52
-24 122 -30 155 -6 33 -13 69 -15 80 -8 40 -84 501 -89 545 -3 25 -8 55 -10
67 -3 12 -7 46 -11 75 -3 29 -8 64 -10 78 -5 38 -14 115 -20 168 -3 26 -7 61
-10 77 -2 17 -6 59 -10 95 -3 36 -8 76 -10 90 -2 14 -7 63 -10 110 -4 47 -8
96 -10 110 -6 43 -19 210 -31 395 -3 55 -7 125 -9 155 -26 419 -26 1472 0
1790 2 25 6 101 10 170 3 69 8 150 11 180 3 30 7 80 9 110 15 194 18 227 21
243 2 10 6 53 10 95 3 42 8 85 9 94 2 9 6 45 10 80 3 35 8 74 10 88 4 25 11
73 19 145 3 22 8 56 10 75 36 236 48 313 56 355 5 28 12 64 15 80 3 17 7 40 9
51 2 12 7 37 10 55 3 19 10 59 16 89 7 30 14 69 17 85 2 17 11 62 20 100 8 39
16 79 19 90 2 11 6 29 9 40 14 62 47 203 51 223 25 124 163 614 238 847 115
359 287 815 391 1040 8 17 32 71 53 120 169 389 424 865 705 1319 143 231 399
597 587 840 63 81 122 158 130 170 8 11 24 31 35 42 11 12 36 41 55 65 60 74
120 139 255 275 175 176 256 247 511 453 96 77 393 282 539 371 385 236 833
455 1255 615 69 26 152 58 185 70 52 20 435 143 490 158 11 3 70 19 130 36
210 58 553 138 670 155 11 2 47 8 80 15 33 6 78 13 100 16 22 3 63 10 90 15
54 10 90 14 230 31 136 15 261 27 375 35 77 6 492 6 555 0 33 -3 98 -8 145
-11 47 -3 96 -8 110 -10 14 -3 48 -7 75 -10 28 -4 75 -10 105 -15 30 -5 75
-12 100 -15 67 -9 264 -52 397 -85 636 -162 1271 -481 1843 -926 269 -210 636
-561 887 -850 179 -206 459 -570 573 -744 5 -8 32 -48 60 -88 27 -41 50 -75
50 -76 0 -2 22 -36 49 -77 51 -78 221 -358 221 -364 0 -2 13 -26 29 -53 30
-52 58 -102 131 -237 48 -88 260 -511 260 -518 0 -3 18 -43 39 -89 80 -169
322 -756 336 -813 1 -5 5 -17 8 -25 66 -161 280 -844 332 -1060 2 -8 18 -71
35 -140 35 -140 34 -132 89 -395 21 -104 42 -210 46 -235 3 -25 8 -52 10 -60
2 -8 7 -35 10 -60 3 -25 8 -52 10 -60 2 -8 7 -35 10 -60 7 -61 16 -119 22
-155 2 -16 6 -50 8 -75 2 -25 6 -58 9 -75 2 -16 8 -73 11 -125 4 -52 9 -97 12
-100 2 -3 89 -26 191 -53 103 -26 194 -49 202 -51 236 -61 862 -253 1320 -406
195 -65 363 -121 372 -125 13 -5 16 -2 14 12 -2 10 -7 56 -11 103 -3 47 -8
103 -10 125 -1 22 -6 76 -10 120 -4 44 -8 91 -10 105 -2 14 -6 52 -10 85 -3
33 -8 78 -10 100 -2 22 -7 65 -10 95 -3 30 -8 69 -10 85 -3 17 -7 50 -10 75
-3 25 -8 59 -10 75 -3 17 -7 53 -10 80 -4 28 -8 61 -10 75 -3 14 -7 45 -11 70
-3 25 -7 52 -9 60 -2 8 -7 38 -10 65 -3 28 -8 59 -10 71 -3 12 -7 39 -10 60
-3 21 -8 50 -11 64 -3 13 -7 40 -10 60 -2 19 -11 69 -19 110 -8 41 -26 134
-39 205 -14 72 -28 141 -30 155 -3 14 -14 68 -26 120 -11 52 -22 104 -24 115
-18 92 -102 434 -170 685 -25 94 -106 370 -138 470 -80 251 -132 402 -238 690
-70 189 -205 514 -321 770 -45 102 -276 563 -340 680 -246 455 -527 893 -837
1305 -151 200 -207 269 -410 507 -100 117 -127 148 -252 281 -178 191 -504
505 -670 645 -14 11 -36 31 -50 43 -76 66 -242 199 -365 293 -77 58 -144 110
-150 114 -5 4 -32 23 -60 42 -27 18 -52 36 -55 40 -13 16 -436 290 -535 346
-22 12 -92 52 -155 89 -256 147 -685 349 -990 468 -338 132 -758 259 -1091
331 -51 11 -405 77 -434 81 -16 2 -43 6 -60 9 -16 2 -52 7 -80 11 -27 3 -61 8
-75 10 -23 3 -56 7 -185 20 -22 3 -74 7 -115 10 -41 3 -111 8 -155 11 -72 5
-622 13 -628 8z"/>
<path d="M15060 21449 c-119 -15 -145 -18 -166 -23 -12 -2 -38 -7 -59 -10 -93
-15 -318 -80 -400 -116 -11 -5 -58 -25 -105 -46 -620 -272 -1104 -832 -1291
-1494 -16 -58 -32 -121 -35 -140 -3 -19 -8 -38 -9 -41 -2 -3 -7 -28 -10 -55
-4 -27 -8 -56 -11 -64 -25 -90 -25 -532 0 -666 2 -11 7 -39 11 -64 53 -323
182 -640 376 -925 38 -55 79 -112 91 -127 13 -14 39 -45 58 -69 119 -145 395
-384 536 -463 16 -9 43 -25 59 -35 223 -134 563 -257 790 -287 28 -3 53 -8 56
-10 16 -9 181 -19 329 -19 188 0 299 9 435 36 28 5 59 11 70 13 184 36 410
123 653 250 35 19 254 164 262 175 3 3 28 24 55 46 156 124 302 280 426 455
90 127 135 202 201 337 40 82 55 103 72 104 11 0 48 2 81 4 335 16 477 20 840
20 359 0 580 -6 785 -20 25 -2 90 -6 145 -9 55 -4 127 -9 160 -11 33 -3 85 -7
115 -10 103 -8 185 -16 220 -20 19 -2 64 -7 100 -10 36 -3 76 -8 90 -10 14 -2
52 -7 85 -10 33 -3 71 -8 85 -10 14 -2 54 -7 90 -11 36 -4 67 -8 70 -9 3 -1
32 -5 65 -9 96 -12 127 -16 185 -26 30 -5 75 -12 100 -15 25 -3 52 -8 60 -10
8 -2 35 -7 60 -10 71 -10 202 -33 370 -65 85 -16 166 -31 180 -34 105 -20 460
-98 555 -122 62 -17 84 -22 124 -30 25 -5 67 -16 326 -86 773 -207 1627 -514
2350 -846 72 -32 153 -69 180 -82 83 -37 563 -276 660 -328 50 -26 140 -74
200 -107 61 -32 132 -71 158 -87 26 -15 50 -28 52 -28 3 0 34 -18 70 -40 36
-22 67 -40 70 -40 5 0 426 -253 530 -318 44 -28 107 -68 140 -88 245 -153 841
-565 965 -667 8 -7 56 -44 105 -82 92 -70 260 -203 305 -241 35 -30 377 -324
409 -352 187 -166 650 -623 816 -806 50 -54 95 -104 100 -110 8 -9 113 -130
222 -256 23 -27 104 -126 193 -236 30 -38 112 -145 182 -239 70 -93 131 -175
136 -180 5 -6 17 -24 28 -40 10 -17 21 -32 24 -35 34 -32 355 -528 482 -745
283 -482 523 -971 719 -1465 39 -96 74 -184 79 -195 23 -50 143 -413 180 -545
24 -82 60 -216 65 -240 2 -8 15 -62 29 -120 14 -58 28 -120 31 -139 3 -19 8
-37 10 -40 2 -4 6 -26 10 -51 4 -25 8 -47 10 -50 2 -3 6 -24 9 -46 4 -22 8
-49 10 -59 2 -11 7 -42 10 -68 4 -27 9 -59 12 -70 3 -18 12 -79 29 -212 2 -19
15 -144 21 -215 22 -244 21 -770 -1 -945 -2 -16 -7 -61 -10 -100 -3 -38 -8
-77 -10 -85 -2 -8 -7 -40 -10 -70 -3 -30 -10 -77 -15 -105 -5 -27 -11 -66 -14
-85 -3 -19 -10 -60 -16 -90 -6 -30 -13 -64 -14 -75 -24 -153 -138 -545 -228
-785 -40 -105 -48 -125 -87 -212 -11 -26 -21 -51 -21 -54 0 -14 -166 -345
-232 -464 -68 -122 -205 -355 -220 -375 -4 -5 -49 -73 -100 -150 -50 -77 -104
-156 -118 -175 -15 -19 -62 -82 -105 -140 -67 -90 -238 -305 -255 -320 -3 -3
-39 -43 -80 -90 -140 -160 -417 -431 -596 -581 -545 -461 -1194 -828 -1869
-1059 -102 -35 -339 -108 -370 -115 -5 -1 -30 -7 -55 -14 -25 -7 -52 -14 -60
-16 -38 -8 -158 -37 -185 -45 -30 -8 -114 -26 -171 -36 -16 -2 -40 -7 -54 -9
-42 -9 -66 -13 -101 -19 -19 -3 -45 -8 -58 -11 -14 -2 -61 -9 -105 -15 -45 -6
-92 -13 -106 -15 -38 -6 -99 -13 -160 -20 -30 -3 -71 -8 -90 -10 -404 -49
-1168 -49 -1610 0 -19 2 -71 7 -115 10 -44 4 -87 9 -95 10 -9 2 -43 6 -75 10
-167 20 -209 25 -232 30 -12 3 -41 7 -65 10 -24 3 -68 10 -98 15 -30 5 -73 12
-95 15 -22 4 -47 8 -55 10 -8 2 -31 7 -50 10 -19 3 -80 15 -135 26 -55 11
-111 22 -125 25 -14 2 -45 9 -70 14 -25 6 -54 12 -65 14 -93 19 -445 107 -585
147 -58 17 -112 32 -120 34 -25 6 -310 95 -401 125 -257 87 -577 209 -772 296
-98 43 -99 44 -123 25 -19 -15 -136 -118 -188 -166 -57 -52 -373 -316 -481
-400 -21 -16 -43 -35 -49 -40 -14 -13 -276 -221 -321 -255 -18 -14 -158 -122
-311 -241 -154 -118 -326 -251 -384 -294 -58 -43 -109 -82 -114 -86 -5 -4 27
-24 70 -44 639 -297 1292 -545 1934 -736 187 -56 547 -154 639 -174 9 -2 57
-13 106 -25 163 -37 427 -93 503 -106 27 -5 180 -33 217 -40 10 -2 37 -6 60
-9 60 -9 97 -15 125 -20 39 -7 82 -14 125 -19 22 -3 90 -12 150 -20 61 -8 139
-18 175 -22 36 -3 72 -7 81 -9 8 -2 51 -6 95 -10 43 -4 95 -8 114 -10 31 -3
112 -9 260 -20 350 -26 1122 -26 1430 0 19 1 76 6 125 9 92 7 170 15 215 21
14 2 57 6 95 10 79 7 120 12 220 25 39 5 90 12 115 15 25 3 52 8 60 10 8 2 35
7 60 10 25 2 56 7 70 10 14 3 39 7 57 10 43 5 133 22 248 45 28 5 65 12 84 15
46 8 387 87 531 124 170 43 540 152 585 172 11 4 54 19 95 32 185 60 596 219
758 293 41 19 75 34 77 34 21 0 572 275 740 370 688 386 1307 840 1828 1340
94 90 321 318 352 354 25 29 172 193 189 211 71 77 341 419 418 530 179 258
315 475 420 670 71 131 191 379 233 481 20 49 43 103 50 119 79 179 271 792
298 952 3 15 15 71 27 123 42 185 81 407 105 599 3 23 7 55 9 70 3 14 8 60 11
101 4 41 9 82 10 90 3 14 12 117 20 225 25 320 25 915 0 1220 -1 22 -6 81 -10
130 -3 50 -8 100 -10 112 -2 12 -6 57 -10 100 -4 43 -8 89 -11 103 -2 14 -6
45 -10 70 -3 25 -12 92 -20 150 -9 58 -17 121 -20 140 -3 19 -9 58 -14 85 -5
28 -12 66 -15 85 -60 374 -226 1017 -373 1450 -59 171 -194 531 -232 615 -5
11 -23 54 -40 95 -17 41 -38 89 -45 105 -7 17 -32 71 -54 122 -106 241 -330
678 -495 961 -276 476 -647 1018 -975 1423 -47 59 -95 118 -106 132 -57 71
-343 404 -479 557 -342 385 -924 967 -1256 1256 -25 21 -47 41 -50 44 -8 8
-151 133 -189 166 -19 16 -53 45 -75 64 -346 303 -958 763 -1446 1087 -135 90
-250 167 -257 173 -7 5 -15 10 -19 10 -4 0 -22 11 -40 25 -18 14 -35 25 -38
25 -3 0 -43 24 -88 53 -175 113 -579 347 -883 512 -99 54 -654 333 -750 377
-44 21 -120 56 -170 79 -113 52 -495 219 -501 219 -2 0 -23 9 -47 19 -256 118
-1092 419 -1542 556 -129 40 -490 144 -515 150 -8 2 -73 19 -145 38 -71 19
-159 42 -195 51 -36 8 -130 31 -210 51 -79 19 -155 37 -167 40 -13 2 -31 6
-41 9 -9 3 -28 7 -42 10 -14 2 -54 11 -90 19 -67 17 -519 108 -625 127 -33 5
-71 12 -85 15 -14 3 -108 19 -210 36 -203 33 -221 36 -265 43 -32 5 -235 34
-300 42 -78 10 -110 15 -135 19 -14 2 -52 7 -85 11 -33 3 -73 8 -90 10 -16 2
-57 6 -90 9 -33 4 -67 8 -75 10 -8 2 -53 7 -100 11 -47 3 -93 8 -102 9 -17 4
-90 11 -198 20 -30 2 -80 6 -110 9 -70 7 -247 20 -405 30 -75 5 -221 13 -380
21 -359 18 -1143 24 -1462 11 l-153 -6 -21 43 c-12 23 -54 92 -94 152 -228
344 -524 611 -878 794 -242 125 -528 215 -787 246 -85 10 -427 13 -500 4z"/>
<path d="M5995 16499 c-5 -5 -46 -36 -90 -69 -44 -32 -84 -63 -90 -67 -5 -5
-44 -33 -85 -63 -41 -30 -84 -62 -95 -71 -11 -9 -112 -90 -225 -180 -113 -90
-207 -166 -210 -169 -3 -3 -50 -43 -105 -90 -55 -47 -105 -89 -111 -95 -6 -5
-42 -37 -80 -70 -37 -33 -91 -81 -119 -107 -28 -26 -62 -56 -75 -68 -281 -243
-893 -879 -1163 -1211 -15 -19 -61 -74 -102 -124 -40 -49 -103 -128 -140 -175
-36 -47 -72 -92 -78 -100 -7 -8 -55 -73 -107 -145 -52 -71 -98 -134 -103 -140
-39 -50 -223 -325 -362 -540 -256 -398 -620 -1106 -785 -1532 -17 -43 -35 -87
-40 -98 -6 -11 -22 -51 -36 -90 -14 -38 -37 -99 -51 -135 -44 -117 -160 -472
-202 -618 -69 -239 -173 -672 -206 -857 -3 -16 -7 -43 -10 -60 -27 -153 -35
-200 -45 -265 -6 -41 -13 -91 -16 -110 -2 -19 -6 -48 -8 -65 -12 -81 -26 -197
-32 -260 -4 -38 -8 -83 -9 -100 -4 -34 -16 -190 -20 -250 -23 -314 -23 -982 0
-1205 2 -19 6 -73 9 -120 4 -47 8 -98 10 -115 2 -16 7 -64 11 -105 3 -41 8
-86 10 -100 3 -14 7 -45 10 -70 2 -25 7 -61 10 -80 2 -19 7 -55 10 -80 11 -82
76 -454 90 -518 8 -34 17 -77 20 -95 3 -17 17 -79 31 -137 31 -125 33 -134 39
-160 2 -12 14 -55 25 -98 12 -42 24 -86 26 -97 28 -138 231 -726 344 -995 126
-299 287 -621 450 -895 363 -609 817 -1136 1425 -1652 48 -41 161 -129 360
-281 148 -114 566 -383 770 -498 598 -335 1200 -588 1910 -803 93 -28 354 -98
394 -106 10 -2 38 -8 62 -15 24 -6 60 -15 79 -20 67 -17 276 -61 405 -85 72
-14 144 -28 160 -31 33 -6 37 -7 210 -34 108 -17 157 -24 330 -45 28 -3 59 -8
70 -10 11 -2 52 -7 90 -10 39 -3 112 -10 164 -16 51 -5 137 -12 190 -15 53 -3
114 -7 136 -9 223 -23 1105 -23 1355 0 19 1 78 6 130 9 52 4 115 9 140 11 25
2 77 7 115 11 39 3 81 7 95 9 14 1 54 6 90 9 36 4 76 9 90 11 35 5 129 17 165
21 17 2 62 8 100 14 39 5 86 12 105 15 19 3 46 7 60 10 14 3 41 7 60 9 29 3
294 51 390 71 14 2 39 7 55 10 17 3 48 10 70 15 22 5 108 23 190 40 83 18 229
50 325 72 96 22 182 41 191 43 36 7 394 99 544 140 476 130 800 232 1415 446
30 10 64 23 75 28 11 5 72 28 135 51 165 60 436 168 615 245 422 181 622 274
956 440 254 127 408 207 604 315 33 18 78 43 100 55 345 189 836 495 1309 817
173 118 650 473 826 615 225 181 474 389 584 488 6 6 49 44 96 85 329 290 768
721 1100 1080 58 63 112 121 120 130 8 8 64 72 124 140 60 69 123 140 139 159
56 63 192 225 252 301 33 41 70 85 83 98 12 13 22 26 22 30 0 4 10 18 23 32
13 14 47 57 77 95 30 39 59 76 64 82 46 54 230 300 386 518 148 208 345 497
475 700 31 50 72 113 90 140 93 143 379 630 502 855 119 217 175 323 277 525
64 126 120 233 124 237 6 6 44 13 177 35 17 2 66 14 110 25 44 11 87 21 95 23
8 2 53 17 100 33 558 192 1013 577 1298 1097 88 160 186 411 216 555 3 14 12
55 20 91 40 177 57 515 36 699 -14 114 -21 163 -25 170 -2 3 -6 25 -10 50 -16
110 -91 350 -151 485 -10 22 -18 42 -19 45 0 3 -6 14 -12 25 -6 11 -30 56 -53
99 -145 276 -381 552 -645 753 -266 203 -657 379 -945 427 -24 4 -103 18 -124
22 -141 26 -537 25 -691 -1 -85 -15 -196 -38 -245 -52 -773 -209 -1376 -782
-1626 -1543 -24 -70 -62 -220 -69 -265 -1 -11 -5 -36 -9 -55 -13 -73 -16 -97
-23 -170 -13 -138 -5 -511 12 -540 1 -3 5 -29 9 -58 29 -248 159 -595 319
-852 71 -114 194 -274 272 -354 61 -63 61 -50 -6 -182 -34 -65 -71 -137 -84
-159 -12 -22 -42 -76 -65 -120 -72 -134 -220 -391 -287 -500 -7 -11 -27 -45
-45 -75 -17 -30 -39 -66 -49 -80 -9 -14 -32 -50 -50 -80 -147 -238 -410 -619
-619 -894 -74 -99 -144 -191 -155 -205 -10 -14 -46 -60 -80 -101 -33 -41 -65
-82 -72 -90 -35 -46 -334 -399 -373 -440 -8 -9 -55 -61 -105 -115 -49 -55
-121 -133 -160 -174 -97 -104 -483 -489 -585 -585 -47 -43 -107 -100 -135
-125 -27 -26 -90 -83 -140 -126 -49 -44 -95 -84 -101 -90 -37 -34 -135 -118
-160 -137 -16 -13 -39 -32 -50 -43 -12 -11 -30 -27 -40 -35 -11 -8 -91 -74
-179 -146 -568 -465 -1377 -1029 -2019 -1409 -19 -11 -54 -32 -78 -46 -56 -34
-400 -234 -453 -263 -22 -13 -58 -33 -80 -46 -22 -13 -74 -41 -115 -63 -41
-22 -79 -43 -85 -47 -10 -7 -101 -56 -320 -172 -269 -143 -789 -392 -990 -474
-33 -14 -73 -31 -90 -39 -151 -69 -504 -203 -795 -303 -266 -92 -718 -229
-810 -247 -13 -2 -37 -9 -54 -14 -17 -6 -42 -13 -56 -15 -14 -3 -89 -21 -167
-40 -154 -38 -386 -88 -518 -112 -16 -3 -75 -14 -130 -24 -55 -11 -122 -22
-150 -26 -27 -3 -59 -8 -70 -10 -11 -3 -36 -7 -55 -10 -19 -2 -46 -7 -60 -9
-14 -3 -47 -7 -75 -10 -27 -3 -61 -8 -75 -10 -26 -4 -104 -13 -250 -30 -25 -2
-70 -7 -100 -11 -61 -7 -104 -10 -235 -19 -49 -4 -106 -8 -125 -10 -238 -25
-1159 -25 -1410 0 -19 2 -80 6 -135 10 -55 4 -113 8 -130 10 -16 2 -64 7 -105
11 -41 3 -83 8 -93 10 -10 2 -46 6 -80 9 -34 4 -93 11 -132 16 -38 5 -88 12
-110 15 -40 5 -244 38 -300 49 -154 30 -252 50 -360 76 -209 49 -660 182 -740
218 -11 5 -90 36 -176 70 -349 135 -655 290 -987 498 -59 37 -111 71 -117 75
-5 4 -68 50 -140 101 -499 358 -917 788 -1272 1309 -97 143 -251 392 -320 518
-17 30 -44 80 -60 110 -95 172 -226 449 -305 645 -71 176 -162 431 -188 530
-5 17 -18 62 -30 100 -11 39 -23 79 -25 90 -3 11 -18 72 -34 135 -28 107 -85
391 -95 470 -3 19 -7 49 -10 65 -2 17 -8 54 -11 84 -4 30 -8 61 -10 70 -9 49
-22 206 -31 386 -12 236 -7 583 11 770 11 112 16 163 20 195 3 19 7 58 10 85
3 28 7 57 10 65 2 8 6 38 10 65 3 28 17 111 31 185 14 74 28 146 30 160 3 14
7 32 9 40 2 8 7 29 10 45 4 23 81 320 99 380 1 6 8 30 15 55 7 25 38 119 68
210 217 647 526 1265 956 1910 71 107 138 206 149 220 10 14 75 101 145 195
111 150 177 236 231 300 9 11 34 43 56 70 22 28 42 52 46 55 3 3 21 25 40 49
19 25 44 54 55 66 11 11 45 49 75 84 243 282 744 788 960 971 14 11 39 33 55
48 17 16 89 77 160 136 72 60 139 116 151 126 12 9 55 43 98 75 42 32 76 61
76 64 0 4 -14 47 -30 97 -67 195 -205 686 -300 1064 -34 135 -70 279 -80 320
-11 41 -21 86 -24 100 -2 14 -11 52 -19 85 -9 33 -18 71 -21 85 -2 14 -10 48
-16 75 -6 28 -13 57 -15 65 -2 8 -14 63 -26 123 -22 102 -31 118 -54 96z"/>
</g>
</svg>
