<?xml version="1.0" encoding="utf-8"?>
<!-- Generated by IcoMoon.io -->
<!DOCTYPE svg PUBLIC "-//W3C//DTD SVG 1.1//EN" "http://www.w3.org/Graphics/SVG/1.1/DTD/svg11.dtd">
<svg version="1.1" xmlns="http://www.w3.org/2000/svg" xmlns:xlink="http://www.w3.org/1999/xlink" width="32" height="32" viewBox="0 0 32 32">
<path d="M30.462-0.241v0c0.192 0 0.384 0.192 0.384 0.384v27.034c0 0.224-0.192 0.384-0.384 0.384h-19.667c-0.224 0-0.384-0.16-0.384-0.384v-4.484c-0.577 1.762-1.025 3.107-1.121 3.395-0.577 1.762-2.338 1.73-3.652 1.281-1.313-0.416-1.666-0.545-1.666-0.545s-0.352-0.128-1.666-0.545c-1.313-0.448-2.755-1.473-2.178-3.203 0.32-0.929 4.004-12.076 4.548-13.773 0.641-1.89 2.338-1.537 4.1-0.929 0.865 0.288 1.153 0.384 1.153 0.384s0.16 0.032 0.48 0.128v-8.745c0-0.192 0.16-0.384 0.384-0.384h19.667zM20.852 0.816c-0.288 0-0.512 0.256-0.512 0.545s0.224 0.512 0.512 0.512c0.288 0 0.545-0.224 0.545-0.512s-0.256-0.545-0.545-0.545zM8.328 9.016c-0.064 0-0.128 0.032-0.16 0.096 0 0.064 0.032 0.128 0.096 0.16l2.723 0.897c0.032 0 0.128-0.032 0.128-0.096 0.032-0.064 0-0.128-0.064-0.16zM5.349 26.088c0.032-0.128-0.064-0.192-0.32-0.256-0.288-0.096-0.673-0.224-0.673-0.224s-0.384-0.128-0.641-0.224c-0.256-0.096-0.384-0.096-0.448 0.032 0 0.064-0.096 0.416 0.224 0.512s0.705 0.224 0.705 0.224 0.352 0.128 0.673 0.224c0.32 0.128 0.448-0.192 0.48-0.288zM8.68 25.992l4.709-14.222-8.008-2.659-4.709 14.222zM20.628 26.537c0.32 0 0.609-0.288 0.609-0.609 0-0.352-0.288-0.609-0.609-0.609s-0.609 0.256-0.609 0.609c0 0.32 0.288 0.609 0.609 0.609zM29.661 23.846v0-20.948c0-0.224-0.192-0.384-0.384-0.384h-17.297c-0.224 0-0.384 0.16-0.384 0.384v6.406c1.57 0.577 2.787 1.313 2.242 3.011-0.288 0.833-1.249 3.812-2.242 6.791v4.741c0 0.224 0.16 0.416 0.384 0.416h17.297c0.192 0 0.384-0.192 0.384-0.416z"></path>
</svg>
