<?xml version="1.0" encoding="utf-8"?>
<!-- Generated by IcoMoon.io -->
<!DOCTYPE svg PUBLIC "-//W3C//DTD SVG 1.1//EN" "http://www.w3.org/Graphics/SVG/1.1/DTD/svg11.dtd">
<svg version="1.1" xmlns="http://www.w3.org/2000/svg" xmlns:xlink="http://www.w3.org/1999/xlink" width="32" height="32" viewBox="0 0 32 32">
<path d="M0.32 13.82c0 0.16 0.032 0.288 0.064 0.384 0.192 0.737 0.609 1.377 1.089 1.954 0.673 0.801 1.505 1.473 2.37 2.082 0.769 0.545 1.537 1.089 2.274 1.602 0.128 0.096 0.256 0.192 0.384 0.32-0.128 0.064-0.224 0.128-0.32 0.16-0.993 0.512-1.954 1.089-2.819 1.762-0.545 0.416-1.057 0.833-1.409 1.409-0.577 0.929-0.769 1.89-0.352 2.947 0.128 0.32 0.32 0.577 0.609 0.769 0.064 0.064 0.16 0.128 0.288 0.16 0.256 0.064 0.513 0.096 0.801 0.128h0.737c0.865-0.064 1.602-0.352 2.306-0.833 1.089-0.737 1.794-1.73 2.114-3.011 0.224-0.929 0.256-1.858-0.032-2.787-0.032-0.096-0.064-0.192-0.096-0.256s-0.064-0.16-0.096-0.288l1.73-0.993v0.032c-0.032 0.096-0.064 0.192-0.096 0.32-0.192 0.737-0.32 1.505-0.288 2.274 0.064 0.833 0.288 1.602 0.769 2.274 0.384 0.577 1.345 0.577 1.73 0.032 0.16-0.192 0.32-0.416 0.416-0.641 0.288-0.577 0.545-1.153 0.801-1.73l0.064-0.128c-0.032 0.288-0.064 0.512-0.064 0.769-0.032 0.384 0 0.769 0.128 1.121 0.128 0.32 0.32 0.545 0.673 0.577 0.224 0.032 0.416-0.064 0.609-0.224 0.288-0.224 0.512-0.48 0.673-0.801 0.48-0.865 0.961-1.73 1.377-2.627 0.48-0.961 0.897-1.954 1.313-2.947l0.096-0.192c0.096 0.416 0.16 0.801 0.288 1.185 0.16 0.416 0.352 0.865 0.545 1.249 0.096 0.192 0.096 0.32-0.032 0.48-0.577 0.705-1.121 1.377-1.698 2.082-0.128 0.128-0.224 0.288-0.352 0.448-0.032 0.128-0.096 0.224-0.096 0.352-0.032 0.224 0.096 0.448 0.352 0.48 0.192 0.064 0.448 0.064 0.673 0.064 0.769-0.064 1.473-0.32 2.082-0.801 0.801-0.577 1.089-1.409 0.865-2.37-0.032-0.256-0.128-0.512-0.224-0.769-0.032-0.096-0.032-0.192 0.032-0.288 0.641-0.929 1.185-1.89 1.698-2.915 0.032-0.032 0.064-0.064 0.096-0.096 0.16 0.865 0.416 1.666 0.865 2.434-0.256 0.224-0.48 0.416-0.673 0.641-0.448 0.48-0.833 1.025-1.057 1.666-0.064 0.256-0.128 0.545-0.096 0.833 0.064 0.448 0.416 0.769 0.897 0.641 0.961-0.192 1.794-0.673 2.402-1.473 0.384-0.545 0.448-1.153 0.256-1.762-0.032-0.192-0.096-0.352-0.16-0.545 0.256-0.096 0.48-0.16 0.705-0.224 1.249-0.288 2.498-0.224 3.684 0.224 0.705 0.256 1.281 0.705 1.602 1.377 0.416 0.865 0.192 1.666-0.609 2.178-0.064 0.064-0.16 0.096-0.224 0.16-0.032 0.032-0.064 0.128-0.032 0.16 0 0.032 0.064 0.096 0.128 0.096 0.256-0.032 0.48-0.16 0.673-0.288 0.512-0.352 0.865-0.833 0.961-1.473v-0.448c0-0.032 0-0.032 0-0.064-0.096-0.897-0.609-1.602-1.313-2.178-0.801-0.641-1.794-0.897-2.819-0.929-0.833-0.032-1.634 0.064-2.434 0.352-0.224 0.096-0.448 0.192-0.673 0.288-0.032-0.064-0.064-0.128-0.096-0.16-0.224-0.48-0.512-0.929-0.577-1.473-0.032-0.384-0.096-0.769 0-1.153s0.224-0.737 0.32-1.089c0.064-0.192 0-0.288-0.16-0.384-0.064-0.032-0.128-0.064-0.192-0.064-0.448-0.064-0.865-0.032-1.313 0.096-0.128 0.032-0.256 0.128-0.288 0.288 0 0.096-0.064 0.192-0.064 0.288-0.128 0.384-0.192 0.769-0.384 1.153-0.448 0.929-0.961 1.826-1.473 2.723-0.064 0.096-0.128 0.192-0.192 0.32-0.192-0.384-0.384-0.737-0.448-1.153-0.064-0.448-0.128-0.897 0-1.345 0.064-0.352 0.192-0.673 0.288-1.025 0.064-0.16 0.032-0.224-0.128-0.32-0.064-0.032-0.128-0.096-0.224-0.096-0.448-0.064-0.897-0.032-1.345 0.096-0.128 0.064-0.192 0.16-0.256 0.288-0.096 0.416-0.224 0.833-0.384 1.217-0.705 1.602-1.409 3.171-2.114 4.773-0.16 0.32-0.32 0.641-0.512 0.961-0.032 0.096-0.096 0.16-0.128 0.224-0.064-0.032-0.064-0.064-0.064-0.096 0-0.224-0.032-0.416 0-0.609 0.128-0.609 0.256-1.185 0.384-1.794 0.128-0.48 0.256-0.961 0.416-1.441 0.032-0.16 0.032-0.32-0.096-0.448-0.192-0.224-0.609-0.288-0.833-0.096l-0.096 0.032v-0.16c0.064-0.352 0.064-0.737-0.032-1.089-0.128-0.48-0.448-0.737-0.929-0.705-0.224 0-0.448 0.032-0.641 0.128-0.865 0.32-1.537 0.929-2.082 1.634-0.064 0.064-0.128 0.128-0.192 0.16-0.737 0.416-1.441 0.801-2.178 1.185l-0.801 0.448c-0.224-0.192-0.416-0.416-0.641-0.609-0.673-0.545-1.377-1.089-2.050-1.634-0.609-0.48-1.217-0.993-1.666-1.634-0.32-0.48-0.545-1.025-0.577-1.602-0.032-0.769 0.192-1.473 0.577-2.114 0.48-0.801 1.153-1.473 1.922-2.082s1.602-1.153 2.498-1.666c1.217-0.673 2.466-1.281 3.844-1.698 1.377-0.384 2.787-0.641 4.228-0.48 0.577 0.064 1.121 0.224 1.634 0.48 0.384 0.224 0.705 0.513 0.865 0.929 0.16 0.448 0.128 0.865 0.032 1.313-0.192 0.897-0.673 1.602-1.281 2.274-1.025 1.057-2.242 1.794-3.62 2.274-0.769 0.256-1.602 0.448-2.434 0.512-0.673 0.064-1.345 0-1.986-0.256-0.448-0.16-0.801-0.384-1.121-0.737-0.032-0.064-0.096-0.128-0.192-0.064-0.128 0.064-0.128 0.16-0.096 0.224 0.064 0.16 0.096 0.32 0.192 0.48 0.224 0.352 0.512 0.609 0.865 0.833 0.673 0.416 1.409 0.545 2.178 0.577 1.153 0.064 2.306-0.128 3.395-0.416 1.602-0.448 3.011-1.249 4.1-2.498 0.929-1.025 1.602-2.178 1.762-3.588 0.064-0.705-0.032-1.377-0.352-1.986-0.352-0.705-0.897-1.185-1.57-1.537-0.961-0.513-1.986-0.801-3.075-0.801h-1.089c-1.281 0-2.563 0.352-3.78 0.801-0.929 0.352-1.826 0.737-2.723 1.185-1.922 0.961-3.716 2.114-5.189 3.716-0.737 0.801-1.345 1.666-1.698 2.691-0.096 0.32-0.192 0.641-0.288 0.961zM7.303 22.373c-0.096 1.121-0.609 2.018-1.409 2.755-0.48 0.416-1.025 0.705-1.634 0.801-0.224 0.032-0.448 0.064-0.673-0.032-0.32-0.16-0.384-0.416-0.384-0.705 0-0.48 0.16-0.897 0.384-1.313 0.288-0.512 0.705-0.929 1.185-1.313 0.705-0.577 1.505-1.089 2.306-1.538l0.064-0.032c0.128 0.448 0.192 0.897 0.16 1.377zM13.581 17.504c-0.064 0.384-0.128 0.737-0.224 1.089-0.352 1.185-0.833 2.338-1.313 3.491-0.096 0.192-0.224 0.384-0.352 0.609-0.032 0.032-0.032 0.032-0.064 0.064-0.16 0.16-0.288 0.128-0.352-0.032-0.096-0.224-0.16-0.448-0.192-0.705-0.032-0.128-0.032-0.32-0.032-0.448 0-1.153 0.352-2.146 0.929-3.107 0.256-0.384 0.512-0.769 0.897-1.025 0.128-0.064 0.256-0.128 0.416-0.16 0.192-0.064 0.32 0.032 0.288 0.224zM17.873 22.981l1.57-1.794c0.064 0.673-1.089 2.018-1.57 1.794zM22.806 21.764c-0.096 0.064-0.224 0.128-0.32 0.192-0.096 0.032-0.16 0-0.16-0.096 0-0.064 0.032-0.128 0.032-0.192 0.224-0.737 0.609-1.345 1.153-1.858l0.064-0.032c0.256 0.769-0.064 1.602-0.769 1.986z"></path>
</svg>
