<?xml version="1.0" encoding="utf-8"?>
<!-- Generated by IcoMoon.io -->
<!DOCTYPE svg PUBLIC "-//W3C//DTD SVG 1.1//EN" "http://www.w3.org/Graphics/SVG/1.1/DTD/svg11.dtd">
<svg version="1.1" xmlns="http://www.w3.org/2000/svg" xmlns:xlink="http://www.w3.org/1999/xlink" width="28" height="32" viewBox="0 0 28 32">
<path d="M13.581 0.079c-0.090 0.070-0.179 0.128-0.199 0.128-0.026 0-0.237 0.115-0.468 0.256s-0.436 0.256-0.461 0.256c-0.019 0-0.115 0.051-0.205 0.115-0.096 0.070-0.333 0.205-0.525 0.314s-0.512 0.288-0.705 0.404c-0.192 0.115-0.448 0.263-0.557 0.327-0.115 0.070-0.314 0.179-0.436 0.25s-0.327 0.186-0.448 0.256c-0.122 0.070-0.327 0.186-0.448 0.256s-0.327 0.186-0.448 0.256c-0.122 0.070-0.327 0.186-0.448 0.256s-0.327 0.186-0.448 0.256c-0.122 0.070-0.327 0.186-0.448 0.256s-0.327 0.186-0.448 0.256c-0.557 0.32-0.66 0.378-0.98 0.57-0.186 0.109-0.346 0.199-0.359 0.199s-0.218 0.115-0.455 0.263c-0.237 0.141-0.532 0.314-0.647 0.384-0.122 0.064-0.32 0.179-0.442 0.25s-0.327 0.186-0.448 0.256c-0.122 0.070-0.327 0.186-0.448 0.256s-0.327 0.186-0.448 0.256c-0.122 0.070-0.327 0.186-0.448 0.256s-0.327 0.186-0.448 0.256c-0.122 0.070-0.327 0.186-0.448 0.256-0.564 0.32-0.718 0.41-0.884 0.506-0.102 0.058-0.179 0.128-0.173 0.167 0.006 0.032 0.141 0.141 0.307 0.231 0.167 0.096 0.557 0.32 0.878 0.506 0.583 0.34 0.814 0.474 1.217 0.705 0.122 0.070 0.327 0.186 0.448 0.256s0.333 0.186 0.468 0.263c0.128 0.077 0.269 0.16 0.314 0.199s0.090 0.032 0.115-0.006c0.019-0.038 0.147-0.115 0.275-0.179s0.416-0.218 0.634-0.352c0.224-0.135 0.416-0.243 0.442-0.243 0.019 0 0.115-0.051 0.205-0.115 0.096-0.070 0.333-0.205 0.525-0.314s0.461-0.256 0.596-0.333c0.128-0.070 0.34-0.192 0.461-0.263s0.327-0.186 0.448-0.256c0.122-0.070 0.327-0.186 0.448-0.256s0.327-0.186 0.448-0.256c0.122-0.070 0.327-0.186 0.448-0.256s0.327-0.186 0.448-0.256c0.122-0.070 0.333-0.192 0.468-0.263 0.128-0.077 0.397-0.224 0.589-0.333s0.429-0.243 0.525-0.314c0.090-0.064 0.179-0.115 0.199-0.115s0.301-0.154 0.634-0.346c0.327-0.186 0.724-0.41 0.884-0.5s0.397-0.224 0.532-0.301c0.756-0.429 0.66-0.404 0.91-0.263 0.122 0.070 0.327 0.186 0.448 0.256s0.327 0.186 0.448 0.256c0.122 0.070 0.327 0.186 0.448 0.256s0.327 0.186 0.448 0.256c0.122 0.070 0.327 0.186 0.448 0.256s0.327 0.186 0.448 0.256c0.122 0.070 0.333 0.192 0.468 0.263 0.128 0.077 0.397 0.224 0.589 0.333s0.429 0.243 0.525 0.314c0.090 0.064 0.186 0.115 0.205 0.115s0.186 0.090 0.372 0.199c0.186 0.115 0.461 0.269 0.615 0.352 0.147 0.083 0.391 0.224 0.545 0.308 0.147 0.083 0.378 0.211 0.512 0.288 0.128 0.070 0.34 0.192 0.461 0.263s0.327 0.186 0.448 0.256c0.122 0.070 0.327 0.186 0.448 0.256s0.327 0.186 0.448 0.256c0.122 0.070 0.333 0.192 0.468 0.263 0.128 0.077 0.391 0.224 0.577 0.327l0.346 0.192 0.967-0.557c0.538-0.307 1.371-0.788 1.858-1.070 0.48-0.282 0.865-0.538 0.846-0.57s-0.218-0.16-0.436-0.288c-0.378-0.224-0.525-0.308-1.038-0.602-0.122-0.070-0.327-0.186-0.448-0.256s-0.327-0.186-0.448-0.256c-0.397-0.231-0.628-0.365-1.217-0.705s-0.82-0.474-1.217-0.705c-0.122-0.070-0.327-0.186-0.448-0.256s-0.327-0.186-0.448-0.256c-0.122-0.070-0.333-0.186-0.461-0.263-0.135-0.077-0.269-0.16-0.308-0.186-0.032-0.026-0.173-0.109-0.301-0.186-0.135-0.077-0.346-0.192-0.468-0.263s-0.327-0.186-0.448-0.256c-0.122-0.070-0.327-0.186-0.448-0.256s-0.327-0.186-0.448-0.256c-0.564-0.32-0.66-0.378-0.993-0.577s-0.429-0.256-0.993-0.577c-0.122-0.070-0.327-0.186-0.448-0.256s-0.327-0.186-0.448-0.256c-0.122-0.070-0.327-0.186-0.448-0.256s-0.32-0.186-0.442-0.25c-0.115-0.070-0.41-0.243-0.647-0.384-0.474-0.288-0.692-0.32-0.929-0.135zM13.805 5.39c-0.038 0.032-0.173 0.122-0.301 0.192-0.231 0.128-0.384 0.211-0.897 0.513-0.115 0.064-0.372 0.211-0.564 0.327s-0.448 0.263-0.557 0.327c-0.506 0.295-0.673 0.384-0.897 0.513-0.448 0.25-0.468 0.282-0.468 0.839 0 0.275 0.019 0.5 0.051 0.5 0.026 0 0.115 0.064 0.205 0.135l0.16 0.135-0.186-0.109c-0.109-0.064-0.237-0.115-0.288-0.122-0.058-0.006-0.314-0.135-0.577-0.288l-0.48-0.282-0.192 0.115c-0.231 0.135-0.525 0.301-0.839 0.48-0.122 0.070-0.327 0.186-0.448 0.256s-0.333 0.192-0.461 0.263c-0.135 0.077-0.314 0.186-0.404 0.25-0.090 0.058-0.192 0.122-0.224 0.135-0.038 0.013-0.308 0.167-0.596 0.346-0.615 0.365-0.628 0.314 0.211 0.788 0.269 0.154 0.48 0.295 0.461 0.307-0.013 0.019-0.301-0.128-0.628-0.327l-0.602-0.352-0.019 2.159c-0.019 2.357-0.038 2.21 0.391 2.447 0.128 0.077 0.346 0.192 0.48 0.269 0.128 0.077 0.295 0.186 0.365 0.243 0.154 0.135 0.545 0.372 1.409 0.871 0.955 0.551 1.057 0.609 1.076 0.609 0.006 0 0.013-0.999 0.013-2.223 0-2.165-0.006-2.229-0.128-2.3-0.115-0.064-0.48-0.275-1.845-1.063-0.243-0.141-0.423-0.269-0.404-0.288s0.070-0.006 0.115 0.032c0.045 0.032 0.192 0.122 0.327 0.199 0.231 0.128 0.461 0.263 0.897 0.512 0.109 0.064 0.384 0.224 0.602 0.352 0.346 0.205 0.423 0.224 0.545 0.16 0.186-0.096 3.299-1.896 3.498-2.024 0.147-0.090 0.147-0.096 0.032-0.186-0.109-0.090-0.102-0.090 0.032-0.026 0.077 0.038 0.128 0.096 0.109 0.128-0.019 0.026-0.006 0.064 0.032 0.077 0.032 0.006 0.064 0.314 0.070 0.673l0.006 0.653 0.173-0.102c0.147-0.083 0.141-0.077-0.026 0.051-0.275 0.224-2.678 1.595-2.716 1.557s0.25-0.275 0.333-0.282c0.026 0 0.256-0.128 0.512-0.282 0.25-0.154 0.589-0.352 0.75-0.436 0.16-0.090 0.423-0.243 0.596-0.34l0.301-0.173v-1.281l-0.301 0.173c-0.173 0.096-0.468 0.263-0.66 0.372-0.192 0.102-0.423 0.243-0.512 0.301s-0.32 0.192-0.512 0.301c-0.48 0.263-1.121 0.634-1.486 0.865l-0.307 0.192v2.172c0 1.192 0.019 2.172 0.038 2.172s0.25-0.128 0.506-0.288c0.275-0.167 0.519-0.269 0.577-0.25 0.077 0.032 0.096 0.167 0.096 0.737 0 0.384 0.026 0.698 0.058 0.698s0.282 0.128 0.545 0.288c0.269 0.16 0.519 0.288 0.545 0.288 0.032 0 0.070 0.026 0.083 0.051 0.013 0.032 0.205 0.16 0.436 0.288s0.474 0.275 0.545 0.333c0.122 0.102-0.288-0.102-0.711-0.359l-0.199-0.122-0.57 0.333c-0.314 0.179-0.609 0.327-0.647 0.327-0.096 0-0.115 1.602-0.038 3.479l0.038 1.102 0.231 0.122c0.256 0.141 0.416 0.237 1.256 0.724 0.32 0.186 0.737 0.423 0.929 0.532 0.192 0.102 0.429 0.243 0.525 0.314 0.090 0.064 0.192 0.115 0.224 0.115 0.026 0 0.122 0.058 0.211 0.128 0.32 0.25 0.314 0.282 0.333-2.050 0.013-1.198 0-2.178-0.026-2.178-0.058 0-2.12-1.217-2.197-1.294-0.064-0.070 0.57 0.269 0.865 0.461 0.090 0.051 0.243 0.141 0.352 0.192 0.102 0.051 0.372 0.205 0.596 0.34l0.404 0.243 1.858-1.070c1.019-0.583 1.851-1.083 1.851-1.115 0-0.058-0.993-0.641-1.102-0.641-0.045 0-0.641 0.32-1.32 0.711l-1.236 0.705-0.506-0.295c-0.282-0.167-0.512-0.314-0.512-0.333 0-0.032 0.698 0.352 0.801 0.442 0.032 0.026 0.077 0.051 0.109 0.051 0.026 0 0.058-1.006 0.064-2.236l0.019-2.229-0.179-0.083c-0.243-0.102-1.134-0.641-1.134-0.685 0-0.032 0.545 0.269 0.974 0.538 0.135 0.083 0.269 0.147 0.307 0.147 0.102 0 3.671-2.056 3.767-2.165 0.070-0.090 0.077-0.090 0.077 0.006 0 0.058 0.032 0.109 0.064 0.109 0.051 0 0.064 0.532 0.051 1.659-0.013 1.083 0 1.646 0.045 1.634 0.038-0.013 0.135 0.038 0.224 0.109l0.16 0.135-0.173-0.102c-0.096-0.058-0.192-0.102-0.211-0.102s-0.032 0.243-0.032 0.538c0 0.416-0.026 0.564-0.102 0.647-0.058 0.058-0.096 0.109-0.083 0.122 0.090 0.077 0.916 0.551 1.019 0.583 0.096 0.032 0.583-0.224 1.845-0.955 0.942-0.545 1.762-1.012 1.826-1.038 0.122-0.045 0.147-0.154 0.038-0.154-0.038 0-0.154-0.058-0.25-0.128-0.102-0.070-0.34-0.211-0.525-0.314l-0.346-0.179-1.204 0.698c-0.66 0.378-1.224 0.692-1.256 0.692-0.070 0-0.512-0.256-0.512-0.301 0-0.019 0.102 0.026 0.231 0.102 0.122 0.077 0.231 0.135 0.237 0.135s0.006-1.006-0.006-2.236l-0.013-2.242-0.5-0.282c-0.609-0.359-0.89-0.577-0.365-0.295 0.211 0.115 0.474 0.263 0.577 0.327 0.109 0.064 0.243 0.115 0.301 0.115 0.147 0 3.703-2.056 3.664-2.12-0.013-0.026-0.109-0.090-0.205-0.141-0.256-0.128-0.679-0.372-0.75-0.429-0.032-0.026-0.173-0.109-0.301-0.186-0.135-0.077-0.346-0.192-0.468-0.263s-0.327-0.186-0.455-0.256c-0.122-0.070-0.301-0.179-0.391-0.237-0.192-0.128-0.474-0.288-0.826-0.474l-0.263-0.135-0.314 0.173c-0.173 0.102-0.487 0.269-0.698 0.384-0.66 0.34-2.646 1.505-2.71 1.589-0.038 0.045-0.077 0.327-0.083 0.628l-0.026 0.551 0.295 0.141c0.16 0.083 0.359 0.205 0.448 0.275 0.109 0.090 0.070 0.083-0.135-0.032-0.929-0.519-1.153-0.634-1.454-0.788l-0.34-0.16-0.006-0.545c-0.006-0.295-0.013-0.57-0.019-0.615 0-0.045-0.711-0.48-1.576-0.98-1.903-1.089-2.165-1.249-2.069-1.249 0.038 0 0.307 0.141 0.596 0.32 0.288 0.173 0.532 0.32 0.545 0.32s0.275 0.147 0.589 0.327c0.782 0.455 1.14 0.66 1.666 0.961 0.128 0.070 0.275 0.115 0.333 0.102 0.179-0.051 3.62-2.069 3.639-2.133 0.013-0.038-0.070-0.115-0.186-0.173s-0.34-0.186-0.5-0.275c-0.16-0.096-0.384-0.224-0.493-0.288-0.115-0.070-0.314-0.179-0.436-0.25s-0.32-0.179-0.429-0.25c-0.115-0.064-0.372-0.211-0.564-0.327-0.564-0.34-1.006-0.577-1.070-0.577-0.032 0-0.083 0.026-0.115 0.058zM16.72 8.164c-0.545 0.32-1.076 0.628-1.185 0.692-0.102 0.064-0.5 0.288-0.878 0.512l-0.692 0.397v0.57c0 0.468 0.019 0.57 0.096 0.57 0.058 0 0.288 0.115 0.519 0.256s0.436 0.256 0.448 0.256c0.013 0 0.026-0.269 0.026-0.596v-0.589l1.063-0.609c0.583-0.333 1.147-0.653 1.249-0.711 0.333-0.186 0.346-0.218 0.365-0.788 0.013-0.301 0.013-0.551 0-0.545-0.013 0-0.468 0.263-1.012 0.583zM0.179 9.765c-0.013 0.999-0.032 4.555-0.038 7.905l-0.013 6.092 0.173 0.090c0.102 0.045 0.365 0.192 0.589 0.327 0.218 0.135 0.416 0.243 0.429 0.243s0.173 0.090 0.359 0.199c0.32 0.192 0.423 0.25 0.98 0.57 0.122 0.070 0.327 0.186 0.448 0.256s0.327 0.186 0.448 0.256c0.122 0.070 0.327 0.186 0.448 0.256s0.327 0.186 0.448 0.256c0.41 0.231 0.634 0.365 1.217 0.705 0.32 0.186 0.737 0.423 0.929 0.532 0.192 0.102 0.429 0.243 0.525 0.314 0.090 0.064 0.186 0.115 0.205 0.115s0.186 0.090 0.372 0.199c0.32 0.192 0.423 0.25 0.98 0.57 0.122 0.070 0.327 0.186 0.448 0.256s0.327 0.186 0.448 0.256c0.122 0.070 0.327 0.186 0.448 0.256s0.327 0.186 0.448 0.256c0.122 0.070 0.327 0.186 0.448 0.256s0.32 0.179 0.436 0.25c0.903 0.519 2.274 1.313 2.37 1.358 0.102 0.058 0.109-0.058 0.109-2.108v-2.165l-0.237-0.135c-0.32-0.173-0.801-0.448-1.717-0.98-0.314-0.186-0.737-0.423-0.929-0.532-0.192-0.102-0.378-0.211-0.416-0.237-0.032-0.026-0.173-0.109-0.301-0.186-0.545-0.301-0.692-0.391-1.108-0.641-0.237-0.147-0.442-0.263-0.455-0.263s-0.173-0.090-0.359-0.199c-0.32-0.192-0.423-0.25-0.98-0.57-0.122-0.070-0.327-0.186-0.448-0.256s-0.32-0.179-0.429-0.25c-0.115-0.064-0.372-0.211-0.564-0.327s-0.513-0.295-0.705-0.404c-0.192-0.109-0.429-0.243-0.525-0.314-0.090-0.064-0.186-0.115-0.218-0.115-0.026 0-0.141-0.070-0.263-0.16l-0.211-0.167-0.013-5.734-0.019-5.74-0.256-0.147c-0.141-0.077-0.82-0.468-1.505-0.865-1.518-0.878-1.896-1.089-1.948-1.089-0.019 0-0.045 0.814-0.051 1.807zM26.522 8.548c-0.545 0.32-1.076 0.628-1.185 0.692-0.102 0.058-0.32 0.186-0.48 0.275-0.16 0.096-0.455 0.263-0.653 0.378l-0.372 0.211v11.256l-0.199 0.186c-0.109 0.102-0.224 0.186-0.263 0.186-0.032 0-0.186 0.083-0.34 0.192-0.154 0.102-0.295 0.192-0.32 0.192s-0.167 0.083-0.32 0.192c-0.154 0.102-0.295 0.192-0.32 0.192-0.019 0-0.211 0.115-0.416 0.256s-0.397 0.256-0.416 0.256c-0.026 0-0.167 0.083-0.32 0.192-0.154 0.102-0.301 0.192-0.32 0.192-0.026 0-0.122 0.051-0.211 0.122-0.096 0.064-0.275 0.179-0.397 0.25s-0.423 0.243-0.666 0.397c-0.243 0.147-0.538 0.32-0.653 0.391-0.122 0.064-0.32 0.179-0.442 0.25s-0.327 0.186-0.448 0.256c-0.564 0.32-0.66 0.378-0.993 0.577-0.365 0.218-0.602 0.359-1.006 0.583-0.135 0.077-0.269 0.16-0.307 0.186-0.032 0.026-0.224 0.135-0.416 0.237-0.192 0.109-0.519 0.288-0.717 0.41l-0.372 0.211v2.165c0 1.288 0.026 2.165 0.058 2.165s0.295-0.147 0.583-0.32c0.288-0.179 0.532-0.32 0.545-0.32s0.179-0.090 0.365-0.199c0.32-0.192 0.423-0.25 0.98-0.57 0.122-0.070 0.327-0.186 0.448-0.256 0.564-0.32 0.66-0.378 0.993-0.577s0.429-0.256 0.993-0.577c0.122-0.070 0.327-0.186 0.448-0.256s0.327-0.186 0.448-0.256c0.122-0.070 0.327-0.186 0.448-0.256 0.564-0.32 0.66-0.378 0.993-0.577 0.192-0.115 0.448-0.263 0.564-0.327 0.109-0.070 0.301-0.173 0.416-0.243 0.109-0.064 0.359-0.205 0.545-0.32 0.186-0.109 0.352-0.199 0.372-0.199s0.115-0.051 0.205-0.115c0.096-0.070 0.333-0.205 0.525-0.314s0.512-0.288 0.705-0.404c0.192-0.115 0.448-0.263 0.564-0.327 0.109-0.070 0.308-0.179 0.429-0.25s0.333-0.192 0.468-0.269c0.128-0.070 0.295-0.167 0.365-0.205s0.365-0.211 0.66-0.384l0.525-0.32v-7.899c0-4.343-0.026-7.899-0.051-7.893-0.026 0-0.493 0.263-1.038 0.583zM22.454 10.579c-0.038 0.032-0.628 0.384-1.313 0.782-0.685 0.391-1.352 0.775-1.473 0.846s-0.301 0.173-0.397 0.218c-0.096 0.051-0.199 0.128-0.224 0.167-0.058 0.096-0.064 4.337-0.006 4.337 0.045 0 0.186-0.077 0.711-0.378 1.153-0.666 1.512-0.871 1.646-0.967 0.147-0.102 0.256-0.167 0.884-0.519 0.128-0.077 0.275-0.167 0.32-0.199 0.115-0.096 0.115-4.343-0.006-4.343-0.045 0-0.109 0.026-0.141 0.058zM17.105 13.731c-0.372 0.218-0.801 0.468-0.961 0.557s-0.5 0.282-0.75 0.436c-0.256 0.154-0.474 0.282-0.493 0.282-0.013 0-0.192 0.102-0.397 0.224l-0.378 0.231v2.172c0 1.198 0.019 2.178 0.038 2.178 0.026 0 0.372-0.192 0.769-0.423 1.095-0.641 1.14-0.666 1.691-0.974 0.282-0.154 0.679-0.384 0.884-0.506l0.365-0.218v-2.178c0-1.192-0.019-2.172-0.045-2.172-0.032 0-0.352 0.179-0.724 0.391zM6.246 15.749c-0.141 0.083-0.34 0.199-0.448 0.25-0.103 0.058-0.263 0.154-0.346 0.218l-0.147 0.115 0.532 0.301c0.295 0.173 0.634 0.365 0.75 0.429 0.231 0.135 0.545 0.314 0.884 0.506 0.122 0.070 0.288 0.167 0.365 0.218 0.077 0.045 0.352 0.211 0.609 0.359 0.263 0.147 0.455 0.282 0.436 0.301s-0.070 0.006-0.115-0.032c-0.045-0.032-0.186-0.122-0.307-0.192-0.122-0.064-0.884-0.5-1.685-0.967-0.807-0.461-1.48-0.839-1.493-0.839s-0.019 0.987-0.013 2.185l0.019 2.191 0.192 0.102c0.109 0.058 0.378 0.218 0.609 0.352 0.397 0.237 0.525 0.314 1.057 0.615 0.122 0.070 0.327 0.186 0.448 0.256s0.327 0.186 0.448 0.256c0.122 0.070 0.333 0.186 0.468 0.263 0.128 0.070 0.263 0.16 0.295 0.192 0.038 0.032 0.090 0.058 0.115 0.058s0.051-0.98 0.051-2.172c0-1.813 0.013-2.191 0.090-2.268 0.051-0.051 0.327-0.231 0.609-0.397l0.519-0.301v-0.666c0-0.365-0.013-0.666-0.032-0.666s-0.263 0.128-0.538 0.288c-0.275 0.16-0.538 0.288-0.583 0.288-0.077 0-1.537-0.82-2.185-1.224-0.16-0.102-0.308-0.186-0.32-0.179-0.013 0-0.141 0.070-0.282 0.16zM22.422 16.684c-0.122 0.070-0.32 0.186-0.429 0.25-0.115 0.070-0.308 0.173-0.416 0.243-0.115 0.064-0.73 0.416-1.365 0.782-0.634 0.359-1.166 0.679-1.185 0.705s-0.026 0.506-0.026 1.063c0.006 0.557 0.013 1.525 0.019 2.146l0.006 1.134 0.34-0.199c0.314-0.186 0.416-0.25 0.974-0.564 0.122-0.070 0.327-0.186 0.448-0.256 1.095-0.628 1.794-1.038 1.845-1.083 0.026-0.026 0.038-1.019 0.032-2.204l-0.019-2.159-0.224 0.141zM10.026 17.991c-0.141 0.083-0.301 0.173-0.352 0.199-0.051 0.019-0.218 0.122-0.365 0.224l-0.275 0.186v2.14c0 1.179 0.013 2.146 0.032 2.146 0.013 0 0.128-0.058 0.256-0.128 0.122-0.070 0.333-0.186 0.468-0.263 0.128-0.077 0.275-0.167 0.314-0.199 0.058-0.045 0.083-0.48 0.096-1.602l0.019-1.544 0.545-0.308c0.301-0.173 0.551-0.34 0.564-0.372 0.013-0.045-0.82-0.564-1.012-0.628-0.019-0.006-0.147 0.058-0.288 0.147zM17.521 17.985c-0.102 0.083-0.365 0.237-0.57 0.346s-0.346 0.199-0.301 0.199c0.135 0 1.211 0.647 1.256 0.756 0.026 0.058 0.045 0.801 0.038 1.646l-0.013 1.538 0.436 0.256c0.237 0.141 0.455 0.263 0.48 0.275s0.058-0.974 0.064-2.191c0.013-1.55 0-2.217-0.051-2.217-0.109 0-1.108-0.602-1.128-0.679-0.013-0.045-0.096-0.019-0.211 0.070zM17.745 19.362c0 0.051-0.218 0.192-0.993 0.641-1.429 0.833-2.274 1.32-2.415 1.39-0.102 0.051-0.179 0.115-0.179 0.135-0.032 1.403-0.019 4.305 0.013 4.305 0.051 0 0.167-0.064 1.044-0.577 0.32-0.186 0.673-0.391 0.788-0.455 0.519-0.301 0.692-0.404 0.814-0.468 0.070-0.045 0.32-0.186 0.551-0.32l0.423-0.25 0.045-0.865c0.064-1.358 0.051-3.6-0.026-3.6-0.032 0-0.064 0.026-0.064 0.064z"></path>
</svg>
