<?xml version="1.0" encoding="utf-8"?>
<!-- Generated by IcoMoon.io -->
<!DOCTYPE svg PUBLIC "-//W3C//DTD SVG 1.1//EN" "http://www.w3.org/Graphics/SVG/1.1/DTD/svg11.dtd">
<svg version="1.1" xmlns="http://www.w3.org/2000/svg" xmlns:xlink="http://www.w3.org/1999/xlink" width="30" height="32" viewBox="0 0 30 32">
<path d="M25.753 7.767q0-0.705-0.512-1.217t-1.217-0.513-1.217 0.513-0.512 1.217 0.512 1.217 1.217 0.512 1.217-0.512 0.512-1.217zM29.757 2.61q0 4.452-1.377 7.72t-4.516 6.438q-1.441 1.409-3.491 3.139l-0.352 6.759q-0.032 0.288-0.288 0.48l-6.855 4.004q-0.128 0.064-0.288 0.064-0.224 0-0.416-0.16l-1.153-1.153q-0.224-0.224-0.128-0.545l1.505-4.965-4.997-4.997-4.965 1.505q-0.032 0.032-0.16 0.032-0.224 0-0.384-0.16l-1.153-1.153q-0.32-0.352-0.096-0.705l4.004-6.855q0.192-0.256 0.48-0.288l6.759-0.352q1.73-2.050 3.139-3.491 3.363-3.331 6.406-4.612t7.72-1.281q0.224 0 0.416 0.192t0.192 0.384z"></path>
</svg>
