<?xml version="1.0" encoding="utf-8"?>
<!-- Generated by IcoMoon.io -->
<!DOCTYPE svg PUBLIC "-//W3C//DTD SVG 1.1//EN" "http://www.w3.org/Graphics/SVG/1.1/DTD/svg11.dtd">
<svg version="1.1" xmlns="http://www.w3.org/2000/svg" xmlns:xlink="http://www.w3.org/1999/xlink" width="27" height="32" viewBox="0 0 27 32">
<path d="M20.98 18.753q0-0.897-0.352-1.634t-0.865-1.217-1.313-0.865-1.473-0.609-1.57-0.416l-1.858-0.448q-0.545-0.128-0.801-0.192t-0.609-0.192-0.545-0.288-0.288-0.384-0.128-0.512q0-1.377 2.563-1.377 0.769 0 1.377 0.192t0.961 0.512 0.673 0.609 0.737 0.512 0.865 0.224q0.833 0 1.345-0.577t0.512-1.377q0-0.993-1.025-1.762t-2.53-1.217-3.235-0.416q-1.217 0-2.37 0.288t-2.146 0.833-1.57 1.537-0.609 2.306q0 1.089 0.32 1.922t1.025 1.345 1.409 0.865 1.858 0.577l2.595 0.641q1.634 0.384 2.018 0.641 0.577 0.352 0.577 1.089 0 0.673-0.737 1.153t-1.858 0.448q-0.929 0-1.634-0.288t-1.185-0.705-0.801-0.801-0.833-0.673-0.961-0.288q-0.897 0-1.345 0.545t-0.448 1.313q0 1.666 2.178 2.819t5.189 1.185q1.313 0 2.498-0.32t2.21-0.961 1.57-1.666 0.609-2.37zM27.451 22.629q0 2.851-2.018 4.869t-4.837 2.018q-2.338 0-4.196-1.441-1.377 0.288-2.659 0.288-2.563 0-4.901-0.993t-4.036-2.691-2.659-4.004-0.993-4.901q0-1.313 0.288-2.691-1.441-1.858-1.441-4.164 0-2.851 2.018-4.869t4.837-2.018q2.338 0 4.196 1.441 1.377-0.288 2.691-0.288 2.53 0 4.869 0.993t4.036 2.691 2.659 4.004 0.993 4.901q0 1.313-0.288 2.691 1.441 1.858 1.441 4.164z"></path>
</svg>
