<?xml version="1.0" encoding="utf-8"?>
<!-- Generated by IcoMoon.io -->
<!DOCTYPE svg PUBLIC "-//W3C//DTD SVG 1.1//EN" "http://www.w3.org/Graphics/SVG/1.1/DTD/svg11.dtd">
<svg version="1.1" xmlns="http://www.w3.org/2000/svg" xmlns:xlink="http://www.w3.org/1999/xlink" width="32" height="32" viewBox="0 0 32 32">
<path d="M24.888 11.258c-0.416 1.826-1.73 7.944-1.73 7.944h2.691c0.16-0.769 0.288-1.473 0.448-2.21 0.32-1.377 0.705-1.922 1.666-1.922 0.416 0 0.865 0.16 0.865 0.737 0 0.256-0.609 2.851-0.705 3.395h2.659s0.833-4.036 0.865-4.1c0-0.128 0.064-0.512 0.064-0.512 0-0.993-1.249-1.441-1.89-1.441-0.48-0.032-0.128-0.032-0.609 0-0.769 0-1.794 0.416-2.242 0.897l-0.064 0.032 0.032-0.064 0.609-2.723c0-0.032 0-0.032-0.032-0.064l-2.627 0.032zM12.14 13.052c-0.288 0-0.705 0-1.409 0.032-1.409 0.032-3.491 0.448-3.491 2.466 0 1.121 1.057 1.217 1.986 1.313 0.737 0.064 1.441 0.16 2.178 0.224 0.192 0.032 0.384 0.064 0.384 0.288 0 0.384-0.32 0.512-0.769 0.545-0.416 0.032-0.545 0-0.545 0-0.256 0-0.737-0.16-0.673-0.577h-3.171v0.48c0 1.505 2.434 1.538 2.883 1.57h0.801l1.217-0.032c1.602-0.096 3.331-0.577 3.427-2.498 0.032-1.345-1.666-1.313-2.402-1.377h-0.192c-0.032 0-1.185-0.128-1.762-0.192-0.096 0-0.48-0.064-0.48-0.288 0-0.48 0.865-0.48 1.025-0.48 0.32 0 0.993 0 0.961 0.512h2.979c0-0.096 0.064-0.192 0.064-0.32 0-1.345-1.73-1.602-2.659-1.634 0 0-0.096-0.032-0.352-0.032zM20.148 13.052c-0.096 0-0.256 0-0.961 0.032-1.409 0.032-3.491 0.48-3.491 2.466 0 1.121 1.057 1.217 1.986 1.313 0.705 0.096 1.441 0.16 2.146 0.224 0.192 0.032 0.416 0.096 0.416 0.32 0 0.384-0.416 0.512-0.769 0.545-0.384 0-0.545 0-0.545 0-0.288 0-0.769-0.16-0.705-0.577h-3.171v0.48c0 1.441 2.434 1.538 2.915 1.538l0.769 0.032 1.217-0.032c1.602-0.096 3.363-0.609 3.427-2.53 0.064-1.249-1.57-1.249-2.37-1.345l-0.224-0.032c-0.032 0-1.185-0.096-1.762-0.16-0.096 0-0.48-0.096-0.48-0.32 0-0.48 0.865-0.448 1.057-0.448 0.288 0 0.961-0.032 0.929 0.512h2.979c0.032-0.128 0.064-0.224 0.064-0.352 0-1.345-1.73-1.602-2.659-1.602-0.577-0.032-0.641-0.064-0.769-0.064zM4.965 11.066c0-0.48-0.352-0.865-0.865-0.865s-0.897 0.384-0.897 0.865c0 0.48 0.384 0.897 0.865 0.897s0.897-0.384 0.897-0.897zM7.335 9.048c0-0.384-0.256-0.865-0.769-0.865-0.48 0-0.705 0.416-0.705 0.801 0 0.352 0.256 0.865 0.769 0.865 0.448 0 0.705-0.448 0.705-0.801zM5.189 22.885c-0.416 0-0.993 0.545-0.993 0.993 0 0.192 0.096 0.32 0.352 0.32 0.288 0 0.705-0.256 0.897-0.641 0.032-0.096 0.064-0.224 0.064-0.256v-0.192c0-0.192-0.192-0.224-0.32-0.224zM3.363 21.828c-0.48 0-1.153 0.48-1.153 1.057 0 0.256 0.192 0.384 0.416 0.384 0.48 0 1.185-0.48 1.185-1.057 0-0.288-0.192-0.384-0.448-0.384zM2.050 15.006c0.448 0 1.057-0.32 1.057-0.961 0-0.48-0.384-0.801-0.833-0.801-0.48 0-1.089 0.352-1.089 0.961 0 0.48 0.384 0.801 0.865 0.801zM2.595 20.227c0-0.384-0.288-0.545-0.577-0.545-0.48 0-1.249 0.448-1.249 1.057 0 0.352 0.256 0.512 0.577 0.512 0.416 0 1.249-0.384 1.249-1.025zM2.274 17.312c0-0.448-0.352-0.641-0.737-0.641-0.032 0-0.032 0-0.16 0-0.545 0.032-1.057 0.512-1.057 1.025 0 0.448 0.416 0.641 0.769 0.641 0.448 0 1.185-0.352 1.185-1.025zM7.239 23.045c-0.416 0-0.897 0.545-0.897 0.897 0 0.064 0 0.16 0.096 0.224 0.128 0.096 0.32 0.096 0.545-0.064 0.288-0.192 0.48-0.577 0.48-0.801 0-0.128-0.064-0.256-0.224-0.256zM12.973 8.471c-0.32 0-0.448 0.545-0.448 0.705s0.064 0.545 0.352 0.545c0.352 0 0.448-0.545 0.448-0.705 0-0.128-0.064-0.545-0.352-0.545zM14.094 9.881c-0.32 0-0.448 0.512-0.448 0.673 0 0.128 0.064 0.448 0.288 0.448 0.32 0 0.448-0.512 0.448-0.673 0-0.096-0.064-0.448-0.288-0.448zM11.307 7.51c-0.384 0-0.512 0.512-0.512 0.737 0 0.16 0.096 0.673 0.48 0.673 0.352 0 0.512-0.48 0.512-0.737 0-0.192-0.096-0.673-0.48-0.673zM10.795 21.476c-0.384 0-0.609 0.545-0.609 0.769 0 0.096 0 0.224 0.192 0.224 0.352 0 0.609-0.545 0.609-0.769 0-0.096-0.064-0.224-0.192-0.224zM9.097 7.318c-0.416 0-0.577 0.513-0.577 0.801s0.192 0.769 0.609 0.769c0.448 0 0.609-0.512 0.609-0.769-0.032-0.32-0.16-0.801-0.641-0.801zM9.097 22.501c-0.384 0-0.705 0.577-0.705 0.865 0 0.128 0.064 0.224 0.192 0.224 0.384 0 0.737-0.545 0.737-0.833 0-0.128-0.032-0.256-0.224-0.256z"></path>
</svg>
