<?xml version="1.0" encoding="utf-8"?>
<!-- Generated by IcoMoon.io -->
<!DOCTYPE svg PUBLIC "-//W3C//DTD SVG 1.1//EN" "http://www.w3.org/Graphics/SVG/1.1/DTD/svg11.dtd">
<svg version="1.1" xmlns="http://www.w3.org/2000/svg" xmlns:xlink="http://www.w3.org/1999/xlink" width="30" height="32" viewBox="0 0 30 32">
<path d="M29.757 11.322q0 0.384-0.48 0.865l-6.502 6.31 1.538 8.937q0.032 0.128 0.032 0.384 0 0.352-0.192 0.609t-0.545 0.288q-0.32 0-0.705-0.224l-8.040-4.228-8.008 4.228q-0.416 0.224-0.737 0.224-0.352 0-0.545-0.288t-0.192-0.609q0-0.128 0.032-0.384l1.537-8.937-6.502-6.31q-0.448-0.48-0.448-0.865 0-0.673 0.993-0.833l8.969-1.281 4.036-8.136q0.352-0.737 0.865-0.737t0.897 0.737l4.004 8.136 8.969 1.281q1.025 0.16 1.025 0.833z"></path>
</svg>
