<?xml version="1.0" encoding="utf-8"?>
<!-- Generated by IcoMoon.io -->
<!DOCTYPE svg PUBLIC "-//W3C//DTD SVG 1.1//EN" "http://www.w3.org/Graphics/SVG/1.1/DTD/svg11.dtd">
<svg version="1.1" xmlns="http://www.w3.org/2000/svg" xmlns:xlink="http://www.w3.org/1999/xlink" width="44" height="32" viewBox="0 0 44 32">
<path d="M0 3.523v8.846c4.558-1.898 10.649-3.805 18.313-5.73 4.911-1.232 9.658-2.267 14.242-3.116h-32.556zM33.725 5.409c-4.444 0.661-8.43 1.438-11.938 2.316-4.016 1.009-7.249 2.028-9.694 3.068-2.448 1.021-3.585 1.847-3.426 2.483 0.144 0.562 1.169 0.817 3.080 0.764 0.984-0.019 2.576-0.127 4.787-0.322s5.065-0.478 8.56-0.848c3.463-0.358 6.332-0.6 8.631-0.74v-6.721zM23.852 16.631c-0.984 0.012-2.338 0.088-4.071 0.215-1.739 0.131-3.891 0.318-6.471 0.585-4.003 0.428-7.335 0.762-9.98 0.979-1.269 0.107-2.371 0.173-3.331 0.227v7.175c5.253-0.768 10.005-1.684 14.242-2.746 4.163-1.043 7.362-2.060 9.61-3.044 2.252-0.984 3.303-1.818 3.128-2.495-0.147-0.583-1.201-0.88-3.128-0.895v0zM33.725 19.15c-4.616 1.808-10.345 3.582-17.191 5.301-6.373 1.598-11.879 2.741-16.534 3.45v0.060h33.725v-8.81zM1.408 20.654c0.017-0.002 0.030-0 0.048 0 0.087 0.003 0.18 0.030 0.239 0.095 0.089 0.092 0.113 0.24 0.060 0.358-0.058 0.136-0.211 0.218-0.358 0.191-0.163-0.024-0.288-0.183-0.274-0.346 0.005-0.154 0.135-0.279 0.286-0.299v0zM2.603 20.654c0.076 0.003 0.147 0.019 0.203 0.072 0.106 0.087 0.147 0.243 0.095 0.37-0.049 0.131-0.182 0.227-0.322 0.215-0.12-0.005-0.239-0.080-0.286-0.191-0.066-0.144-0.012-0.339 0.131-0.418 0.054-0.033 0.116-0.048 0.179-0.048v0zM1.456 22.767c0.142-0.005 0.269 0.095 0.31 0.227 0.044 0.146-0.026 0.33-0.167 0.394-0.142 0.071-0.329 0.026-0.418-0.108-0.091-0.131-0.078-0.327 0.048-0.43 0.062-0.055 0.144-0.085 0.227-0.083v0zM2.603 22.767c0.113-0.006 0.214 0.065 0.275 0.155 0.088 0.137 0.051 0.334-0.083 0.43-0.135 0.103-0.346 0.085-0.454-0.048-0.111-0.132-0.104-0.358 0.036-0.466 0.060-0.050 0.148-0.074 0.227-0.072v0z"></path>
</svg>
