<?xml version="1.0" encoding="utf-8"?>
<!-- Generated by IcoMoon.io -->
<!DOCTYPE svg PUBLIC "-//W3C//DTD SVG 1.1//EN" "http://www.w3.org/Graphics/SVG/1.1/DTD/svg11.dtd">
<svg version="1.1" xmlns="http://www.w3.org/2000/svg" xmlns:xlink="http://www.w3.org/1999/xlink" width="32" height="32" viewBox="0 0 32 32">
<path d="M14.414-0.209c0 0.057-0.142 0.085-0.538 0.105-0.542 0.030-0.62 0.041-0.799 0.119-0.124 0.055-0.226 0.075-0.515 0.11-0.371 0.043-0.403 0.053-0.611 0.151-0.080 0.037-0.206 0.069-0.35 0.087-0.181 0.025-0.252 0.046-0.339 0.098-0.135 0.085-0.151 0.089-0.391 0.13-0.149 0.025-0.217 0.053-0.311 0.114-0.087 0.062-0.16 0.092-0.288 0.112-0.128 0.023-0.201 0.050-0.291 0.112-0.075 0.053-0.178 0.096-0.27 0.117-0.082 0.018-0.174 0.050-0.201 0.071s-0.082 0.062-0.121 0.089c-0.039 0.030-0.13 0.066-0.201 0.082-0.082 0.018-0.16 0.055-0.222 0.108-0.055 0.046-0.151 0.094-0.226 0.117-0.080 0.021-0.167 0.066-0.217 0.112-0.048 0.041-0.14 0.094-0.204 0.114s-0.156 0.066-0.201 0.103c-0.048 0.037-0.133 0.087-0.192 0.112-0.057 0.025-0.146 0.082-0.197 0.126-0.053 0.043-0.144 0.096-0.206 0.117-0.069 0.023-0.13 0.062-0.16 0.103-0.027 0.037-0.096 0.089-0.153 0.117s-0.146 0.082-0.197 0.124c-0.050 0.039-0.128 0.089-0.172 0.112s-0.121 0.075-0.172 0.119c-0.105 0.089-0.256 0.206-0.387 0.297-0.050 0.037-0.124 0.098-0.165 0.14-0.043 0.041-0.119 0.098-0.169 0.128-0.103 0.059-0.853 0.734-1.229 1.11-0.384 0.38-1.091 1.162-1.123 1.245-0.018 0.041-0.075 0.119-0.128 0.176-0.055 0.057-0.121 0.142-0.149 0.19-0.030 0.046-0.071 0.096-0.094 0.108s-0.071 0.075-0.11 0.142c-0.037 0.066-0.096 0.144-0.13 0.174-0.032 0.030-0.075 0.089-0.094 0.133s-0.066 0.117-0.11 0.165c-0.041 0.046-0.096 0.133-0.121 0.19s-0.078 0.126-0.114 0.153c-0.046 0.032-0.080 0.085-0.098 0.156-0.018 0.066-0.071 0.153-0.128 0.22-0.055 0.059-0.11 0.151-0.124 0.201s-0.055 0.128-0.094 0.172c-0.037 0.041-0.094 0.142-0.126 0.222-0.030 0.078-0.085 0.174-0.121 0.213-0.039 0.039-0.082 0.126-0.105 0.199-0.021 0.073-0.071 0.174-0.114 0.224-0.046 0.055-0.087 0.137-0.103 0.21-0.034 0.146-0.057 0.19-0.137 0.284-0.037 0.041-0.075 0.126-0.089 0.194-0.041 0.176-0.069 0.247-0.146 0.357-0.046 0.064-0.080 0.153-0.101 0.263-0.021 0.119-0.053 0.201-0.11 0.284-0.064 0.094-0.089 0.158-0.114 0.32-0.025 0.14-0.062 0.254-0.117 0.364-0.064 0.121-0.092 0.213-0.114 0.38-0.023 0.158-0.053 0.268-0.112 0.389-0.071 0.151-0.085 0.213-0.124 0.549-0.034 0.304-0.057 0.405-0.103 0.494-0.076 0.149-0.101 0.32-0.126 0.808-0.021 0.405-0.050 0.549-0.108 0.549-0.027 0-0.032 0.24-0.032 1.59s0.005 1.59 0.032 1.59c0.055 0 0.085 0.14 0.108 0.501 0.030 0.508 0.057 0.7 0.126 0.847 0.039 0.089 0.069 0.21 0.092 0.391 0.050 0.419 0.076 0.547 0.133 0.661 0.076 0.149 0.101 0.24 0.126 0.442 0.016 0.13 0.043 0.22 0.103 0.336 0.053 0.105 0.094 0.224 0.117 0.355 0.034 0.208 0.053 0.254 0.142 0.371 0.032 0.043 0.066 0.14 0.087 0.247 0.023 0.124 0.055 0.206 0.112 0.286 0.046 0.066 0.094 0.178 0.117 0.275 0.023 0.098 0.069 0.204 0.117 0.27 0.043 0.059 0.101 0.178 0.126 0.265 0.025 0.085 0.075 0.188 0.112 0.229 0.034 0.041 0.082 0.133 0.103 0.206 0.021 0.071 0.071 0.172 0.114 0.222 0.041 0.050 0.094 0.14 0.112 0.199 0.021 0.062 0.073 0.156 0.117 0.21s0.092 0.142 0.108 0.19c0.014 0.050 0.066 0.133 0.114 0.185s0.103 0.144 0.121 0.201c0.021 0.057 0.066 0.135 0.105 0.172s0.096 0.117 0.128 0.181c0.032 0.062 0.087 0.144 0.121 0.183 0.037 0.037 0.087 0.119 0.117 0.178 0.027 0.062 0.071 0.124 0.094 0.137 0.025 0.016 0.080 0.087 0.124 0.16 0.046 0.071 0.092 0.13 0.103 0.13s0.048 0.043 0.082 0.098c0.034 0.053 0.105 0.142 0.158 0.199s0.114 0.142 0.137 0.188c0.048 0.092 0.762 0.885 1.107 1.229 0.325 0.323 1.139 1.062 1.208 1.098 0.034 0.016 0.098 0.066 0.144 0.11s0.13 0.112 0.188 0.151c0.208 0.146 0.325 0.236 0.416 0.316 0.050 0.046 0.128 0.101 0.172 0.124s0.11 0.066 0.146 0.096c0.037 0.030 0.126 0.085 0.197 0.121s0.149 0.092 0.169 0.126c0.021 0.032 0.098 0.085 0.169 0.117s0.167 0.087 0.21 0.121c0.043 0.034 0.128 0.085 0.188 0.112 0.059 0.025 0.146 0.078 0.194 0.114s0.14 0.085 0.204 0.105c0.064 0.021 0.144 0.069 0.181 0.105 0.039 0.041 0.124 0.087 0.215 0.117 0.082 0.027 0.19 0.085 0.238 0.124 0.059 0.050 0.13 0.082 0.224 0.103 0.096 0.021 0.176 0.057 0.256 0.119 0.082 0.059 0.158 0.094 0.252 0.112 0.087 0.018 0.183 0.059 0.268 0.114 0.098 0.066 0.176 0.098 0.311 0.124 0.101 0.018 0.206 0.055 0.238 0.080 0.105 0.082 0.169 0.11 0.366 0.146 0.121 0.023 0.252 0.066 0.348 0.117 0.114 0.059 0.208 0.087 0.382 0.112 0.137 0.021 0.275 0.057 0.339 0.089 0.167 0.085 0.24 0.101 0.629 0.151 0.279 0.037 0.384 0.059 0.476 0.105s0.181 0.066 0.43 0.092c0.172 0.018 0.387 0.034 0.476 0.034 0.181 0 0.394 0.055 0.414 0.105 0.018 0.048 3.29 0.048 3.308 0 0.021-0.050 0.233-0.105 0.414-0.105 0.089 0 0.311-0.016 0.492-0.034 0.272-0.027 0.346-0.043 0.428-0.092 0.098-0.057 0.176-0.073 0.65-0.126 0.167-0.018 0.256-0.043 0.389-0.105 0.121-0.057 0.238-0.092 0.4-0.114 0.126-0.018 0.261-0.050 0.297-0.071 0.039-0.021 0.108-0.057 0.153-0.080 0.046-0.025 0.176-0.059 0.286-0.080 0.158-0.025 0.227-0.050 0.316-0.112 0.080-0.055 0.165-0.087 0.281-0.11s0.204-0.057 0.291-0.114c0.069-0.046 0.197-0.101 0.286-0.126 0.098-0.025 0.199-0.071 0.252-0.114 0.053-0.041 0.151-0.087 0.252-0.114s0.188-0.066 0.227-0.103c0.034-0.032 0.128-0.082 0.21-0.11 0.085-0.027 0.188-0.085 0.243-0.133s0.144-0.098 0.201-0.114c0.057-0.016 0.142-0.059 0.19-0.098 0.046-0.037 0.142-0.094 0.21-0.124 0.069-0.032 0.151-0.080 0.183-0.11s0.114-0.080 0.183-0.11c0.069-0.032 0.158-0.089 0.194-0.13 0.039-0.041 0.114-0.094 0.169-0.117 0.055-0.025 0.135-0.076 0.178-0.114 0.043-0.037 0.119-0.085 0.169-0.105 0.050-0.018 0.11-0.062 0.137-0.096 0.025-0.032 0.096-0.096 0.156-0.14 0.062-0.043 0.156-0.112 0.208-0.149 0.053-0.039 0.146-0.112 0.208-0.165 0.062-0.055 0.142-0.112 0.176-0.13 0.037-0.018 0.080-0.050 0.098-0.073s0.085-0.080 0.146-0.13c0.224-0.176 1.247-1.169 1.526-1.483 0.073-0.080 0.222-0.247 0.332-0.371s0.215-0.254 0.233-0.286c0.016-0.034 0.082-0.114 0.142-0.181 0.062-0.064 0.112-0.13 0.112-0.144s0.039-0.066 0.087-0.121c0.048-0.053 0.11-0.133 0.137-0.176 0.025-0.046 0.076-0.108 0.108-0.137 0.034-0.032 0.087-0.105 0.117-0.165s0.085-0.142 0.121-0.183c0.034-0.041 0.082-0.112 0.105-0.156s0.080-0.124 0.128-0.176c0.050-0.055 0.089-0.114 0.089-0.133 0-0.055 0.080-0.199 0.146-0.261 0.032-0.030 0.071-0.092 0.085-0.137s0.066-0.135 0.114-0.199c0.050-0.064 0.103-0.165 0.121-0.224s0.069-0.146 0.112-0.197c0.053-0.057 0.096-0.137 0.119-0.227 0.023-0.080 0.071-0.174 0.114-0.224 0.050-0.057 0.085-0.133 0.105-0.222 0.018-0.087 0.059-0.174 0.11-0.24s0.098-0.172 0.128-0.279c0.027-0.094 0.082-0.22 0.121-0.279 0.050-0.073 0.085-0.158 0.108-0.284 0.018-0.101 0.055-0.204 0.080-0.236 0.085-0.105 0.11-0.169 0.149-0.378 0.025-0.137 0.062-0.252 0.114-0.346 0.059-0.105 0.087-0.192 0.112-0.366 0.023-0.146 0.064-0.291 0.114-0.41 0.055-0.126 0.087-0.247 0.105-0.389 0.057-0.48 0.069-0.54 0.128-0.654 0.048-0.096 0.066-0.181 0.092-0.43 0.016-0.172 0.032-0.384 0.032-0.474 0-0.181 0.055-0.394 0.105-0.414 0.048-0.018 0.048-3.29 0-3.308-0.053-0.021-0.105-0.22-0.105-0.403 0-0.096-0.016-0.316-0.034-0.487-0.025-0.252-0.046-0.339-0.094-0.435s-0.069-0.192-0.105-0.487c-0.039-0.311-0.057-0.394-0.124-0.54-0.053-0.117-0.089-0.252-0.112-0.398-0.018-0.121-0.050-0.254-0.071-0.293-0.021-0.041-0.057-0.11-0.082-0.156-0.023-0.043-0.057-0.174-0.078-0.286-0.027-0.16-0.050-0.229-0.114-0.32-0.055-0.080-0.089-0.167-0.11-0.277-0.021-0.105-0.059-0.208-0.121-0.311-0.055-0.092-0.103-0.206-0.119-0.291-0.018-0.092-0.050-0.165-0.092-0.213-0.082-0.096-0.105-0.14-0.14-0.286-0.016-0.073-0.057-0.156-0.103-0.21-0.043-0.050-0.094-0.151-0.114-0.224-0.023-0.073-0.066-0.16-0.105-0.199-0.037-0.039-0.092-0.133-0.121-0.21s-0.087-0.181-0.126-0.229c-0.037-0.048-0.085-0.133-0.105-0.19s-0.071-0.14-0.114-0.183c-0.041-0.043-0.098-0.14-0.126-0.213-0.027-0.075-0.073-0.146-0.103-0.167s-0.078-0.085-0.105-0.142c-0.027-0.059-0.085-0.146-0.126-0.192-0.043-0.048-0.092-0.124-0.112-0.169-0.018-0.048-0.078-0.135-0.133-0.192-0.053-0.059-0.126-0.151-0.165-0.206-0.037-0.053-0.103-0.142-0.142-0.199-0.041-0.057-0.101-0.124-0.133-0.149s-0.080-0.089-0.108-0.14c-0.092-0.183-0.988-1.144-1.565-1.677-0.469-0.435-0.764-0.696-0.787-0.696-0.011 0-0.078-0.048-0.146-0.11-0.119-0.103-0.178-0.149-0.421-0.32-0.059-0.041-0.144-0.11-0.188-0.153-0.043-0.041-0.117-0.094-0.16-0.114-0.043-0.023-0.117-0.069-0.16-0.103s-0.135-0.089-0.199-0.124c-0.066-0.032-0.137-0.085-0.156-0.114-0.021-0.030-0.096-0.080-0.169-0.112s-0.169-0.089-0.215-0.128c-0.043-0.039-0.121-0.085-0.172-0.103s-0.14-0.069-0.199-0.114c-0.057-0.046-0.135-0.089-0.167-0.096-0.092-0.023-0.19-0.075-0.272-0.146-0.039-0.037-0.13-0.080-0.199-0.101-0.071-0.021-0.162-0.069-0.206-0.108-0.048-0.041-0.14-0.085-0.229-0.11-0.082-0.023-0.172-0.057-0.201-0.078s-0.076-0.055-0.105-0.075c-0.027-0.021-0.119-0.057-0.204-0.080-0.082-0.023-0.22-0.082-0.302-0.133-0.094-0.055-0.192-0.094-0.261-0.103-0.112-0.014-0.24-0.066-0.373-0.151-0.039-0.025-0.156-0.059-0.261-0.078-0.128-0.023-0.245-0.062-0.35-0.117-0.119-0.064-0.201-0.087-0.355-0.108-0.137-0.016-0.254-0.048-0.378-0.103-0.181-0.080-0.263-0.098-0.714-0.153-0.172-0.021-0.293-0.048-0.38-0.089-0.151-0.069-0.368-0.103-0.782-0.121-0.378-0.016-0.535-0.043-0.572-0.103-0.025-0.041-0.073-0.043-1.611-0.043-1.345 0-1.586 0.005-1.586 0.032zM17.457 2.367c0.297 0.014 0.471 0.032 0.583 0.064 0.24 0.066 0.659 0.137 0.904 0.153 0.229 0.014 0.407 0.059 0.506 0.128 0.059 0.041 0.124 0.059 0.416 0.114 0.073 0.014 0.199 0.059 0.279 0.101 0.078 0.041 0.208 0.089 0.288 0.105 0.149 0.027 0.281 0.082 0.389 0.162 0.032 0.025 0.135 0.059 0.227 0.078 0.092 0.016 0.192 0.050 0.224 0.071 0.14 0.101 0.183 0.121 0.291 0.144 0.066 0.014 0.174 0.064 0.252 0.117 0.073 0.050 0.178 0.103 0.236 0.117 0.055 0.014 0.151 0.059 0.213 0.103 0.062 0.041 0.169 0.096 0.238 0.124 0.069 0.025 0.153 0.075 0.188 0.114 0.037 0.039 0.121 0.085 0.204 0.112 0.087 0.030 0.167 0.075 0.215 0.126 0.041 0.043 0.114 0.092 0.158 0.105 0.046 0.014 0.135 0.064 0.197 0.11 0.064 0.048 0.158 0.105 0.213 0.128s0.119 0.073 0.146 0.108c0.025 0.037 0.103 0.094 0.172 0.126 0.066 0.032 0.133 0.078 0.146 0.101 0.011 0.023 0.071 0.075 0.13 0.114 0.476 0.327 1.766 1.592 2.315 2.274 0.057 0.069 0.146 0.176 0.199 0.238 0.055 0.059 0.114 0.146 0.133 0.192 0.018 0.048 0.066 0.112 0.105 0.149 0.039 0.034 0.098 0.112 0.128 0.176 0.032 0.062 0.092 0.153 0.133 0.199 0.039 0.048 0.085 0.128 0.101 0.178 0.014 0.050 0.062 0.124 0.105 0.162 0.053 0.048 0.094 0.119 0.126 0.215 0.027 0.082 0.076 0.169 0.114 0.206 0.037 0.037 0.085 0.117 0.105 0.181s0.069 0.156 0.108 0.204c0.069 0.087 0.128 0.222 0.13 0.293 0 0.021 0.041 0.094 0.094 0.167 0.055 0.075 0.11 0.19 0.135 0.279 0.023 0.082 0.073 0.194 0.112 0.249 0.046 0.066 0.082 0.156 0.105 0.268 0.021 0.092 0.055 0.192 0.080 0.224 0.085 0.105 0.117 0.185 0.151 0.361 0.021 0.112 0.059 0.217 0.103 0.288 0.039 0.064 0.085 0.183 0.103 0.275 0.018 0.089 0.043 0.213 0.055 0.275 0.014 0.059 0.046 0.14 0.071 0.178 0.073 0.101 0.11 0.249 0.126 0.496 0.011 0.213 0.126 0.84 0.174 0.961 0.046 0.119 0.069 1.043 0.057 2.405-0.011 1.137-0.018 1.412-0.048 1.533-0.096 0.403-0.174 0.81-0.174 0.908-0.002 0.227-0.043 0.428-0.126 0.583-0.057 0.112-0.089 0.217-0.114 0.375-0.027 0.165-0.055 0.256-0.114 0.361-0.043 0.078-0.094 0.215-0.114 0.307-0.034 0.169-0.066 0.245-0.149 0.348-0.025 0.032-0.059 0.13-0.076 0.222-0.023 0.117-0.055 0.199-0.114 0.286-0.046 0.066-0.096 0.181-0.117 0.254-0.018 0.073-0.069 0.188-0.114 0.252-0.046 0.066-0.098 0.176-0.119 0.245-0.018 0.069-0.066 0.165-0.105 0.215-0.039 0.048-0.092 0.14-0.114 0.206-0.025 0.064-0.080 0.162-0.121 0.217-0.043 0.055-0.094 0.146-0.114 0.206-0.018 0.059-0.071 0.144-0.114 0.185s-0.096 0.126-0.114 0.183c-0.021 0.059-0.071 0.149-0.112 0.197s-0.096 0.13-0.124 0.181c-0.025 0.050-0.073 0.117-0.108 0.149s-0.085 0.103-0.114 0.16c-0.030 0.057-0.076 0.124-0.103 0.149-0.030 0.025-0.078 0.087-0.11 0.137-0.030 0.050-0.089 0.128-0.13 0.172s-0.192 0.208-0.334 0.366c-0.545 0.606-1.38 1.416-1.817 1.762-0.071 0.057-0.176 0.146-0.236 0.197-0.059 0.053-0.149 0.117-0.199 0.142s-0.117 0.073-0.149 0.108c-0.032 0.034-0.108 0.087-0.172 0.119-0.062 0.032-0.14 0.082-0.172 0.112-0.032 0.027-0.114 0.078-0.183 0.108-0.069 0.032-0.156 0.089-0.192 0.128-0.041 0.041-0.124 0.089-0.208 0.117-0.082 0.027-0.169 0.076-0.206 0.114-0.037 0.037-0.117 0.085-0.181 0.105s-0.165 0.073-0.224 0.117c-0.059 0.041-0.162 0.094-0.229 0.112-0.066 0.021-0.167 0.071-0.224 0.112s-0.176 0.096-0.263 0.124c-0.089 0.025-0.204 0.078-0.256 0.117-0.064 0.048-0.151 0.082-0.263 0.105-0.108 0.023-0.201 0.057-0.263 0.103-0.059 0.041-0.178 0.089-0.32 0.126-0.124 0.032-0.263 0.082-0.311 0.114-0.078 0.050-0.149 0.071-0.524 0.146-0.062 0.011-0.149 0.048-0.197 0.080-0.105 0.069-0.348 0.124-0.554 0.126-0.135 0-0.535 0.076-0.95 0.176-0.144 0.034-0.339 0.039-1.933 0.039-1.608 0-1.789-0.002-1.933-0.039-0.412-0.103-0.789-0.176-0.915-0.176-0.224 0-0.403-0.039-0.565-0.124-0.103-0.055-0.22-0.092-0.366-0.117-0.151-0.025-0.265-0.062-0.394-0.126-0.101-0.050-0.204-0.092-0.231-0.092-0.092 0-0.27-0.066-0.366-0.135-0.062-0.046-0.156-0.080-0.263-0.103-0.11-0.023-0.206-0.062-0.284-0.114-0.064-0.043-0.172-0.092-0.238-0.105-0.066-0.016-0.174-0.064-0.24-0.11-0.064-0.046-0.178-0.101-0.252-0.124s-0.178-0.076-0.233-0.117c-0.055-0.043-0.146-0.092-0.201-0.108-0.057-0.014-0.151-0.066-0.21-0.117-0.059-0.048-0.149-0.101-0.199-0.112-0.050-0.014-0.135-0.066-0.188-0.117-0.055-0.048-0.142-0.105-0.194-0.124-0.055-0.018-0.135-0.064-0.181-0.101-0.048-0.034-0.14-0.092-0.204-0.126-0.066-0.032-0.137-0.087-0.158-0.117-0.021-0.032-0.094-0.085-0.16-0.117-0.069-0.032-0.135-0.078-0.146-0.101-0.014-0.025-0.073-0.078-0.133-0.117-0.22-0.151-0.643-0.524-1.135-1.004-0.46-0.451-1.144-1.197-1.295-1.419-0.032-0.043-0.080-0.101-0.112-0.124-0.030-0.025-0.078-0.098-0.108-0.165s-0.080-0.14-0.112-0.16c-0.034-0.021-0.087-0.092-0.119-0.156s-0.087-0.151-0.124-0.197c-0.034-0.043-0.080-0.126-0.101-0.183-0.018-0.057-0.064-0.128-0.101-0.16-0.069-0.059-0.124-0.156-0.149-0.254-0.007-0.034-0.048-0.103-0.092-0.156-0.043-0.050-0.096-0.144-0.117-0.208s-0.073-0.156-0.117-0.208c-0.066-0.080-0.124-0.21-0.124-0.286 0-0.016-0.041-0.089-0.094-0.167s-0.11-0.199-0.128-0.272c-0.018-0.071-0.071-0.185-0.114-0.249-0.059-0.085-0.092-0.167-0.112-0.284-0.023-0.114-0.053-0.188-0.098-0.247-0.039-0.050-0.085-0.149-0.105-0.233-0.073-0.288-0.105-0.382-0.137-0.41-0.043-0.037-0.094-0.204-0.124-0.405-0.016-0.11-0.053-0.217-0.108-0.323-0.073-0.14-0.085-0.185-0.103-0.419-0.025-0.307-0.092-0.691-0.176-1.027l-0.062-0.24v-3.432l0.062-0.24c0.034-0.133 0.069-0.293 0.078-0.355 0.009-0.064 0.025-0.14 0.037-0.169 0.011-0.032 0.030-0.197 0.043-0.366 0.027-0.364 0.048-0.458 0.135-0.597 0.046-0.073 0.073-0.167 0.098-0.318 0.025-0.153 0.059-0.265 0.117-0.378 0.046-0.089 0.098-0.238 0.117-0.329 0.037-0.183 0.059-0.233 0.14-0.332 0.030-0.037 0.059-0.087 0.066-0.114 0.005-0.027 0.021-0.11 0.034-0.181 0.016-0.082 0.050-0.162 0.094-0.215 0.037-0.046 0.082-0.142 0.103-0.213 0.048-0.176 0.069-0.222 0.144-0.318 0.037-0.046 0.082-0.142 0.101-0.215 0.018-0.071 0.066-0.169 0.105-0.217 0.039-0.050 0.094-0.146 0.119-0.215s0.078-0.156 0.112-0.192c0.037-0.039 0.089-0.13 0.114-0.206 0.027-0.080 0.080-0.169 0.126-0.217 0.043-0.043 0.094-0.124 0.112-0.176s0.075-0.149 0.126-0.213c0.053-0.066 0.094-0.133 0.094-0.151s0.046-0.082 0.103-0.144c0.055-0.059 0.117-0.144 0.135-0.188s0.069-0.112 0.114-0.156c0.043-0.043 0.108-0.121 0.142-0.176 0.037-0.055 0.071-0.101 0.080-0.101 0.007 0 0.043-0.043 0.078-0.098 0.034-0.053 0.105-0.137 0.158-0.188 0.050-0.050 0.222-0.231 0.38-0.4 0.275-0.295 0.949-0.963 1.119-1.11 0.043-0.039 0.112-0.101 0.149-0.137 0.039-0.039 0.108-0.094 0.151-0.126 0.085-0.057 0.199-0.151 0.384-0.313 0.062-0.055 0.146-0.112 0.19-0.13s0.114-0.071 0.158-0.117c0.043-0.048 0.124-0.103 0.174-0.126 0.053-0.023 0.142-0.078 0.199-0.121 0.059-0.043 0.135-0.087 0.172-0.096 0.037-0.007 0.096-0.046 0.133-0.082 0.071-0.075 0.188-0.142 0.291-0.167 0.034-0.009 0.103-0.050 0.151-0.094 0.048-0.046 0.146-0.101 0.22-0.126 0.071-0.025 0.165-0.075 0.208-0.112 0.043-0.039 0.144-0.089 0.231-0.114 0.087-0.027 0.197-0.080 0.252-0.124 0.059-0.050 0.142-0.087 0.229-0.105 0.075-0.016 0.183-0.064 0.247-0.108 0.075-0.050 0.172-0.089 0.277-0.112 0.108-0.023 0.204-0.062 0.279-0.112 0.080-0.053 0.181-0.092 0.323-0.126 0.114-0.025 0.247-0.073 0.293-0.103 0.096-0.062 0.192-0.092 0.423-0.128 0.092-0.014 0.217-0.055 0.309-0.103 0.162-0.085 0.361-0.126 0.602-0.126 0.135 0 0.494-0.064 0.789-0.144 0.124-0.032 0.291-0.053 0.515-0.062 0.517-0.023 2.46-0.023 2.929 0zM10.708 7.668c-0.595 0.037-0.659 0.046-0.787 0.117-0.066 0.039-0.188 0.087-0.268 0.108-0.172 0.046-0.226 0.071-0.268 0.13-0.016 0.023-0.071 0.062-0.119 0.087-0.144 0.073-0.618 0.572-0.652 0.686-0.009 0.032-0.057 0.128-0.11 0.215-0.082 0.14-0.101 0.192-0.135 0.419-0.027 0.192-0.055 0.288-0.101 0.368-0.089 0.151-0.101 0.35-0.114 1.949-0.014 1.489-0.005 1.391-0.16 1.888-0.030 0.101-0.055 0.22-0.055 0.263 0 0.046-0.023 0.124-0.050 0.176-0.087 0.156-0.316 0.412-0.405 0.451-0.126 0.055-0.375 0.105-0.643 0.128-0.291 0.025-0.403 0.059-0.467 0.144-0.048 0.064-0.048 0.087-0.048 0.986 0 0.847 0.002 0.924 0.041 0.982 0.057 0.087 0.126 0.11 0.405 0.133 0.133 0.011 0.286 0.030 0.343 0.041 0.057 0.014 0.165 0.034 0.24 0.048 0.13 0.025 0.146 0.037 0.316 0.213 0.199 0.206 0.265 0.325 0.268 0.462 0 0.050 0.025 0.162 0.057 0.252 0.030 0.087 0.057 0.176 0.057 0.197s0.021 0.103 0.046 0.181c0.043 0.135 0.046 0.206 0.046 1.21 0 0.586 0.011 1.297 0.025 1.581 0.025 0.499 0.027 0.519 0.094 0.661 0.043 0.092 0.080 0.227 0.101 0.364 0.046 0.297 0.048 0.307 0.137 0.432 0.043 0.059 0.094 0.16 0.114 0.22s0.057 0.121 0.082 0.137c0.025 0.016 0.078 0.076 0.119 0.133 0.073 0.11 0.364 0.387 0.403 0.387 0.014 0 0.069 0.041 0.124 0.092 0.071 0.066 0.144 0.105 0.247 0.135 0.078 0.023 0.208 0.076 0.288 0.117 0.124 0.066 0.178 0.080 0.412 0.101 0.146 0.011 0.551 0.023 0.897 0.025 0.565 0 0.638-0.005 0.693-0.041 0.034-0.021 0.069-0.069 0.078-0.103 0.011-0.034 0.018-0.396 0.018-0.805 0-0.709-0.002-0.748-0.046-0.824-0.064-0.105-0.153-0.135-0.435-0.135-0.213-0.002-0.577-0.043-0.808-0.096-0.213-0.046-0.325-0.204-0.325-0.455 0-0.073-0.011-0.185-0.023-0.245-0.014-0.059-0.032-0.583-0.043-1.162-0.018-0.977-0.023-1.064-0.066-1.201-0.034-0.108-0.055-0.256-0.073-0.549-0.030-0.517-0.037-0.554-0.128-0.739-0.043-0.085-0.094-0.233-0.112-0.329-0.027-0.146-0.048-0.19-0.112-0.256-0.043-0.046-0.101-0.14-0.128-0.213-0.025-0.071-0.064-0.142-0.082-0.158-0.021-0.016-0.066-0.076-0.105-0.133-0.121-0.183-0.43-0.48-0.563-0.545-0.108-0.050-0.121-0.064-0.114-0.117 0.005-0.048 0.034-0.075 0.121-0.124 0.117-0.062 0.448-0.389 0.622-0.613 0.055-0.069 0.114-0.174 0.133-0.231 0.021-0.057 0.066-0.133 0.103-0.169 0.078-0.075 0.105-0.137 0.135-0.32 0.014-0.075 0.059-0.21 0.103-0.297 0.094-0.19 0.098-0.208 0.128-0.721 0.016-0.288 0.037-0.448 0.071-0.561 0.046-0.149 0.050-0.24 0.069-1.199 0.011-0.572 0.030-1.096 0.043-1.165 0.011-0.071 0.023-0.188 0.023-0.259 0-0.073 0.011-0.16 0.025-0.197 0.030-0.080 0.126-0.183 0.215-0.229 0.080-0.043 0.583-0.096 0.911-0.098 0.265 0 0.361-0.032 0.421-0.142 0.037-0.069 0.041-0.144 0.041-0.831 0-0.416-0.007-0.782-0.018-0.817-0.034-0.13-0.087-0.142-0.631-0.144-0.272-0.002-0.551 0-0.62 0.005zM20.262 7.677c-0.21 0.034-0.21 0.037-0.206 1.009 0.005 0.645 0.007 0.709 0.048 0.778 0.057 0.101 0.153 0.13 0.419 0.133 0.284 0.002 0.817 0.057 0.904 0.092 0.078 0.030 0.165 0.103 0.201 0.172 0.014 0.025 0.032 0.128 0.041 0.229s0.030 0.254 0.043 0.343c0.014 0.087 0.034 0.535 0.046 0.995 0.014 0.57 0.032 0.888 0.055 0.998 0.018 0.089 0.039 0.309 0.048 0.492 0.030 0.705 0.043 0.819 0.133 1.018 0.043 0.101 0.092 0.245 0.108 0.318 0.039 0.206 0.066 0.277 0.119 0.323 0.025 0.025 0.078 0.11 0.114 0.19 0.034 0.080 0.096 0.181 0.133 0.224 0.037 0.041 0.085 0.11 0.105 0.151 0.064 0.128 0.398 0.448 0.526 0.508 0.135 0.059 0.156 0.085 0.137 0.16-0.009 0.037-0.046 0.066-0.121 0.094-0.128 0.048-0.485 0.398-0.561 0.547-0.025 0.050-0.076 0.124-0.112 0.16-0.034 0.039-0.080 0.112-0.098 0.167-0.021 0.055-0.071 0.14-0.112 0.19-0.062 0.071-0.087 0.128-0.114 0.272-0.021 0.101-0.076 0.268-0.119 0.371-0.092 0.206-0.11 0.35-0.137 1.048-0.007 0.176-0.027 0.391-0.048 0.476-0.025 0.11-0.041 0.382-0.055 0.988-0.011 0.46-0.032 0.913-0.043 1.007-0.014 0.094-0.030 0.238-0.039 0.32-0.030 0.32-0.128 0.416-0.471 0.46-0.103 0.011-0.197 0.030-0.208 0.037s-0.183 0.021-0.38 0.030c-0.398 0.016-0.478 0.041-0.529 0.16-0.021 0.050-0.030 0.27-0.030 0.831-0.002 0.803 0.002 0.833 0.105 0.89 0.078 0.043 0.972 0.050 1.46 0.011 0.396-0.034 0.407-0.037 0.588-0.126 0.103-0.050 0.227-0.098 0.277-0.108 0.057-0.009 0.128-0.048 0.19-0.101 0.055-0.046 0.144-0.112 0.201-0.144 0.16-0.092 0.49-0.474 0.542-0.627 0.016-0.046 0.055-0.117 0.082-0.156 0.092-0.119 0.11-0.172 0.156-0.421 0.023-0.133 0.073-0.309 0.11-0.391 0.062-0.14 0.069-0.185 0.092-0.574 0.014-0.233 0.025-0.929 0.025-1.547v-1.126l0.094-0.361c0.101-0.389 0.103-0.398 0.124-0.563 0.016-0.114 0.108-0.252 0.329-0.483 0.108-0.112 0.252-0.176 0.396-0.176 0.037 0 0.085-0.009 0.108-0.021 0.021-0.011 0.165-0.032 0.318-0.043 0.194-0.016 0.297-0.034 0.339-0.062 0.119-0.078 0.124-0.121 0.124-1.068 0-0.789-0.005-0.885-0.041-0.956-0.050-0.103-0.142-0.133-0.474-0.16-0.302-0.025-0.595-0.089-0.696-0.151-0.041-0.027-0.112-0.098-0.158-0.162s-0.114-0.151-0.149-0.197c-0.043-0.055-0.071-0.126-0.087-0.224-0.025-0.146-0.034-0.183-0.16-0.684l-0.066-0.263v-1.155c-0.002-0.682-0.014-1.32-0.032-1.556-0.025-0.355-0.034-0.414-0.089-0.519-0.037-0.071-0.078-0.22-0.108-0.378-0.039-0.213-0.059-0.279-0.124-0.373-0.043-0.064-0.094-0.153-0.114-0.201-0.059-0.146-0.435-0.565-0.567-0.634-0.046-0.025-0.128-0.085-0.185-0.133-0.076-0.064-0.144-0.101-0.256-0.128-0.082-0.021-0.208-0.071-0.277-0.11-0.121-0.066-0.144-0.071-0.554-0.098-0.474-0.032-1.144-0.037-1.318-0.009zM11.771 14.594c-0.037 0.016-0.089 0.053-0.114 0.082-0.025 0.027-0.087 0.071-0.137 0.096-0.119 0.062-0.343 0.291-0.389 0.4-0.021 0.048-0.071 0.137-0.114 0.201-0.066 0.094-0.082 0.144-0.094 0.277-0.021 0.226 0.005 0.403 0.073 0.494 0.030 0.041 0.080 0.13 0.112 0.199 0.062 0.13 0.281 0.368 0.412 0.448 0.041 0.025 0.114 0.076 0.162 0.114l0.085 0.069 0.382 0.007c0.378 0.007 0.382 0.007 0.448-0.048 0.037-0.032 0.128-0.094 0.204-0.137 0.144-0.085 0.268-0.201 0.357-0.339 0.030-0.046 0.082-0.124 0.117-0.172 0.053-0.073 0.069-0.13 0.085-0.302 0.023-0.208 0.002-0.54-0.037-0.634-0.066-0.165-0.373-0.506-0.542-0.606-0.064-0.039-0.151-0.096-0.194-0.126-0.073-0.055-0.092-0.057-0.412-0.057-0.226 0.002-0.357 0.011-0.403 0.032zM15.613 14.605c-0.041 0.025-0.080 0.055-0.089 0.069-0.007 0.014-0.057 0.048-0.11 0.073-0.124 0.062-0.35 0.281-0.41 0.398-0.025 0.050-0.078 0.126-0.112 0.167-0.089 0.101-0.094 0.13-0.085 0.515l0.007 0.334 0.071 0.076c0.041 0.041 0.096 0.121 0.124 0.178 0.064 0.13 0.236 0.309 0.355 0.371 0.050 0.025 0.126 0.078 0.167 0.112 0.041 0.037 0.098 0.071 0.128 0.080 0.030 0.007 0.213 0.009 0.41 0.005 0.35-0.007 0.357-0.007 0.421-0.069 0.034-0.032 0.128-0.096 0.204-0.142 0.156-0.092 0.259-0.197 0.332-0.341 0.027-0.053 0.085-0.135 0.126-0.183l0.078-0.085v-0.368c0-0.394-0.005-0.412-0.128-0.554-0.043-0.046-0.078-0.101-0.078-0.121 0-0.057-0.245-0.3-0.355-0.35-0.055-0.025-0.14-0.080-0.185-0.121l-0.085-0.075-0.357-0.007c-0.32-0.005-0.364-0.002-0.428 0.039zM19.502 14.589c-0.323 0.199-0.526 0.378-0.68 0.599-0.142 0.204-0.16 0.291-0.149 0.664l0.007 0.304 0.112 0.169c0.14 0.213 0.311 0.391 0.46 0.48 0.064 0.039 0.149 0.094 0.192 0.126 0.076 0.053 0.094 0.055 0.437 0.055 0.348 0 0.361-0.002 0.437-0.057 0.043-0.032 0.108-0.076 0.146-0.096 0.13-0.078 0.405-0.359 0.448-0.46 0.025-0.055 0.078-0.146 0.119-0.204 0.069-0.098 0.073-0.117 0.080-0.332 0.011-0.288-0.002-0.359-0.089-0.467-0.039-0.050-0.092-0.135-0.117-0.192-0.053-0.124-0.27-0.352-0.396-0.416-0.050-0.025-0.126-0.078-0.167-0.119l-0.076-0.071-0.359-0.007c-0.261-0.005-0.373 0.002-0.407 0.023z"></path>
</svg>
