<?xml version="1.0" encoding="utf-8"?>
<!-- Generated by IcoMoon.io -->
<!DOCTYPE svg PUBLIC "-//W3C//DTD SVG 1.1//EN" "http://www.w3.org/Graphics/SVG/1.1/DTD/svg11.dtd">
<svg version="1.1" xmlns="http://www.w3.org/2000/svg" xmlns:xlink="http://www.w3.org/1999/xlink" width="31" height="32" viewBox="0 0 31 32">
<path d="M25.579 7.491l-0.002-0.002-4.67 1.7 0.863-4.895-3.816-3.202-4.681 1.704-0.863 4.895-3.808-3.195-4.681 1.704-0.865 4.906 3.807 3.195-4.671 1.7-0.865 4.906 3.816 3.202 4.67-1.7-0.863 4.895 3.816 3.202 4.681-1.704 0.863-4.895 3.807 3.195 4.681-1.704 0.865-4.906-3.807-3.195 4.671-1.7 0.865-4.906-3.814-3.201zM14.506 20.701l4.659-1.696-0.861 4.883-3.798-3.187zM16.214 10.896l-4.659 1.696 0.861-4.883 3.798 3.187zM6.882 14.304l4.66-1.696-0.861 4.883-3.798-3.187zM14.486 20.697l-4.66 1.696 0.861-4.883 3.798 3.187zM10.69 17.499l0.863-4.895 4.67-1.7 3.807 3.195-0.863 4.895-4.67 1.7-3.807-3.195zM20.040 14.106l3.798 3.187-4.66 1.696 0.861-4.883zM16.234 10.9l4.66-1.696-0.861 4.883-3.798-3.187zM13.281 2.803l4.67-1.7 3.807 3.195-0.863 4.895-4.67 1.7-3.807-3.195 0.863-4.895zM3.066 11.102l0.863-4.895 4.67-1.7 3.807 3.195-0.863 4.895-4.67 1.7-3.807-3.195zM5.145 24.097l-3.807-3.195 0.863-4.895 4.67-1.7 3.807 3.195-0.863 4.895-4.67 1.7zM17.439 28.794l-4.67 1.7-3.807-3.195 0.863-4.895 4.67-1.7 3.807 3.195-0.863 4.895zM27.654 20.496l-0.863 4.895-4.67 1.7-3.807-3.195 0.863-4.895 4.67-1.7 3.807 3.195zM28.519 15.589l-4.67 1.7-3.808-3.195 0.863-4.895 4.67-1.7 3.807 3.195-0.863 4.895zM28.573 11.663l-11.436-9.595c-0.536-0.45-0.606-1.249-0.156-1.785s1.249-0.606 1.785-0.156l11.436 9.596c0.536 0.45 0.606 1.249 0.156 1.785-0.251 0.299-0.61 0.453-0.971 0.453-0.287 0-0.576-0.097-0.814-0.296zM12.59 31.767c-0.52 0-1.007-0.322-1.193-0.839-0.237-0.658 0.105-1.384 0.764-1.621l14.205-5.106c0.658-0.237 1.384 0.105 1.621 0.764s-0.105 1.384-0.764 1.621l-14.205 5.106c-0.141 0.051-0.286 0.075-0.428 0.075v0zM1.334 22.317c-0.072 0-0.146-0.006-0.219-0.019-0.69-0.12-1.151-0.777-1.030-1.466l2.592-14.847c0.12-0.689 0.777-1.151 1.466-1.030s1.151 0.777 1.030 1.466l-2.592 14.847c-0.107 0.616-0.642 1.049-1.247 1.049v0zM7.738 10.669c-0.073 0-0.147-0.006-0.222-0.019-0.689-0.121-1.149-0.779-1.028-1.468l0.864-4.9c0.121-0.689 0.778-1.15 1.468-1.028s1.149 0.779 1.028 1.468l-0.864 4.9c-0.108 0.615-0.643 1.047-1.246 1.047v0zM5.146 25.37c-0.073 0-0.147-0.006-0.222-0.019-0.689-0.122-1.149-0.779-1.028-1.468l0.864-4.9c0.121-0.689 0.778-1.148 1.468-1.028 0.689 0.122 1.149 0.779 1.028 1.468l-0.864 4.9c-0.108 0.615-0.643 1.047-1.246 1.047v0zM17.088 7.265c-0.287 0-0.576-0.097-0.814-0.296l-3.812-3.198c-0.536-0.45-0.606-1.249-0.156-1.785s1.249-0.606 1.785-0.156l3.812 3.199c0.536 0.45 0.606 1.249 0.156 1.785-0.251 0.299-0.61 0.453-0.971 0.453v0zM28.523 16.86c-0.287 0-0.576-0.097-0.814-0.296l-3.812-3.198c-0.536-0.45-0.606-1.249-0.156-1.785s1.249-0.606 1.785-0.156l3.812 3.199c0.536 0.45 0.606 1.249 0.156 1.785-0.251 0.299-0.61 0.453-0.971 0.453v0zM22.984 23.463c-0.517 0-1.003-0.32-1.191-0.834-0.239-0.658 0.1-1.385 0.757-1.624l4.676-1.702c0.658-0.239 1.385 0.1 1.624 0.757s-0.1 1.385-0.757 1.624l-4.676 1.702c-0.143 0.052-0.289 0.077-0.433 0.077v0zM14.495 21.966c-0.287 0-0.576-0.097-0.814-0.296l-3.812-3.198c-0.536-0.45-0.606-1.249-0.156-1.785s1.249-0.605 1.785-0.156l3.812 3.198c0.536 0.45 0.606 1.249 0.156 1.785-0.251 0.299-0.61 0.453-0.971 0.453v0zM19.173 20.264c-0.073 0-0.147-0.006-0.222-0.019-0.689-0.122-1.149-0.779-1.028-1.468l0.864-4.9c0.122-0.689 0.778-1.15 1.468-1.028s1.149 0.779 1.028 1.468l-0.864 4.9c-0.108 0.615-0.643 1.047-1.246 1.047v0zM11.548 13.868c-0.518 0-1.004-0.319-1.191-0.834-0.239-0.658 0.1-1.385 0.757-1.624l4.676-1.702c0.657-0.239 1.385 0.1 1.624 0.757s-0.1 1.385-0.757 1.624l-4.676 1.702c-0.143 0.052-0.289 0.077-0.433 0.077v0zM8.956 28.569c-0.518 0-1.003-0.32-1.191-0.834-0.239-0.657 0.1-1.385 0.757-1.624l4.676-1.702c0.658-0.24 1.385 0.1 1.624 0.757s-0.1 1.385-0.757 1.624l-4.676 1.702c-0.143 0.052-0.289 0.077-0.433 0.077v0z"></path>
</svg>
