<?xml version="1.0" encoding="utf-8"?>
<!-- Generated by IcoMoon.io -->
<!DOCTYPE svg PUBLIC "-//W3C//DTD SVG 1.1//EN" "http://www.w3.org/Graphics/SVG/1.1/DTD/svg11.dtd">
<svg version="1.1" xmlns="http://www.w3.org/2000/svg" xmlns:xlink="http://www.w3.org/1999/xlink" width="32" height="32" viewBox="0 0 32 32">
<path d="M0.363 4.038c0.056 0.063 0.938 0.951 1.958 1.971l1.858 1.852h8.083l2.847 2.847-2.065 2.065c-1.132 1.139-2.083 2.065-2.102 2.065s-0.676-0.632-1.451-1.408l-1.408-1.408v-0.895c0-0.488-0.006-0.988-0.006-1.107l-0.006-0.219h-3.91l-0.013 3.879 3.259 3.259c1.789 1.796 3.316 3.322 3.378 3.397 0.119 0.131 0.119 0.131-1.232 1.483-0.751 0.744-1.358 1.37-1.358 1.389 0 0.025 0.982 1.032 2.19 2.233l2.19 2.19h9.603c5.28 0 9.603-0.006 9.603-0.019s-0.876-0.901-1.946-1.971l-1.946-1.952h-13.688l-3.253-3.253 1.376-1.376 2.69 2.69h2.784c1.533 0 2.784-0.006 2.784-0.012s-1.226-1.239-2.734-2.74l-2.728-2.734 0.694-0.688 0.688-0.694 2.728 2.728c1.501 1.495 2.734 2.703 2.734 2.684 0.006-0.025 0.012-1.27 0.019-2.765l0.012-2.721-1.345-1.364-1.351-1.358 0.657-0.657c0.363-0.363 0.682-0.657 0.707-0.657 0.031 0 0.776 0.726 1.658 1.608l1.608 1.602 0.006 3.822c0.006 2.102 0.012 3.854 0.019 3.885 0.006 0.075 3.835 0.094 3.885 0.025 0.019-0.025 0.031-2.146 0.031-4.711v-4.667l-2.19-2.19c-1.201-1.207-2.208-2.19-2.227-2.19-0.025 0-0.657 0.619-1.408 1.37l-1.37 1.376-6.788-6.782h-6.813c-6.688 0-6.813 0-6.713 0.119z"></path>
</svg>
