<?xml version="1.0" encoding="UTF-8"?>
<!DOCTYPE svg PUBLIC "-//W3C//DTD SVG 1.1//EN" "http://www.w3.org/Graphics/SVG/1.1/DTD/svg11.dtd">
<svg xmlns="http://www.w3.org/2000/svg" version="1.1" width="360px" height="360px"
  style="shape-rendering:geometricPrecision; text-rendering:geometricPrecision; image-rendering:optimizeQuality; fill-rule:evenodd; clip-rule:evenodd"
  xmlns:xlink="http://www.w3.org/1999/xlink">

  <style>
    :root{
      --kd-fg1:#0066cc;
      --kd-fg2:#ffcc00;
    }
    .fg1{fill:var(--kd-fg1)}
    .fg2{fill:var(--kd-fg2)}
  </style>

  <g><path class="fg1" d="M 249.5,284.5 C 244.88,273.641 236.88,266.141 225.5,262C 219.5,261.333 213.5,261.333 207.5,262C 196.512,264.997 185.845,268.83 175.5,273.5C 183.835,274.899 192.168,276.233 200.5,277.5C 181.4,279.625 162.733,284.125 144.5,291C 141.199,291.997 137.866,292.33 134.5,292C 143.867,286.305 152.367,279.472 160,271.5C 160.483,270.552 160.649,269.552 160.5,268.5C 143.036,264.578 127.036,257.578 112.5,247.5C 117.518,245.771 122.518,243.938 127.5,242C 120.833,241.667 114.167,241.333 107.5,241C 101.932,239.609 97.599,236.443 94.5,231.5C 99.6432,230.875 104.643,229.708 109.5,228C 100.901,227.082 92.9008,224.415 85.5,220C 80.642,215.977 78.642,210.977 79.5,205C 85.7362,203.255 91.7362,200.922 97.5,198C 88.8333,197.667 80.1667,197.333 71.5,197C 65.9977,196.089 61.6644,193.422 58.5,189C 63.0447,188.293 67.378,186.96 71.5,185C 64.7893,182.765 58.456,179.765 52.5,176C 46.5331,170.083 42.3664,163.25 40,155.5C 46.5695,158.516 53.4029,160.35 60.5,161C 44.544,150.221 34.8773,135.387 31.5,116.5C 32.365,115.417 33.365,115.251 34.5,116C 41.0687,123.239 48.2354,129.739 56,135.5C 52.1807,128.948 48.1807,122.282 44,115.5C 38.4787,105.094 36.312,94.0944 37.5,82.5C 45.7871,91.9572 54.2871,101.29 63,110.5C 60.0729,101.942 57.0729,93.2756 54,84.5C 51.3439,74.6009 50.5105,64.6009 51.5,54.5C 52.8221,54.33 53.9887,54.6634 55,55.5C 68.5297,80.5703 84.5297,103.904 103,125.5C 132.912,155.756 165.579,182.423 201,205.5C 202.643,214.748 201.143,223.415 196.5,231.5C 196.833,231.833 197.167,232.167 197.5,232.5C 204.841,228.157 210.841,222.49 215.5,215.5C 238.517,220.354 254.351,233.688 263,255.5C 267.397,270.039 264.397,282.705 254,293.5C 254.03,289.558 252.53,286.558 249.5,284.5 Z"/></g>

  <g><path class="fg2" d="M 315.5,96.5 C 317.768,109.46 316.101,122.293 310.5,135C 310.667,135.5 310.833,136 311,136.5C 314.762,128.629 319.262,121.296 324.5,114.5C 320.566,154.303 303.233,187.136 272.5,213C 266.167,217.5 259.833,222 253.5,226.5C 242.622,217.393 230.289,210.893 216.5,207C 213.532,203.853 210.198,201.186 206.5,199C 204.671,197.887 203.837,196.387 204,194.5C 217.608,185.612 230.775,176.112 243.5,166C 244.448,165.517 245.448,165.351 246.5,165.5C 246.336,168.187 246.503,170.854 247,173.5C 252.472,161.22 258.972,149.553 266.5,138.5C 267.799,139.09 268.632,140.09 269,141.5C 269.333,146.5 269.667,151.5 270,156.5C 274.828,146.841 280.161,137.508 286,128.5C 288.358,124.642 291.525,121.642 295.5,119.5C 295.833,120.333 296.167,121.167 296.5,122C 295.03,129.053 293.197,135.887 291,142.5C 296.378,132.374 301.378,122.041 306,111.5C 308.678,106.134 311.844,101.134 315.5,96.5 Z"/></g>

  <g><path class="fg2" d="M 100.5,251.5 C 114.968,259.715 129.968,266.882 145.5,273C 134.794,282.709 123.794,292.042 112.5,301C 106.151,304.093 99.4845,305.093 92.5,304C 97.084,301.42 101.084,298.087 104.5,294C 96.2068,297.069 87.5401,298.903 78.5,299.5C 72.7597,300.462 68.4264,298.462 65.5,293.5C 77.161,290.667 88.161,286.167 98.5,280C 99.6956,279.346 99.6956,278.846 98.5,278.5C 87.2631,283.934 75.4298,287.268 63,288.5C 59.0216,288.428 55.5216,287.094 52.5,284.5C 53.376,283.749 54.376,283.249 55.5,283C 51.6747,282.294 48.0081,281.128 44.5,279.5C 43.6143,278.675 43.281,277.675 43.5,276.5C 64.043,271.439 83.043,263.106 100.5,251.5 Z"/></g>

  <g><path class="fg2" d="M 247.5,258.5 C 253.227,258.832 254.893,261.332 252.5,266C 247.248,266.01 245.581,263.51 247.5,258.5 Z"/></g>

  <g><path class="fg2" d="M 249.5,284.5 C 244.758,282.137 239.758,280.303 234.5,279C 223.191,277.914 211.858,277.414 200.5,277.5C 192.168,276.233 183.835,274.899 175.5,273.5C 185.845,268.83 196.512,264.997 207.5,262C 213.5,261.333 219.5,261.333 225.5,262C 236.88,266.141 244.88,273.641 249.5,284.5 Z"/></g>

  <g><path class="fg2" d="M 251.5,282.5 C 253.847,281.105 256.181,281.272 258.5,283C 257.789,284.255 256.956,285.421 256,286.5C 254.629,284.959 253.129,283.625 251.5,282.5 Z"/></g>
</svg>
